<?xml version="1.0" encoding="UTF-8"?><svg xmlns="http://www.w3.org/2000/svg" xmlns:xlink="http://www.w3.org/1999/xlink" fill-opacity="1" color-rendering="auto" color-interpolation="auto" text-rendering="auto" stroke="black" stroke-linecap="square" width="1859" stroke-miterlimit="10" shape-rendering="auto" stroke-opacity="1" fill="black" stroke-dasharray="none" font-weight="normal" stroke-width="1" height="1072" font-family="'Dialog'" font-style="normal" stroke-linejoin="miter" font-size="12px" stroke-dashoffset="0" image-rendering="auto">
  <!--Generated by ySVG 2.6-->
  <defs id="genericDefs"/>
  <g>
    <defs id="defs1">
      <linearGradient x1="-263.4809" gradientUnits="userSpaceOnUse" x2="-263.4809" y1="-136.3119" y2="390.6881" id="linearGradient1" spreadMethod="pad">
        <stop stop-opacity="1" stop-color="rgb(238,238,238)" offset="0%"/>
        <stop stop-opacity="1" stop-color="rgb(238,238,238)" offset="100%"/>
      </linearGradient>
      <linearGradient x1="-225.0324" gradientUnits="userSpaceOnUse" x2="-225.0324" y1="-9.0633" y2="442.9367" id="linearGradient2" spreadMethod="pad">
        <stop stop-opacity="1" stop-color="white" offset="0%"/>
        <stop stop-opacity="1" stop-color="white" offset="100%"/>
      </linearGradient>
      <clipPath clipPathUnits="userSpaceOnUse" id="clipPath1">
        <path d="M0 0 L1859 0 L1859 1072 L0 1072 L0 0 Z"/>
      </clipPath>
      <clipPath clipPathUnits="userSpaceOnUse" id="clipPath2">
        <path d="M-612 -146 L1247 -146 L1247 926 L-612 926 L-612 -146 Z"/>
      </clipPath>
    </defs>
    <g fill="rgb(238,238,238)" text-rendering="geometricPrecision" shape-rendering="geometricPrecision" transform="matrix(1,0,0,1,612,146)" stroke="rgb(238,238,238)">
      <path d="M-263.4809 388.6881 L1236.519 388.6881 L1236.519 894.6881 Q1236.519 914.6881 1216.519 914.6881 L-243.4809 914.6881 Q-263.4809 914.6881 -263.4809 894.6881 Z" stroke="none" clip-path="url(#clipPath2)"/>
      <path fill="url(#linearGradient1)" d="M-263.4809 -115.3119 Q-263.4809 -135.3119 -243.4809 -135.3119 L1216.519 -135.3119 Q1236.519 -135.3119 1236.519 -115.3119 L1236.519 389.6881 L-263.4809 389.6881 Z" clip-path="url(#clipPath2)" stroke="none"/>
      <path fill="none" d="M-261.4809 -115.3119 Q-261.4809 -133.3119 -243.4809 -133.3119 L1216.519 -133.3119 Q1234.519 -133.3119 1234.519 -115.3119 L1234.519 894.6881 Q1234.519 912.6881 1216.519 912.6881 L-243.4809 912.6881 Q-261.4809 912.6881 -261.4809 894.6881 Z" stroke-width="2" clip-path="url(#clipPath2)" stroke="rgb(202,202,202)"/>
      <path fill="none" d="M-261.4809 -115.3119 Q-261.4809 -133.3119 -243.4809 -133.3119 L1216.519 -133.3119 Q1234.519 -133.3119 1234.519 -115.3119 L1234.519 894.6881 Q1234.519 912.6881 1216.519 912.6881 L-243.4809 912.6881 Q-261.4809 912.6881 -261.4809 894.6881 Z" clip-path="url(#clipPath2)" stroke="black"/>
    </g>
    <g font-size="38px" stroke-linecap="butt" transform="matrix(1,0,0,1,612,146)" text-rendering="geometricPrecision" font-family="'Comic Sans MS'" shape-rendering="geometricPrecision" stroke-miterlimit="1.45">
      <text x="595.0808" xml:space="preserve" y="-58.4533" clip-path="url(#clipPath2)" stroke="none">EVM (Ethereum Virtual Machine)</text>
    </g>
    <g fill="white" text-rendering="geometricPrecision" shape-rendering="geometricPrecision" transform="matrix(1,0,0,1,612,146)" stroke="white">
      <path d="M-225.0324 440.9367 L974.9676 440.9367 L974.9676 871.9368 Q974.9676 891.9368 954.9676 891.9368 L-205.0324 891.9368 Q-225.0324 891.9368 -225.0324 871.9368 Z" stroke="none" clip-path="url(#clipPath2)"/>
      <path fill="url(#linearGradient2)" d="M-225.0324 11.9367 Q-225.0324 -8.0633 -205.0324 -8.0633 L954.9676 -8.0633 Q974.9676 -8.0633 974.9676 11.9367 L974.9676 441.9367 L-225.0324 441.9367 Z" clip-path="url(#clipPath2)" stroke="none"/>
      <path fill="none" d="M-223.0324 11.9367 Q-223.0324 -6.0633 -205.0324 -6.0633 L954.9676 -6.0633 Q972.9676 -6.0633 972.9676 11.9367 L972.9676 871.9368 Q972.9676 889.9368 954.9676 889.9368 L-205.0324 889.9368 Q-223.0324 889.9368 -223.0324 871.9368 Z" stroke-width="2" clip-path="url(#clipPath2)" stroke="rgb(224,224,224)"/>
      <path fill="none" d="M-223.0324 11.9367 Q-223.0324 -6.0633 -205.0324 -6.0633 L954.9676 -6.0633 Q972.9676 -6.0633 972.9676 11.9367 L972.9676 871.9368 Q972.9676 889.9368 954.9676 889.9368 L-205.0324 889.9368 Q-223.0324 889.9368 -223.0324 871.9368 Z" clip-path="url(#clipPath2)" stroke="rgb(51,51,51)"/>
    </g>
    <g font-size="38px" stroke-linecap="butt" transform="matrix(1,0,0,1,612,146)" text-rendering="geometricPrecision" font-family="'Comic Sans MS'" shape-rendering="geometricPrecision" stroke-miterlimit="1.45">
      <text x="804.9681" xml:space="preserve" y="64.0838" clip-path="url(#clipPath2)" stroke="none">Ledger</text>
    </g>
    <g fill="rgb(255,255,153)" text-rendering="geometricPrecision" shape-rendering="geometricPrecision" transform="matrix(1,0,0,1,612,146)" stroke="rgb(255,255,153)">
      <rect x="-94.5" width="135" height="90" y="83" clip-path="url(#clipPath2)" stroke="none"/>
    </g>
    <g stroke-linecap="butt" transform="matrix(1,0,0,1,612,146)" fill="rgb(153,153,153)" text-rendering="geometricPrecision" shape-rendering="geometricPrecision" stroke="rgb(153,153,153)" stroke-width="3" stroke-miterlimit="1.45">
      <rect fill="none" x="-94.5" width="135" height="90" y="83" clip-path="url(#clipPath2)"/>
    </g>
    <g font-size="22px" stroke-linecap="butt" transform="matrix(1,0,0,1,612,146)" text-rendering="geometricPrecision" font-family="'Comic Sans MS'" shape-rendering="geometricPrecision" stroke-miterlimit="1.45">
      <text x="-88.5" xml:space="preserve" y="121.5869" clip-path="url(#clipPath2)" stroke="none">balance : 31</text>
      <text x="-88.5" xml:space="preserve" y="152.2451" clip-path="url(#clipPath2)" stroke="none">nonce : 7</text>
    </g>
    <g fill="green" text-rendering="geometricPrecision" shape-rendering="geometricPrecision" transform="matrix(1,0,0,1,612,146)" stroke="green">
      <circle r="15" clip-path="url(#clipPath2)" cx="-132" cy="128" stroke="none"/>
    </g>
    <g stroke-linecap="butt" transform="matrix(1,0,0,1,612,146)" fill="rgb(204,255,204)" text-rendering="geometricPrecision" shape-rendering="geometricPrecision" stroke="rgb(204,255,204)" stroke-width="3" stroke-miterlimit="1.45">
      <circle fill="none" r="15" clip-path="url(#clipPath2)" cx="-132" cy="128"/>
    </g>
    <g font-size="32px" stroke-linecap="butt" transform="matrix(1,0,0,1,612,146)" text-rendering="geometricPrecision" font-family="'Comic Sans MS'" shape-rendering="geometricPrecision" stroke-miterlimit="1.45">
      <text x="-200.5781" xml:space="preserve" y="53.0781" clip-path="url(#clipPath2)" stroke="none">address: </text>
      <text x="-200.5781" xml:space="preserve" y="97.6719" clip-path="url(#clipPath2)" stroke="none">101</text>
    </g>
    <g fill="rgb(255,255,153)" text-rendering="geometricPrecision" shape-rendering="geometricPrecision" transform="matrix(1,0,0,1,612,146)" stroke="rgb(255,255,153)">
      <rect x="262.4515" width="180" height="160" y="242.2912" clip-path="url(#clipPath2)" stroke="none"/>
    </g>
    <g stroke-linecap="butt" transform="matrix(1,0,0,1,612,146)" fill="rgb(153,153,153)" text-rendering="geometricPrecision" shape-rendering="geometricPrecision" stroke="rgb(153,153,153)" stroke-width="3" stroke-miterlimit="1.45">
      <rect fill="none" x="262.4515" width="180" height="160" y="242.2912" clip-path="url(#clipPath2)"/>
    </g>
    <g font-size="18px" stroke-linecap="butt" transform="matrix(1,0,0,1,612,146)" text-rendering="geometricPrecision" font-family="'Comic Sans MS'" shape-rendering="geometricPrecision" stroke-miterlimit="1.45">
      <text x="274.4515" xml:space="preserve" y="266.8761" clip-path="url(#clipPath2)" stroke="none">code : 0x10010...</text>
      <text x="274.4515" xml:space="preserve" y="291.9601" clip-path="url(#clipPath2)" stroke="none">states :</text>
      <text x="274.4515" xml:space="preserve" y="317.0441" clip-path="url(#clipPath2)" stroke="none">  total : 1000000</text>
      <text x="274.4515" xml:space="preserve" y="342.1281" clip-path="url(#clipPath2)" stroke="none">  balances[acct] : ...</text>
      <text x="274.4515" xml:space="preserve" y="367.2121" clip-path="url(#clipPath2)" stroke="none">  paused : false</text>
      <text x="274.4515" xml:space="preserve" y="392.2961" clip-path="url(#clipPath2)" stroke="none">  minter : 0x...</text>
    </g>
    <g fill="blue" text-rendering="geometricPrecision" shape-rendering="geometricPrecision" transform="matrix(1,0,0,1,612,146)" stroke="blue">
      <circle r="15" clip-path="url(#clipPath2)" cx="237.4515" cy="322.2912" stroke="none"/>
    </g>
    <g stroke-linecap="butt" transform="matrix(1,0,0,1,612,146)" fill="rgb(153,204,255)" text-rendering="geometricPrecision" shape-rendering="geometricPrecision" stroke="rgb(153,204,255)" stroke-width="3" stroke-miterlimit="1.45">
      <circle fill="none" r="15" clip-path="url(#clipPath2)" cx="237.4515" cy="322.2912"/>
    </g>
    <g font-size="32px" stroke-linecap="butt" transform="matrix(1,0,0,1,612,146)" text-rendering="geometricPrecision" font-family="'Comic Sans MS'" shape-rendering="geometricPrecision" stroke-miterlimit="1.45">
      <text x="88.8577" xml:space="preserve" y="312.963" clip-path="url(#clipPath2)" stroke="none">address:</text>
      <text x="88.8577" xml:space="preserve" y="357.5568" clip-path="url(#clipPath2)" stroke="none">322</text>
    </g>
    <g fill="rgb(255,255,153)" text-rendering="geometricPrecision" shape-rendering="geometricPrecision" transform="matrix(1,0,0,1,612,146)" stroke="rgb(255,255,153)">
      <rect x="-87.7377" width="135" height="90" y="292.2912" clip-path="url(#clipPath2)" stroke="none"/>
    </g>
    <g stroke-linecap="butt" transform="matrix(1,0,0,1,612,146)" fill="rgb(153,153,153)" text-rendering="geometricPrecision" shape-rendering="geometricPrecision" stroke="rgb(153,153,153)" stroke-width="3" stroke-miterlimit="1.45">
      <rect fill="none" x="-87.7377" width="135" height="90" y="292.2912" clip-path="url(#clipPath2)"/>
    </g>
    <g font-size="22px" stroke-linecap="butt" transform="matrix(1,0,0,1,612,146)" text-rendering="geometricPrecision" font-family="'Comic Sans MS'" shape-rendering="geometricPrecision" stroke-miterlimit="1.45">
      <text x="-81.7377" xml:space="preserve" y="330.8781" clip-path="url(#clipPath2)" stroke="none">balance : 4</text>
      <text x="-81.7377" xml:space="preserve" y="361.5363" clip-path="url(#clipPath2)" stroke="none">nonce : 13</text>
    </g>
    <g fill="green" text-rendering="geometricPrecision" shape-rendering="geometricPrecision" transform="matrix(1,0,0,1,612,146)" stroke="green">
      <circle r="15" clip-path="url(#clipPath2)" cx="-125.2377" cy="337.2912" stroke="none"/>
    </g>
    <g stroke-linecap="butt" transform="matrix(1,0,0,1,612,146)" fill="rgb(204,255,204)" text-rendering="geometricPrecision" shape-rendering="geometricPrecision" stroke="rgb(204,255,204)" stroke-width="3" stroke-miterlimit="1.45">
      <circle fill="none" r="15" clip-path="url(#clipPath2)" cx="-125.2377" cy="337.2912"/>
    </g>
    <g font-size="32px" stroke-linecap="butt" transform="matrix(1,0,0,1,612,146)" text-rendering="geometricPrecision" font-family="'Comic Sans MS'" shape-rendering="geometricPrecision" stroke-miterlimit="1.45">
      <text x="-189.0346" xml:space="preserve" y="262.3693" clip-path="url(#clipPath2)" stroke="none">address:</text>
      <text x="-189.0346" xml:space="preserve" y="306.963" clip-path="url(#clipPath2)" stroke="none"> 27</text>
    </g>
    <g fill="rgb(255,255,153)" text-rendering="geometricPrecision" shape-rendering="geometricPrecision" transform="matrix(1,0,0,1,612,146)" stroke="rgb(255,255,153)">
      <rect x="-87.7377" width="135" height="90" y="501.5823" clip-path="url(#clipPath2)" stroke="none"/>
    </g>
    <g stroke-linecap="butt" transform="matrix(1,0,0,1,612,146)" fill="rgb(153,153,153)" text-rendering="geometricPrecision" shape-rendering="geometricPrecision" stroke="rgb(153,153,153)" stroke-width="3" stroke-miterlimit="1.45">
      <rect fill="none" x="-87.7377" width="135" height="90" y="501.5823" clip-path="url(#clipPath2)"/>
    </g>
    <g font-size="22px" stroke-linecap="butt" transform="matrix(1,0,0,1,612,146)" text-rendering="geometricPrecision" font-family="'Comic Sans MS'" shape-rendering="geometricPrecision" stroke-miterlimit="1.45">
      <text x="-81.7377" xml:space="preserve" y="540.1693" clip-path="url(#clipPath2)" stroke="none">balance : 75</text>
      <text x="-81.7377" xml:space="preserve" y="570.8275" clip-path="url(#clipPath2)" stroke="none">nonce : 102</text>
    </g>
    <g fill="green" text-rendering="geometricPrecision" shape-rendering="geometricPrecision" transform="matrix(1,0,0,1,612,146)" stroke="green">
      <circle r="15" clip-path="url(#clipPath2)" cx="-125.2377" cy="546.5823" stroke="none"/>
    </g>
    <g stroke-linecap="butt" transform="matrix(1,0,0,1,612,146)" fill="rgb(204,255,204)" text-rendering="geometricPrecision" shape-rendering="geometricPrecision" stroke="rgb(204,255,204)" stroke-width="3" stroke-miterlimit="1.45">
      <circle fill="none" r="15" clip-path="url(#clipPath2)" cx="-125.2377" cy="546.5823"/>
    </g>
    <g font-size="32px" stroke-linecap="butt" transform="matrix(1,0,0,1,612,146)" text-rendering="geometricPrecision" font-family="'Comic Sans MS'" shape-rendering="geometricPrecision" stroke-miterlimit="1.45">
      <text x="-189.0346" xml:space="preserve" y="471.6605" clip-path="url(#clipPath2)" stroke="none">address:</text>
      <text x="-189.0346" xml:space="preserve" y="516.2542" clip-path="url(#clipPath2)" stroke="none"> 187</text>
    </g>
    <g fill="rgb(255,255,153)" text-rendering="geometricPrecision" shape-rendering="geometricPrecision" transform="matrix(1,0,0,1,612,146)" stroke="rgb(255,255,153)">
      <rect x="454.8023" width="160" height="140" y="461.5823" clip-path="url(#clipPath2)" stroke="none"/>
    </g>
    <g stroke-linecap="butt" transform="matrix(1,0,0,1,612,146)" fill="rgb(153,153,153)" text-rendering="geometricPrecision" shape-rendering="geometricPrecision" stroke="rgb(153,153,153)" stroke-width="3" stroke-miterlimit="1.45">
      <rect fill="none" x="454.8023" width="160" height="140" y="461.5823" clip-path="url(#clipPath2)"/>
    </g>
    <g font-size="18px" stroke-linecap="butt" transform="matrix(1,0,0,1,612,146)" text-rendering="geometricPrecision" font-family="'Comic Sans MS'" shape-rendering="geometricPrecision" stroke-miterlimit="1.45">
      <text x="466.8022" xml:space="preserve" y="488.7093" clip-path="url(#clipPath2)" stroke="none">code : 0x00100...</text>
      <text x="466.8022" xml:space="preserve" y="513.7933" clip-path="url(#clipPath2)" stroke="none">states :</text>
      <text x="466.8022" xml:space="preserve" y="538.8773" clip-path="url(#clipPath2)" stroke="none">  limit : ...</text>
      <text x="466.8022" xml:space="preserve" y="563.9612" clip-path="url(#clipPath2)" stroke="none">  nightLimit : ...  </text>
      <text x="466.8022" xml:space="preserve" y="589.0452" clip-path="url(#clipPath2)" stroke="none">  dayLimit : ...</text>
    </g>
    <g fill="blue" text-rendering="geometricPrecision" shape-rendering="geometricPrecision" transform="matrix(1,0,0,1,612,146)" stroke="blue">
      <circle r="15" clip-path="url(#clipPath2)" cx="419.8023" cy="531.5823" stroke="none"/>
    </g>
    <g stroke-linecap="butt" transform="matrix(1,0,0,1,612,146)" fill="rgb(153,204,255)" text-rendering="geometricPrecision" shape-rendering="geometricPrecision" stroke="rgb(153,204,255)" stroke-width="3" stroke-miterlimit="1.45">
      <circle fill="none" r="15" clip-path="url(#clipPath2)" cx="419.8023" cy="531.5823"/>
    </g>
    <g font-size="32px" stroke-linecap="butt" transform="matrix(1,0,0,1,612,146)" text-rendering="geometricPrecision" font-family="'Comic Sans MS'" shape-rendering="geometricPrecision" stroke-miterlimit="1.45">
      <text x="271.2085" xml:space="preserve" y="522.2542" clip-path="url(#clipPath2)" stroke="none">address:</text>
      <text x="271.2085" xml:space="preserve" y="566.848" clip-path="url(#clipPath2)" stroke="none">4589</text>
    </g>
    <g fill="rgb(255,255,153)" text-rendering="geometricPrecision" shape-rendering="geometricPrecision" transform="matrix(1,0,0,1,612,146)" stroke="rgb(255,255,153)">
      <rect x="521.5191" width="160" height="120" y="68" clip-path="url(#clipPath2)" stroke="none"/>
    </g>
    <g stroke-linecap="butt" transform="matrix(1,0,0,1,612,146)" fill="rgb(153,153,153)" text-rendering="geometricPrecision" shape-rendering="geometricPrecision" stroke="rgb(153,153,153)" stroke-width="3" stroke-miterlimit="1.45">
      <rect fill="none" x="521.5191" width="160" height="120" y="68" clip-path="url(#clipPath2)"/>
    </g>
    <g font-size="18px" stroke-linecap="butt" transform="matrix(1,0,0,1,612,146)" text-rendering="geometricPrecision" font-family="'Comic Sans MS'" shape-rendering="geometricPrecision" stroke-miterlimit="1.45">
      <text x="533.5191" xml:space="preserve" y="110.2109" clip-path="url(#clipPath2)" stroke="none">code : 0x10111...</text>
      <text x="533.5191" xml:space="preserve" y="135.2949" clip-path="url(#clipPath2)" stroke="none">states :</text>
      <text x="533.5191" xml:space="preserve" y="160.3789" clip-path="url(#clipPath2)" stroke="none">  blocked[] : ...</text>
    </g>
    <g fill="blue" text-rendering="geometricPrecision" shape-rendering="geometricPrecision" transform="matrix(1,0,0,1,612,146)" stroke="blue">
      <circle r="15" clip-path="url(#clipPath2)" cx="486.5191" cy="128" stroke="none"/>
    </g>
    <g stroke-linecap="butt" transform="matrix(1,0,0,1,612,146)" fill="rgb(153,204,255)" text-rendering="geometricPrecision" shape-rendering="geometricPrecision" stroke="rgb(153,204,255)" stroke-width="3" stroke-miterlimit="1.45">
      <circle fill="none" r="15" clip-path="url(#clipPath2)" cx="486.5191" cy="128"/>
    </g>
    <g font-size="32px" stroke-linecap="butt" transform="matrix(1,0,0,1,612,146)" text-rendering="geometricPrecision" font-family="'Comic Sans MS'" shape-rendering="geometricPrecision" stroke-miterlimit="1.45">
      <text x="337.9254" xml:space="preserve" y="118.6719" clip-path="url(#clipPath2)" stroke="none">address:</text>
      <text x="337.9254" xml:space="preserve" y="163.2656" clip-path="url(#clipPath2)" stroke="none">20826</text>
    </g>
    <g fill="maroon" text-rendering="geometricPrecision" shape-rendering="geometricPrecision" transform="matrix(1,0,0,1,612,146)" stroke="maroon">
      <path d="M-493.4828 128 L-473.4828 108 L-453.4828 128 L-473.4828 148 Z" fill-rule="evenodd" clip-path="url(#clipPath2)" stroke="none"/>
    </g>
    <g stroke-linecap="butt" transform="matrix(1,0,0,1,612,146)" fill="rgb(255,204,153)" text-rendering="geometricPrecision" shape-rendering="geometricPrecision" stroke="rgb(255,204,153)" stroke-width="3" stroke-miterlimit="1.45">
      <path fill="none" d="M-493.4828 128 L-473.4828 108 L-453.4828 128 L-473.4828 148 Z" fill-rule="evenodd" clip-path="url(#clipPath2)"/>
    </g>
    <g font-size="32px" stroke-linecap="butt" transform="matrix(1,0,0,1,612,146)" text-rendering="geometricPrecision" font-family="'Comic Sans MS'" shape-rendering="geometricPrecision" stroke-miterlimit="1.45">
      <text x="-535.1078" xml:space="preserve" y="92.6719" clip-path="url(#clipPath2)" stroke="none">key(101)</text>
    </g>
    <g fill="maroon" text-rendering="geometricPrecision" shape-rendering="geometricPrecision" transform="matrix(1,0,0,1,612,146)" stroke="maroon">
      <path d="M-562.3455 337.2913 L-542.3454 317.2913 L-522.345 337.2913 L-542.3454 357.2913 Z" fill-rule="evenodd" clip-path="url(#clipPath2)" stroke="none"/>
    </g>
    <g stroke-linecap="butt" transform="matrix(1,0,0,1,612,146)" fill="rgb(255,204,153)" text-rendering="geometricPrecision" shape-rendering="geometricPrecision" stroke="rgb(255,204,153)" stroke-width="3" stroke-miterlimit="1.45">
      <path fill="none" d="M-562.3455 337.2913 L-542.3454 317.2913 L-522.345 337.2913 L-542.3454 357.2913 Z" fill-rule="evenodd" clip-path="url(#clipPath2)"/>
    </g>
    <g font-size="32px" stroke-linecap="butt" transform="matrix(1,0,0,1,612,146)" text-rendering="geometricPrecision" font-family="'Comic Sans MS'" shape-rendering="geometricPrecision" stroke-miterlimit="1.45">
      <text x="-599.3292" xml:space="preserve" y="301.963" clip-path="url(#clipPath2)" stroke="none">key(27)</text>
    </g>
    <g fill="maroon" text-rendering="geometricPrecision" shape-rendering="geometricPrecision" transform="matrix(1,0,0,1,612,146)" stroke="maroon">
      <path d="M-535.2779 546.5824 L-515.2776 526.5825 L-495.2776 546.5824 L-515.2776 566.5825 Z" fill-rule="evenodd" clip-path="url(#clipPath2)" stroke="none"/>
    </g>
    <g stroke-linecap="butt" transform="matrix(1,0,0,1,612,146)" fill="rgb(255,204,153)" text-rendering="geometricPrecision" shape-rendering="geometricPrecision" stroke="rgb(255,204,153)" stroke-width="3" stroke-miterlimit="1.45">
      <path fill="none" d="M-535.2779 546.5824 L-515.2776 526.5825 L-495.2776 546.5824 L-515.2776 566.5825 Z" fill-rule="evenodd" clip-path="url(#clipPath2)"/>
    </g>
    <g font-size="32px" stroke-linecap="butt" transform="matrix(1,0,0,1,612,146)" text-rendering="geometricPrecision" font-family="'Comic Sans MS'" shape-rendering="geometricPrecision" stroke-miterlimit="1.45">
      <text x="-579.4652" xml:space="preserve" y="511.2542" clip-path="url(#clipPath2)" stroke="none">key(187)</text>
    </g>
    <g fill="green" text-rendering="geometricPrecision" shape-rendering="geometricPrecision" transform="matrix(1,0,0,1,612,146)" stroke="green">
      <circle r="15" clip-path="url(#clipPath2)" cx="-520.2777" cy="848.6392" stroke="none"/>
    </g>
    <g stroke-linecap="butt" transform="matrix(1,0,0,1,612,146)" fill="rgb(204,255,204)" text-rendering="geometricPrecision" shape-rendering="geometricPrecision" stroke="rgb(204,255,204)" stroke-width="3" stroke-miterlimit="1.45">
      <circle fill="none" r="15" clip-path="url(#clipPath2)" cx="-520.2777" cy="848.6392"/>
    </g>
    <g font-size="20px" stroke-linecap="butt" transform="matrix(1,0,0,1,612,146)" text-rendering="geometricPrecision" font-family="'Comic Sans MS'" shape-rendering="geometricPrecision" stroke-miterlimit="1.45">
      <text x="-493.2777" xml:space="preserve" y="856.7446" clip-path="url(#clipPath2)" stroke="none">owned address</text>
    </g>
    <g fill="blue" text-rendering="geometricPrecision" shape-rendering="geometricPrecision" transform="matrix(1,0,0,1,612,146)" stroke="blue">
      <circle r="15" clip-path="url(#clipPath2)" cx="-520.2777" cy="899.6881" stroke="none"/>
    </g>
    <g stroke-linecap="butt" transform="matrix(1,0,0,1,612,146)" fill="rgb(153,204,255)" text-rendering="geometricPrecision" shape-rendering="geometricPrecision" stroke="rgb(153,204,255)" stroke-width="3" stroke-miterlimit="1.45">
      <circle fill="none" r="15" clip-path="url(#clipPath2)" cx="-520.2777" cy="899.6881"/>
    </g>
    <g font-size="20px" stroke-linecap="butt" transform="matrix(1,0,0,1,612,146)" text-rendering="geometricPrecision" font-family="'Comic Sans MS'" shape-rendering="geometricPrecision" stroke-miterlimit="1.45">
      <text x="-493.2777" xml:space="preserve" y="907.7936" clip-path="url(#clipPath2)" stroke="none">contract address</text>
    </g>
    <g fill="maroon" text-rendering="geometricPrecision" shape-rendering="geometricPrecision" transform="matrix(1,0,0,1,612,146)" stroke="maroon">
      <path d="M-535.2777 797.5898 L-520.2776 782.5898 L-505.2776 797.5898 L-520.2776 812.5898 Z" fill-rule="evenodd" clip-path="url(#clipPath2)" stroke="none"/>
    </g>
    <g stroke-linecap="butt" transform="matrix(1,0,0,1,612,146)" fill="rgb(255,204,153)" text-rendering="geometricPrecision" shape-rendering="geometricPrecision" stroke="rgb(255,204,153)" stroke-width="3" stroke-miterlimit="1.45">
      <path fill="none" d="M-535.2777 797.5898 L-520.2776 782.5898 L-505.2776 797.5898 L-520.2776 812.5898 Z" fill-rule="evenodd" clip-path="url(#clipPath2)"/>
    </g>
    <g font-size="20px" stroke-linecap="butt" transform="matrix(1,0,0,1,612,146)" text-rendering="geometricPrecision" font-family="'Comic Sans MS'" shape-rendering="geometricPrecision" stroke-miterlimit="1.45">
      <text x="-493.2777" xml:space="preserve" y="805.6956" clip-path="url(#clipPath2)" stroke="none">private key</text>
    </g>
    <g stroke-linecap="butt" transform="matrix(1,0,0,1,612,146)" fill="gray" text-rendering="geometricPrecision" shape-rendering="geometricPrecision" stroke="gray" stroke-width="2" stroke-miterlimit="1.45">
      <path fill="none" d="M-117 128 L-94.5 128" clip-path="url(#clipPath2)"/>
      <path fill="none" d="M252.4515 322.2912 L262.4515 322.2912" stroke-width="3" clip-path="url(#clipPath2)"/>
      <path fill="none" d="M-110.2377 337.2912 L-87.7377 337.2912" stroke-width="3" clip-path="url(#clipPath2)"/>
      <path fill="none" d="M-110.2377 546.5823 L-87.7377 546.5823" stroke-width="3" clip-path="url(#clipPath2)"/>
      <path fill="none" stroke-dasharray="12,4" d="M378.1958 402.2912 L413.4841 511.9489" clip-path="url(#clipPath2)" stroke="black"/>
      <path fill="black" stroke-dasharray="12,4" d="M414.8626 516.2325 L417.1526 501.3138 L414.8626 516.2325 L404.3017 505.4493 Z" clip-path="url(#clipPath2)" stroke="none"/>
    </g>
    <g text-rendering="geometricPrecision" shape-rendering="geometricPrecision" transform="matrix(1,0,0,1,612,146)">
      <path fill="none" d="M414.8626 516.2325 L417.1526 501.3138 L414.8626 516.2325 L404.3017 505.4493 Z" clip-path="url(#clipPath2)"/>
    </g>
    <g stroke-linecap="butt" transform="matrix(1,0,0,1,612,146)" fill="gray" text-rendering="geometricPrecision" shape-rendering="geometricPrecision" stroke="gray" stroke-width="3" stroke-miterlimit="1.45">
      <path fill="none" d="M434.8022 531.5823 L454.8022 531.5823" clip-path="url(#clipPath2)"/>
    </g>
    <g stroke-linecap="butt" transform="matrix(1,0,0,1,612,146)" text-rendering="geometricPrecision" shape-rendering="geometricPrecision" stroke-dasharray="12,4" stroke-width="2" stroke-miterlimit="1.45">
      <path fill="none" d="M407.6543 242.2912 L474.8053 144.9758" clip-path="url(#clipPath2)"/>
      <path d="M477.361 141.2719 L464.1381 148.5497 L477.361 141.2719 L475.2495 156.217 Z" clip-path="url(#clipPath2)" stroke="none"/>
    </g>
    <g text-rendering="geometricPrecision" shape-rendering="geometricPrecision" transform="matrix(1,0,0,1,612,146)">
      <path fill="none" d="M477.361 141.2719 L464.1381 148.5497 L477.361 141.2719 L475.2495 156.217 Z" clip-path="url(#clipPath2)"/>
    </g>
    <g stroke-linecap="butt" transform="matrix(1,0,0,1,612,146)" fill="gray" text-rendering="geometricPrecision" shape-rendering="geometricPrecision" stroke="gray" stroke-width="3" stroke-miterlimit="1.45">
      <path fill="none" d="M501.5191 128 L521.5191 128" clip-path="url(#clipPath2)"/>
    </g>
    <g text-rendering="geometricPrecision" stroke-miterlimit="1.45" stroke-dasharray="6,2" shape-rendering="geometricPrecision" transform="matrix(1,0,0,1,612,146)" stroke-linecap="butt">
      <path fill="none" d="M-453.5157 128 L-147 128" clip-path="url(#clipPath2)"/>
      <path fill="none" d="M-522.3602 337.2912 L-140.2377 337.2912" clip-path="url(#clipPath2)"/>
      <path fill="none" d="M-495.2329 546.5823 L-140.2377 546.5823" clip-path="url(#clipPath2)"/>
    </g>
  </g>
</svg>
