<?xml version="1.0" encoding="UTF-8"?><svg xmlns="http://www.w3.org/2000/svg" xmlns:xlink="http://www.w3.org/1999/xlink" fill-opacity="1" color-rendering="auto" color-interpolation="auto" text-rendering="auto" stroke="black" stroke-linecap="square" width="1397" stroke-miterlimit="10" shape-rendering="auto" stroke-opacity="1" fill="black" stroke-dasharray="none" font-weight="normal" stroke-width="1" height="278" font-family="'Dialog'" font-style="normal" stroke-linejoin="miter" font-size="12px" stroke-dashoffset="0" image-rendering="auto">
  <!--Generated by ySVG 2.5-->
  <defs id="genericDefs"/>
  <g>
    <defs id="defs1">
      <clipPath clipPathUnits="userSpaceOnUse" id="clipPath1">
        <path d="M0 0 L1397 0 L1397 278 L0 278 L0 0 Z"/>
      </clipPath>
      <clipPath clipPathUnits="userSpaceOnUse" id="clipPath2">
        <path d="M178 280 L1575 280 L1575 558 L178 558 L178 280 Z"/>
      </clipPath>
    </defs>
    <g stroke-linecap="butt" transform="matrix(1,0,0,1,-178,-280)" fill="navy" text-rendering="geometricPrecision" shape-rendering="geometricPrecision" stroke="navy" stroke-width="4" stroke-miterlimit="1.45">
      <rect x="188" y="290" clip-path="url(#clipPath2)" fill="none" width="250" rx="4" ry="4" height="200"/>
    </g>
    <g font-size="26px" stroke-linecap="butt" transform="matrix(1,0,0,1,-178,-280)" text-rendering="geometricPrecision" font-family="'Comic Sans MS'" shape-rendering="geometricPrecision" font-weight="bold" stroke-miterlimit="1.45">
      <text x="199.6562" xml:space="preserve" y="364.3047" clip-path="url(#clipPath2)" stroke="none">Alice: 1,000 ETH</text>
      <text x="199.6562" xml:space="preserve" y="400.5371" clip-path="url(#clipPath2)" stroke="none">Bob  :   500 ETH</text>
      <text x="199.6562" xml:space="preserve" y="436.7695" clip-path="url(#clipPath2)" stroke="none">Carol: 2,000 ETH</text>
    </g>
    <g stroke-linecap="butt" transform="matrix(1,0,0,1,-178,-280)" fill="navy" text-rendering="geometricPrecision" shape-rendering="geometricPrecision" stroke="navy" stroke-width="4" stroke-miterlimit="1.45">
      <rect x="745" y="290" clip-path="url(#clipPath2)" fill="none" width="250" rx="4" ry="4" height="200"/>
    </g>
    <g font-size="26px" stroke-linecap="butt" transform="matrix(1,0,0,1,-178,-280)" text-rendering="geometricPrecision" font-family="'Comic Sans MS'" shape-rendering="geometricPrecision" font-weight="bold" stroke-miterlimit="1.45">
      <text x="756.6562" xml:space="preserve" y="364.3047" clip-path="url(#clipPath2)" stroke="none">Alice:   700 ETH</text>
      <text x="756.6562" xml:space="preserve" y="400.5371" clip-path="url(#clipPath2)" stroke="none">Bob  :   800 ETH</text>
      <text x="756.6562" xml:space="preserve" y="436.7695" clip-path="url(#clipPath2)" stroke="none">Carol: 2,000 ETH</text>
      <text font-style="italic" x="462.0054" xml:space="preserve" y="358.5371" clip-path="url(#clipPath2)" stroke="none">Tx(Alice, Bob, 300)</text>
    </g>
    <g stroke-linecap="butt" transform="matrix(1,0,0,1,-178,-280)" fill="navy" text-rendering="geometricPrecision" shape-rendering="geometricPrecision" stroke="navy" stroke-width="4" stroke-miterlimit="1.45">
      <rect x="1315" y="290" clip-path="url(#clipPath2)" fill="none" width="250" rx="4" ry="4" height="200"/>
    </g>
    <g font-size="26px" stroke-linecap="butt" transform="matrix(1,0,0,1,-178,-280)" text-rendering="geometricPrecision" font-family="'Comic Sans MS'" shape-rendering="geometricPrecision" font-weight="bold" stroke-miterlimit="1.45">
      <text x="1326.6562" xml:space="preserve" y="364.3047" clip-path="url(#clipPath2)" stroke="none">Alice: 1,200 ETH</text>
      <text x="1326.6562" xml:space="preserve" y="400.5371" clip-path="url(#clipPath2)" stroke="none">Bob  :   700 ETH</text>
      <text x="1326.6562" xml:space="preserve" y="436.7695" clip-path="url(#clipPath2)" stroke="none">Carol: 1,600 ETH</text>
      <text font-style="italic" x="1022.8394" xml:space="preserve" y="331.4209" clip-path="url(#clipPath2)" stroke="none">Tx(Bob, Carol, 100)</text>
      <text font-style="italic" x="1022.8394" xml:space="preserve" y="367.6533" clip-path="url(#clipPath2)" stroke="none">Tx(Carol, Alice, 500)</text>
      <text x="258.1479" xml:space="preserve" y="532.001" clip-path="url(#clipPath2)" font-family="'DejaVu Sans Condensed'" stroke="none">State(t0)</text>
      <text x="810.1479" xml:space="preserve" y="532.001" clip-path="url(#clipPath2)" font-family="'DejaVu Sans Condensed'" stroke="none">State(t1)</text>
      <text x="1380.1479" xml:space="preserve" y="531.001" clip-path="url(#clipPath2)" font-family="'DejaVu Sans Condensed'" stroke="none">State(t2)</text>
    </g>
    <g stroke-linecap="butt" transform="matrix(1,0,0,1,-178,-280)" fill="rgb(51,102,255)" text-rendering="geometricPrecision" shape-rendering="geometricPrecision" stroke="rgb(51,102,255)" stroke-width="4" stroke-miterlimit="1.45">
      <path fill="none" d="M438.0054 390 L733.9948 390" clip-path="url(#clipPath2)"/>
      <path d="M744.9948 390 L728.4948 383.125 L732.6198 390 L728.4948 396.875 Z" clip-path="url(#clipPath2)" stroke="none"/>
      <path fill="none" d="M995.0006 390 L1303.9797 390" clip-path="url(#clipPath2)"/>
      <path d="M1314.9797 390 L1298.4797 383.125 L1302.6047 390 L1298.4797 396.875 Z" clip-path="url(#clipPath2)" stroke="none"/>
    </g>
  </g>
</svg>
