<?xml version="1.0" encoding="UTF-8"?><svg xmlns="http://www.w3.org/2000/svg" xmlns:xlink="http://www.w3.org/1999/xlink" fill-opacity="1" color-rendering="auto" color-interpolation="auto" text-rendering="auto" stroke="black" stroke-linecap="square" width="961" stroke-miterlimit="10" shape-rendering="auto" stroke-opacity="1" fill="black" stroke-dasharray="none" font-weight="normal" stroke-width="1" height="446" font-family="'Dialog'" font-style="normal" stroke-linejoin="miter" font-size="12px" stroke-dashoffset="0" image-rendering="auto">
  <!--Generated by ySVG 2.5-->
  <defs id="genericDefs"/>
  <g>
    <g text-rendering="geometricPrecision" stroke-miterlimit="1.45" shape-rendering="geometricPrecision" transform="matrix(1,0,0,1,-105,-289)" stroke-linecap="butt">
      <rect fill="none" x="115" width="450" height="400" y="299" clip-path="url(#clipPath2)"/>
    </g>
    <g font-size="16px" stroke-linecap="butt" transform="matrix(1,0,0,1,-105,-289)" text-rendering="geometricPrecision" font-family="'Comic Sans MS'" shape-rendering="geometricPrecision" stroke-miterlimit="1.45">
      <text x="127" xml:space="preserve" y="328.6328" clip-path="url(#clipPath2)" stroke="none">Blockchain</text>
      <text x="127" xml:space="preserve" y="350.9297" clip-path="url(#clipPath2)" stroke="none">Platform</text>
    </g>
    <g fill="rgb(238,248,248)" text-rendering="geometricPrecision" shape-rendering="geometricPrecision" transform="matrix(1,0,0,1,-105,-289)" stroke="rgb(238,248,248)">
      <rect x="200.5" width="350" height="270" y="407.5" clip-path="url(#clipPath2)" stroke="none"/>
    </g>
    <g stroke-linecap="butt" transform="matrix(1,0,0,1,-105,-289)" fill="rgb(185,204,204)" text-rendering="geometricPrecision" shape-rendering="geometricPrecision" stroke="rgb(185,204,204)" stroke-width="2" stroke-miterlimit="1.45">
      <rect fill="none" x="200.5" width="350" height="270" y="407.5" clip-path="url(#clipPath2)"/>
    </g>
    <g font-size="16px" stroke-linecap="butt" transform="matrix(1,0,0,1,-105,-289)" text-rendering="geometricPrecision" font-family="'Comic Sans MS'" shape-rendering="geometricPrecision" stroke-miterlimit="1.45">
      <text x="328.043" xml:space="preserve" y="665.8359" clip-path="url(#clipPath2)" stroke="none">NFT Service</text>
    </g>
    <g fill="rgb(225,240,254)" text-rendering="geometricPrecision" shape-rendering="geometricPrecision" transform="matrix(1,0,0,1,-105,-289)" stroke="rgb(225,240,254)">
      <rect x="218" width="180" height="130" y="421.5" clip-path="url(#clipPath2)" stroke="none"/>
    </g>
    <g stroke-linecap="butt" transform="matrix(1,0,0,1,-105,-289)" fill="rgb(208,222,235)" text-rendering="geometricPrecision" shape-rendering="geometricPrecision" stroke="rgb(208,222,235)" stroke-width="2" stroke-miterlimit="1.45">
      <rect fill="none" x="218" width="180" height="130" y="421.5" clip-path="url(#clipPath2)"/>
    </g>
    <g font-size="16px" stroke-linecap="butt" transform="matrix(1,0,0,1,-105,-289)" text-rendering="geometricPrecision" font-family="'Comic Sans MS'" shape-rendering="geometricPrecision" stroke-miterlimit="1.45">
      <text x="245.4453" xml:space="preserve" y="534.8359" clip-path="url(#clipPath2)" stroke="none">Smart Contracts</text>
    </g>
    <g fill="rgb(246,246,228)" text-rendering="geometricPrecision" shape-rendering="geometricPrecision" transform="matrix(1,0,0,1,-105,-289)" stroke="rgb(246,246,228)">
      <rect x="627" width="150" height="190" y="308" clip-path="url(#clipPath2)" stroke="none"/>
    </g>
    <g stroke-linecap="butt" transform="matrix(1,0,0,1,-105,-289)" fill="olive" text-rendering="geometricPrecision" shape-rendering="geometricPrecision" stroke="olive" stroke-miterlimit="1.45">
      <rect fill="none" x="627" width="150" height="190" y="308" clip-path="url(#clipPath2)"/>
    </g>
    <g font-size="16px" stroke-linecap="butt" transform="matrix(1,0,0,1,-105,-289)" text-rendering="geometricPrecision" font-family="'Comic Sans MS'" shape-rendering="geometricPrecision" stroke-miterlimit="1.45">
      <text x="634" xml:space="preserve" y="332.6328" clip-path="url(#clipPath2)" stroke="none">Marketplace</text>
    </g>
    <g fill="rgb(51,51,153)" text-rendering="geometricPrecision" shape-rendering="geometricPrecision" transform="matrix(1,0,0,1,-105,-289)" stroke="rgb(51,51,153)">
      <path d="M227 438.5 L297 438.5 L297 499.75 Q279.5 482.25 262 499.75 Q244.5 517.25 227 499.75 Z" stroke="none" clip-path="url(#clipPath2)"/>
      <path fill="none" stroke-miterlimit="1.45" d="M227 438.5 L297 438.5 L297 499.75 Q279.5 482.25 262 499.75 Q244.5 517.25 227 499.75 Z" stroke-width="2" clip-path="url(#clipPath2)" stroke-linecap="butt"/>
    </g>
    <g stroke-linecap="butt" font-size="16px" transform="matrix(1,0,0,1,-105,-289)" fill="white" text-rendering="geometricPrecision" font-family="'Comic Sans MS'" shape-rendering="geometricPrecision" stroke="white" stroke-miterlimit="1.45">
      <text x="245.332" xml:space="preserve" y="463.1328" clip-path="url(#clipPath2)" stroke="none">NFT</text>
      <text x="229.1992" xml:space="preserve" y="485.4297" clip-path="url(#clipPath2)" stroke="none">Contract</text>
    </g>
    <g fill="rgb(51,51,153)" text-rendering="geometricPrecision" shape-rendering="geometricPrecision" transform="matrix(1,0,0,1,-105,-289)" stroke="rgb(51,51,153)">
      <path d="M320 438.5 L390 438.5 L390 499.75 Q372.5 482.25 355 499.75 Q337.5 517.25 320 499.75 Z" stroke="none" clip-path="url(#clipPath2)"/>
      <path fill="none" stroke-miterlimit="1.45" d="M320 438.5 L390 438.5 L390 499.75 Q372.5 482.25 355 499.75 Q337.5 517.25 320 499.75 Z" stroke-width="2" clip-path="url(#clipPath2)" stroke-linecap="butt"/>
    </g>
    <g stroke-linecap="butt" font-size="16px" transform="matrix(1,0,0,1,-105,-289)" fill="white" text-rendering="geometricPrecision" font-family="'Comic Sans MS'" shape-rendering="geometricPrecision" stroke="white" stroke-miterlimit="1.45">
      <text x="326.4727" xml:space="preserve" y="463.1328" clip-path="url(#clipPath2)" stroke="none">Auction</text>
      <text x="322.1992" xml:space="preserve" y="485.4297" clip-path="url(#clipPath2)" stroke="none">Contract</text>
    </g>
    <g fill="rgb(51,51,153)" text-rendering="geometricPrecision" shape-rendering="geometricPrecision" transform="matrix(1,0,0,1,-105,-289)" stroke="rgb(51,51,153)">
      <rect x="218" width="180" height="60" y="576" clip-path="url(#clipPath2)" stroke="none"/>
      <rect stroke-linecap="butt" x="218" y="576" clip-path="url(#clipPath2)" fill="none" width="180" height="60" stroke-width="2" stroke-miterlimit="1.45"/>
    </g>
    <g stroke-linecap="butt" font-size="16px" transform="matrix(1,0,0,1,-105,-289)" fill="white" text-rendering="geometricPrecision" font-family="'Comic Sans MS'" shape-rendering="geometricPrecision" stroke="white" stroke-miterlimit="1.45">
      <text x="291.332" xml:space="preserve" y="601.3359" clip-path="url(#clipPath2)" stroke="none">NFT</text>
      <text x="245.9375" xml:space="preserve" y="623.6328" clip-path="url(#clipPath2)" stroke="none">Provider Service</text>
    </g>
    <g fill="white" text-rendering="geometricPrecision" shape-rendering="geometricPrecision" transform="matrix(1,0,0,1,-105,-289)" stroke="white">
      <circle r="25" clip-path="url(#clipPath2)" cx="987" cy="618" stroke="none"/>
    </g>
    <g stroke-linecap="butt" transform="matrix(1,0,0,1,-105,-289)" fill="rgb(102,102,102)" text-rendering="geometricPrecision" shape-rendering="geometricPrecision" stroke="rgb(102,102,102)" stroke-width="2" stroke-miterlimit="1.45">
      <circle fill="none" r="25" clip-path="url(#clipPath2)" cx="987" cy="618"/>
    </g>
    <g font-size="16px" stroke-linecap="butt" transform="matrix(1,0,0,1,-105,-289)" text-rendering="geometricPrecision" font-family="'Comic Sans MS'" shape-rendering="geometricPrecision" stroke-miterlimit="1.45">
      <text x="920.1172" xml:space="preserve" y="666.6328" clip-path="url(#clipPath2)" stroke="none">Contents Provider</text>
    </g>
    <g fill="rgb(51,51,153)" text-rendering="geometricPrecision" shape-rendering="geometricPrecision" transform="matrix(1,0,0,1,-105,-289)" stroke="rgb(51,51,153)">
      <rect x="430" width="100" height="76.5" y="421.5" clip-path="url(#clipPath2)" stroke="none"/>
      <rect stroke-linecap="butt" x="430" y="421.5" clip-path="url(#clipPath2)" fill="none" width="100" height="76.5" stroke-width="2" stroke-miterlimit="1.45"/>
    </g>
    <g stroke-linecap="butt" font-size="16px" transform="matrix(1,0,0,1,-105,-289)" fill="white" text-rendering="geometricPrecision" font-family="'Comic Sans MS'" shape-rendering="geometricPrecision" stroke="white" stroke-miterlimit="1.45">
      <text x="463.332" xml:space="preserve" y="443.9375" clip-path="url(#clipPath2)" stroke="none">NFT</text>
      <text x="438.0742" xml:space="preserve" y="466.2344" clip-path="url(#clipPath2)" stroke="none">Consummer</text>
      <text x="451.6016" xml:space="preserve" y="488.5312" clip-path="url(#clipPath2)" stroke="none">Service</text>
    </g>
    <g fill="olive" text-rendering="geometricPrecision" shape-rendering="geometricPrecision" transform="matrix(1,0,0,1,-105,-289)" stroke="olive">
      <rect x="658" width="80" height="130" y="347" clip-path="url(#clipPath2)" stroke="none"/>
      <rect stroke-linecap="butt" x="658" y="347" clip-path="url(#clipPath2)" fill="none" width="80" height="130" stroke-width="2" stroke-miterlimit="1.45"/>
    </g>
    <g stroke-linecap="butt" font-size="16px" transform="matrix(1,0,0,1,-105,-289)" fill="white" text-rendering="geometricPrecision" font-family="'Comic Sans MS'" shape-rendering="geometricPrecision" stroke="white" stroke-miterlimit="1.45">
      <text x="681.332" xml:space="preserve" y="407.3359" clip-path="url(#clipPath2)" stroke="none">NFT</text>
      <text x="670.5781" xml:space="preserve" y="429.6328" clip-path="url(#clipPath2)" stroke="none">Catalog</text>
    </g>
    <g fill="white" text-rendering="geometricPrecision" shape-rendering="geometricPrecision" transform="matrix(1,0,0,1,-105,-289)" stroke="white">
      <circle r="25" clip-path="url(#clipPath2)" cx="987" cy="406.5" stroke="none"/>
    </g>
    <g stroke-linecap="butt" transform="matrix(1,0,0,1,-105,-289)" fill="rgb(102,102,102)" text-rendering="geometricPrecision" shape-rendering="geometricPrecision" stroke="rgb(102,102,102)" stroke-width="2" stroke-miterlimit="1.45">
      <circle fill="none" r="25" clip-path="url(#clipPath2)" cx="987" cy="406.5"/>
    </g>
    <g font-size="16px" stroke-linecap="butt" transform="matrix(1,0,0,1,-105,-289)" text-rendering="geometricPrecision" font-family="'Comic Sans MS'" shape-rendering="geometricPrecision" stroke-miterlimit="1.45">
      <text x="952.7109" xml:space="preserve" y="455.1328" clip-path="url(#clipPath2)" stroke="none">End User</text>
    </g>
    <g text-rendering="geometricPrecision" shape-rendering="geometricPrecision" transform="matrix(1,0,0,1,896.1096,118.3897)">
      <g clip-path="url(#clipPath3)">
        <svg xmlns:sketch="http://www.bohemiancoding.com/sketch/ns" opacity="1" writing-mode="lr-tb" stop-color="rgb(0, 0, 0)" shape-rendering="auto" glyph-orientation-horizontal="0deg" color-profile="auto" lighting-color="rgb(255, 255, 255)" color="rgb(0, 0, 0)" font-weight="400" alignment-baseline="auto" font-style="normal" version="1.1" color-interpolation-filters="linearrgb" text-anchor="start" stroke-linecap="butt" color-interpolation="srgb" font-variant="normal" word-spacing="normal" fill-opacity="1" text-rendering="auto" clip-path="none" text-decoration="none" letter-spacing="normal" viewBox="0 0 32 32" glyph-orientation-vertical="auto" display="inline" font-size-adjust="none" fill="rgb(0, 0, 0)" overflow="hidden" font-stretch="normal" stroke-dasharray="none" stroke-miterlimit="4" stop-opacity="1" color-rendering="auto" font-size="12" mask="none" direction="ltr" baseline-shift="baseline" pointer-events="visiblepainted" enable-background="accumulate" fill-rule="nonzero" image-rendering="auto" stroke-dashoffset="0" width="32px" marker-end="none" clip="auto" cursor="auto" stroke="none" filter="none" visibility="visible" kerning="auto" stroke-width="1" font-family="&quot;Arial&quot;,&quot;Helvetica&quot;,sans-serif" flood-opacity="1" clip-rule="nonzero" src="none" height="32px" unicode-bidi="normal" stroke-linejoin="miter" stroke-opacity="1" flood-color="rgb(0, 0, 0)" dominant-baseline="auto" marker-start="none" marker-mid="none">
          <title/>
          <desc/>
          <defs>
            <clipPath clipPathUnits="userSpaceOnUse" id="clipPath1">
              <path d="M0 0 L961 0 L961 446 L0 446 L0 0 Z"/>
            </clipPath>
            <clipPath clipPathUnits="userSpaceOnUse" id="clipPath2">
              <path d="M105 289 L1066 289 L1066 735 L105 735 L105 289 Z"/>
            </clipPath>
            <clipPath clipPathUnits="userSpaceOnUse" id="clipPath3">
              <path d="M-896.1096 -118.3897 L64.8904 -118.3897 L64.8904 327.6103 L-896.1096 327.6103 L-896.1096 -118.3897 Z"/>
            </clipPath>
            <clipPath clipPathUnits="userSpaceOnUse" id="clipPath4">
              <path d="M-896.1096 -334.7794 L64.8904 -334.7794 L64.8904 111.2206 L-896.1096 111.2206 L-896.1096 -334.7794 Z"/>
            </clipPath>
          </defs>
          <g fill="none" stroke-width="1" id="svg1.Page-1" fill-rule="evenodd" stroke="none">
            <g fill="#157EFB" id="svg1.icon-25-key">
              <path d="M17.0336552,13.3678662 C16.3812449,12.407675 16,11.2483598 16,10 C16,6.68629134 18.6862913,4 22,4 C25.3137087,4 28,6.68629134 28,10 C28,13.3137087 25.3137087,16 22,16 C20.7464539,16 19.5826937,15.6155808 18.6201766,14.9581994 L14.5381635,19.0381635 L16.5,21 L15,22.5 L13.037787,20.537787 L10.0370339,23.5370339 L12.5,26 L11,27.5 L8.53665732,25.0366573 L5.8870599,27.6849248 C5.45252802,28.1192385 4.76199383,28.1128958 4.33377865,27.6816824 L4.31539123,27.6631662 C3.88827138,27.2330558 3.88810647,26.5337787 4.31746937,26.1037506 L17.0336552,13.3678662 L17.0336552,13.3678662 L17.0336552,13.3678662 Z M13,22 L11.5,23.5 L11.5,23.5 L14,26 L11,29 L8.5,26.5 L6.62453677,28.3754632 C5.78317976,29.2168202 4.42053288,29.2205817 3.58239782,28.3824466 L3.61755335,28.4176022 C2.78072202,27.5807709 2.78254488,26.2174551 3.62453677,25.3754632 L15.7819315,13.2180685 C15.2822882,12.2545997 15,11.1602658 15,10 C15,6.13400656 18.1340066,3 22,3 C25.8659934,3 29,6.13400656 29,10 C29,13.8659934 25.8659934,17 22,17 C20.8397342,17 19.7454003,16.7177118 18.7819315,16.2180685 L18.7819315,16.2180685 L16,19 L18,21 L15,24 L13,22 L13,22 L13,22 Z M22,14 C24.2091391,14 26,12.2091391 26,10 C26,7.79086089 24.2091391,6 22,6 C19.7908609,6 18,7.79086089 18,10 C18,12.2091391 19.7908609,14 22,14 L22,14 L22,14 Z M22,13 C23.6568543,13 25,11.6568543 25,10 C25,8.34314567 23.6568543,7 22,7 C20.3431457,7 19,8.34314567 19,10 C19,11.6568543 20.3431457,13 22,13 L22,13 L22,13 Z" id="svg1.key"/>
            </g>
          </g>
        </svg>
      </g>
    </g>
    <g text-rendering="geometricPrecision" shape-rendering="geometricPrecision" transform="matrix(1,0,0,1,896.1096,334.7794)">
      <g clip-path="url(#clipPath4)">
        <svg xmlns:sketch="http://www.bohemiancoding.com/sketch/ns" opacity="1" writing-mode="lr-tb" stop-color="rgb(0, 0, 0)" shape-rendering="auto" glyph-orientation-horizontal="0deg" color-profile="auto" lighting-color="rgb(255, 255, 255)" color="rgb(0, 0, 0)" font-weight="400" alignment-baseline="auto" font-style="normal" version="1.1" color-interpolation-filters="linearrgb" text-anchor="start" stroke-linecap="butt" color-interpolation="srgb" font-variant="normal" word-spacing="normal" fill-opacity="1" text-rendering="auto" clip-path="none" text-decoration="none" letter-spacing="normal" viewBox="0 0 32 32" glyph-orientation-vertical="auto" display="inline" font-size-adjust="none" fill="rgb(0, 0, 0)" overflow="hidden" font-stretch="normal" stroke-dasharray="none" stroke-miterlimit="4" stop-opacity="1" color-rendering="auto" font-size="12" mask="none" direction="ltr" baseline-shift="baseline" pointer-events="visiblepainted" enable-background="accumulate" fill-rule="nonzero" image-rendering="auto" stroke-dashoffset="0" width="32px" marker-end="none" clip="auto" cursor="auto" stroke="none" filter="none" visibility="visible" kerning="auto" stroke-width="1" font-family="&quot;Arial&quot;,&quot;Helvetica&quot;,sans-serif" flood-opacity="1" clip-rule="nonzero" src="none" height="32px" unicode-bidi="normal" stroke-linejoin="miter" stroke-opacity="1" flood-color="rgb(0, 0, 0)" dominant-baseline="auto" marker-start="none" marker-mid="none">
          <title/>
          <desc/>
          <defs/>
          <g fill="none" stroke-width="1" id="svg2.Page-1" fill-rule="evenodd" stroke="none">
            <g fill="#157EFB" id="svg2.icon-25-key">
              <path d="M17.0336552,13.3678662 C16.3812449,12.407675 16,11.2483598 16,10 C16,6.68629134 18.6862913,4 22,4 C25.3137087,4 28,6.68629134 28,10 C28,13.3137087 25.3137087,16 22,16 C20.7464539,16 19.5826937,15.6155808 18.6201766,14.9581994 L14.5381635,19.0381635 L16.5,21 L15,22.5 L13.037787,20.537787 L10.0370339,23.5370339 L12.5,26 L11,27.5 L8.53665732,25.0366573 L5.8870599,27.6849248 C5.45252802,28.1192385 4.76199383,28.1128958 4.33377865,27.6816824 L4.31539123,27.6631662 C3.88827138,27.2330558 3.88810647,26.5337787 4.31746937,26.1037506 L17.0336552,13.3678662 L17.0336552,13.3678662 L17.0336552,13.3678662 Z M13,22 L11.5,23.5 L11.5,23.5 L14,26 L11,29 L8.5,26.5 L6.62453677,28.3754632 C5.78317976,29.2168202 4.42053288,29.2205817 3.58239782,28.3824466 L3.61755335,28.4176022 C2.78072202,27.5807709 2.78254488,26.2174551 3.62453677,25.3754632 L15.7819315,13.2180685 C15.2822882,12.2545997 15,11.1602658 15,10 C15,6.13400656 18.1340066,3 22,3 C25.8659934,3 29,6.13400656 29,10 C29,13.8659934 25.8659934,17 22,17 C20.8397342,17 19.7454003,16.7177118 18.7819315,16.2180685 L18.7819315,16.2180685 L16,19 L18,21 L15,24 L13,22 L13,22 L13,22 Z M22,14 C24.2091391,14 26,12.2091391 26,10 C26,7.79086089 24.2091391,6 22,6 C19.7908609,6 18,7.79086089 18,10 C18,12.2091391 19.7908609,14 22,14 L22,14 L22,14 Z M22,13 C23.6568543,13 25,11.6568543 25,10 C25,8.34314567 23.6568543,7 22,7 C20.3431457,7 19,8.34314567 19,10 C19,11.6568543 20.3431457,13 22,13 L22,13 L22,13 Z" id="svg2.key"/>
            </g>
          </g>
        </svg>
      </g>
    </g>
    <g text-rendering="geometricPrecision" stroke-miterlimit="1.45" stroke-width="2" shape-rendering="geometricPrecision" transform="matrix(1,0,0,1,-105,-289)" stroke-linecap="butt">
      <path fill="none" d="M301.5112 473.5 L315.4745 473.5" clip-path="url(#clipPath2)"/>
      <path d="M292.5112 473.5 C292.5112 471.0147 294.5259 469 297.0112 469 C299.4965 469 301.5112 471.0147 301.5112 473.5 C301.5112 475.9853 299.4965 478 297.0112 478 C294.5259 478 292.5112 475.9853 292.5112 473.5 Z" clip-path="url(#clipPath2)" stroke="none"/>
      <path d="M324.4745 473.5 C324.4745 475.9853 322.4598 478 319.9745 478 C317.4893 478 315.4745 475.9853 315.4745 473.5 C315.4745 471.0147 317.4893 469 319.9745 469 C322.4598 469 324.4745 471.0147 324.4745 473.5 Z" clip-path="url(#clipPath2)" stroke="none"/>
      <path fill="none" d="M300 575.9791 L300 551.5049" clip-path="url(#clipPath2)"/>
      <path fill="none" d="M962.2584 614.4147 L604 562.5 L402.9041 605.7272" stroke-width="1" clip-path="url(#clipPath2)"/>
      <path d="M398.9935 606.5678 L411.9864 609.9119 L398.9935 606.5678 L409.4645 598.1799 Z" stroke-width="1" clip-path="url(#clipPath2)" stroke="none"/>
      <path fill="none" stroke-miterlimit="10" d="M398.9935 606.5678 L411.9864 609.9119 L398.9935 606.5678 L409.4645 598.1799 Z" stroke-width="1" clip-path="url(#clipPath2)" stroke-linecap="square"/>
      <text x="621.3355" font-size="14px" y="564.3051" clip-path="url(#clipPath2)" font-family="'Verdana'" stroke="none" stroke-width="1" xml:space="preserve">신규 NFT</text>
      <text x="637.3692" font-size="14px" y="581.3198" clip-path="url(#clipPath2)" font-family="'Verdana'" stroke="none" stroke-width="1" xml:space="preserve">발행</text>
      <path fill="none" d="M962.092 620.1434 L650 647 L402.9644 617.3846" stroke-width="1" clip-path="url(#clipPath2)"/>
      <path d="M398.9929 616.9085 L410.1934 624.2943 L398.9929 616.9085 L411.6218 612.3796 Z" stroke-width="1" clip-path="url(#clipPath2)" stroke="none"/>
      <path fill="none" stroke-miterlimit="10" d="M398.9929 616.9085 L410.1934 624.2943 L398.9929 616.9085 L411.6218 612.3796 Z" stroke-width="1" clip-path="url(#clipPath2)" stroke-linecap="square"/>
      <text x="610.2399" font-size="14px" y="622.8692" clip-path="url(#clipPath2)" font-family="'Verdana'" stroke="none" stroke-width="1" xml:space="preserve">미판매 NFT</text>
      <text x="619.4601" font-size="14px" y="639.8839" clip-path="url(#clipPath2)" font-family="'Verdana'" stroke="none" stroke-width="1" xml:space="preserve">Update</text>
      <path fill="none" d="M962.8801 624.5749 L655 708.5 L402.7526 629.8098" stroke-width="1" clip-path="url(#clipPath2)"/>
      <path d="M398.9341 628.6186 L408.6028 637.92 L398.9341 628.6186 L412.1764 626.4645 Z" stroke-width="1" clip-path="url(#clipPath2)" stroke="none"/>
      <path fill="none" stroke-miterlimit="10" d="M398.9341 628.6186 L408.6028 637.92 L398.9341 628.6186 L412.1764 626.4645 Z" stroke-width="1" clip-path="url(#clipPath2)" stroke-linecap="square"/>
      <text x="663.4144" font-size="14px" y="719.2626" clip-path="url(#clipPath2)" font-family="'Verdana'" stroke="none" stroke-width="1" xml:space="preserve">NFT 검색/통계</text>
      <path fill="none" d="M430 459.75 L398.0188 459.75" clip-path="url(#clipPath2)"/>
      <path fill="none" d="M967.2343 602.6927 L854 515 L742.6266 467.1999" stroke-width="1" clip-path="url(#clipPath2)"/>
      <path d="M738.9509 465.6223 L747.6118 475.8687 L738.9509 465.6223 L752.3445 464.8415 Z" stroke-width="1" clip-path="url(#clipPath2)" stroke="none"/>
      <path fill="none" stroke-miterlimit="10" d="M738.9509 465.6223 L747.6118 475.8687 L738.9509 465.6223 L752.3445 464.8415 Z" stroke-width="1" clip-path="url(#clipPath2)" stroke-linecap="square"/>
      <text x="811.48" font-size="14px" y="548.5549" clip-path="url(#clipPath2)" font-family="'Verdana'" stroke="none" stroke-width="1" xml:space="preserve">NFT Curation</text>
      <path fill="none" stroke-dasharray="12,4" d="M658 420.7615 L530 448.7982" clip-path="url(#clipPath2)"/>
      <path fill="none" stroke-dasharray="12,4" d="M658.0123 455.098 L520.5798 526 L398 533" clip-path="url(#clipPath2)"/>
      <path fill="none" d="M965.2149 394.2358 L852 330.5 L742.4193 388.4924" stroke-width="1" clip-path="url(#clipPath2)"/>
      <path d="M738.8839 390.3634 L752.2967 390.0535 L738.8839 390.3634 L746.6837 379.4472 Z" stroke-width="1" clip-path="url(#clipPath2)" stroke="none"/>
      <path fill="none" stroke-miterlimit="10" d="M738.8839 390.3634 L752.2967 390.0535 L738.8839 390.3634 L746.6837 379.4472 Z" stroke-width="1" clip-path="url(#clipPath2)" stroke-linecap="square"/>
      <text x="802.4658" font-size="14px" y="325.6406" clip-path="url(#clipPath2)" font-family="'Verdana'" stroke="none" stroke-width="1" xml:space="preserve">NFT 검색/Browsing</text>
      <path fill="none" d="M962.1151 404.1037 L852 393.5 L742.9643 406.5984" stroke-width="1" clip-path="url(#clipPath2)"/>
      <path d="M738.9929 407.0755 L751.6228 411.6015 L738.9929 407.0755 L750.1916 399.6871 Z" stroke-width="1" clip-path="url(#clipPath2)" stroke="none"/>
      <path fill="none" stroke-miterlimit="10" d="M738.9929 407.0755 L751.6228 411.6015 L738.9929 407.0755 L750.1916 399.6871 Z" stroke-width="1" clip-path="url(#clipPath2)" stroke-linecap="square"/>
      <text x="806.946" font-size="14px" y="384.0272" clip-path="url(#clipPath2)" font-family="'Verdana'" stroke="none" stroke-width="1" xml:space="preserve">NFT 구입(Buy)</text>
      <path fill="none" d="M963.7881 415.7848 L877 450.5 L742.9307 423.9093" stroke-width="1" clip-path="url(#clipPath2)"/>
      <path d="M739.0071 423.1311 L749.6106 431.351 L739.0071 423.1311 L751.9451 419.5803 Z" stroke-width="1" clip-path="url(#clipPath2)" stroke="none"/>
      <path fill="none" stroke-miterlimit="10" d="M739.0071 423.1311 L749.6106 431.351 L739.0071 423.1311 L751.9451 419.5803 Z" stroke-width="1" clip-path="url(#clipPath2)" stroke-linecap="square"/>
      <text x="811.1122" font-size="14px" y="476.3509" clip-path="url(#clipPath2)" font-family="'Verdana'" stroke="none" stroke-width="1" xml:space="preserve">NFT 판매(Sell)</text>
    </g>
  </g>
</svg>
