<?xml version="1.0" encoding="UTF-8"?><svg xmlns="http://www.w3.org/2000/svg" xmlns:xlink="http://www.w3.org/1999/xlink" fill-opacity="1" color-rendering="auto" color-interpolation="auto" text-rendering="auto" stroke="black" stroke-linecap="square" width="511" stroke-miterlimit="10" shape-rendering="auto" stroke-opacity="1" fill="black" stroke-dasharray="none" font-weight="normal" stroke-width="1" height="431" font-family="'Dialog'" font-style="normal" stroke-linejoin="miter" font-size="12px" stroke-dashoffset="0" image-rendering="auto">
  <!--Generated by ySVG 2.5-->
  <defs id="genericDefs"/>
  <g>
    <defs id="defs1">
      <linearGradient x1="559" gradientUnits="userSpaceOnUse" x2="639" y1="146.3562" y2="206.3562" id="linearGradient1" spreadMethod="reflect">
        <stop stop-opacity="1" stop-color="white" offset="0%"/>
        <stop stop-opacity="1" stop-color="white" offset="100%"/>
      </linearGradient>
      <linearGradient x1="562" gradientUnits="userSpaceOnUse" x2="642" y1="149.3562" y2="209.3562" id="linearGradient2" spreadMethod="reflect">
        <stop stop-opacity="1" stop-color="white" offset="0%"/>
        <stop stop-opacity="1" stop-color="white" offset="100%"/>
      </linearGradient>
      <linearGradient x1="565" gradientUnits="userSpaceOnUse" x2="645" y1="152.3562" y2="212.3562" id="linearGradient3" spreadMethod="reflect">
        <stop stop-opacity="1" stop-color="white" offset="0%"/>
        <stop stop-opacity="1" stop-color="white" offset="100%"/>
      </linearGradient>
      <linearGradient x1="558.68" gradientUnits="userSpaceOnUse" x2="638.68" y1="365.8385" y2="425.8385" id="linearGradient4" spreadMethod="reflect">
        <stop stop-opacity="1" stop-color="white" offset="0%"/>
        <stop stop-opacity="1" stop-color="white" offset="100%"/>
      </linearGradient>
      <linearGradient x1="561.68" gradientUnits="userSpaceOnUse" x2="641.68" y1="368.8385" y2="428.8385" id="linearGradient5" spreadMethod="reflect">
        <stop stop-opacity="1" stop-color="white" offset="0%"/>
        <stop stop-opacity="1" stop-color="white" offset="100%"/>
      </linearGradient>
      <linearGradient x1="564.68" gradientUnits="userSpaceOnUse" x2="644.68" y1="371.8385" y2="431.8385" id="linearGradient6" spreadMethod="reflect">
        <stop stop-opacity="1" stop-color="white" offset="0%"/>
        <stop stop-opacity="1" stop-color="white" offset="100%"/>
      </linearGradient>
      <clipPath clipPathUnits="userSpaceOnUse" id="clipPath1">
        <path d="M0 0 L511 0 L511 431 L0 431 L0 0 Z"/>
      </clipPath>
      <clipPath clipPathUnits="userSpaceOnUse" id="clipPath2">
        <path d="M223 84 L734 84 L734 515 L223 515 L223 84 Z"/>
      </clipPath>
    </defs>
    <g text-rendering="geometricPrecision" stroke-miterlimit="1.45" shape-rendering="geometricPrecision" transform="matrix(1,0,0,1,-223,-84)" stroke-linecap="butt">
      <rect fill="none" x="373.68" width="350" height="130" y="94.6526" clip-path="url(#clipPath2)"/>
    </g>
    <g font-size="16px" stroke-linecap="butt" transform="matrix(1,0,0,1,-223,-84)" text-rendering="geometricPrecision" font-family="sans-serif" shape-rendering="geometricPrecision" stroke-miterlimit="1.45">
      <text x="495.1409" xml:space="preserve" y="116.1214" clip-path="url(#clipPath2)" stroke="none">Palm Network</text>
      <text x="537.5384" xml:space="preserve" font-size="12px" y="131.5145" clip-path="url(#clipPath2)" stroke="none">PoA</text>
      <rect fill="none" x="233.456" width="100" height="350" y="94.135" clip-path="url(#clipPath2)"/>
      <text x="260.5888" xml:space="preserve" y="265.7599" clip-path="url(#clipPath2)" stroke="none">Infura</text>
      <text x="267.1318" xml:space="preserve" y="284.6037" clip-path="url(#clipPath2)" stroke="none">APIs</text>
    </g>
    <g text-rendering="geometricPrecision" stroke-miterlimit="1.45" shape-rendering="geometricPrecision" transform="matrix(1,0,0,1,-223,-84)" stroke-linecap="butt">
      <path fill="none" d="M449 152.3562 L529 152.3562 L529 204.8562 Q509 189.8562 489 204.8562 Q469 219.8562 449 204.8562 Z" clip-path="url(#clipPath2)"/>
      <text x="467.4155" font-size="14px" y="171.8913" clip-path="url(#clipPath2)" font-family="sans-serif" stroke="none" xml:space="preserve">Bridge</text>
      <text x="456.3926" font-size="14px" y="188.3796" clip-path="url(#clipPath2)" font-family="sans-serif" stroke="none" xml:space="preserve">Contracts</text>
    </g>
    <g fill="url(#linearGradient1)" text-rendering="geometricPrecision" shape-rendering="geometricPrecision" transform="matrix(1,0,0,1,-223,-84)" stroke="url(#linearGradient1)">
      <path d="M559 146.3562 L639 146.3562 L639 198.8562 Q619 183.8562 599 198.8562 Q579 213.8562 559 198.8562 Z" stroke="none" clip-path="url(#clipPath2)"/>
    </g>
    <g text-rendering="geometricPrecision" stroke-miterlimit="1.45" shape-rendering="geometricPrecision" transform="matrix(1,0,0,1,-223,-84)" stroke-linecap="butt">
      <path fill="none" d="M559 146.3562 L639 146.3562 L639 198.8562 Q619 183.8562 599 198.8562 Q579 213.8562 559 198.8562 Z" clip-path="url(#clipPath2)"/>
    </g>
    <g fill="url(#linearGradient2)" text-rendering="geometricPrecision" shape-rendering="geometricPrecision" transform="matrix(1,0,0,1,-223,-84)" stroke="url(#linearGradient2)">
      <path d="M562 149.3562 L642 149.3562 L642 201.8562 Q622 186.8562 602 201.8562 Q582 216.8562 562 201.8562 Z" stroke="none" clip-path="url(#clipPath2)"/>
    </g>
    <g text-rendering="geometricPrecision" stroke-miterlimit="1.45" shape-rendering="geometricPrecision" transform="matrix(1,0,0,1,-223,-84)" stroke-linecap="butt">
      <path fill="none" d="M562 149.3562 L642 149.3562 L642 201.8562 Q622 186.8562 602 201.8562 Q582 216.8562 562 201.8562 Z" clip-path="url(#clipPath2)"/>
    </g>
    <g fill="url(#linearGradient3)" text-rendering="geometricPrecision" shape-rendering="geometricPrecision" transform="matrix(1,0,0,1,-223,-84)" stroke="url(#linearGradient3)">
      <path d="M565 152.3562 L645 152.3562 L645 204.8562 Q625 189.8562 605 204.8562 Q585 219.8562 565 204.8562 Z" stroke="none" clip-path="url(#clipPath2)"/>
    </g>
    <g text-rendering="geometricPrecision" stroke-miterlimit="1.45" shape-rendering="geometricPrecision" transform="matrix(1,0,0,1,-223,-84)" stroke-linecap="butt">
      <path fill="none" d="M565 152.3562 L645 152.3562 L645 204.8562 Q625 189.8562 605 204.8562 Q585 219.8562 565 204.8562 Z" clip-path="url(#clipPath2)"/>
      <text x="583.9385" font-size="14px" y="171.8913" clip-path="url(#clipPath2)" font-family="sans-serif" stroke="none" xml:space="preserve">Token</text>
      <text x="572.3926" font-size="14px" y="188.3796" clip-path="url(#clipPath2)" font-family="sans-serif" stroke="none" xml:space="preserve">Contracts</text>
    </g>
    <g text-rendering="geometricPrecision" stroke-miterlimit="1.45" shape-rendering="geometricPrecision" transform="matrix(1,0,0,1,-223,-84)" stroke-linecap="butt">
      <rect fill="none" x="373.68" width="350" height="130" y="314.135" clip-path="url(#clipPath2)"/>
      <text x="478.2347" font-size="16px" y="335.6037" clip-path="url(#clipPath2)" font-family="sans-serif" stroke="none" xml:space="preserve">Ethereum Mainnet</text>
      <text x="536.5452" xml:space="preserve" y="350.9969" clip-path="url(#clipPath2)" font-family="sans-serif" stroke="none">PoW</text>
    </g>
    <g text-rendering="geometricPrecision" stroke-miterlimit="1.45" shape-rendering="geometricPrecision" transform="matrix(1,0,0,1,-223,-84)" stroke-linecap="butt">
      <path fill="none" d="M448.68 371.8385 L528.68 371.8385 L528.68 424.3385 Q508.68 409.3385 488.68 424.3385 Q468.68 439.3385 448.68 424.3385 Z" clip-path="url(#clipPath2)"/>
      <text x="467.0955" font-size="14px" y="391.3736" clip-path="url(#clipPath2)" font-family="sans-serif" stroke="none" xml:space="preserve">Bridge</text>
      <text x="456.0726" font-size="14px" y="407.8619" clip-path="url(#clipPath2)" font-family="sans-serif" stroke="none" xml:space="preserve">Contracts</text>
    </g>
    <g fill="url(#linearGradient4)" text-rendering="geometricPrecision" shape-rendering="geometricPrecision" transform="matrix(1,0,0,1,-223,-84)" stroke="url(#linearGradient4)">
      <path d="M558.68 365.8385 L638.68 365.8385 L638.68 418.3385 Q618.68 403.3385 598.68 418.3385 Q578.68 433.3385 558.68 418.3385 Z" stroke="none" clip-path="url(#clipPath2)"/>
    </g>
    <g text-rendering="geometricPrecision" stroke-miterlimit="1.45" shape-rendering="geometricPrecision" transform="matrix(1,0,0,1,-223,-84)" stroke-linecap="butt">
      <path fill="none" d="M558.68 365.8385 L638.68 365.8385 L638.68 418.3385 Q618.68 403.3385 598.68 418.3385 Q578.68 433.3385 558.68 418.3385 Z" clip-path="url(#clipPath2)"/>
    </g>
    <g fill="url(#linearGradient5)" text-rendering="geometricPrecision" shape-rendering="geometricPrecision" transform="matrix(1,0,0,1,-223,-84)" stroke="url(#linearGradient5)">
      <path d="M561.68 368.8385 L641.68 368.8385 L641.68 421.3385 Q621.68 406.3385 601.68 421.3385 Q581.68 436.3385 561.68 421.3385 Z" stroke="none" clip-path="url(#clipPath2)"/>
    </g>
    <g text-rendering="geometricPrecision" stroke-miterlimit="1.45" shape-rendering="geometricPrecision" transform="matrix(1,0,0,1,-223,-84)" stroke-linecap="butt">
      <path fill="none" d="M561.68 368.8385 L641.68 368.8385 L641.68 421.3385 Q621.68 406.3385 601.68 421.3385 Q581.68 436.3385 561.68 421.3385 Z" clip-path="url(#clipPath2)"/>
    </g>
    <g fill="url(#linearGradient6)" text-rendering="geometricPrecision" shape-rendering="geometricPrecision" transform="matrix(1,0,0,1,-223,-84)" stroke="url(#linearGradient6)">
      <path d="M564.68 371.8385 L644.68 371.8385 L644.68 424.3385 Q624.68 409.3385 604.68 424.3385 Q584.68 439.3385 564.68 424.3385 Z" stroke="none" clip-path="url(#clipPath2)"/>
    </g>
    <g text-rendering="geometricPrecision" stroke-miterlimit="1.45" shape-rendering="geometricPrecision" transform="matrix(1,0,0,1,-223,-84)" stroke-linecap="butt">
      <path fill="none" d="M564.68 371.8385 L644.68 371.8385 L644.68 424.3385 Q624.68 409.3385 604.68 424.3385 Q584.68 439.3385 564.68 424.3385 Z" clip-path="url(#clipPath2)"/>
      <text x="583.6185" font-size="14px" y="391.3736" clip-path="url(#clipPath2)" font-family="sans-serif" stroke="none" xml:space="preserve">Token</text>
      <text x="572.0726" font-size="14px" y="407.8619" clip-path="url(#clipPath2)" font-family="sans-serif" stroke="none" xml:space="preserve">Contracts</text>
    </g>
    <g text-rendering="geometricPrecision" stroke-miterlimit="1.45" shape-rendering="geometricPrecision" transform="matrix(1,0,0,1,-223,-84)" stroke-linecap="butt">
      <rect x="429" y="249.135" clip-path="url(#clipPath2)" fill="none" width="100" rx="4" ry="4" height="40"/>
      <text x="434.1392" font-size="14px" y="266.1818" clip-path="url(#clipPath2)" font-family="sans-serif" stroke="none" xml:space="preserve">Token Bridge</text>
      <text x="454.3633" font-size="14px" y="282.6701" clip-path="url(#clipPath2)" font-family="sans-serif" stroke="none" xml:space="preserve">Relayer</text>
      <rect x="568" y="249.135" clip-path="url(#clipPath2)" fill="none" width="100" rx="4" ry="4" height="40"/>
      <text x="580.8501" font-size="14px" y="266.1818" clip-path="url(#clipPath2)" font-family="sans-serif" stroke="none" xml:space="preserve">NFT Bridge</text>
      <text x="593.3633" font-size="14px" y="282.6701" clip-path="url(#clipPath2)" font-family="sans-serif" stroke="none" xml:space="preserve">Relayer</text>
      <text x="339.456" xml:space="preserve" y="496.5" clip-path="url(#clipPath2)" font-family="'Monaco'" stroke="none">https://docs.palm.io/Concepts/Architecture/</text>
      <line y2="499.5" fill="none" x1="339.456" clip-path="url(#clipPath2)" x2="649.1064" y1="499.5"/>
      <path fill="none" d="M333.4796 159.6526 L364.68 159.6526" stroke-width="2" clip-path="url(#clipPath2)"/>
      <path d="M373.68 159.6526 L360.18 154.0276 L363.555 159.6526 L360.18 165.2776 Z" stroke-width="2" clip-path="url(#clipPath2)" stroke="none"/>
      <path fill="none" d="M333.4663 379.1349 L364.68 379.1349" stroke-width="2" clip-path="url(#clipPath2)"/>
      <path d="M373.68 379.1349 L360.18 373.5099 L363.555 379.1349 L360.18 384.7599 Z" stroke-width="2" clip-path="url(#clipPath2)" stroke="none"/>
      <path fill="none" d="M479 249.1493 L479 233.6714" stroke-width="2" clip-path="url(#clipPath2)"/>
      <path d="M479 224.6714 L473.375 238.1714 L479 234.7964 L484.625 238.1714 Z" stroke-width="2" clip-path="url(#clipPath2)" stroke="none"/>
      <path fill="none" d="M479 289.1245 L479 305.1265" stroke-width="2" clip-path="url(#clipPath2)"/>
      <path d="M479 314.1265 L484.625 300.6265 L479 304.0015 L473.375 300.6265 Z" stroke-width="2" clip-path="url(#clipPath2)" stroke="none"/>
      <path fill="none" d="M618 249.1169 L618 233.6501" stroke-width="2" clip-path="url(#clipPath2)"/>
      <path d="M618 224.6501 L612.375 238.1501 L618 234.7751 L623.625 238.1501 Z" stroke-width="2" clip-path="url(#clipPath2)" stroke="none"/>
      <path fill="none" d="M618 289.121 L618 305.1458" stroke-width="2" clip-path="url(#clipPath2)"/>
      <path d="M618 314.1458 L623.625 300.6458 L618 304.0208 L612.375 300.6458 Z" stroke-width="2" clip-path="url(#clipPath2)" stroke="none"/>
    </g>
  </g>
</svg>
