<?xml version="1.0" encoding="UTF-8"?><svg xmlns="http://www.w3.org/2000/svg" xmlns:xlink="http://www.w3.org/1999/xlink" fill-opacity="1" color-rendering="auto" color-interpolation="auto" text-rendering="auto" stroke="black" stroke-linecap="square" width="792" stroke-miterlimit="10" shape-rendering="auto" stroke-opacity="1" fill="black" stroke-dasharray="none" font-weight="normal" stroke-width="1" height="1219" font-family="'Dialog'" font-style="normal" stroke-linejoin="miter" font-size="12px" stroke-dashoffset="0" image-rendering="auto">
  <!--Generated by ySVG 2.6-->
  <defs id="genericDefs"/>
  <g>
    <defs id="defs1">
      <clipPath clipPathUnits="userSpaceOnUse" id="clipPath1">
        <path d="M0 0 L792 0 L792 1219 L0 1219 L0 0 Z"/>
      </clipPath>
      <clipPath clipPathUnits="userSpaceOnUse" id="clipPath2">
        <path d="M212 313 L362 313 L362 613 L212 613 L212 313 Z"/>
      </clipPath>
      <clipPath clipPathUnits="userSpaceOnUse" id="clipPath3">
        <path d="M299 59 L449 59 L449 179 L299 179 L299 59 Z"/>
      </clipPath>
      <clipPath clipPathUnits="userSpaceOnUse" id="clipPath4">
        <path d="M119 30 L269 30 L269 230 L119 230 L119 30 Z"/>
      </clipPath>
      <clipPath clipPathUnits="userSpaceOnUse" id="clipPath5">
        <path d="M487 69 L637 69 L637 169 L487 169 L487 69 Z"/>
      </clipPath>
    </defs>
    <g id="y.node.0">
      <g text-rendering="geometricPrecision" stroke-miterlimit="1.45" shape-rendering="geometricPrecision" transform="matrix(1,0,0,1,-47,-20)" stroke-linecap="butt">
        <rect fill="none" x="212" width="150" height="300" y="313"/>
      </g>
      <g text-rendering="geometricPrecision" stroke-miterlimit="1.45" shape-rendering="geometricPrecision" font-family="sans-serif" transform="matrix(1,0,0,1,-47,-20)" stroke-linecap="butt">
        <text x="242.4863" xml:space="preserve" y="329.6016" clip-path="url(#clipPath2)" stroke="none">&lt;&lt;interface&gt;&gt;</text>
      </g>
      <g>
        <g font-size="15px" stroke-linecap="butt" transform="matrix(1,0,0,1,-47,-20)" text-rendering="geometricPrecision" font-family="sans-serif" shape-rendering="geometricPrecision" font-weight="bold" stroke-miterlimit="1.45">
          <text x="254.5391" xml:space="preserve" y="355.6348" clip-path="url(#clipPath2)" stroke="none">Provider</text>
        </g>
      </g>
      <g text-rendering="geometricPrecision" shape-rendering="geometricPrecision" transform="matrix(1,0,0,1,-47,-20)">
        <line y2="363" fill="none" x1="213" clip-path="url(#clipPath2)" x2="361" y1="363"/>
        <line y2="373" fill="none" x1="213" clip-path="url(#clipPath2)" x2="361" y1="373"/>
        <text stroke-linecap="butt" x="217" y="390.4004" clip-path="url(#clipPath2)" font-family="sans-serif" stroke="none" stroke-miterlimit="1.45" xml:space="preserve">estimateGas()</text>
        <text stroke-linecap="butt" x="217" y="404.5332" clip-path="url(#clipPath2)" font-family="sans-serif" stroke="none" stroke-miterlimit="1.45" xml:space="preserve">call()</text>
        <text stroke-linecap="butt" x="217" y="418.666" clip-path="url(#clipPath2)" font-family="sans-serif" stroke="none" stroke-miterlimit="1.45" xml:space="preserve">broadcastTransaction()</text>
        <text stroke-linecap="butt" x="217" y="432.7988" clip-path="url(#clipPath2)" font-family="sans-serif" stroke="none" stroke-miterlimit="1.45" xml:space="preserve">waitForTransaction()</text>
        <text stroke-linecap="butt" x="217" y="446.9316" clip-path="url(#clipPath2)" font-family="sans-serif" stroke="none" stroke-miterlimit="1.45" xml:space="preserve">waitForBlock()</text>
        <text stroke-linecap="butt" x="217" y="461.0645" clip-path="url(#clipPath2)" font-family="sans-serif" stroke="none" stroke-miterlimit="1.45" xml:space="preserve">getBlockNumber()</text>
        <text stroke-linecap="butt" x="217" y="475.1973" clip-path="url(#clipPath2)" font-family="sans-serif" stroke="none" stroke-miterlimit="1.45" xml:space="preserve">getBlock()</text>
        <text stroke-linecap="butt" x="217" y="489.3301" clip-path="url(#clipPath2)" font-family="sans-serif" stroke="none" stroke-miterlimit="1.45" xml:space="preserve">getTransaction()</text>
        <text stroke-linecap="butt" x="217" y="503.4629" clip-path="url(#clipPath2)" font-family="sans-serif" stroke="none" stroke-miterlimit="1.45" xml:space="preserve">getTransactionReceipt()</text>
        <text stroke-linecap="butt" x="217" y="517.5957" clip-path="url(#clipPath2)" font-family="sans-serif" stroke="none" stroke-miterlimit="1.45" xml:space="preserve">getFeeData()</text>
        <text stroke-linecap="butt" x="217" y="531.7285" clip-path="url(#clipPath2)" font-family="sans-serif" stroke="none" stroke-miterlimit="1.45" xml:space="preserve">getLogs()</text>
        <text stroke-linecap="butt" x="217" y="545.8613" clip-path="url(#clipPath2)" font-family="sans-serif" stroke="none" stroke-miterlimit="1.45" xml:space="preserve">getNetwork()</text>
        <text stroke-linecap="butt" x="217" y="559.9941" clip-path="url(#clipPath2)" font-family="sans-serif" stroke="none" stroke-miterlimit="1.45" xml:space="preserve">getCode()</text>
        <text stroke-linecap="butt" x="217" y="574.127" clip-path="url(#clipPath2)" font-family="sans-serif" stroke="none" stroke-miterlimit="1.45" xml:space="preserve">getStorage()</text>
      </g>
    </g>
    <g id="y.node.1">
      <a target="_blank" xlink:type="simple" xlink:href="https://github.com/ethers-io/ethers.js/blob/v6.3.0/src.ts/providers/contracts.ts" xlink:show="new">
        <g text-rendering="geometricPrecision" stroke-miterlimit="1.45" shape-rendering="geometricPrecision" transform="matrix(1,0,0,1,-47,-20)" stroke-linecap="butt">
          <rect fill="none" x="299" width="150" height="120" y="59"/>
          <text x="329.4863" xml:space="preserve" y="75.6016" clip-path="url(#clipPath3)" font-family="sans-serif" stroke="none">&lt;&lt;interface&gt;&gt;</text>
        </g>
        <g>
          <g font-size="15px" stroke-linecap="butt" transform="matrix(1,0,0,1,-47,-20)" text-rendering="geometricPrecision" font-family="sans-serif" shape-rendering="geometricPrecision" font-weight="bold" stroke-miterlimit="1.45">
            <text x="313.2969" xml:space="preserve" y="101.6348" clip-path="url(#clipPath3)" stroke="none">ContractRunner</text>
          </g>
        </g>
        <g text-rendering="geometricPrecision" shape-rendering="geometricPrecision" transform="matrix(1,0,0,1,-47,-20)">
          <line y2="109" fill="none" x1="300" clip-path="url(#clipPath3)" x2="448" y1="109"/>
          <text stroke-linecap="butt" x="304" y="126.4004" clip-path="url(#clipPath3)" font-family="sans-serif" stroke="none" stroke-miterlimit="1.45" xml:space="preserve">provider</text>
          <line y2="133" fill="none" x1="300" clip-path="url(#clipPath3)" x2="448" y1="133"/>
          <text stroke-linecap="butt" x="304" y="150.5332" clip-path="url(#clipPath3)" font-family="sans-serif" stroke="none" stroke-miterlimit="1.45" xml:space="preserve">call()</text>
          <text stroke-linecap="butt" x="304" y="164.666" clip-path="url(#clipPath3)" font-family="sans-serif" stroke="none" stroke-miterlimit="1.45" xml:space="preserve">sendTransaction()</text>
        </g>
      </a>
    </g>
    <g id="y.node.2">
      <a target="_blank" xlink:type="simple" xlink:href="https://github.com/ethers-io/ethers.js/blob/v6.3.0/src.ts/providers/contracts.ts" xlink:show="new">
        <g text-rendering="geometricPrecision" stroke-miterlimit="1.45" shape-rendering="geometricPrecision" transform="matrix(1,0,0,1,-47,-20)" stroke-linecap="butt">
          <rect fill="none" x="119" width="150" height="200" y="30"/>
          <text x="149.4863" xml:space="preserve" y="46.6016" clip-path="url(#clipPath4)" font-family="sans-serif" stroke="none">&lt;&lt;interface&gt;&gt;</text>
        </g>
        <g>
          <g font-size="15px" stroke-linecap="butt" transform="matrix(1,0,0,1,-47,-20)" text-rendering="geometricPrecision" font-family="sans-serif" shape-rendering="geometricPrecision" font-weight="bold" stroke-miterlimit="1.45">
            <text x="128.375" xml:space="preserve" y="72.6348" clip-path="url(#clipPath4)" stroke="none">EventEmitterable</text>
          </g>
        </g>
        <g text-rendering="geometricPrecision" shape-rendering="geometricPrecision" transform="matrix(1,0,0,1,-47,-20)">
          <line y2="80" fill="none" x1="120" clip-path="url(#clipPath4)" x2="268" y1="80"/>
          <line y2="90" fill="none" x1="120" clip-path="url(#clipPath4)" x2="268" y1="90"/>
          <text stroke-linecap="butt" x="124" y="107.4004" clip-path="url(#clipPath4)" font-family="sans-serif" stroke="none" stroke-miterlimit="1.45" xml:space="preserve">emit()</text>
          <text stroke-linecap="butt" x="124" y="121.5332" clip-path="url(#clipPath4)" font-family="sans-serif" stroke="none" stroke-miterlimit="1.45" xml:space="preserve">listenerCount()</text>
          <text stroke-linecap="butt" x="124" y="135.666" clip-path="url(#clipPath4)" font-family="sans-serif" stroke="none" stroke-miterlimit="1.45" xml:space="preserve">listeners()</text>
          <text stroke-linecap="butt" x="124" y="149.7988" clip-path="url(#clipPath4)" font-family="sans-serif" stroke="none" stroke-miterlimit="1.45" xml:space="preserve">addListener()</text>
          <text stroke-linecap="butt" x="124" y="163.9316" clip-path="url(#clipPath4)" font-family="sans-serif" stroke="none" stroke-miterlimit="1.45" xml:space="preserve">removeListener()</text>
          <text stroke-linecap="butt" x="124" y="178.0645" clip-path="url(#clipPath4)" font-family="sans-serif" stroke="none" stroke-miterlimit="1.45" xml:space="preserve">removeAllListeners()</text>
          <text stroke-linecap="butt" x="124" y="192.1973" clip-path="url(#clipPath4)" font-family="sans-serif" stroke="none" stroke-miterlimit="1.45" xml:space="preserve">on()</text>
          <text stroke-linecap="butt" x="124" y="206.3301" clip-path="url(#clipPath4)" font-family="sans-serif" stroke="none" stroke-miterlimit="1.45" xml:space="preserve">once()</text>
          <text stroke-linecap="butt" x="124" y="220.4629" clip-path="url(#clipPath4)" font-family="sans-serif" stroke="none" stroke-miterlimit="1.45" xml:space="preserve">off()</text>
        </g>
      </a>
    </g>
    <g id="y.node.3">
      <a target="_blank" xlink:type="simple" xlink:href="https://github.com/ethers-io/ethers.js/blob/v6.3.0/src.ts/providers/contracts.ts" xlink:show="new">
        <g text-rendering="geometricPrecision" stroke-miterlimit="1.45" shape-rendering="geometricPrecision" transform="matrix(1,0,0,1,-47,-20)" stroke-linecap="butt">
          <rect fill="none" x="487" width="150" height="100" y="69"/>
          <text x="517.4863" xml:space="preserve" y="85.6016" clip-path="url(#clipPath5)" font-family="sans-serif" stroke="none">&lt;&lt;interface&gt;&gt;</text>
        </g>
        <g>
          <g font-size="15px" stroke-linecap="butt" transform="matrix(1,0,0,1,-47,-20)" text-rendering="geometricPrecision" font-family="sans-serif" shape-rendering="geometricPrecision" font-weight="bold" stroke-miterlimit="1.45">
            <text x="506.8669" xml:space="preserve" y="111.6348" clip-path="url(#clipPath5)" stroke="none">NameResolver</text>
          </g>
        </g>
        <g text-rendering="geometricPrecision" shape-rendering="geometricPrecision" transform="matrix(1,0,0,1,-47,-20)">
          <line y2="119" fill="none" x1="488" clip-path="url(#clipPath5)" x2="636" y1="119"/>
          <line y2="129" fill="none" x1="488" clip-path="url(#clipPath5)" x2="636" y1="129"/>
          <text stroke-linecap="butt" x="492" y="146.4004" clip-path="url(#clipPath5)" font-family="sans-serif" stroke="none" stroke-miterlimit="1.45" xml:space="preserve">resolveName()</text>
        </g>
      </a>
    </g>
    <g id="y.node.4">
      <a target="_blank" xlink:type="simple" xlink:href="https://github.com/ethers-io/ethers.js/blob/v6.4.0/src.ts/providers/abstract-provider.ts#L334" xlink:show="new">
        <g text-rendering="geometricPrecision" stroke-miterlimit="1.45" shape-rendering="geometricPrecision" transform="matrix(1,0,0,1,-47,-20)" stroke-linecap="butt">
          <rect fill="none" x="438" width="180" height="100" y="480"/>
        </g>
        <g>
          <g font-size="15px" stroke-linecap="butt" transform="matrix(1,0,0,1,-47,-20)" text-rendering="geometricPrecision" font-family="sans-serif" shape-rendering="geometricPrecision" font-weight="bold" stroke-miterlimit="1.45">
            <text x="462.917" xml:space="preserve" y="499.502" stroke="none">AbstractProvider</text>
          </g>
        </g>
        <g text-rendering="geometricPrecision" shape-rendering="geometricPrecision" transform="matrix(1,0,0,1,-47,-20)">
          <line y2="507" fill="none" x1="439" x2="617" y1="507"/>
          <text x="443" stroke-linecap="butt" y="524.2676" font-family="sans-serif" stroke="none" stroke-miterlimit="1.45" xml:space="preserve">disableCcipRead</text>
          <text x="443" stroke-linecap="butt" y="538.4004" font-family="sans-serif" stroke="none" stroke-miterlimit="1.45" xml:space="preserve">paused</text>
          <text x="443" stroke-linecap="butt" y="552.5332" font-family="sans-serif" stroke="none" stroke-miterlimit="1.45" xml:space="preserve">plugins</text>
          <text x="443" stroke-linecap="butt" y="566.666" font-family="sans-serif" stroke="none" stroke-miterlimit="1.45" xml:space="preserve">provider</text>
          <line y2="574" fill="none" x1="439" x2="617" y1="574"/>
        </g>
      </a>
    </g>
    <g id="y.node.5">
      <a target="_blank" xlink:type="simple" xlink:href="https://github.com/ethers-io/ethers.js/blob/v6.4.0/src.ts/providers/provider-jsonrpc.ts#L356" xlink:show="new">
        <g text-rendering="geometricPrecision" stroke-miterlimit="1.45" shape-rendering="geometricPrecision" transform="matrix(1,0,0,1,-47,-20)" stroke-linecap="butt">
          <rect fill="none" x="438" width="180" height="180" y="645"/>
          <text x="485.4434" xml:space="preserve" y="661.6016" font-family="sans-serif" stroke="none">&lt;&lt;abstract&gt;&gt;</text>
        </g>
        <g>
          <g font-size="15px" stroke-linecap="butt" transform="matrix(1,0,0,1,-47,-20)" text-rendering="geometricPrecision" font-family="sans-serif" shape-rendering="geometricPrecision" font-weight="bold" stroke-miterlimit="1.45">
            <text x="451.3777" xml:space="preserve" y="687.6348" stroke="none">JsonRpcApiProvider</text>
          </g>
        </g>
        <g text-rendering="geometricPrecision" shape-rendering="geometricPrecision" transform="matrix(1,0,0,1,-47,-20)">
          <line y2="695" fill="none" x1="439" x2="617" y1="695"/>
          <line y2="705" fill="none" x1="439" x2="617" y1="705"/>
          <text x="443" stroke-linecap="butt" y="722.4004" font-family="sans-serif" stroke="none" stroke-miterlimit="1.45" xml:space="preserve">getRpcError()</text>
          <text x="443" stroke-linecap="butt" y="736.5332" font-family="sans-serif" stroke="none" stroke-miterlimit="1.45" xml:space="preserve">getRpcRequest()</text>
          <text x="443" stroke-linecap="butt" y="750.666" font-family="sans-serif" stroke="none" stroke-miterlimit="1.45" xml:space="preserve">getRpcTransaction()</text>
          <text x="443" stroke-linecap="butt" y="764.7988" font-family="sans-serif" stroke="none" stroke-miterlimit="1.45" xml:space="preserve">getSigner()</text>
          <text x="443" stroke-linecap="butt" y="778.9316" font-family="sans-serif" stroke="none" stroke-miterlimit="1.45" xml:space="preserve">listAccounts()</text>
          <text x="443" stroke-linecap="butt" y="793.0645" font-family="sans-serif" stroke="none" stroke-miterlimit="1.45" xml:space="preserve">send()</text>
        </g>
      </a>
    </g>
    <g id="y.node.6">
      <a target="_blank" xlink:type="simple" xlink:href="https://github.com/ethers-io/ethers.js/blob/v6.4.0/src.ts/providers/provider-jsonrpc.ts#L951" xlink:show="new">
        <g text-rendering="geometricPrecision" stroke-miterlimit="1.45" shape-rendering="geometricPrecision" transform="matrix(1,0,0,1,-47,-20)" stroke-linecap="butt">
          <rect fill="none" x="177" width="220" height="100" y="872.6667"/>
          <text x="244.4434" xml:space="preserve" y="889.2682" font-family="sans-serif" stroke="none">&lt;&lt;abstract&gt;&gt;</text>
        </g>
        <g>
          <g font-size="15px" stroke-linecap="butt" transform="matrix(1,0,0,1,-47,-20)" text-rendering="geometricPrecision" font-family="sans-serif" shape-rendering="geometricPrecision" font-weight="bold" stroke-miterlimit="1.45">
            <text x="183.7981" xml:space="preserve" y="915.3015" stroke="none">JsonRpcApiPollingProvider</text>
          </g>
        </g>
        <g text-rendering="geometricPrecision" shape-rendering="geometricPrecision" transform="matrix(1,0,0,1,-47,-20)">
          <line y2="923" fill="none" x1="178" x2="396" y1="923"/>
          <text x="182" stroke-linecap="butt" y="940.0671" font-family="sans-serif" stroke="none" stroke-miterlimit="1.45" xml:space="preserve">pollingInterval</text>
          <line y2="947" fill="none" x1="178" x2="396" y1="947"/>
        </g>
      </a>
    </g>
    <g id="y.node.7">
      <a target="_blank" xlink:type="simple" xlink:href="https://github.com/ethers-io/ethers.js/blob/v6.4.0/src.ts/providers/provider-jsonrpc.ts#L990" xlink:show="new">
        <g text-rendering="geometricPrecision" stroke-miterlimit="1.45" shape-rendering="geometricPrecision" transform="matrix(1,0,0,1,-47,-20)" stroke-linecap="butt">
          <rect fill="none" x="197" width="180" height="80" y="1011.3333"/>
        </g>
        <g>
          <g font-size="15px" stroke-linecap="butt" transform="matrix(1,0,0,1,-47,-20)" text-rendering="geometricPrecision" font-family="sans-serif" shape-rendering="geometricPrecision" font-weight="bold" stroke-miterlimit="1.45">
            <text x="223.3086" xml:space="preserve" y="1030.8353" stroke="none">JsonRpcProvider</text>
          </g>
        </g>
        <g text-rendering="geometricPrecision" shape-rendering="geometricPrecision" transform="matrix(1,0,0,1,-47,-20)">
          <line y2="1038" fill="none" x1="198" x2="376" y1="1038"/>
          <line y2="1048" fill="none" x1="198" x2="376" y1="1048"/>
          <text x="202" stroke-linecap="butt" y="1065.601" font-family="sans-serif" stroke="none" stroke-miterlimit="1.45" xml:space="preserve">send()</text>
        </g>
      </a>
    </g>
    <g id="y.node.8">
      <g text-rendering="geometricPrecision" stroke-miterlimit="1.45" shape-rendering="geometricPrecision" transform="matrix(1,0,0,1,-47,-20)" stroke-linecap="butt">
        <rect fill="none" x="629" width="180" height="80" y="847.6667"/>
      </g>
      <g>
        <g font-size="15px" stroke-linecap="butt" transform="matrix(1,0,0,1,-47,-20)" text-rendering="geometricPrecision" font-family="sans-serif" shape-rendering="geometricPrecision" font-weight="bold" stroke-miterlimit="1.45">
          <text x="661.2925" xml:space="preserve" y="867.1686" stroke="none">SocketProvider</text>
        </g>
      </g>
    </g>
    <g id="y.node.9">
      <g text-rendering="geometricPrecision" stroke-miterlimit="1.45" shape-rendering="geometricPrecision" transform="matrix(1,0,0,1,-47,-20)" stroke-linecap="butt">
        <rect fill="none" x="629" width="180" height="80" y="969.6667"/>
      </g>
      <g>
        <g font-size="15px" stroke-linecap="butt" transform="matrix(1,0,0,1,-47,-20)" text-rendering="geometricPrecision" font-family="sans-serif" shape-rendering="geometricPrecision" font-weight="bold" stroke-miterlimit="1.45">
          <text x="645.1499" xml:space="preserve" y="989.1686" stroke="none">WebSocketProvider</text>
        </g>
      </g>
    </g>
    <g id="y.node.10">
      <g text-rendering="geometricPrecision" stroke-miterlimit="1.45" shape-rendering="geometricPrecision" transform="matrix(1,0,0,1,-47,-20)" stroke-linecap="butt">
        <rect fill="none" x="298" width="180" height="80" y="1148"/>
      </g>
      <g>
        <g font-size="15px" stroke-linecap="butt" transform="matrix(1,0,0,1,-47,-20)" text-rendering="geometricPrecision" font-family="sans-serif" shape-rendering="geometricPrecision" font-weight="bold" stroke-miterlimit="1.45">
          <text x="332.2737" xml:space="preserve" y="1167.502" stroke="none">InfuraProvider</text>
        </g>
      </g>
      <g text-rendering="geometricPrecision" shape-rendering="geometricPrecision" transform="matrix(1,0,0,1,-47,-20)">
        <line y2="1175" fill="none" x1="299" x2="477" y1="1175"/>
        <text x="303" stroke-linecap="butt" y="1192.2676" font-family="sans-serif" stroke="none" stroke-miterlimit="1.45" xml:space="preserve">projectId</text>
        <text x="303" stroke-linecap="butt" y="1206.4004" font-family="sans-serif" stroke="none" stroke-miterlimit="1.45" xml:space="preserve">projectSecret</text>
        <line y2="1213" fill="none" x1="299" x2="477" y1="1213"/>
      </g>
    </g>
    <g id="y.node.11">
      <g text-rendering="geometricPrecision" stroke-miterlimit="1.45" shape-rendering="geometricPrecision" transform="matrix(1,0,0,1,-47,-20)" stroke-linecap="butt">
        <rect fill="none" x="609" width="220" height="80" y="1091.6667"/>
      </g>
      <g>
        <g font-size="15px" stroke-linecap="butt" transform="matrix(1,0,0,1,-47,-20)" text-rendering="geometricPrecision" font-family="sans-serif" shape-rendering="geometricPrecision" font-weight="bold" stroke-miterlimit="1.45">
          <text x="621.8845" xml:space="preserve" y="1111.1686" stroke="none">InfuraWebSocketProvider</text>
        </g>
      </g>
      <g text-rendering="geometricPrecision" shape-rendering="geometricPrecision" transform="matrix(1,0,0,1,-47,-20)">
        <line y2="1119" fill="none" x1="610" x2="828" y1="1119"/>
        <text x="614" stroke-linecap="butt" y="1135.9342" font-family="sans-serif" stroke="none" stroke-miterlimit="1.45" xml:space="preserve">projectId</text>
        <text x="614" stroke-linecap="butt" y="1150.067" font-family="sans-serif" stroke="none" stroke-miterlimit="1.45" xml:space="preserve">projectSecret</text>
        <line y2="1157" fill="none" x1="610" x2="828" y1="1157"/>
      </g>
    </g>
    <g id="y.node.12">
      <g text-rendering="geometricPrecision" stroke-miterlimit="1.45" shape-rendering="geometricPrecision" transform="matrix(1,0,0,1,-47,-20)" stroke-linecap="butt">
        <rect fill="none" x="57" width="180" height="80" y="1148"/>
      </g>
      <g>
        <g font-size="15px" stroke-linecap="butt" transform="matrix(1,0,0,1,-47,-20)" text-rendering="geometricPrecision" font-family="sans-serif" shape-rendering="geometricPrecision" font-weight="bold" stroke-miterlimit="1.45">
          <text x="81.6204" xml:space="preserve" y="1167.502" stroke="none">AlchemyProvider</text>
        </g>
      </g>
      <g text-rendering="geometricPrecision" shape-rendering="geometricPrecision" transform="matrix(1,0,0,1,-47,-20)">
        <line y2="1175" fill="none" x1="58" x2="236" y1="1175"/>
        <text x="62" stroke-linecap="butt" y="1192.2676" font-family="sans-serif" stroke="none" stroke-miterlimit="1.45" xml:space="preserve">apiKey</text>
        <line y2="1199" fill="none" x1="58" x2="236" y1="1199"/>
      </g>
    </g>
    <g id="y.edge.0">
      <g text-rendering="geometricPrecision" stroke-miterlimit="1.45" shape-rendering="geometricPrecision" transform="matrix(1,0,0,1,-47,-20)" stroke-linecap="butt">
        <path fill="none" d="M313.0724 312.9879 L350.6588 193.3163"/>
        <path fill="white" d="M355.1535 179.0055 L344.6348 192.4724 L356.0834 196.0682 Z" stroke="none"/>
        <path fill="none" d="M355.1535 179.0055 L344.6348 192.4724 L356.0834 196.0682 Z"/>
      </g>
    </g>
    <g id="y.edge.1">
      <g text-rendering="geometricPrecision" stroke-miterlimit="1.45" shape-rendering="geometricPrecision" transform="matrix(1,0,0,1,-47,-20)" stroke-linecap="butt">
        <path fill="none" d="M245.0978 312.963 L225.9664 244.4604"/>
        <path fill="white" d="M221.9316 230.0132 L220.4565 247.0374 L232.0143 243.8096 Z" stroke="none"/>
        <path fill="none" d="M221.9316 230.0132 L220.4565 247.0374 L232.0143 243.8096 Z"/>
      </g>
    </g>
    <g id="y.edge.2">
      <g text-rendering="geometricPrecision" stroke-miterlimit="1.45" shape-rendering="geometricPrecision" transform="matrix(1,0,0,1,-47,-20)" stroke-linecap="butt">
        <path fill="none" d="M352.9313 312.9735 L497.1288 179.1873"/>
        <path fill="white" d="M508.125 168.9851 L492.3149 175.469 L500.4767 184.2659 Z" stroke="none"/>
        <path fill="none" d="M508.125 168.9851 L492.3149 175.469 L500.4767 184.2659 Z"/>
      </g>
    </g>
    <g id="y.edge.3">
      <g text-rendering="geometricPrecision" stroke-miterlimit="1.45" stroke-dasharray="6,2" shape-rendering="geometricPrecision" transform="matrix(1,0,0,1,-47,-20)" stroke-linecap="butt">
        <path fill="none" d="M438.0074 504.9813 L376.4763 487.8752"/>
        <path fill="white" d="M362.0244 483.8574 L375.8327 493.9238 L379.0469 482.3623 Z" stroke="none"/>
        <path stroke-dasharray="none" fill="none" d="M362.0244 483.8574 L375.8327 493.9238 L379.0469 482.3623 Z"/>
      </g>
    </g>
    <g id="y.edge.4">
      <g text-rendering="geometricPrecision" stroke-miterlimit="1.45" shape-rendering="geometricPrecision" transform="matrix(1,0,0,1,-47,-20)" stroke-linecap="butt">
        <path fill="none" d="M528 644.9872 L528 594.9981"/>
        <path fill="white" d="M528 579.9981 L522 595.9981 L534 595.9981 Z" stroke="none"/>
        <path fill="none" d="M528 579.9981 L522 595.9981 L534 595.9981 Z"/>
      </g>
    </g>
    <g id="y.edge.5">
      <g text-rendering="geometricPrecision" stroke-miterlimit="1.45" shape-rendering="geometricPrecision" transform="matrix(1,0,0,1,-47,-20)" stroke-linecap="butt">
        <path fill="none" d="M351.2216 872.6573 L426.1573 814.3049"/>
        <path fill="white" d="M437.9923 805.089 L421.6819 810.1852 L429.0547 819.6533 Z" stroke="none"/>
        <path fill="none" d="M437.9923 805.089 L421.6819 810.1852 L429.0547 819.6533 Z"/>
      </g>
    </g>
    <g id="y.edge.6">
      <g text-rendering="geometricPrecision" stroke-miterlimit="1.45" shape-rendering="geometricPrecision" transform="matrix(1,0,0,1,-47,-20)" stroke-linecap="butt">
        <path fill="none" d="M287 1011.3449 L287 987.678"/>
        <path fill="white" d="M287 972.678 L281 988.678 L293 988.678 Z" stroke="none"/>
        <path fill="none" d="M287 972.678 L281 988.678 L293 988.678 Z"/>
      </g>
    </g>
    <g id="y.edge.7">
      <g text-rendering="geometricPrecision" stroke-miterlimit="1.45" shape-rendering="geometricPrecision" transform="matrix(1,0,0,1,-47,-20)" stroke-linecap="butt">
        <path fill="none" d="M677.7842 847.6455 L628.7617 800.0439"/>
        <path fill="white" d="M618.0003 789.5945 L625.2994 805.0452 L633.6589 796.436 Z" stroke="none"/>
        <path fill="none" d="M618.0003 789.5945 L625.2994 805.0452 L633.6589 796.436 Z"/>
      </g>
    </g>
    <g id="y.edge.8">
      <g text-rendering="geometricPrecision" stroke-miterlimit="1.45" shape-rendering="geometricPrecision" transform="matrix(1,0,0,1,-47,-20)" stroke-linecap="butt">
        <path fill="none" d="M719 969.6652 L719 942.665"/>
        <path fill="white" d="M719 927.665 L713 943.665 L725 943.665 Z" stroke="none"/>
        <path fill="none" d="M719 927.665 L713 943.665 L725 943.665 Z"/>
      </g>
    </g>
    <g id="y.edge.9">
      <g text-rendering="geometricPrecision" stroke-miterlimit="1.45" shape-rendering="geometricPrecision" transform="matrix(1,0,0,1,-47,-20)" stroke-linecap="butt">
        <path fill="none" d="M358.4348 1147.9943 L325.4761 1103.3967"/>
        <path fill="white" d="M316.5611 1091.3335 L321.2451 1107.767 L330.8957 1100.635 Z" stroke="none"/>
        <path fill="none" d="M316.5611 1091.3335 L321.2451 1107.767 L330.8957 1100.635 Z"/>
      </g>
    </g>
    <g id="y.edge.10">
      <g text-rendering="geometricPrecision" stroke-miterlimit="1.45" shape-rendering="geometricPrecision" transform="matrix(1,0,0,1,-47,-20)" stroke-linecap="butt">
        <path fill="none" d="M719 1091.6652 L719 1064.6649"/>
        <path fill="white" d="M719 1049.6649 L713 1065.6649 L725 1065.6649 Z" stroke="none"/>
        <path fill="none" d="M719 1049.6649 L713 1065.6649 L725 1065.6649 Z"/>
      </g>
    </g>
    <g id="y.edge.11">
      <g text-rendering="geometricPrecision" stroke-miterlimit="1.45" shape-rendering="geometricPrecision" transform="matrix(1,0,0,1,-47,-20)" stroke-linecap="butt">
        <path fill="none" d="M187.9814 1147.9943 L235.2907 1101.8115"/>
        <path fill="white" d="M246.0243 1091.3334 L230.3839 1098.2166 L238.7664 1106.8035 Z" stroke="none"/>
        <path fill="none" d="M246.0243 1091.3334 L230.3839 1098.2166 L238.7664 1106.8035 Z"/>
      </g>
    </g>
  </g>
</svg>
