<?xml version="1.0" encoding="UTF-8"?><svg xmlns="http://www.w3.org/2000/svg" xmlns:xlink="http://www.w3.org/1999/xlink" fill-opacity="1" color-rendering="auto" color-interpolation="auto" text-rendering="auto" stroke="black" stroke-linecap="square" width="1176" stroke-miterlimit="10" shape-rendering="auto" stroke-opacity="1" fill="black" stroke-dasharray="none" font-weight="normal" stroke-width="1" height="427" font-family="'Dialog'" font-style="normal" stroke-linejoin="miter" font-size="12px" stroke-dashoffset="0" image-rendering="auto">
  <!--Generated by ySVG 2.5-->
  <defs id="genericDefs"/>
  <g>
    <defs id="defs1">
      <clipPath clipPathUnits="userSpaceOnUse" id="clipPath1">
        <path d="M0 0 L1176 0 L1176 427 L0 427 L0 0 Z"/>
      </clipPath>
      <clipPath clipPathUnits="userSpaceOnUse" id="clipPath2">
        <path d="M298 148 L1082 148 L1082 432.6667 L298 432.6667 L298 148 Z"/>
      </clipPath>
    </defs>
    <g text-rendering="geometricPrecision" stroke-miterlimit="1.45" shape-rendering="geometricPrecision" transform="matrix(1.5,0,0,1.5,-447,-222)" stroke-linecap="butt">
      <circle fill="none" r="25" clip-path="url(#clipPath2)" cx="420" cy="180"/>
    </g>
    <g font-size="16px" stroke-linecap="butt" transform="matrix(1.5,0,0,1.5,-447,-222)" text-rendering="geometricPrecision" font-family="'Comic Sans MS'" shape-rendering="geometricPrecision" font-style="italic" stroke-miterlimit="1.45">
      <text x="416.3984" xml:space="preserve" y="186.4844" clip-path="url(#clipPath2)" stroke="none">1</text>
    </g>
    <g fill="rgb(255,204,153)" text-rendering="geometricPrecision" shape-rendering="geometricPrecision" transform="matrix(1.5,0,0,1.5,-447,-222)" stroke="rgb(255,204,153)">
      <circle r="25" clip-path="url(#clipPath2)" cx="330" cy="270" stroke="none"/>
    </g>
    <g text-rendering="geometricPrecision" stroke-miterlimit="1.45" shape-rendering="geometricPrecision" transform="matrix(1.5,0,0,1.5,-447,-222)" stroke-linecap="butt">
      <circle fill="none" r="25" clip-path="url(#clipPath2)" cx="330" cy="270"/>
      <text x="325.1172" font-size="16px" y="276.4844" clip-path="url(#clipPath2)" font-family="'Comic Sans MS'" font-style="italic" stroke="none" xml:space="preserve">2</text>
      <circle fill="none" r="25" clip-path="url(#clipPath2)" cx="510" cy="270"/>
      <text x="505.1172" font-size="16px" y="276.4844" clip-path="url(#clipPath2)" font-family="'Comic Sans MS'" font-style="italic" stroke="none" xml:space="preserve">4</text>
      <circle fill="none" r="25" clip-path="url(#clipPath2)" cx="420" cy="360"/>
      <text x="415.1172" font-size="16px" y="366.4844" clip-path="url(#clipPath2)" font-family="'Comic Sans MS'" font-style="italic" stroke="none" xml:space="preserve">3</text>
      <circle fill="none" r="25" clip-path="url(#clipPath2)" cx="690" cy="180"/>
      <text x="686.3984" font-size="16px" y="186.4844" clip-path="url(#clipPath2)" font-family="'Comic Sans MS'" font-style="italic" stroke="none" xml:space="preserve">1</text>
    </g>
    <g fill="rgb(255,204,153)" text-rendering="geometricPrecision" shape-rendering="geometricPrecision" transform="matrix(1.5,0,0,1.5,-447,-222)" stroke="rgb(255,204,153)">
      <circle r="25" clip-path="url(#clipPath2)" cx="600" cy="270" stroke="none"/>
    </g>
    <g text-rendering="geometricPrecision" stroke-miterlimit="1.45" shape-rendering="geometricPrecision" transform="matrix(1.5,0,0,1.5,-447,-222)" stroke-linecap="butt">
      <circle fill="none" r="25" clip-path="url(#clipPath2)" cx="600" cy="270"/>
      <text x="595.1172" font-size="16px" y="276.4844" clip-path="url(#clipPath2)" font-family="'Comic Sans MS'" font-style="italic" stroke="none" xml:space="preserve">2</text>
      <circle fill="none" r="25" clip-path="url(#clipPath2)" cx="780" cy="270"/>
      <text x="775.1172" font-size="16px" y="276.4844" clip-path="url(#clipPath2)" font-family="'Comic Sans MS'" font-style="italic" stroke="none" xml:space="preserve">4</text>
      <circle fill="none" r="25" clip-path="url(#clipPath2)" cx="690" cy="360"/>
      <text x="685.1172" font-size="16px" y="366.4844" clip-path="url(#clipPath2)" font-family="'Comic Sans MS'" font-style="italic" stroke="none" xml:space="preserve">3</text>
      <circle fill="none" r="25" clip-path="url(#clipPath2)" cx="960" cy="180"/>
      <text x="956.3984" font-size="16px" y="186.4844" clip-path="url(#clipPath2)" font-family="'Comic Sans MS'" font-style="italic" stroke="none" xml:space="preserve">1</text>
    </g>
    <g fill="rgb(255,204,153)" text-rendering="geometricPrecision" shape-rendering="geometricPrecision" transform="matrix(1.5,0,0,1.5,-447,-222)" stroke="rgb(255,204,153)">
      <circle r="25" clip-path="url(#clipPath2)" cx="870" cy="270" stroke="none"/>
    </g>
    <g text-rendering="geometricPrecision" stroke-miterlimit="1.45" shape-rendering="geometricPrecision" transform="matrix(1.5,0,0,1.5,-447,-222)" stroke-linecap="butt">
      <circle fill="none" r="25" clip-path="url(#clipPath2)" cx="870" cy="270"/>
      <text x="865.1172" font-size="16px" y="276.4844" clip-path="url(#clipPath2)" font-family="'Comic Sans MS'" font-style="italic" stroke="none" xml:space="preserve">2</text>
      <circle fill="none" r="25" clip-path="url(#clipPath2)" cx="1050" cy="270"/>
      <text x="1045.1172" font-size="16px" y="276.4844" clip-path="url(#clipPath2)" font-family="'Comic Sans MS'" font-style="italic" stroke="none" xml:space="preserve">4</text>
      <circle fill="none" r="25" clip-path="url(#clipPath2)" cx="960" cy="360"/>
      <text x="955.1172" font-size="16px" y="366.4844" clip-path="url(#clipPath2)" font-family="'Comic Sans MS'" font-style="italic" stroke="none" xml:space="preserve">3</text>
    </g>
    <g stroke-linecap="butt" font-size="14px" transform="matrix(1.5,0,0,1.5,-447,-222)" fill="blue" text-rendering="geometricPrecision" font-family="'Comic Sans MS'" shape-rendering="geometricPrecision" font-style="italic" stroke="blue" stroke-miterlimit="1.45">
      <text x="322.0991" xml:space="preserve" y="416.0738" clip-path="url(#clipPath2)" stroke="none">v:2:::1 = (v:2:1, v:2:3:1, v:2:4:1)</text>
      <text x="592.0991" xml:space="preserve" y="416.0738" clip-path="url(#clipPath2)" stroke="none">v:2:::1 = (v:2:1, v:2:3:1, v:2:4:1)</text>
      <text x="862.0991" xml:space="preserve" y="416.0738" clip-path="url(#clipPath2)" stroke="none">v:2:::1 = (v:2:1, v:2:3:1, v:2:4:1)</text>
    </g>
    <g text-rendering="geometricPrecision" stroke-miterlimit="1.45" shape-rendering="geometricPrecision" transform="matrix(1.5,0,0,1.5,-447,-222)" stroke-linecap="butt">
      <path fill="none" d="M347.6777 252.3223 L396.6655 203.3345" clip-path="url(#clipPath2)"/>
      <path d="M402.3223 197.6777 L390.3015 202.6274 L395.9583 204.0416 L397.3726 209.6985 Z" clip-path="url(#clipPath2)" stroke="none"/>
    </g>
    <g stroke-linecap="butt" font-size="16px" transform="matrix(1.5,0,0,1.5,-447,-222)" fill="blue" text-rendering="geometricPrecision" font-family="'Comic Sans MS'" shape-rendering="geometricPrecision" font-style="italic" stroke="blue" font-weight="bold" stroke-miterlimit="1.45">
      <text x="338.4463" xml:space="preserve" y="209.7244" clip-path="url(#clipPath2)" stroke="none">v:2:1</text>
    </g>
    <g text-rendering="geometricPrecision" stroke-miterlimit="1.45" shape-rendering="geometricPrecision" transform="matrix(1.5,0,0,1.5,-447,-222)" stroke-linecap="butt">
      <path fill="none" d="M355 270 L500 270 L503.933 269.558 L505.7322 268.2322 L505.3975 266.0225 L502.9289 262.9289 L443.3345 203.3345" clip-path="url(#clipPath2)"/>
      <path d="M437.6777 197.6777 L442.6274 209.6985 L444.0417 204.0416 L449.6985 202.6274 Z" clip-path="url(#clipPath2)" stroke="none"/>
    </g>
    <g stroke-linecap="butt" font-size="16px" transform="matrix(1.5,0,0,1.5,-447,-222)" fill="blue" text-rendering="geometricPrecision" font-family="'Comic Sans MS'" shape-rendering="geometricPrecision" font-style="italic" stroke="blue" font-weight="bold" stroke-miterlimit="1.45">
      <text x="464.4947" xml:space="preserve" y="214.2044" clip-path="url(#clipPath2)" stroke="none">v:2:4:1</text>
    </g>
    <g text-rendering="geometricPrecision" stroke-miterlimit="1.45" shape-rendering="geometricPrecision" transform="matrix(1.5,0,0,1.5,-447,-222)" stroke-linecap="butt">
      <path fill="none" d="M347.6777 287.6777 L412.9289 352.9289 L416.0225 355.3975 L418.2322 355.7322 L419.558 353.933 L420 350 L420 213" clip-path="url(#clipPath2)"/>
      <path d="M420 205 L415 217 L420 214 L425 217 Z" clip-path="url(#clipPath2)" stroke="none"/>
    </g>
    <g stroke-linecap="butt" font-size="16px" transform="matrix(1.5,0,0,1.5,-447,-222)" fill="blue" text-rendering="geometricPrecision" font-family="'Comic Sans MS'" shape-rendering="geometricPrecision" font-style="italic" stroke="blue" font-weight="bold" stroke-miterlimit="1.45">
      <text x="429.9347" xml:space="preserve" y="331.9644" clip-path="url(#clipPath2)" stroke="none">v:2:3:1</text>
    </g>
    <g text-rendering="geometricPrecision" stroke-miterlimit="1.45" shape-rendering="geometricPrecision" transform="matrix(1.5,0,0,1.5,-447,-222)" stroke-linecap="butt">
      <path fill="none" d="M617.6777 287.6777 L666.6655 336.6655" clip-path="url(#clipPath2)"/>
      <path d="M672.3223 342.3223 L667.3726 330.3015 L665.9584 335.9584 L660.3015 337.3726 Z" clip-path="url(#clipPath2)" stroke="none"/>
    </g>
    <g stroke-linecap="butt" font-size="16px" transform="matrix(1.5,0,0,1.5,-447,-222)" fill="blue" text-rendering="geometricPrecision" font-family="'Comic Sans MS'" shape-rendering="geometricPrecision" font-style="italic" stroke="blue" font-weight="bold" stroke-miterlimit="1.45">
      <text x="608.5262" xml:space="preserve" y="352.4444" clip-path="url(#clipPath2)" stroke="none">v:2:3</text>
    </g>
    <g text-rendering="geometricPrecision" stroke-miterlimit="1.45" shape-rendering="geometricPrecision" transform="matrix(1.5,0,0,1.5,-447,-222)" stroke-linecap="butt">
      <path fill="none" d="M625 270 L770 270 L773.933 270.442 L775.7322 271.7678 L775.3975 273.9775 L772.929 277.0711 L713.3345 336.6655" clip-path="url(#clipPath2)"/>
      <path d="M707.6777 342.3223 L719.6985 337.3726 L714.0416 335.9584 L712.6274 330.3015 Z" clip-path="url(#clipPath2)" stroke="none"/>
    </g>
    <g stroke-linecap="butt" font-size="16px" transform="matrix(1.5,0,0,1.5,-447,-222)" fill="blue" text-rendering="geometricPrecision" font-family="'Comic Sans MS'" shape-rendering="geometricPrecision" font-style="italic" stroke="blue" font-weight="bold" stroke-miterlimit="1.45">
      <text x="727.5347" xml:space="preserve" y="348.6044" clip-path="url(#clipPath2)" stroke="none">v:2:4:3</text>
    </g>
    <g text-rendering="geometricPrecision" stroke-miterlimit="1.45" shape-rendering="geometricPrecision" transform="matrix(1.5,0,0,1.5,-447,-222)" stroke-linecap="butt">
      <path fill="none" d="M617.6777 252.3223 L682.929 187.0711 L686.0225 184.6025 L688.2322 184.2678 L689.558 186.0669 L690 190 L690 327" clip-path="url(#clipPath2)"/>
      <path d="M690 335 L695 323 L690 326 L685 323 Z" clip-path="url(#clipPath2)" stroke="none"/>
    </g>
    <g stroke-linecap="butt" font-size="16px" transform="matrix(1.5,0,0,1.5,-447,-222)" fill="blue" text-rendering="geometricPrecision" font-family="'Comic Sans MS'" shape-rendering="geometricPrecision" font-style="italic" stroke="blue" font-weight="bold" stroke-miterlimit="1.45">
      <text x="697.4547" xml:space="preserve" y="224.4444" clip-path="url(#clipPath2)" stroke="none">v:2:1:3</text>
    </g>
    <g text-rendering="geometricPrecision" stroke-miterlimit="1.45" shape-rendering="geometricPrecision" transform="matrix(1.5,0,0,1.5,-447,-222)" stroke-linecap="butt">
      <path fill="none" d="M895 270 L1017 270" clip-path="url(#clipPath2)"/>
      <path d="M1025 270 L1013 265 L1016 270 L1013 275 Z" clip-path="url(#clipPath2)" stroke="none"/>
    </g>
    <g stroke-linecap="butt" font-size="16px" transform="matrix(1.5,0,0,1.5,-447,-222)" fill="blue" text-rendering="geometricPrecision" font-family="'Comic Sans MS'" shape-rendering="geometricPrecision" font-style="italic" stroke="blue" font-weight="bold" stroke-miterlimit="1.45">
      <text x="962.0846" xml:space="preserve" y="264.2399" clip-path="url(#clipPath2)" stroke="none">v:2:4</text>
    </g>
    <g text-rendering="geometricPrecision" stroke-miterlimit="1.45" shape-rendering="geometricPrecision" transform="matrix(1.5,0,0,1.5,-447,-222)" stroke-linecap="butt">
      <path fill="none" d="M887.6777 252.3223 L952.929 187.0711 L956.4645 184.4194 L960 183.5355 L963.5355 184.4194 L967.071 187.0711 L1026.6655 246.6655" clip-path="url(#clipPath2)"/>
      <path d="M1032.3224 252.3223 L1027.3727 240.3015 L1025.9584 245.9584 L1020.3016 247.3726 Z" clip-path="url(#clipPath2)" stroke="none"/>
    </g>
    <g stroke-linecap="butt" font-size="16px" transform="matrix(1.5,0,0,1.5,-447,-222)" fill="blue" text-rendering="geometricPrecision" font-family="'Comic Sans MS'" shape-rendering="geometricPrecision" font-style="italic" stroke="blue" font-weight="bold" stroke-miterlimit="1.45">
      <text x="1009.733" xml:space="preserve" y="224.2399" clip-path="url(#clipPath2)" stroke="none">v:2:1:4</text>
    </g>
    <g text-rendering="geometricPrecision" stroke-miterlimit="1.45" shape-rendering="geometricPrecision" transform="matrix(1.5,0,0,1.5,-447,-222)" stroke-linecap="butt">
      <path fill="none" d="M887.6777 287.6777 L952.929 352.9289 L956.4645 355.5806 L960 356.4645 L963.5355 355.5806 L967.071 352.9289 L1026.6655 293.3345" clip-path="url(#clipPath2)"/>
      <path d="M1032.3224 287.6777 L1020.3016 292.6274 L1025.9584 294.0416 L1027.3727 299.6985 Z" clip-path="url(#clipPath2)" stroke="none"/>
    </g>
    <g stroke-linecap="butt" font-size="16px" transform="matrix(1.5,0,0,1.5,-447,-222)" fill="blue" text-rendering="geometricPrecision" font-family="'Comic Sans MS'" shape-rendering="geometricPrecision" font-style="italic" stroke="blue" font-weight="bold" stroke-miterlimit="1.45">
      <text x="1004.1331" xml:space="preserve" y="329.8399" clip-path="url(#clipPath2)" stroke="none">v:2:3:1</text>
    </g>
  </g>
</svg>
