<?xml version="1.0" encoding="UTF-8"?><svg xmlns="http://www.w3.org/2000/svg" xmlns:xlink="http://www.w3.org/1999/xlink" fill-opacity="1" color-rendering="auto" color-interpolation="auto" text-rendering="auto" stroke="black" stroke-linecap="square" width="1694" stroke-miterlimit="10" shape-rendering="auto" stroke-opacity="1" fill="black" stroke-dasharray="none" font-weight="normal" stroke-width="1" height="1099" font-family="'Dialog'" font-style="normal" stroke-linejoin="miter" font-size="12px" stroke-dashoffset="0" image-rendering="auto">
  <!--Generated by ySVG 2.5-->
  <defs id="genericDefs"/>
  <g>
    <defs id="defs1">
      <clipPath clipPathUnits="userSpaceOnUse" id="clipPath1">
        <path d="M0 0 L1694 0 L1694 1099 L0 1099 L0 0 Z"/>
      </clipPath>
      <clipPath clipPathUnits="userSpaceOnUse" id="clipPath2">
        <path d="M216 -176 L1910 -176 L1910 923 L216 923 L216 -176 Z"/>
      </clipPath>
    </defs>
    <g text-rendering="geometricPrecision" stroke-miterlimit="1.45" stroke-dasharray="6,2" shape-rendering="geometricPrecision" transform="matrix(1,0,0,1,-216,176)" stroke-linecap="butt">
      <rect x="753.161" y="-165.0659" clip-path="url(#clipPath2)" fill="none" width="1146.2009" rx="4" ry="4" height="1077.89"/>
    </g>
    <g font-size="30px" stroke-linecap="butt" transform="matrix(1,0,0,1,-216,176)" text-rendering="geometricPrecision" font-family="'Comic Sans MS'" shape-rendering="geometricPrecision" stroke-miterlimit="1.45">
      <text x="759.161" xml:space="preserve" y="-126.0044" clip-path="url(#clipPath2)" stroke="none">Ethereum Network</text>
    </g>
    <g stroke-linecap="butt" transform="matrix(1,0,0,1,-216,176)" fill="gray" text-rendering="geometricPrecision" shape-rendering="geometricPrecision" stroke="gray" stroke-width="2" stroke-miterlimit="1.45">
      <rect fill="none" x="434.9513" width="120" height="140" y="234.2283" clip-path="url(#clipPath2)"/>
      <rect fill="none" x="340.5333" width="120" height="140" y="-56.0914" clip-path="url(#clipPath2)"/>
      <rect fill="none" x="517.5851" width="120" height="140" y="707.9447" clip-path="url(#clipPath2)"/>
      <rect fill="none" x="417.9513" width="120" height="140" y="420.2283" clip-path="url(#clipPath2)"/>
      <rect x="821.5" y="342.75" clip-path="url(#clipPath2)" fill="none" width="260" height="220" stroke-width="3"/>
    </g>
    <g stroke-linecap="butt" font-size="24px" transform="matrix(1,0,0,1,-216,176)" fill="rgb(102,102,153)" text-rendering="geometricPrecision" font-family="'Comic Sans MS'" shape-rendering="geometricPrecision" stroke="rgb(102,102,153)" stroke-miterlimit="1.45">
      <text x="863.8613" xml:space="preserve" y="595.1992" clip-path="url(#clipPath2)" stroke="none">Ethereum Node</text>
    </g>
    <g stroke-linecap="butt" transform="matrix(1,0,0,1,-216,176)" fill="gray" text-rendering="geometricPrecision" shape-rendering="geometricPrecision" stroke="gray" stroke-width="2" stroke-miterlimit="1.45">
      <rect x="967.2438" y="356" clip-path="url(#clipPath2)" fill="none" width="100" rx="4" ry="4" height="80"/>
    </g>
    <g stroke-linecap="butt" font-size="26px" transform="matrix(1,0,0,1,-216,176)" fill="rgb(102,102,153)" text-rendering="geometricPrecision" font-family="'Comic Sans MS'" shape-rendering="geometricPrecision" stroke="rgb(102,102,153)" font-weight="bold" stroke-miterlimit="1.45">
      <text x="988.8761" xml:space="preserve" y="406.5371" clip-path="url(#clipPath2)" stroke="none">EVM</text>
    </g>
    <g stroke-linecap="butt" transform="matrix(1,0,0,1,-216,176)" fill="gray" text-rendering="geometricPrecision" shape-rendering="geometricPrecision" stroke="gray" stroke-width="2" stroke-miterlimit="1.45">
      <rect x="834.5" y="356" clip-path="url(#clipPath2)" fill="none" width="120" rx="4" ry="4" height="80"/>
    </g>
    <g stroke-linecap="butt" font-size="22px" transform="matrix(1,0,0,1,-216,176)" fill="rgb(102,102,153)" text-rendering="geometricPrecision" font-family="'Comic Sans MS'" shape-rendering="geometricPrecision" stroke="rgb(102,102,153)" font-weight="bold" stroke-miterlimit="1.45">
      <text x="835.4126" xml:space="preserve" y="389.5869" clip-path="url(#clipPath2)" stroke="none">JSON-RPC</text>
      <text x="874.584" xml:space="preserve" y="420.2451" clip-path="url(#clipPath2)" stroke="none">API</text>
    </g>
    <g stroke-linecap="butt" transform="matrix(1,0,0,1,-216,176)" fill="gray" text-rendering="geometricPrecision" shape-rendering="geometricPrecision" stroke="gray" stroke-width="2" stroke-miterlimit="1.45">
      <rect x="967.2438" y="449.5" clip-path="url(#clipPath2)" fill="none" width="100" rx="4" ry="4" height="100"/>
    </g>
    <g stroke-linecap="butt" font-size="26px" transform="matrix(1,0,0,1,-216,176)" fill="rgb(102,102,153)" text-rendering="geometricPrecision" font-family="'Comic Sans MS'" shape-rendering="geometricPrecision" stroke="rgb(102,102,153)" font-weight="bold" stroke-miterlimit="1.45">
      <text x="974.7653" xml:space="preserve" y="480.1533" clip-path="url(#clipPath2)" stroke="none">Ledger</text>
    </g>
    <g stroke-linecap="butt" transform="matrix(1,0,0,1,-216,176)" fill="gray" text-rendering="geometricPrecision" shape-rendering="geometricPrecision" stroke="gray" stroke-width="3" stroke-miterlimit="1.45">
      <circle fill="none" r="12.5" clip-path="url(#clipPath2)" cx="802" cy="396"/>
      <rect x="444.9513" y="246.7283" clip-path="url(#clipPath2)" fill="none" width="100" rx="4" ry="4" height="45" stroke-width="2"/>
    </g>
    <g stroke-linecap="butt" font-size="18px" transform="matrix(1,0,0,1,-216,176)" fill="rgb(102,102,153)" text-rendering="geometricPrecision" font-family="'Comic Sans MS'" shape-rendering="geometricPrecision" stroke="rgb(102,102,153)" stroke-miterlimit="1.45">
      <text x="448.6154" xml:space="preserve" y="263.9812" clip-path="url(#clipPath2)" stroke="none">JavaScript</text>
      <text x="448.3209" xml:space="preserve" y="289.0652" clip-path="url(#clipPath2)" stroke="none">Application</text>
    </g>
    <g stroke-linecap="butt" transform="matrix(1,0,0,1,-216,176)" fill="gray" text-rendering="geometricPrecision" shape-rendering="geometricPrecision" stroke="gray" stroke-width="2" stroke-miterlimit="1.45">
      <rect x="444.9513" y="297.7283" clip-path="url(#clipPath2)" fill="none" width="100" rx="4" ry="4" height="30"/>
    </g>
    <g stroke-linecap="butt" font-size="22px" transform="matrix(1,0,0,1,-216,176)" fill="rgb(102,102,153)" text-rendering="geometricPrecision" font-family="'Comic Sans MS'" shape-rendering="geometricPrecision" stroke="rgb(102,102,153)" font-weight="bold" stroke-miterlimit="1.45">
      <text x="453.4757" xml:space="preserve" y="321.6443" clip-path="url(#clipPath2)" stroke="none">web3.js</text>
    </g>
    <g stroke-linecap="butt" transform="matrix(1,0,0,1,-216,176)" fill="gray" text-rendering="geometricPrecision" shape-rendering="geometricPrecision" stroke="gray" stroke-width="2" stroke-miterlimit="1.45">
      <path fill="none" d="M982.4876 489.8719 L1042.4875 489.8719 L1042.4875 533.6219 Q1027.4875 521.1219 1012.4876 533.6219 Q997.4876 546.1219 982.4876 533.6219 Z" clip-path="url(#clipPath2)"/>
    </g>
    <g stroke-linecap="butt" font-size="16px" transform="matrix(1,0,0,1,-216,176)" fill="rgb(102,102,153)" text-rendering="geometricPrecision" font-family="'Comic Sans MS'" shape-rendering="geometricPrecision" stroke="rgb(102,102,153)" font-weight="bold" stroke-miterlimit="1.45">
      <text x="988.6673" xml:space="preserve" y="509.5047" clip-path="url(#clipPath2)" stroke="none">Smart</text>
      <text x="979.2064" xml:space="preserve" y="531.8016" clip-path="url(#clipPath2)" stroke="none">Contract</text>
    </g>
    <g stroke-linecap="butt" transform="matrix(1,0,0,1,-216,176)" fill="gray" text-rendering="geometricPrecision" shape-rendering="geometricPrecision" stroke="gray" stroke-width="2" stroke-miterlimit="1.45">
      <rect x="444.9513" y="333.7283" clip-path="url(#clipPath2)" fill="none" width="100" rx="4" ry="4" height="30"/>
    </g>
    <g stroke-linecap="butt" font-size="22px" transform="matrix(1,0,0,1,-216,176)" fill="rgb(102,102,153)" text-rendering="geometricPrecision" font-family="'Comic Sans MS'" shape-rendering="geometricPrecision" stroke="rgb(102,102,153)" stroke-miterlimit="1.45">
      <text x="455.3824" xml:space="preserve" y="357.6443" clip-path="url(#clipPath2)" stroke="none">Node.js</text>
    </g>
    <g stroke-linecap="butt" transform="matrix(1,0,0,1,-216,176)" fill="gray" text-rendering="geometricPrecision" shape-rendering="geometricPrecision" stroke="gray" stroke-width="2" stroke-miterlimit="1.45">
      <rect x="427.9513" y="429.7283" clip-path="url(#clipPath2)" fill="none" width="100" rx="4" ry="4" height="45"/>
    </g>
    <g stroke-linecap="butt" font-size="18px" transform="matrix(1,0,0,1,-216,176)" fill="rgb(102,102,153)" text-rendering="geometricPrecision" font-family="'Comic Sans MS'" shape-rendering="geometricPrecision" stroke="rgb(102,102,153)" stroke-miterlimit="1.45">
      <text x="449.6989" xml:space="preserve" y="446.9812" clip-path="url(#clipPath2)" stroke="none">Python</text>
      <text x="431.3209" xml:space="preserve" y="472.0652" clip-path="url(#clipPath2)" stroke="none">Application</text>
    </g>
    <g stroke-linecap="butt" transform="matrix(1,0,0,1,-216,176)" fill="gray" text-rendering="geometricPrecision" shape-rendering="geometricPrecision" stroke="gray" stroke-width="2" stroke-miterlimit="1.45">
      <rect x="427.9513" y="480.7283" clip-path="url(#clipPath2)" fill="none" width="100" rx="4" ry="4" height="30"/>
    </g>
    <g stroke-linecap="butt" font-size="22px" transform="matrix(1,0,0,1,-216,176)" fill="rgb(102,102,153)" text-rendering="geometricPrecision" font-family="'Comic Sans MS'" shape-rendering="geometricPrecision" stroke="rgb(102,102,153)" font-weight="bold" stroke-miterlimit="1.45">
      <text x="430.3956" xml:space="preserve" y="504.6443" clip-path="url(#clipPath2)" stroke="none">Web3.py</text>
    </g>
    <g stroke-linecap="butt" transform="matrix(1,0,0,1,-216,176)" fill="gray" text-rendering="geometricPrecision" shape-rendering="geometricPrecision" stroke="gray" stroke-width="2" stroke-miterlimit="1.45">
      <rect x="427.9513" y="516.7283" clip-path="url(#clipPath2)" fill="none" width="100" rx="4" ry="4" height="30"/>
    </g>
    <g stroke-linecap="butt" font-size="22px" transform="matrix(1,0,0,1,-216,176)" fill="rgb(102,102,153)" text-rendering="geometricPrecision" font-family="'Comic Sans MS'" shape-rendering="geometricPrecision" stroke="rgb(102,102,153)" stroke-miterlimit="1.45">
      <text x="443.4205" xml:space="preserve" y="540.6443" clip-path="url(#clipPath2)" stroke="none">Python</text>
    </g>
    <g stroke-linecap="butt" transform="matrix(1,0,0,1,-216,176)" fill="gray" text-rendering="geometricPrecision" shape-rendering="geometricPrecision" stroke="gray" stroke-width="2" stroke-miterlimit="1.45">
      <rect x="527.5851" y="718.6947" clip-path="url(#clipPath2)" fill="none" width="100" rx="4" ry="4" height="45"/>
    </g>
    <g stroke-linecap="butt" font-size="18px" transform="matrix(1,0,0,1,-216,176)" fill="rgb(102,102,153)" text-rendering="geometricPrecision" font-family="'Comic Sans MS'" shape-rendering="geometricPrecision" stroke="rgb(102,102,153)" stroke-miterlimit="1.45">
      <text x="558.0118" xml:space="preserve" y="735.9476" clip-path="url(#clipPath2)" stroke="none">Java</text>
      <text x="530.9547" xml:space="preserve" y="761.0316" clip-path="url(#clipPath2)" stroke="none">Application</text>
    </g>
    <g stroke-linecap="butt" transform="matrix(1,0,0,1,-216,176)" fill="gray" text-rendering="geometricPrecision" shape-rendering="geometricPrecision" stroke="gray" stroke-width="2" stroke-miterlimit="1.45">
      <rect x="527.5851" y="769.6947" clip-path="url(#clipPath2)" fill="none" width="100" rx="4" ry="4" height="30"/>
    </g>
    <g stroke-linecap="butt" font-size="22px" transform="matrix(1,0,0,1,-216,176)" fill="rgb(102,102,153)" text-rendering="geometricPrecision" font-family="'Comic Sans MS'" shape-rendering="geometricPrecision" stroke="rgb(102,102,153)" font-weight="bold" stroke-miterlimit="1.45">
      <text x="542.3239" xml:space="preserve" y="793.6107" clip-path="url(#clipPath2)" stroke="none">Web3j</text>
    </g>
    <g stroke-linecap="butt" transform="matrix(1,0,0,1,-216,176)" fill="gray" text-rendering="geometricPrecision" shape-rendering="geometricPrecision" stroke="gray" stroke-width="2" stroke-miterlimit="1.45">
      <rect x="527.5851" y="805.6947" clip-path="url(#clipPath2)" fill="none" width="100" rx="4" ry="4" height="30"/>
    </g>
    <g stroke-linecap="butt" font-size="20px" transform="matrix(1,0,0,1,-216,176)" fill="rgb(102,102,153)" text-rendering="geometricPrecision" font-family="'Comic Sans MS'" shape-rendering="geometricPrecision" stroke="rgb(102,102,153)" stroke-miterlimit="1.45">
      <text x="531.3107" xml:space="preserve" y="828.8002" clip-path="url(#clipPath2)" stroke="none">JRE/JVM</text>
    </g>
    <g stroke-linecap="butt" transform="matrix(1,0,0,1,-216,176)" fill="gray" text-rendering="geometricPrecision" shape-rendering="geometricPrecision" stroke="gray" stroke-width="2" stroke-miterlimit="1.45">
      <rect x="349.1333" y="-45.3414" clip-path="url(#clipPath2)" fill="none" width="100" rx="4" ry="4" height="45"/>
    </g>
    <g stroke-linecap="butt" font-size="16px" transform="matrix(1,0,0,1,-216,176)" fill="rgb(102,102,153)" text-rendering="geometricPrecision" font-family="'Comic Sans MS'" shape-rendering="geometricPrecision" stroke="rgb(102,102,153)" stroke-miterlimit="1.45">
      <text x="354.4654" xml:space="preserve" y="-27.5055" clip-path="url(#clipPath2)" stroke="none">Mobile Web</text>
      <text x="357.6841" xml:space="preserve" y="-5.2086" clip-path="url(#clipPath2)" stroke="none">Application</text>
    </g>
    <g stroke-linecap="butt" transform="matrix(1,0,0,1,-216,176)" fill="gray" text-rendering="geometricPrecision" shape-rendering="geometricPrecision" stroke="gray" stroke-width="2" stroke-miterlimit="1.45">
      <rect x="349.1333" y="5.6586" clip-path="url(#clipPath2)" fill="none" width="100" rx="4" ry="4" height="30"/>
    </g>
    <g stroke-linecap="butt" font-size="22px" transform="matrix(1,0,0,1,-216,176)" fill="rgb(102,102,153)" text-rendering="geometricPrecision" font-family="'Comic Sans MS'" shape-rendering="geometricPrecision" stroke="rgb(102,102,153)" font-weight="bold" stroke-miterlimit="1.45">
      <text x="357.6577" xml:space="preserve" y="29.5746" clip-path="url(#clipPath2)" stroke="none">web3.js</text>
    </g>
    <g stroke-linecap="butt" transform="matrix(1,0,0,1,-216,176)" fill="gray" text-rendering="geometricPrecision" shape-rendering="geometricPrecision" stroke="gray" stroke-width="2" stroke-miterlimit="1.45">
      <rect x="349.1333" y="41.6586" clip-path="url(#clipPath2)" fill="none" width="100" rx="4" ry="4" height="30"/>
    </g>
    <g stroke-linecap="butt" font-size="22px" transform="matrix(1,0,0,1,-216,176)" fill="rgb(102,102,153)" text-rendering="geometricPrecision" font-family="'Comic Sans MS'" shape-rendering="geometricPrecision" stroke="rgb(102,102,153)" stroke-miterlimit="1.45">
      <text x="356.938" xml:space="preserve" y="65.5746" clip-path="url(#clipPath2)" stroke="none">Browser</text>
    </g>
    <g stroke-linecap="butt" transform="matrix(1,0,0,1,-216,176)" fill="gray" text-rendering="geometricPrecision" shape-rendering="geometricPrecision" stroke="gray" stroke-width="2" stroke-miterlimit="1.45">
      <rect fill="none" x="270.1747" width="110" height="70" y="234.2283" clip-path="url(#clipPath2)"/>
    </g>
    <g stroke-linecap="butt" font-size="22px" transform="matrix(1,0,0,1,-216,176)" fill="rgb(102,102,153)" text-rendering="geometricPrecision" font-family="'Comic Sans MS'" shape-rendering="geometricPrecision" stroke="rgb(102,102,153)" stroke-miterlimit="1.45">
      <text x="300.4032" xml:space="preserve" y="262.8152" clip-path="url(#clipPath2)" stroke="none">User</text>
      <text x="274.015" xml:space="preserve" y="293.4734" clip-path="url(#clipPath2)" stroke="none">Interface</text>
    </g>
    <g stroke-linecap="butt" transform="matrix(1,0,0,1,-216,176)" fill="gray" text-rendering="geometricPrecision" shape-rendering="geometricPrecision" stroke="gray" stroke-width="2" stroke-miterlimit="1.45">
      <rect fill="none" x="226.5638" width="110" height="70" y="414.6033" clip-path="url(#clipPath2)"/>
    </g>
    <g stroke-linecap="butt" font-size="22px" transform="matrix(1,0,0,1,-216,176)" fill="rgb(102,102,153)" text-rendering="geometricPrecision" font-family="'Comic Sans MS'" shape-rendering="geometricPrecision" stroke="rgb(102,102,153)" stroke-miterlimit="1.45">
      <text x="256.7923" xml:space="preserve" y="443.1902" clip-path="url(#clipPath2)" stroke="none">User</text>
      <text x="230.4041" xml:space="preserve" y="473.8484" clip-path="url(#clipPath2)" stroke="none">Interface</text>
    </g>
    <g stroke-linecap="butt" transform="matrix(1,0,0,1,-216,176)" fill="gray" text-rendering="geometricPrecision" shape-rendering="geometricPrecision" stroke="gray" stroke-width="2" stroke-miterlimit="1.45">
      <rect fill="none" x="292.7976" width="110" height="70" y="706.1947" clip-path="url(#clipPath2)"/>
    </g>
    <g stroke-linecap="butt" font-size="22px" transform="matrix(1,0,0,1,-216,176)" fill="rgb(102,102,153)" text-rendering="geometricPrecision" font-family="'Comic Sans MS'" shape-rendering="geometricPrecision" stroke="rgb(102,102,153)" stroke-miterlimit="1.45">
      <text x="323.0261" xml:space="preserve" y="734.7816" clip-path="url(#clipPath2)" stroke="none">User</text>
      <text x="296.6379" xml:space="preserve" y="765.4398" clip-path="url(#clipPath2)" stroke="none">Interface</text>
    </g>
    <g stroke-linecap="butt" transform="matrix(1,0,0,1,-216,176)" fill="gray" text-rendering="geometricPrecision" shape-rendering="geometricPrecision" stroke="gray" stroke-width="3" stroke-miterlimit="1.45">
      <circle fill="none" r="10" clip-path="url(#clipPath2)" cx="1505.0425" cy="-120.3125"/>
      <rect x="1581.5425" y="-94.8125" clip-path="url(#clipPath2)" fill="none" width="40" rx="4" ry="4" height="32" stroke-width="2"/>
      <rect x="1533.5425" y="-136.3125" clip-path="url(#clipPath2)" fill="none" width="40" rx="4" ry="4" height="32" stroke-width="2"/>
      <rect x="1581.5425" y="-136.3125" clip-path="url(#clipPath2)" fill="none" width="40" rx="4" ry="4" height="32" stroke-width="2"/>
      <rect fill="none" x="1527.5425" width="100" height="90" y="-141.5625" clip-path="url(#clipPath2)"/>
      <rect fill="none" x="1041.1508" width="260" height="220" y="54.5" clip-path="url(#clipPath2)"/>
      <rect x="1189.0806" y="67.75" clip-path="url(#clipPath2)" fill="none" width="100" rx="4" ry="4" height="80" stroke-width="2"/>
    </g>
    <g stroke-linecap="butt" font-size="26px" transform="matrix(1,0,0,1,-216,176)" fill="rgb(102,102,153)" text-rendering="geometricPrecision" font-family="'Comic Sans MS'" shape-rendering="geometricPrecision" stroke="rgb(102,102,153)" font-weight="bold" stroke-miterlimit="1.45">
      <text x="1210.7129" xml:space="preserve" y="118.2871" clip-path="url(#clipPath2)" stroke="none">EVM</text>
    </g>
    <g stroke-linecap="butt" transform="matrix(1,0,0,1,-216,176)" fill="gray" text-rendering="geometricPrecision" shape-rendering="geometricPrecision" stroke="gray" stroke-width="2" stroke-miterlimit="1.45">
      <rect x="1052.5114" y="67.75" clip-path="url(#clipPath2)" fill="none" width="120" rx="4" ry="4" height="80"/>
    </g>
    <g stroke-linecap="butt" font-size="22px" transform="matrix(1,0,0,1,-216,176)" fill="rgb(102,102,153)" text-rendering="geometricPrecision" font-family="'Comic Sans MS'" shape-rendering="geometricPrecision" stroke="rgb(102,102,153)" font-weight="bold" stroke-miterlimit="1.45">
      <text x="1053.424" xml:space="preserve" y="101.3369" clip-path="url(#clipPath2)" stroke="none">JSON-RPC</text>
      <text x="1092.5953" xml:space="preserve" y="131.9951" clip-path="url(#clipPath2)" stroke="none">API</text>
    </g>
    <g stroke-linecap="butt" transform="matrix(1,0,0,1,-216,176)" fill="gray" text-rendering="geometricPrecision" shape-rendering="geometricPrecision" stroke="gray" stroke-width="2" stroke-miterlimit="1.45">
      <rect x="1189.0806" y="161.25" clip-path="url(#clipPath2)" fill="none" width="100" rx="4" ry="4" height="100"/>
    </g>
    <g stroke-linecap="butt" font-size="26px" transform="matrix(1,0,0,1,-216,176)" fill="rgb(102,102,153)" text-rendering="geometricPrecision" font-family="'Comic Sans MS'" shape-rendering="geometricPrecision" stroke="rgb(102,102,153)" font-weight="bold" stroke-miterlimit="1.45">
      <text x="1196.6021" xml:space="preserve" y="191.9033" clip-path="url(#clipPath2)" stroke="none">Ledger</text>
    </g>
    <g stroke-linecap="butt" transform="matrix(1,0,0,1,-216,176)" fill="gray" text-rendering="geometricPrecision" shape-rendering="geometricPrecision" stroke="gray" stroke-width="3" stroke-miterlimit="1.45">
      <circle fill="none" r="12.5" clip-path="url(#clipPath2)" cx="1014" cy="107.75"/>
    </g>
    <g stroke-linecap="butt" transform="matrix(1,0,0,1,-216,176)" fill="gray" text-rendering="geometricPrecision" shape-rendering="geometricPrecision" stroke="gray" stroke-width="2" stroke-miterlimit="1.45">
      <path fill="none" d="M1198.8595 205.9938 L1258.8595 205.9938 L1258.8595 249.7438 Q1243.8595 237.2438 1228.8595 249.7438 Q1213.8595 262.2438 1198.8595 249.7438 Z" clip-path="url(#clipPath2)"/>
    </g>
    <g stroke-linecap="butt" font-size="16px" transform="matrix(1,0,0,1,-216,176)" fill="rgb(102,102,153)" text-rendering="geometricPrecision" font-family="'Comic Sans MS'" shape-rendering="geometricPrecision" stroke="rgb(102,102,153)" font-weight="bold" stroke-miterlimit="1.45">
      <text x="1205.0392" xml:space="preserve" y="225.6266" clip-path="url(#clipPath2)" stroke="none">Smart</text>
      <text x="1195.5782" xml:space="preserve" y="247.9235" clip-path="url(#clipPath2)" stroke="none">Contract</text>
    </g>
    <g stroke-linecap="butt" transform="matrix(1,0,0,1,-216,176)" fill="gray" text-rendering="geometricPrecision" shape-rendering="geometricPrecision" stroke="gray" stroke-width="3" stroke-miterlimit="1.45">
      <rect fill="none" x="1137.3669" width="260" height="220" y="675.5" clip-path="url(#clipPath2)"/>
      <rect x="1284.8595" y="688.75" clip-path="url(#clipPath2)" fill="none" width="100" rx="4" ry="4" height="80" stroke-width="2"/>
    </g>
    <g stroke-linecap="butt" font-size="26px" transform="matrix(1,0,0,1,-216,176)" fill="rgb(102,102,153)" text-rendering="geometricPrecision" font-family="'Comic Sans MS'" shape-rendering="geometricPrecision" stroke="rgb(102,102,153)" font-weight="bold" stroke-miterlimit="1.45">
      <text x="1306.4918" xml:space="preserve" y="739.2871" clip-path="url(#clipPath2)" stroke="none">EVM</text>
    </g>
    <g stroke-linecap="butt" transform="matrix(1,0,0,1,-216,176)" fill="gray" text-rendering="geometricPrecision" shape-rendering="geometricPrecision" stroke="gray" stroke-width="2" stroke-miterlimit="1.45">
      <rect x="1150.3669" y="687.8756" clip-path="url(#clipPath2)" fill="none" width="120" rx="4" ry="4" height="80"/>
    </g>
    <g stroke-linecap="butt" font-size="22px" transform="matrix(1,0,0,1,-216,176)" fill="rgb(102,102,153)" text-rendering="geometricPrecision" font-family="'Comic Sans MS'" shape-rendering="geometricPrecision" stroke="rgb(102,102,153)" font-weight="bold" stroke-miterlimit="1.45">
      <text x="1151.2795" xml:space="preserve" y="721.4625" clip-path="url(#clipPath2)" stroke="none">JSON-RPC</text>
      <text x="1190.4509" xml:space="preserve" y="752.1207" clip-path="url(#clipPath2)" stroke="none">API</text>
    </g>
    <g stroke-linecap="butt" transform="matrix(1,0,0,1,-216,176)" fill="gray" text-rendering="geometricPrecision" shape-rendering="geometricPrecision" stroke="gray" stroke-width="2" stroke-miterlimit="1.45">
      <rect x="1284.8595" y="782.25" clip-path="url(#clipPath2)" fill="none" width="100" rx="4" ry="4" height="100"/>
    </g>
    <g stroke-linecap="butt" font-size="26px" transform="matrix(1,0,0,1,-216,176)" fill="rgb(102,102,153)" text-rendering="geometricPrecision" font-family="'Comic Sans MS'" shape-rendering="geometricPrecision" stroke="rgb(102,102,153)" font-weight="bold" stroke-miterlimit="1.45">
      <text x="1292.381" xml:space="preserve" y="812.9033" clip-path="url(#clipPath2)" stroke="none">Ledger</text>
    </g>
    <g stroke-linecap="butt" transform="matrix(1,0,0,1,-216,176)" fill="gray" text-rendering="geometricPrecision" shape-rendering="geometricPrecision" stroke="gray" stroke-width="3" stroke-miterlimit="1.45">
      <circle fill="none" r="12.5" clip-path="url(#clipPath2)" cx="1106.5" cy="728.75"/>
    </g>
    <g stroke-linecap="butt" transform="matrix(1,0,0,1,-216,176)" fill="gray" text-rendering="geometricPrecision" shape-rendering="geometricPrecision" stroke="gray" stroke-width="2" stroke-miterlimit="1.45">
      <path fill="none" d="M1295.7314 826.1194 L1355.7314 826.1194 L1355.7314 869.8694 Q1340.7314 857.3694 1325.7314 869.8694 Q1310.7314 882.3694 1295.7314 869.8694 Z" clip-path="url(#clipPath2)"/>
    </g>
    <g stroke-linecap="butt" font-size="16px" transform="matrix(1,0,0,1,-216,176)" fill="rgb(102,102,153)" text-rendering="geometricPrecision" font-family="'Comic Sans MS'" shape-rendering="geometricPrecision" stroke="rgb(102,102,153)" font-weight="bold" stroke-miterlimit="1.45">
      <text x="1301.9111" xml:space="preserve" y="845.7523" clip-path="url(#clipPath2)" stroke="none">Smart</text>
      <text x="1292.4502" xml:space="preserve" y="868.0491" clip-path="url(#clipPath2)" stroke="none">Contract</text>
    </g>
    <g stroke-linecap="butt" transform="matrix(1,0,0,1,-216,176)" fill="gray" text-rendering="geometricPrecision" shape-rendering="geometricPrecision" stroke="gray" stroke-width="2" stroke-miterlimit="1.45">
      <path fill="none" d="M1589.0625 -79.0525 L1605.0625 -79.0525 L1605.0625 -68.5525 Q1601.0625 -71.5525 1597.0625 -68.5525 Q1593.0625 -65.5525 1589.0625 -68.5525 Z" clip-path="url(#clipPath2)"/>
    </g>
    <g stroke-linecap="butt" transform="matrix(1,0,0,1,-216,176)" fill="gray" text-rendering="geometricPrecision" shape-rendering="geometricPrecision" stroke="gray" stroke-width="3" stroke-miterlimit="1.45">
      <circle fill="none" r="10" clip-path="url(#clipPath2)" cx="1753.855" cy="-41.25"/>
      <rect x="1830.355" y="-15.75" clip-path="url(#clipPath2)" fill="none" width="40" rx="4" ry="4" height="32" stroke-width="2"/>
      <rect x="1782.355" y="-57.25" clip-path="url(#clipPath2)" fill="none" width="40" rx="4" ry="4" height="32" stroke-width="2"/>
      <rect x="1830.355" y="-57.25" clip-path="url(#clipPath2)" fill="none" width="40" rx="4" ry="4" height="32" stroke-width="2"/>
      <rect fill="none" x="1776.355" width="100" height="90" y="-62.5" clip-path="url(#clipPath2)"/>
    </g>
    <g stroke-linecap="butt" transform="matrix(1,0,0,1,-216,176)" fill="gray" text-rendering="geometricPrecision" shape-rendering="geometricPrecision" stroke="gray" stroke-width="2" stroke-miterlimit="1.45">
      <path fill="none" d="M1837.875 0.01 L1853.875 0.01 L1853.875 10.51 Q1849.875 7.51 1845.875 10.51 Q1841.875 13.51 1837.875 10.51 Z" clip-path="url(#clipPath2)"/>
    </g>
    <g stroke-linecap="butt" transform="matrix(1,0,0,1,-216,176)" fill="gray" text-rendering="geometricPrecision" shape-rendering="geometricPrecision" stroke="gray" stroke-width="3" stroke-miterlimit="1.45">
      <circle fill="none" r="10" clip-path="url(#clipPath2)" cx="1730.375" cy="629.385"/>
      <rect x="1806.875" y="654.885" clip-path="url(#clipPath2)" fill="none" width="40" rx="4" ry="4" height="32" stroke-width="2"/>
      <rect x="1758.875" y="613.385" clip-path="url(#clipPath2)" fill="none" width="40" rx="4" ry="4" height="32" stroke-width="2"/>
      <rect x="1806.875" y="613.385" clip-path="url(#clipPath2)" fill="none" width="40" rx="4" ry="4" height="32" stroke-width="2"/>
      <rect fill="none" x="1752.875" width="100" height="90" y="608.135" clip-path="url(#clipPath2)"/>
    </g>
    <g stroke-linecap="butt" transform="matrix(1,0,0,1,-216,176)" fill="gray" text-rendering="geometricPrecision" shape-rendering="geometricPrecision" stroke="gray" stroke-width="2" stroke-miterlimit="1.45">
      <path fill="none" d="M1814.395 670.645 L1830.395 670.645 L1830.395 681.145 Q1826.395 678.145 1822.395 681.145 Q1818.395 684.145 1814.395 681.145 Z" clip-path="url(#clipPath2)"/>
    </g>
    <g stroke-linecap="butt" transform="matrix(1,0,0,1,-216,176)" fill="gray" text-rendering="geometricPrecision" shape-rendering="geometricPrecision" stroke="gray" stroke-width="3" stroke-miterlimit="1.45">
      <circle fill="none" r="10" clip-path="url(#clipPath2)" cx="1601.5425" cy="790.75"/>
      <rect x="1678.0425" y="816.25" clip-path="url(#clipPath2)" fill="none" width="40" rx="4" ry="4" height="32" stroke-width="2"/>
      <rect x="1630.0425" y="774.75" clip-path="url(#clipPath2)" fill="none" width="40" rx="4" ry="4" height="32" stroke-width="2"/>
      <rect x="1678.0425" y="774.75" clip-path="url(#clipPath2)" fill="none" width="40" rx="4" ry="4" height="32" stroke-width="2"/>
      <rect fill="none" x="1624.0425" width="100" height="90" y="769.5" clip-path="url(#clipPath2)"/>
    </g>
    <g stroke-linecap="butt" transform="matrix(1,0,0,1,-216,176)" fill="gray" text-rendering="geometricPrecision" shape-rendering="geometricPrecision" stroke="gray" stroke-width="2" stroke-miterlimit="1.45">
      <path fill="none" d="M1685.5625 832.01 L1701.5625 832.01 L1701.5625 842.51 Q1697.5625 839.51 1693.5625 842.51 Q1689.5625 845.51 1685.5625 842.51 Z" clip-path="url(#clipPath2)"/>
    </g>
    <g stroke-linecap="butt" transform="matrix(1,0,0,1,-216,176)" fill="gray" text-rendering="geometricPrecision" shape-rendering="geometricPrecision" stroke="gray" stroke-width="2" stroke-miterlimit="1.45">
      <path fill="none" d="M954.5234 396 L967.2328 396" clip-path="url(#clipPath2)"/>
      <path fill="none" d="M1017.2438 436.0001 L1017.2438 449.4876" clip-path="url(#clipPath2)"/>
      <path fill="none" d="M814.5 396 L834.4609 396" stroke-width="3" clip-path="url(#clipPath2)"/>
      <path fill="none" d="M544.9786 317.7517 L793.4626 386.9031" clip-path="url(#clipPath2)" stroke="rgb(153,153,153)"/>
      <path fill="none" d="M526.7604 481.8845 L794.4549 405.9578" clip-path="url(#clipPath2)" stroke="rgb(153,153,153)"/>
      <path fill="none" d="M380.1747 269.2283 L444.9327 269.2283" clip-path="url(#clipPath2)" stroke="rgb(153,153,153)"/>
      <path fill="none" d="M336.5638 450.3385 L427.9341 451.5598" clip-path="url(#clipPath2)" stroke="rgb(153,153,153)"/>
      <path fill="none" d="M402.7976 741.1947 L527.6153 741.1947" clip-path="url(#clipPath2)" stroke="rgb(153,153,153)"/>
      <path fill="none" d="M1515.0425 -120.3125 L1533.5781 -120.3125" stroke-width="3" clip-path="url(#clipPath2)"/>
      <path fill="none" d="M1573.5581 -120.3125 L1581.5654 -120.3125" clip-path="url(#clipPath2)"/>
      <path fill="none" d="M1601.5425 -104.3042 L1601.5425 -94.7946" clip-path="url(#clipPath2)"/>
      <path fill="none" stroke-dasharray="12,4" d="M1035.3217 342.75 L1087.3292 274.5" clip-path="url(#clipPath2)"/>
      <path fill="none" stroke-dasharray="12,4" d="M1301.1509 80.9891 L1527.5425 -64.4429" clip-path="url(#clipPath2)"/>
      <path fill="none" d="M1172.4896 107.75 L1189.1049 107.75" clip-path="url(#clipPath2)"/>
      <path fill="none" d="M1239.0806 147.7501 L1239.0806 161.2376" clip-path="url(#clipPath2)"/>
      <path fill="none" d="M449.1588 27.7443 L1001.6235 105.997" clip-path="url(#clipPath2)" stroke="rgb(153,153,153)"/>
      <path fill="none" d="M1026.5 107.75 L1052.4966 107.75" stroke-width="3" clip-path="url(#clipPath2)"/>
      <path fill="none" stroke-dasharray="12,4" d="M1033.8447 562.7519 L1152.0464 675.5" clip-path="url(#clipPath2)"/>
      <path fill="none" d="M1270.3945 728.2972 L1284.8424 728.3987" clip-path="url(#clipPath2)"/>
      <path fill="none" d="M1334.8595 768.7501 L1334.8595 782.2377" clip-path="url(#clipPath2)"/>
      <path fill="none" d="M627.6064 779.2758 L1094 728.75" clip-path="url(#clipPath2)" stroke="rgb(153,153,153)"/>
      <path fill="none" d="M1118.9995 728.6448 L1150.3624 728.3807" stroke-width="3" clip-path="url(#clipPath2)"/>
      <path fill="none" d="M1763.855 -41.25 L1782.3906 -41.25" stroke-width="3" clip-path="url(#clipPath2)"/>
      <path fill="none" d="M1822.3706 -41.25 L1830.3779 -41.25" clip-path="url(#clipPath2)"/>
      <path fill="none" d="M1850.355 -25.2417 L1850.355 -15.7321" clip-path="url(#clipPath2)"/>
      <path fill="none" stroke-dasharray="12,4" d="M1627.5425 -96.5625 L1715.1295 -96.5625 L1776.355 -53.0415" clip-path="url(#clipPath2)"/>
      <path fill="none" stroke-dasharray="12,4" d="M1301.1873 123.2804 L1776.3627 10.5906" clip-path="url(#clipPath2)"/>
      <path fill="none" d="M1740.375 629.385 L1758.9106 629.385" stroke-width="3" clip-path="url(#clipPath2)"/>
      <path fill="none" d="M1798.8906 629.385 L1806.8978 629.385" clip-path="url(#clipPath2)"/>
      <path fill="none" d="M1826.875 645.3933 L1826.875 654.9029" clip-path="url(#clipPath2)"/>
      <path fill="none" stroke-dasharray="12,4" d="M1081.5 487.4281 L1752.8701 666.5195" clip-path="url(#clipPath2)"/>
      <path fill="none" d="M1611.5425 790.75 L1630.0781 790.75" stroke-width="3" clip-path="url(#clipPath2)"/>
      <path fill="none" d="M1670.0581 790.75 L1678.0654 790.75" clip-path="url(#clipPath2)"/>
      <path fill="none" d="M1698.0425 806.7583 L1698.0425 816.2679" clip-path="url(#clipPath2)"/>
      <path fill="none" stroke-dasharray="12,4" d="M1397.3669 794.7703 L1624.0425 810.9345" clip-path="url(#clipPath2)"/>
      <path fill="none" stroke-dasharray="12,4" d="M1724.0133 797.5983 L1777.275 775.11 L1793.4304 698.135" clip-path="url(#clipPath2)"/>
    </g>
  </g>
</svg>
