<?xml version="1.0" encoding="UTF-8"?><svg xmlns="http://www.w3.org/2000/svg" xmlns:xlink="http://www.w3.org/1999/xlink" fill-opacity="1" color-rendering="auto" color-interpolation="auto" text-rendering="auto" stroke="black" stroke-linecap="square" width="855" stroke-miterlimit="10" shape-rendering="auto" stroke-opacity="1" fill="black" stroke-dasharray="none" font-weight="normal" stroke-width="1" height="760" font-family="'Dialog'" font-style="normal" stroke-linejoin="miter" font-size="12px" stroke-dashoffset="0" image-rendering="auto">
  <!--Generated by ySVG 2.5-->
  <defs id="genericDefs"/>
  <g>
    <defs id="defs1">
      <clipPath clipPathUnits="userSpaceOnUse" id="clipPath1">
        <path d="M0 0 L855 0 L855 760 L0 760 L0 0 Z"/>
      </clipPath>
      <clipPath clipPathUnits="userSpaceOnUse" id="clipPath2">
        <path d="M352 67 L1207 67 L1207 827 L352 827 L352 67 Z"/>
      </clipPath>
      <clipPath clipPathUnits="userSpaceOnUse" id="clipPath3">
        <path d="M440 77 L440 247 L610 247 L610 77 Z"/>
      </clipPath>
      <clipPath clipPathUnits="userSpaceOnUse" id="clipPath4">
        <path d="M774 394 L774 564 L944 564 L944 394 Z"/>
      </clipPath>
      <clipPath clipPathUnits="userSpaceOnUse" id="clipPath5">
        <path d="M699 95 L699 195 L899 195 L899 95 Z"/>
      </clipPath>
      <clipPath clipPathUnits="userSpaceOnUse" id="clipPath6">
        <path d="M362 394 L362 564 L532 564 L532 394 Z"/>
      </clipPath>
      <clipPath clipPathUnits="userSpaceOnUse" id="clipPath7">
        <path d="M774 647 L774 817 L944 817 L944 647 Z"/>
      </clipPath>
      <clipPath clipPathUnits="userSpaceOnUse" id="clipPath8">
        <path d="M997 83 L997 183 L1197 183 L1197 83 Z"/>
      </clipPath>
    </defs>
    <g text-rendering="geometricPrecision" stroke-miterlimit="1.45" shape-rendering="geometricPrecision" transform="matrix(1,0,0,1,-352,-67)" stroke-linecap="butt">
      <rect fill="none" x="440" width="170" height="170" y="77" clip-path="url(#clipPath2)"/>
    </g>
    <g text-rendering="geometricPrecision" stroke-miterlimit="1.45" shape-rendering="geometricPrecision" font-family="'Tahoma'" transform="matrix(1,0,0,1,-352,-67)" stroke-linecap="butt">
      <text x="484.5088" xml:space="preserve" y="94.0059" clip-path="url(#clipPath3)" stroke="none">&lt;&lt;interface&gt;&gt;</text>
      <text x="494.6279" xml:space="preserve" font-size="14px" y="119.4912" clip-path="url(#clipPath3)" stroke="none">IERC1155</text>
      <line stroke-linecap="square" clip-path="url(#clipPath3)" fill="none" x1="441" x2="609" y1="127" y2="127" stroke-miterlimit="10"/>
      <line stroke-linecap="square" clip-path="url(#clipPath3)" fill="none" x1="441" x2="609" y1="137" y2="137" stroke-miterlimit="10"/>
      <text x="445" xml:space="preserve" y="154.3887" clip-path="url(#clipPath3)" stroke="none">+ safeTransferFrom()</text>
      <text x="445" xml:space="preserve" y="168.873" clip-path="url(#clipPath3)" stroke="none">+ safeBatchTransferFrom()</text>
      <text x="445" xml:space="preserve" y="183.3574" clip-path="url(#clipPath3)" stroke="none">+ balanceOf()</text>
      <text x="445" xml:space="preserve" y="197.8418" clip-path="url(#clipPath3)" stroke="none">+ balanceOfBatch()</text>
      <text x="445" xml:space="preserve" y="212.3262" clip-path="url(#clipPath3)" stroke="none">+ setApprovalForAll()</text>
      <text x="445" xml:space="preserve" y="226.8105" clip-path="url(#clipPath3)" stroke="none">+  isApprovedForAll()</text>
      <rect fill="none" x="774" width="170" height="170" y="394" clip-path="url(#clipPath2)"/>
      <text x="831.2393" xml:space="preserve" font-size="14px" y="413.0068" clip-path="url(#clipPath4)" stroke="none">ERC1155</text>
      <line stroke-linecap="square" clip-path="url(#clipPath4)" fill="none" x1="775" x2="943" y1="420" y2="420" stroke-miterlimit="10"/>
      <line stroke-linecap="square" clip-path="url(#clipPath4)" fill="none" x1="775" x2="943" y1="430" y2="430" stroke-miterlimit="10"/>
      <text x="779" xml:space="preserve" y="447.9043" clip-path="url(#clipPath4)" stroke="none">+ safeTransferFrom()</text>
      <text x="779" xml:space="preserve" y="462.3887" clip-path="url(#clipPath4)" stroke="none">+ safeBatchTransferFrom()</text>
      <text x="779" xml:space="preserve" y="476.873" clip-path="url(#clipPath4)" stroke="none">+ balanceOf()</text>
      <text x="779" xml:space="preserve" y="491.3574" clip-path="url(#clipPath4)" stroke="none">+ balanceOfBatch()</text>
      <text x="779" xml:space="preserve" y="505.8418" clip-path="url(#clipPath4)" stroke="none">+ setApprovalForAll()</text>
      <text x="779" xml:space="preserve" y="520.3262" clip-path="url(#clipPath4)" stroke="none">+  isApprovedForAll()</text>
      <rect fill="none" x="699" width="200" height="100" y="95" clip-path="url(#clipPath2)"/>
      <text x="758.5088" xml:space="preserve" y="112.0059" clip-path="url(#clipPath5)" stroke="none">&lt;&lt;interface&gt;&gt;</text>
      <text x="775.0605" xml:space="preserve" font-size="14px" y="137.4912" clip-path="url(#clipPath5)" stroke="none">ERC165</text>
      <line stroke-linecap="square" clip-path="url(#clipPath5)" fill="none" x1="700" x2="898" y1="145" y2="145" stroke-miterlimit="10"/>
      <line stroke-linecap="square" clip-path="url(#clipPath5)" fill="none" x1="700" x2="898" y1="155" y2="155" stroke-miterlimit="10"/>
      <text x="704" xml:space="preserve" y="172.3887" clip-path="url(#clipPath5)" stroke="none">+ &lt;&lt;view&gt;&gt; supportsInterface()</text>
      <rect fill="none" x="362" width="170" height="170" y="394" clip-path="url(#clipPath2)"/>
      <text x="389.6602" xml:space="preserve" font-size="14px" y="413.0068" clip-path="url(#clipPath6)" stroke="none">AllowanceWrapper</text>
      <rect fill="none" x="774" width="170" height="170" y="647" clip-path="url(#clipPath2)"/>
      <text x="805.1738" xml:space="preserve" font-size="14px" y="666.0068" clip-path="url(#clipPath7)" stroke="none">ERC1155Mintable</text>
      <rect fill="none" x="997" width="200" height="100" y="83" clip-path="url(#clipPath2)"/>
      <text x="1039.1167" xml:space="preserve" font-size="14px" y="102.0068" clip-path="url(#clipPath8)" stroke="none">CommonConstants</text>
      <line stroke-linecap="square" clip-path="url(#clipPath8)" fill="none" x1="998" x2="1196" y1="109" y2="109" stroke-miterlimit="10"/>
      <text x="1002" xml:space="preserve" y="126.9043" clip-path="url(#clipPath8)" stroke="none"># ERC1155_ACCEPTED</text>
      <text x="1002" xml:space="preserve" y="141.3887" clip-path="url(#clipPath8)" stroke="none"># ERC1155_BATCH_ACCEPTED</text>
      <line stroke-linecap="square" clip-path="url(#clipPath8)" fill="none" x1="998" x2="1196" y1="148" y2="148" stroke-miterlimit="10"/>
      <path fill="none" d="M774.0118 398.3376 L620.9001 253.019" clip-path="url(#clipPath2)"/>
      <path fill="white" d="M610.0203 242.6929 L617.4951 258.0594 L625.7559 249.3555 Z" clip-path="url(#clipPath2)" stroke="none"/>
      <path fill="none" d="M610.0203 242.6929 L617.4951 258.0594 L625.7559 249.3555 Z" clip-path="url(#clipPath2)"/>
      <path fill="none" d="M843.729 393.9915 L810.634 209.7626" clip-path="url(#clipPath2)"/>
      <path fill="white" d="M807.9818 194.9989 L804.9053 211.8077 L816.7162 209.686 Z" clip-path="url(#clipPath2)" stroke="none"/>
      <path fill="none" d="M807.9818 194.9989 L804.9053 211.8077 L816.7162 209.686 Z" clip-path="url(#clipPath2)"/>
      <path fill="none" d="M467.9187 393.9843 L500.5053 261.549" clip-path="url(#clipPath2)"/>
      <path fill="white" d="M504.0892 246.9835 L494.4401 261.0865 L506.0926 263.9537 Z" clip-path="url(#clipPath2)" stroke="none"/>
      <path fill="none" d="M504.0892 246.9835 L494.4401 261.0865 L506.0926 263.9537 Z" clip-path="url(#clipPath2)"/>
      <path fill="none" d="M532.0137 398.3336 L735.419 205.3297" clip-path="url(#clipPath2)"/>
      <path fill="white" d="M746.3002 195.0049 L730.5637 201.6655 L738.8235 210.3705 Z" clip-path="url(#clipPath2)" stroke="none"/>
      <path fill="none" d="M746.3002 195.0049 L730.5637 201.6655 L738.8235 210.3705 Z" clip-path="url(#clipPath2)"/>
      <path fill="none" d="M539.0203 479 L769.022 479" clip-path="url(#clipPath2)"/>
      <path d="M532.0203 479 L539.0203 474 L546.0203 479 L539.0203 484 Z" clip-path="url(#clipPath2)" stroke="none"/>
      <path d="M773.022 479 L761.022 473 L773.022 479 L761.022 485 Z" clip-path="url(#clipPath2)" stroke="none"/>
      <path fill="none" stroke-miterlimit="10" d="M773.022 479 L761.022 473 L773.022 479 L761.022 485 Z" clip-path="url(#clipPath2)" stroke-linecap="square"/>
      <path fill="none" d="M859 646.9769 L859 579.0137" clip-path="url(#clipPath2)"/>
      <path fill="white" d="M859 564.0137 L853 580.0137 L865 580.0137 Z" clip-path="url(#clipPath2)" stroke="none"/>
      <path fill="none" d="M859 564.0137 L853 580.0137 L865 580.0137 Z" clip-path="url(#clipPath2)"/>
    </g>
  </g>
</svg>
