<?xml version="1.0" encoding="UTF-8"?><svg xmlns="http://www.w3.org/2000/svg" xmlns:xlink="http://www.w3.org/1999/xlink" fill-opacity="1" color-rendering="auto" color-interpolation="auto" text-rendering="auto" stroke="black" stroke-linecap="square" width="714" stroke-miterlimit="10" shape-rendering="auto" stroke-opacity="1" fill="black" stroke-dasharray="none" font-weight="normal" stroke-width="1" height="583" font-family="'Dialog'" font-style="normal" stroke-linejoin="miter" font-size="12px" stroke-dashoffset="0" image-rendering="auto">
  <!--Generated by ySVG 2.6-->
  <defs id="genericDefs"/>
  <g>
    <defs id="defs1">
      <clipPath clipPathUnits="userSpaceOnUse" id="clipPath1">
        <path d="M0 0 L714 0 L714 583 L0 583 L0 0 Z"/>
      </clipPath>
      <clipPath clipPathUnits="userSpaceOnUse" id="clipPath2">
        <path d="M17 14 L731 14 L731 597 L17 597 L17 14 Z"/>
      </clipPath>
      <clipPath clipPathUnits="userSpaceOnUse" id="clipPath3">
        <path d="M27 81 L27 261 L177 261 L177 81 Z"/>
      </clipPath>
      <clipPath clipPathUnits="userSpaceOnUse" id="clipPath4">
        <path d="M278 71 L278 371 L428 371 L428 71 Z"/>
      </clipPath>
      <clipPath clipPathUnits="userSpaceOnUse" id="clipPath5">
        <path d="M590 24 L590 104 L720 104 L720 24 Z"/>
      </clipPath>
      <clipPath clipPathUnits="userSpaceOnUse" id="clipPath6">
        <path d="M590 134 L590 214 L720 214 L720 134 Z"/>
      </clipPath>
      <clipPath clipPathUnits="userSpaceOnUse" id="clipPath7">
        <path d="M590 251 L590 331 L720 331 L720 251 Z"/>
      </clipPath>
      <clipPath clipPathUnits="userSpaceOnUse" id="clipPath8">
        <path d="M590 368 L590 448 L720 448 L720 368 Z"/>
      </clipPath>
      <clipPath clipPathUnits="userSpaceOnUse" id="clipPath9">
        <path d="M443 506 L443 586 L573 586 L573 506 Z"/>
      </clipPath>
    </defs>
    <g fill="white" text-rendering="geometricPrecision" shape-rendering="geometricPrecision" transform="matrix(1,0,0,1,-17,-14)" stroke="white">
      <rect x="27.38" width="150" height="180" y="81.6" clip-path="url(#clipPath2)" stroke="none"/>
    </g>
    <g text-rendering="geometricPrecision" stroke-miterlimit="1.45" shape-rendering="geometricPrecision" transform="matrix(1,0,0,1,-17,-14)" stroke-linecap="butt">
      <rect fill="none" x="27.38" width="150" height="180" y="81.6" clip-path="url(#clipPath2)"/>
      <text x="74.0863" font-size="15px" y="101.6073" clip-path="url(#clipPath3)" font-family="'Tahoma'" stroke="none" xml:space="preserve">증권 상품</text>
      <text x="70.2084" font-size="15px" y="119.7128" clip-path="url(#clipPath3)" font-family="'Tahoma'" stroke="none" xml:space="preserve">(Security)</text>
      <line stroke-linecap="square" clip-path="url(#clipPath3)" fill="none" x1="28" x2="176" y1="127" y2="127" stroke-miterlimit="10"/>
      <text x="32.38" xml:space="preserve" y="144.8168" clip-path="url(#clipPath3)" font-family="'Tahoma'" stroke="none">- name</text>
      <text x="32.38" xml:space="preserve" y="159.3012" clip-path="url(#clipPath3)" font-family="'Tahoma'" stroke="none">- symbol</text>
      <text x="32.38" xml:space="preserve" y="173.7856" clip-path="url(#clipPath3)" font-family="'Tahoma'" stroke="none">- supplyCap</text>
      <text x="32.38" xml:space="preserve" y="188.2699" clip-path="url(#clipPath3)" font-family="'Tahoma'" stroke="none">- totalSupply</text>
      <text x="32.38" xml:space="preserve" y="202.7543" clip-path="url(#clipPath3)" font-family="'Tahoma'" stroke="none">- issuable</text>
      <text x="32.38" xml:space="preserve" y="217.2387" clip-path="url(#clipPath3)" font-family="'Tahoma'" stroke="none">- paused</text>
      <line stroke-linecap="square" clip-path="url(#clipPath3)" fill="none" x1="28" x2="176" y1="224" y2="224" stroke-miterlimit="10"/>
    </g>
    <g fill="white" text-rendering="geometricPrecision" shape-rendering="geometricPrecision" transform="matrix(1,0,0,1,-17,-14)" stroke="white">
      <rect x="278.58" width="150" height="300" y="71.6" clip-path="url(#clipPath2)" stroke="none"/>
    </g>
    <g text-rendering="geometricPrecision" stroke-miterlimit="1.45" shape-rendering="geometricPrecision" transform="matrix(1,0,0,1,-17,-14)" stroke-linecap="butt">
      <rect fill="none" x="278.58" width="150" height="300" y="71.6" clip-path="url(#clipPath2)"/>
      <text x="297.7431" xml:space="preserve" y="88.6059" clip-path="url(#clipPath4)" font-family="'Tahoma'" stroke="none">&lt;&lt;smart contract&gt;&gt;</text>
      <text x="303.0429" font-size="15px" y="115.0917" clip-path="url(#clipPath4)" font-family="'Tahoma'" stroke="none" xml:space="preserve">Token Contract</text>
      <line stroke-linecap="square" clip-path="url(#clipPath4)" fill="none" x1="279" x2="427" y1="123" y2="123" stroke-miterlimit="10"/>
      <text x="283.58" xml:space="preserve" y="140.1957" clip-path="url(#clipPath4)" font-family="'Tahoma'" stroke="none">- address</text>
      <text x="283.58" xml:space="preserve" y="154.6801" clip-path="url(#clipPath4)" font-family="'Tahoma'" stroke="none">- name</text>
      <text x="283.58" xml:space="preserve" y="169.1645" clip-path="url(#clipPath4)" font-family="'Tahoma'" stroke="none">- symbol</text>
      <text x="283.58" xml:space="preserve" y="183.6488" clip-path="url(#clipPath4)" font-family="'Tahoma'" stroke="none">- totalSupply</text>
      <text x="283.58" xml:space="preserve" y="198.1332" clip-path="url(#clipPath4)" font-family="'Tahoma'" stroke="none">- issuable</text>
      <text x="283.58" xml:space="preserve" y="212.6176" clip-path="url(#clipPath4)" font-family="'Tahoma'" stroke="none">- map(holder, balance)</text>
      <line stroke-linecap="square" clip-path="url(#clipPath4)" fill="none" x1="279" x2="427" y1="220" y2="220" stroke-miterlimit="10"/>
      <text x="283.58" xml:space="preserve" y="237.102" clip-path="url(#clipPath4)" font-family="'Tahoma'" stroke="none">+ constructor()</text>
      <text x="283.58" xml:space="preserve" y="251.5863" clip-path="url(#clipPath4)" font-family="'Tahoma'" stroke="none">+ issue()</text>
      <text x="283.58" xml:space="preserve" y="266.0707" clip-path="url(#clipPath4)" font-family="'Tahoma'" stroke="none">+ issueBatch()</text>
      <text x="283.58" xml:space="preserve" y="280.5551" clip-path="url(#clipPath4)" font-family="'Tahoma'" stroke="none">+ transfer()</text>
      <text x="283.58" xml:space="preserve" y="295.0395" clip-path="url(#clipPath4)" font-family="'Tahoma'" stroke="none">+ trasnferForced()</text>
      <text x="283.58" xml:space="preserve" y="309.5238" clip-path="url(#clipPath4)" font-family="'Tahoma'" stroke="none">+ transferForcedBatch()</text>
      <text x="283.58" xml:space="preserve" y="324.0082" clip-path="url(#clipPath4)" font-family="'Tahoma'" stroke="none">+ redeem()</text>
      <text x="283.58" xml:space="preserve" y="338.4926" clip-path="url(#clipPath4)" font-family="'Tahoma'" stroke="none">+ redeemForced()</text>
      <text x="283.58" xml:space="preserve" y="352.977" clip-path="url(#clipPath4)" font-family="'Tahoma'" stroke="none">+ redeemForcedBatch()</text>
    </g>
    <g fill="white" text-rendering="geometricPrecision" shape-rendering="geometricPrecision" transform="matrix(1,0,0,1,-17,-14)" stroke="white">
      <rect x="590.18" width="130" height="80" y="24.4" clip-path="url(#clipPath2)" stroke="none"/>
    </g>
    <g text-rendering="geometricPrecision" stroke-miterlimit="1.45" shape-rendering="geometricPrecision" transform="matrix(1,0,0,1,-17,-14)" stroke-linecap="butt">
      <rect fill="none" x="590.18" width="130" height="80" y="24.4" clip-path="url(#clipPath2)"/>
      <text x="617.0765" xml:space="preserve" y="41.4059" clip-path="url(#clipPath5)" font-family="'Tahoma'" stroke="none">&lt;&lt;account&gt;&gt;</text>
      <text x="634.3426" font-size="15px" y="67.8917" clip-path="url(#clipPath5)" font-family="'Tahoma'" stroke="none" xml:space="preserve">Admin</text>
      <line stroke-linecap="square" clip-path="url(#clipPath5)" fill="none" x1="591" x2="719" y1="75" y2="75" stroke-miterlimit="10"/>
      <text x="595.18" xml:space="preserve" y="92.9957" clip-path="url(#clipPath5)" font-family="'Tahoma'" stroke="none">- address</text>
      <line stroke-linecap="square" clip-path="url(#clipPath5)" fill="none" x1="591" x2="719" y1="100" y2="100" stroke-miterlimit="10"/>
    </g>
    <g fill="white" text-rendering="geometricPrecision" shape-rendering="geometricPrecision" transform="matrix(1,0,0,1,-17,-14)" stroke="white">
      <rect x="590.18" width="130" height="80" y="134.4" clip-path="url(#clipPath2)" stroke="none"/>
    </g>
    <g text-rendering="geometricPrecision" stroke-miterlimit="1.45" shape-rendering="geometricPrecision" transform="matrix(1,0,0,1,-17,-14)" stroke-linecap="butt">
      <rect fill="none" x="590.18" width="130" height="80" y="134.4" clip-path="url(#clipPath2)"/>
      <text x="617.0765" xml:space="preserve" y="151.4059" clip-path="url(#clipPath6)" font-family="'Tahoma'" stroke="none">&lt;&lt;account&gt;&gt;</text>
      <text x="634.8553" font-size="15px" y="177.8917" clip-path="url(#clipPath6)" font-family="'Tahoma'" stroke="none" xml:space="preserve">Issuer</text>
      <line stroke-linecap="square" clip-path="url(#clipPath6)" fill="none" x1="591" x2="719" y1="185" y2="185" stroke-miterlimit="10"/>
      <text x="595.18" xml:space="preserve" y="202.9957" clip-path="url(#clipPath6)" font-family="'Tahoma'" stroke="none">- address</text>
      <line stroke-linecap="square" clip-path="url(#clipPath6)" fill="none" x1="591" x2="719" y1="210" y2="210" stroke-miterlimit="10"/>
    </g>
    <g fill="white" text-rendering="geometricPrecision" shape-rendering="geometricPrecision" transform="matrix(1,0,0,1,-17,-14)" stroke="white">
      <rect x="590.18" width="130" height="80" y="251.6" clip-path="url(#clipPath2)" stroke="none"/>
    </g>
    <g text-rendering="geometricPrecision" stroke-miterlimit="1.45" shape-rendering="geometricPrecision" transform="matrix(1,0,0,1,-17,-14)" stroke-linecap="butt">
      <rect fill="none" x="590.18" width="130" height="80" y="251.6" clip-path="url(#clipPath2)"/>
      <text x="617.0765" xml:space="preserve" y="268.6059" clip-path="url(#clipPath7)" font-family="'Tahoma'" stroke="none">&lt;&lt;account&gt;&gt;</text>
      <text x="623.0596" font-size="15px" y="295.0917" clip-path="url(#clipPath7)" font-family="'Tahoma'" stroke="none" xml:space="preserve">Controller</text>
      <line stroke-linecap="square" clip-path="url(#clipPath7)" fill="none" x1="591" x2="719" y1="303" y2="303" stroke-miterlimit="10"/>
      <text x="595.18" xml:space="preserve" y="320.1957" clip-path="url(#clipPath7)" font-family="'Tahoma'" stroke="none">- address</text>
      <line stroke-linecap="square" clip-path="url(#clipPath7)" fill="none" x1="591" x2="719" y1="327" y2="327" stroke-miterlimit="10"/>
    </g>
    <g fill="white" text-rendering="geometricPrecision" shape-rendering="geometricPrecision" transform="matrix(1,0,0,1,-17,-14)" stroke="white">
      <rect x="590.18" width="130" height="80" y="368.8" clip-path="url(#clipPath2)" stroke="none"/>
    </g>
    <g text-rendering="geometricPrecision" stroke-miterlimit="1.45" shape-rendering="geometricPrecision" transform="matrix(1,0,0,1,-17,-14)" stroke-linecap="butt">
      <rect fill="none" x="590.18" width="130" height="80" y="368.8" clip-path="url(#clipPath2)"/>
      <text x="617.0765" xml:space="preserve" y="385.8058" clip-path="url(#clipPath8)" font-family="'Tahoma'" stroke="none">&lt;&lt;account&gt;&gt;</text>
      <text x="633.5333" font-size="15px" y="412.2917" clip-path="url(#clipPath8)" font-family="'Tahoma'" stroke="none" xml:space="preserve">Holder</text>
      <line stroke-linecap="square" clip-path="url(#clipPath8)" fill="none" x1="591" x2="719" y1="420" y2="420" stroke-miterlimit="10"/>
      <text x="595.18" xml:space="preserve" y="437.3957" clip-path="url(#clipPath8)" font-family="'Tahoma'" stroke="none">- address</text>
      <line stroke-linecap="square" clip-path="url(#clipPath8)" fill="none" x1="591" x2="719" y1="444" y2="444" stroke-miterlimit="10"/>
    </g>
    <g fill="silver" text-rendering="geometricPrecision" shape-rendering="geometricPrecision" transform="matrix(1,0,0,1,-17,-14)" stroke="silver">
      <rect x="443.36" width="130" height="80" y="506.6" clip-path="url(#clipPath2)" stroke="none"/>
    </g>
    <g stroke-linecap="butt" transform="matrix(1,0,0,1,-17,-14)" fill="rgb(153,153,153)" text-rendering="geometricPrecision" shape-rendering="geometricPrecision" stroke="rgb(153,153,153)" stroke-miterlimit="1.45">
      <rect fill="none" x="443.36" width="130" height="80" y="506.6" clip-path="url(#clipPath2)"/>
      <text x="470.2565" y="523.6058" clip-path="url(#clipPath9)" fill="black" font-family="'Tahoma'" stroke="none" xml:space="preserve">&lt;&lt;account&gt;&gt;</text>
    </g>
    <g font-size="15px" stroke-linecap="butt" transform="matrix(1,0,0,1,-17,-14)" text-rendering="geometricPrecision" font-family="'Tahoma'" shape-rendering="geometricPrecision" stroke-miterlimit="1.45">
      <text x="479.0375" xml:space="preserve" y="550.0917" clip-path="url(#clipPath9)" stroke="none">Operator</text>
    </g>
    <g fill="rgb(153,153,153)" text-rendering="geometricPrecision" shape-rendering="geometricPrecision" transform="matrix(1,0,0,1,-17,-14)" stroke="rgb(153,153,153)">
      <line y2="558" fill="none" x1="444" clip-path="url(#clipPath9)" x2="572" y1="558"/>
    </g>
    <g text-rendering="geometricPrecision" stroke-miterlimit="1.45" shape-rendering="geometricPrecision" font-family="'Tahoma'" transform="matrix(1,0,0,1,-17,-14)" stroke-linecap="butt">
      <text x="448.36" xml:space="preserve" y="575.1957" clip-path="url(#clipPath9)" stroke="none">- address</text>
    </g>
    <g fill="rgb(153,153,153)" text-rendering="geometricPrecision" shape-rendering="geometricPrecision" transform="matrix(1,0,0,1,-17,-14)" stroke="rgb(153,153,153)">
      <line y2="582" fill="none" x1="444" clip-path="url(#clipPath9)" x2="572" y1="582"/>
    </g>
    <g text-rendering="geometricPrecision" stroke-miterlimit="1.45" shape-rendering="geometricPrecision" transform="matrix(1,0,0,1,-17,-14)" stroke-linecap="butt">
      <path fill="none" d="M177.3744 171.6 L278.5978 171.6" clip-path="url(#clipPath2)"/>
      <text x="186.5587" font-size="14px" y="192.2776" clip-path="url(#clipPath2)" font-family="'Tahoma'" stroke="none" xml:space="preserve">1</text>
      <text x="258.5587" font-size="14px" y="193.0776" clip-path="url(#clipPath2)" font-family="'Tahoma'" stroke="none" xml:space="preserve">1</text>
      <path fill="none" d="M428.5901 146.7803 L511.18 64.4 L590.1761 64.4" clip-path="url(#clipPath2)"/>
      <text x="572.1587" font-size="14px" y="87.4776" clip-path="url(#clipPath2)" font-family="'Tahoma'" stroke="none" xml:space="preserve">1</text>
      <text x="545.8547" font-size="14px" y="56.2776" clip-path="url(#clipPath2)" font-family="'Tahoma'" stroke="none" xml:space="preserve">admin</text>
      <path fill="none" d="M428.5804 199.6939 L515.18 174.4 L590.2044 174.4" clip-path="url(#clipPath2)"/>
      <text x="572.0767" font-size="14px" y="192.2776" clip-path="url(#clipPath2)" font-family="'Tahoma'" stroke="none" xml:space="preserve">n</text>
      <text x="542.8979" font-size="14px" y="165.8776" clip-path="url(#clipPath2)" font-family="'Tahoma'" stroke="none" xml:space="preserve">issuers</text>
      <path fill="none" d="M428.5976 256.8905 L502.38 291.6 L590.158 291.6" clip-path="url(#clipPath2)"/>
      <text x="573.6767" font-size="14px" y="308.2776" clip-path="url(#clipPath2)" font-family="'Tahoma'" stroke="none" xml:space="preserve">n</text>
      <text x="519.0511" font-size="14px" y="281.0776" clip-path="url(#clipPath2)" font-family="'Tahoma'" stroke="none" xml:space="preserve">controllers</text>
      <path fill="none" d="M428.575 308.0475 L515.98 408.8 L590.1679 408.8" clip-path="url(#clipPath2)"/>
      <text x="574.4767" font-size="14px" y="425.0776" clip-path="url(#clipPath2)" font-family="'Tahoma'" stroke="none" xml:space="preserve">n</text>
      <text x="539.8761" font-size="14px" y="401.0776" clip-path="url(#clipPath2)" font-family="'Tahoma'" stroke="none" xml:space="preserve">holders</text>
      <path fill="none" d="M655.18 448.801 L655.18 546.6 L573.3465 546.6" clip-path="url(#clipPath2)"/>
      <text x="580.8767" font-size="14px" y="565.8776" clip-path="url(#clipPath2)" font-family="'Tahoma'" stroke="none" xml:space="preserve">n</text>
      <text x="579.4402" font-size="14px" y="535.4776" clip-path="url(#clipPath2)" font-family="'Tahoma'" stroke="none" xml:space="preserve">operators</text>
    </g>
  </g>
</svg>
