<?xml version="1.0" encoding="UTF-8"?><svg xmlns="http://www.w3.org/2000/svg" xmlns:xlink="http://www.w3.org/1999/xlink" fill-opacity="1" color-rendering="auto" color-interpolation="auto" text-rendering="auto" stroke="white" stroke-linecap="square" width="1037" stroke-miterlimit="10" shape-rendering="auto" stroke-opacity="1" fill="white" stroke-dasharray="none" font-weight="normal" stroke-width="1" height="1229" font-family="'Dialog'" font-style="normal" stroke-linejoin="miter" font-size="12px" stroke-dashoffset="0" image-rendering="auto">
  <!--Generated by ySVG 2.5-->
  <defs id="genericDefs"/>
  <g>
    <defs id="defs1">
      <clipPath clipPathUnits="userSpaceOnUse" id="clipPath1">
        <path d="M0 0 L1037 0 L1037 1229 L0 1229 L0 0 Z"/>
      </clipPath>
      <clipPath clipPathUnits="userSpaceOnUse" id="clipPath2">
        <path d="M137 -30 L1174 -30 L1174 1199 L137 1199 L137 -30 Z"/>
      </clipPath>
      <clipPath clipPathUnits="userSpaceOnUse" id="clipPath3">
        <path d="M595 39 L595 529 L845 529 L845 39 Z"/>
      </clipPath>
      <clipPath clipPathUnits="userSpaceOnUse" id="clipPath4">
        <path d="M253 7 L253 447 L483 447 L483 7 Z"/>
      </clipPath>
      <clipPath clipPathUnits="userSpaceOnUse" id="clipPath5">
        <path d="M933 -19 L933 191 L1163 191 L1163 -19 Z"/>
      </clipPath>
      <clipPath clipPathUnits="userSpaceOnUse" id="clipPath6">
        <path d="M933 330 L933 620 L1163 620 L1163 330 Z"/>
      </clipPath>
      <clipPath clipPathUnits="userSpaceOnUse" id="clipPath7">
        <path d="M887 697 L887 1037 L1117 1037 L1117 697 Z"/>
      </clipPath>
    </defs>
    <g text-rendering="geometricPrecision" stroke-miterlimit="1.45" shape-rendering="geometricPrecision" transform="matrix(1,0,0,1,-137,30)" stroke-linecap="butt">
      <rect fill="none" x="595.5" width="250" height="490" y="39.5" clip-path="url(#clipPath2)"/>
    </g>
    <g text-rendering="geometricPrecision" stroke-miterlimit="1.45" shape-rendering="geometricPrecision" font-family="'Monaco'" transform="matrix(1,0,0,1,-137,30)" stroke-linecap="butt">
      <text x="652.0889" xml:space="preserve" y="56.5" clip-path="url(#clipPath3)" stroke="none">&lt;&lt;factory, facade&gt;&gt;</text>
      <text x="665.8911" xml:space="preserve" font-size="13px" y="81.5" clip-path="url(#clipPath3)" stroke="none">ProjectManager</text>
      <line stroke-linecap="square" clip-path="url(#clipPath3)" fill="none" x1="596" x2="844" y1="89" y2="89" stroke-miterlimit="10"/>
      <text x="600.5" xml:space="preserve" y="106.75" clip-path="url(#clipPath3)" stroke="none">- rewardModelAddrs : AddressSet</text>
      <text x="600.5" xml:space="preserve" y="121.75" clip-path="url(#clipPath3)" stroke="none">- votesContract</text>
      <text x="600.5" xml:space="preserve" y="136.75" clip-path="url(#clipPath3)" stroke="none"> </text>
      <text x="600.5" xml:space="preserve" y="151.75" clip-path="url(#clipPath3)" stroke="none">ProjectCreated : event</text>
      <text x="600.5" xml:space="preserve" y="166.75" clip-path="url(#clipPath3)" stroke="none">RewardModelRegistered : event</text>
      <text x="600.5" xml:space="preserve" y="181.75" clip-path="url(#clipPath3)" stroke="none">TokenCollected : event</text>
      <text x="600.5" xml:space="preserve" y="196.75" clip-path="url(#clipPath3)" stroke="none">VoteeRewarded : event</text>
      <text x="600.5" xml:space="preserve" y="211.75" clip-path="url(#clipPath3)" stroke="none">VoterRewarded : event</text>
      <line stroke-linecap="square" clip-path="url(#clipPath3)" fill="none" x1="596" x2="844" y1="219" y2="219" stroke-miterlimit="10"/>
      <text x="600.5" xml:space="preserve" y="236.75" clip-path="url(#clipPath3)" stroke="none">+ getTokenAddress()</text>
      <text x="600.5" xml:space="preserve" y="251.75" clip-path="url(#clipPath3)" stroke="none">+ setVotesContact()</text>
      <text x="600.5" xml:space="preserve" y="266.75" clip-path="url(#clipPath3)" stroke="none">+ createProject()</text>
      <text x="600.5" xml:space="preserve" y="281.75" clip-path="url(#clipPath3)" stroke="none">+ getNumberOfProjects()</text>
      <text x="600.5" xml:space="preserve" y="296.75" clip-path="url(#clipPath3)" stroke="none">+ hasProject()</text>
      <text x="600.5" xml:space="preserve" y="311.75" clip-path="url(#clipPath3)" stroke="none">+ getProjectAddress()</text>
      <text x="600.5" xml:space="preserve" y="326.75" clip-path="url(#clipPath3)" stroke="none">- _findProject()</text>
      <text x="600.5" xml:space="preserve" y="341.75" clip-path="url(#clipPath3)" stroke="none">- _setProjectRewarded()</text>
      <text x="600.5" xml:space="preserve" y="356.75" clip-path="url(#clipPath3)" stroke="none">+ registerRewardModels()</text>
      <text x="600.5" xml:space="preserve" y="371.75" clip-path="url(#clipPath3)" stroke="none">+ registerRewardModel()</text>
      <text x="600.5" xml:space="preserve" y="386.75" clip-path="url(#clipPath3)" stroke="none">- _registerRewardModel()</text>
      <text x="600.5" xml:space="preserve" y="401.75" clip-path="url(#clipPath3)" stroke="none">+ getNumberOfRewardModels()</text>
      <text x="600.5" xml:space="preserve" y="416.75" clip-path="url(#clipPath3)" stroke="none">+ getRewardModel()</text>
      <text x="600.5" xml:space="preserve" y="431.75" clip-path="url(#clipPath3)" stroke="none">+ assignProjectVoters()</text>
      <text x="600.5" xml:space="preserve" y="446.75" clip-path="url(#clipPath3)" stroke="none">+ getProjectVoters()</text>
      <text x="600.5" xml:space="preserve" y="461.75" clip-path="url(#clipPath3)" stroke="none">+ collectFrom()</text>
      <text x="600.5" xml:space="preserve" y="476.75" clip-path="url(#clipPath3)" stroke="none">+ simulateRewardsArrayRetuns()</text>
      <text x="600.5" xml:space="preserve" y="491.75" clip-path="url(#clipPath3)" stroke="none">- _simulateRewards()</text>
      <text x="600.5" xml:space="preserve" y="506.75" clip-path="url(#clipPath3)" stroke="none">+ distributeRewards()</text>
      <rect fill="none" x="253.6875" width="230" height="440" y="7.0312" clip-path="url(#clipPath2)"/>
      <text x="329.0811" xml:space="preserve" y="24.0312" clip-path="url(#clipPath4)" stroke="none">&lt;&lt;storage&gt;&gt;</text>
      <text x="341.3831" xml:space="preserve" font-size="13px" y="49.0312" clip-path="url(#clipPath4)" stroke="none">Project</text>
      <line stroke-linecap="square" clip-path="url(#clipPath4)" fill="none" x1="254" x2="482" y1="57" y2="57" stroke-miterlimit="10"/>
      <text x="258.6875" xml:space="preserve" y="74.2812" clip-path="url(#clipPath4)" stroke="none">- id</text>
      <text x="258.6875" xml:space="preserve" y="89.2812" clip-path="url(#clipPath4)" stroke="none">- name</text>
      <text x="258.6875" xml:space="preserve" y="104.2812" clip-path="url(#clipPath4)" stroke="none">- rewardPot</text>
      <text x="258.6875" xml:space="preserve" y="119.2812" clip-path="url(#clipPath4)" stroke="none">- voters : AddressSet</text>
      <text x="258.6875" xml:space="preserve" y="134.2812" clip-path="url(#clipPath4)" stroke="none">- rewarded : bool</text>
      <text x="258.6875" xml:space="preserve" y="149.2812" clip-path="url(#clipPath4)" stroke="none"> </text>
      <text x="258.6875" xml:space="preserve" y="164.2812" clip-path="url(#clipPath4)" stroke="none">RewardPotUpdated : event</text>
      <text x="258.6875" xml:space="preserve" y="179.2812" clip-path="url(#clipPath4)" stroke="none">RewardModelDesignated : event</text>
      <text x="258.6875" xml:space="preserve" y="194.2812" clip-path="url(#clipPath4)" stroke="none">VoterAssigned : event</text>
      <text x="258.6875" xml:space="preserve" y="209.2812" clip-path="url(#clipPath4)" stroke="none">VoterUnassigned : event</text>
      <text x="258.6875" xml:space="preserve" y="224.2812" clip-path="url(#clipPath4)" stroke="none">RewardDistributed : event</text>
      <line stroke-linecap="square" clip-path="url(#clipPath4)" fill="none" x1="254" x2="482" y1="232" y2="232" stroke-miterlimit="10"/>
      <text x="258.6875" xml:space="preserve" y="249.2812" clip-path="url(#clipPath4)" stroke="none">+ getId()</text>
      <text x="258.6875" xml:space="preserve" y="264.2812" clip-path="url(#clipPath4)" stroke="none">+ getName()</text>
      <text x="258.6875" xml:space="preserve" y="279.2812" clip-path="url(#clipPath4)" stroke="none">- _setRewardPot()</text>
      <text x="258.6875" xml:space="preserve" y="294.2812" clip-path="url(#clipPath4)" stroke="none">+ setRewardPot()</text>
      <text x="258.6875" xml:space="preserve" y="309.2812" clip-path="url(#clipPath4)" stroke="none">+ getRewardPot()</text>
      <text x="258.6875" xml:space="preserve" y="324.2812" clip-path="url(#clipPath4)" stroke="none">+ setRewardModel()</text>
      <text x="258.6875" xml:space="preserve" y="339.2812" clip-path="url(#clipPath4)" stroke="none">+ hasRewardModel()</text>
      <text x="258.6875" xml:space="preserve" y="354.2812" clip-path="url(#clipPath4)" stroke="none">+ getRewardModelAddress()</text>
      <text x="258.6875" xml:space="preserve" y="369.2812" clip-path="url(#clipPath4)" stroke="none">+ assignVoters()</text>
      <text x="258.6875" xml:space="preserve" y="384.2812" clip-path="url(#clipPath4)" stroke="none">+ getVoters()</text>
      <text x="258.6875" xml:space="preserve" y="399.2812" clip-path="url(#clipPath4)" stroke="none">+ hasVoter()</text>
      <text x="258.6875" xml:space="preserve" y="414.2812" clip-path="url(#clipPath4)" stroke="none">+ setRewarded()</text>
      <text x="258.6875" xml:space="preserve" y="429.2812" clip-path="url(#clipPath4)" stroke="none">+ isRewarded()</text>
      <rect fill="none" x="933.75" width="230" height="210" y="-19.6875" clip-path="url(#clipPath2)"/>
      <text x="1009.1436" xml:space="preserve" y="-2.6875" clip-path="url(#clipPath5)" stroke="none">&lt;&lt;storage&gt;&gt;</text>
      <text x="998.0417" xml:space="preserve" font-size="13px" y="22.3125" clip-path="url(#clipPath5)" stroke="none">Contributions</text>
      <line stroke-linecap="square" clip-path="url(#clipPath5)" fill="none" x1="934" x2="1162" y1="30" y2="30" stroke-miterlimit="10"/>
      <text x="938.75" xml:space="preserve" y="47.5625" clip-path="url(#clipPath5)" stroke="none">- contribs : mapping(mapping)</text>
      <text x="938.75" xml:space="preserve" y="62.5625" clip-path="url(#clipPath5)" stroke="none">- contributors; mapping</text>
      <text x="938.75" xml:space="preserve" y="77.5625" clip-path="url(#clipPath5)" stroke="none"> </text>
      <text x="938.75" xml:space="preserve" y="92.5625" clip-path="url(#clipPath5)" stroke="none">ContributionAdded : event</text>
      <text x="938.75" xml:space="preserve" y="107.5625" clip-path="url(#clipPath5)" stroke="none">ContributionUpdated : event</text>
      <line stroke-linecap="square" clip-path="url(#clipPath5)" fill="none" x1="934" x2="1162" y1="115" y2="115" stroke-miterlimit="10"/>
      <text x="938.75" xml:space="preserve" y="132.5625" clip-path="url(#clipPath5)" stroke="none">+ addOrUpdateContribution()</text>
      <text x="938.75" xml:space="preserve" y="147.5625" clip-path="url(#clipPath5)" stroke="none">+ getContributorsByProject()</text>
      <text x="938.75" xml:space="preserve" y="162.5625" clip-path="url(#clipPath5)" stroke="none">+ getContribution()</text>
      <text x="938.75" xml:space="preserve" y="177.5625" clip-path="url(#clipPath5)" stroke="none">+ hasContribution()</text>
      <rect fill="none" x="933.75" width="230" height="290" y="330.3125" clip-path="url(#clipPath2)"/>
      <text x="1009.1436" xml:space="preserve" y="347.3125" clip-path="url(#clipPath6)" stroke="none">&lt;&lt;storage&gt;&gt;</text>
      <text x="1029.2468" xml:space="preserve" font-size="13px" y="372.3125" clip-path="url(#clipPath6)" stroke="none">Votes</text>
      <line stroke-linecap="square" clip-path="url(#clipPath6)" fill="none" x1="934" x2="1162" y1="380" y2="380" stroke-miterlimit="10"/>
      <text x="938.75" xml:space="preserve" y="397.5625" clip-path="url(#clipPath6)" stroke="none">- votes : mapping(mapping)</text>
      <text x="938.75" xml:space="preserve" y="412.5625" clip-path="url(#clipPath6)" stroke="none">- voters : mapping</text>
      <text x="938.75" xml:space="preserve" y="427.5625" clip-path="url(#clipPath6)" stroke="none">- scores : mapping(mapping)</text>
      <text x="938.75" xml:space="preserve" y="442.5625" clip-path="url(#clipPath6)" stroke="none">- votees : mapping</text>
      <text x="938.75" xml:space="preserve" y="457.5625" clip-path="url(#clipPath6)" stroke="none"> </text>
      <text x="938.75" xml:space="preserve" y="472.5625" clip-path="url(#clipPath6)" stroke="none">Voted : event</text>
      <text x="938.75" xml:space="preserve" y="487.5625" clip-path="url(#clipPath6)" stroke="none">NoPreviousVote : event</text>
      <text x="938.75" xml:space="preserve" y="502.5625" clip-path="url(#clipPath6)" stroke="none">Unvoted : event</text>
      <line stroke-linecap="square" clip-path="url(#clipPath6)" fill="none" x1="934" x2="1162" y1="510" y2="510" stroke-miterlimit="10"/>
      <text x="938.75" xml:space="preserve" y="527.5625" clip-path="url(#clipPath6)" stroke="none">+ vote()</text>
      <text x="938.75" xml:space="preserve" y="542.5625" clip-path="url(#clipPath6)" stroke="none">+ unvote()</text>
      <text x="938.75" xml:space="preserve" y="557.5625" clip-path="url(#clipPath6)" stroke="none">- _unvote()</text>
      <text x="938.75" xml:space="preserve" y="572.5625" clip-path="url(#clipPath6)" stroke="none">+ getVote()</text>
      <text x="938.75" xml:space="preserve" y="587.5625" clip-path="url(#clipPath6)" stroke="none">+ getVotesByProject()</text>
      <text x="938.75" xml:space="preserve" y="602.5625" clip-path="url(#clipPath6)" stroke="none">+ getScoresByProject()</text>
      <rect fill="none" x="372.75" width="150" height="100" y="562.0625" clip-path="url(#clipPath2)"/>
      <text x="400.9424" xml:space="preserve" y="579.0625" clip-path="url(#clipPath2)" stroke="none">&lt;&lt;interface&gt;&gt;</text>
      <text x="400.9424" font-size="13px" y="604.0625" clip-path="url(#clipPath2)" font-style="italic" stroke="none" xml:space="preserve">IRewardModel</text>
      <line stroke-linecap="square" clip-path="url(#clipPath2)" fill="none" x1="373" x2="521" y1="612" y2="612" stroke-miterlimit="10"/>
      <line stroke-linecap="square" clip-path="url(#clipPath2)" fill="none" x1="373" x2="521" y1="622" y2="622" stroke-miterlimit="10"/>
      <text x="377.75" xml:space="preserve" y="639.3125" clip-path="url(#clipPath2)" stroke="none">+ getName()</text>
      <text x="377.75" xml:space="preserve" y="654.3125" clip-path="url(#clipPath2)" stroke="none">+ calcRewards()</text>
      <rect fill="none" x="362.75" width="170" height="115" y="697.0625" clip-path="url(#clipPath2)"/>
      <text x="404.543" xml:space="preserve" y="714.0625" clip-path="url(#clipPath2)" stroke="none">&lt;&lt;abstract&gt;&gt;</text>
      <text x="373.6379" font-size="13px" y="739.0625" clip-path="url(#clipPath2)" font-style="italic" stroke="none" xml:space="preserve">AbstractRewardModel</text>
      <line stroke-linecap="square" clip-path="url(#clipPath2)" fill="none" x1="363" x2="531" y1="747" y2="747" stroke-miterlimit="10"/>
      <text x="367.75" xml:space="preserve" y="764.3125" clip-path="url(#clipPath2)" stroke="none">+ FLOOR_AT_MAX = 18</text>
      <line stroke-linecap="square" clip-path="url(#clipPath2)" fill="none" x1="363" x2="531" y1="772" y2="772" stroke-miterlimit="10"/>
      <text x="367.75" xml:space="preserve" y="789.3125" clip-path="url(#clipPath2)" stroke="none">- _calcRemainder()</text>
      <text x="367.75" xml:space="preserve" y="804.3125" clip-path="url(#clipPath2)" stroke="none">- _floor()</text>
      <rect fill="none" x="147.5" width="220" height="175" y="848.0938" clip-path="url(#clipPath2)"/>
      <text x="210.6924" xml:space="preserve" y="865.0938" clip-path="url(#clipPath2)" stroke="none">&lt;&lt;stateless&gt;&gt;</text>
      <text x="167.7854" xml:space="preserve" font-size="13px" y="890.0938" clip-path="url(#clipPath2)" stroke="none">ProportionalRewardModel</text>
      <line stroke-linecap="square" clip-path="url(#clipPath2)" fill="none" x1="148" x2="366" y1="898" y2="898" stroke-miterlimit="10"/>
      <text x="152.5" xml:space="preserve" y="915.3438" clip-path="url(#clipPath2)" stroke="none">- name {const}</text>
      <text x="152.5" xml:space="preserve" y="930.3438" clip-path="url(#clipPath2)" stroke="none">- voterHighPortion {immutable}</text>
      <text x="152.5" xml:space="preserve" y="945.3438" clip-path="url(#clipPath2)" stroke="none">- voterBasePortion {immutable}</text>
      <line stroke-linecap="square" clip-path="url(#clipPath2)" fill="none" x1="148" x2="366" y1="953" y2="953" stroke-miterlimit="10"/>
      <text x="152.5" xml:space="preserve" y="970.3438" clip-path="url(#clipPath2)" stroke="none">+ getName()</text>
      <text x="152.5" xml:space="preserve" y="985.3438" clip-path="url(#clipPath2)" stroke="none">+ calcRewards()</text>
      <text x="152.5" xml:space="preserve" y="1000.3438" clip-path="url(#clipPath2)" stroke="none">- _calcVoteeRewards()</text>
      <text x="152.5" xml:space="preserve" y="1015.3438" clip-path="url(#clipPath2)" stroke="none">- _calcVoterRewards()</text>
      <rect fill="none" x="172.5" width="170" height="135" y="1053.0938" clip-path="url(#clipPath2)"/>
      <text x="210.6924" xml:space="preserve" y="1070.0938" clip-path="url(#clipPath2)" stroke="none">&lt;&lt;stateless&gt;&gt;</text>
      <text x="179.4873" xml:space="preserve" font-size="13px" y="1095.0938" clip-path="url(#clipPath2)" stroke="none">EvenVoterRewardModel</text>
      <line stroke-linecap="square" clip-path="url(#clipPath2)" fill="none" x1="173" x2="341" y1="1103" y2="1103" stroke-miterlimit="10"/>
      <text x="177.5" xml:space="preserve" y="1120.3438" clip-path="url(#clipPath2)" stroke="none">- name {const}</text>
      <line stroke-linecap="square" clip-path="url(#clipPath2)" fill="none" x1="173" x2="341" y1="1128" y2="1128" stroke-miterlimit="10"/>
      <text x="177.5" xml:space="preserve" y="1145.3438" clip-path="url(#clipPath2)" stroke="none">+ getName()</text>
      <text x="177.5" xml:space="preserve" y="1160.3438" clip-path="url(#clipPath2)" stroke="none">+ calcRewards()</text>
      <text x="177.5" xml:space="preserve" y="1175.3438" clip-path="url(#clipPath2)" stroke="none">- _calcVoterRewards()</text>
      <rect fill="none" x="419.5" width="170" height="135" y="848.0938" clip-path="url(#clipPath2)"/>
      <text x="457.6924" xml:space="preserve" y="865.0938" clip-path="url(#clipPath2)" stroke="none">&lt;&lt;stateless&gt;&gt;</text>
      <text x="430.3879" xml:space="preserve" font-size="13px" y="890.0938" clip-path="url(#clipPath2)" stroke="none">WinnerTakesAllModel</text>
      <line stroke-linecap="square" clip-path="url(#clipPath2)" fill="none" x1="420" x2="588" y1="898" y2="898" stroke-miterlimit="10"/>
      <text x="424.5" xml:space="preserve" y="915.3438" clip-path="url(#clipPath2)" stroke="none">- name {const}</text>
      <line stroke-linecap="square" clip-path="url(#clipPath2)" fill="none" x1="420" x2="588" y1="923" y2="923" stroke-miterlimit="10"/>
      <text x="424.5" xml:space="preserve" y="940.3438" clip-path="url(#clipPath2)" stroke="none">+ getName()</text>
      <text x="424.5" xml:space="preserve" y="955.3438" clip-path="url(#clipPath2)" stroke="none">+ calcRewards()</text>
      <text x="424.5" xml:space="preserve" y="970.3438" clip-path="url(#clipPath2)" stroke="none">+ _calcVoteeRewards()</text>
      <rect fill="none" x="635.5" width="170" height="110" y="804.3438" clip-path="url(#clipPath2)"/>
      <text x="677.293" xml:space="preserve" y="821.3438" clip-path="url(#clipPath2)" stroke="none">&lt;&lt;abstract&gt;&gt;</text>
      <text x="650.2886" font-size="13px" y="846.3438" clip-path="url(#clipPath2)" font-style="italic" stroke="none" xml:space="preserve">Top2RewardedModelL</text>
      <line stroke-linecap="square" clip-path="url(#clipPath2)" fill="none" x1="636" x2="804" y1="854" y2="854" stroke-miterlimit="10"/>
      <text x="640.5" xml:space="preserve" y="871.5938" clip-path="url(#clipPath2)" stroke="none">- name {const}</text>
      <line stroke-linecap="square" clip-path="url(#clipPath2)" fill="none" x1="636" x2="804" y1="879" y2="879" stroke-miterlimit="10"/>
      <text x="640.5" xml:space="preserve" y="896.5938" clip-path="url(#clipPath2)" stroke="none">+ getName()</text>
      <rect fill="none" x="887.5" width="230" height="340" y="697.0625" clip-path="url(#clipPath2)"/>
      <text x="970.0947" xml:space="preserve" y="714.0625" clip-path="url(#clipPath7)" stroke="none">&lt;&lt;erc20&gt;&gt;</text>
      <text x="936.1892" xml:space="preserve" font-size="13px" y="739.0625" clip-path="url(#clipPath7)" stroke="none">RegularERC20Token</text>
      <line stroke-linecap="square" clip-path="url(#clipPath7)" fill="none" x1="888" x2="1116" y1="747" y2="747" stroke-miterlimit="10"/>
      <text x="892.5" xml:space="preserve" y="764.3125" clip-path="url(#clipPath7)" stroke="none">- balances : mapping</text>
      <text x="892.5" xml:space="preserve" y="779.3125" clip-path="url(#clipPath7)" stroke="none">- allowances : mapping(mapping)</text>
      <text x="892.5" xml:space="preserve" y="794.3125" clip-path="url(#clipPath7)" stroke="none"> </text>
      <text x="892.5" xml:space="preserve" y="809.3125" clip-path="url(#clipPath7)" stroke="none">Transfer : event</text>
      <text x="892.5" xml:space="preserve" y="824.3125" clip-path="url(#clipPath7)" stroke="none">Approval : event</text>
      <line stroke-linecap="square" clip-path="url(#clipPath7)" fill="none" x1="888" x2="1116" y1="832" y2="832" stroke-miterlimit="10"/>
      <text x="892.5" xml:space="preserve" y="849.3125" clip-path="url(#clipPath7)" stroke="none">+ totalSupply()</text>
      <text x="892.5" xml:space="preserve" y="864.3125" clip-path="url(#clipPath7)" stroke="none">+ balanceOf()</text>
      <text x="892.5" xml:space="preserve" y="879.3125" clip-path="url(#clipPath7)" stroke="none">+ transfer()</text>
      <text x="892.5" xml:space="preserve" y="894.3125" clip-path="url(#clipPath7)" stroke="none">+ allowance()</text>
      <text x="892.5" xml:space="preserve" y="909.3125" clip-path="url(#clipPath7)" stroke="none">+ approve()</text>
      <text x="892.5" xml:space="preserve" y="924.3125" clip-path="url(#clipPath7)" stroke="none">+ transferFrom()</text>
      <text x="892.5" xml:space="preserve" y="939.3125" clip-path="url(#clipPath7)" stroke="none">+ mint()</text>
      <text x="892.5" xml:space="preserve" y="954.3125" clip-path="url(#clipPath7)" stroke="none">+ burn()</text>
      <text x="892.5" xml:space="preserve" y="969.3125" clip-path="url(#clipPath7)" stroke="none">+ burnFrom()</text>
      <text x="892.5" xml:space="preserve" y="984.3125" clip-path="url(#clipPath7)" stroke="none">+ paused()</text>
      <text x="892.5" xml:space="preserve" y="999.3125" clip-path="url(#clipPath7)" stroke="none">+ pause()</text>
      <text x="892.5" xml:space="preserve" y="1014.3125" clip-path="url(#clipPath7)" stroke="none">+ unpause()	</text>
      <path fill="none" d="M588.5762 262.9502 L488.5987 246.6188" clip-path="url(#clipPath2)"/>
      <path d="M595.4846 264.0787 L587.7701 267.8848 L581.6677 261.8217 L589.3823 258.0156 Z" clip-path="url(#clipPath2)" stroke="none"/>
      <path d="M484.651 245.9739 L495.5268 253.83 L484.651 245.9739 L497.4613 241.987 Z" clip-path="url(#clipPath2)" stroke="none"/>
      <path fill="none" stroke-miterlimit="10" d="M484.651 245.9739 L495.5268 253.83 L484.651 245.9739 L497.4613 241.987 Z" clip-path="url(#clipPath2)" stroke-linecap="square"/>
      <text x="498.8114" font-size="13px" y="237.5168" clip-path="url(#clipPath2)" font-family="sans-serif" stroke="none" xml:space="preserve">projects</text>
      <text x="490.6875" font-size="13px" y="264.0082" clip-path="url(#clipPath2)" font-family="sans-serif" stroke="none" xml:space="preserve">n</text>
      <text x="580.2798" font-size="13px" y="279.7986" clip-path="url(#clipPath2)" font-family="sans-serif" stroke="none" xml:space="preserve">1</text>
      <path fill="none" d="M933.7102 155.1205 L849.7805 206.0505" clip-path="url(#clipPath2)"/>
      <path d="M846.3609 208.1256 L859.7325 207.0297 L846.3609 208.1256 L853.5071 196.7708 Z" clip-path="url(#clipPath2)" stroke="none"/>
      <path fill="none" stroke-miterlimit="10" d="M846.3609 208.1256 L859.7325 207.0297 L846.3609 208.1256 L853.5071 196.7708 Z" clip-path="url(#clipPath2)" stroke-linecap="square"/>
      <text x="852.5" font-size="13px" y="214.52" clip-path="url(#clipPath2)" font-family="sans-serif" stroke="none" xml:space="preserve">projectManager</text>
      <path fill="none" d="M845.4771 357.1494 L933.739 408.4563" clip-path="url(#clipPath2)"/>
      <path fill="none" d="M845.4771 357.1494 L933.739 408.4563" clip-path="url(#clipPath2)"/>
      <path fill="none" d="M845.4771 357.1494 L933.739 408.4563" clip-path="url(#clipPath2)"/>
      <path fill="none" d="M845.4771 357.1494 L933.739 408.4563" clip-path="url(#clipPath2)"/>
      <path fill="none" d="M933.7102 408.4396 L849.8287 359.679" clip-path="url(#clipPath2)"/>
      <path d="M846.3705 357.6688 L853.7297 368.8868 L846.3705 357.6688 L859.7604 358.5123 Z" clip-path="url(#clipPath2)" stroke="none"/>
      <path fill="none" stroke-miterlimit="10" d="M846.3705 357.6688 L853.7297 368.8868 L846.3705 357.6688 L859.7604 358.5123 Z" clip-path="url(#clipPath2)" stroke-linecap="square"/>
      <text x="821.567" font-size="13px" y="348.7202" clip-path="url(#clipPath2)" font-family="sans-serif" stroke="none" xml:space="preserve">projectManager</text>
      <path fill="none" d="M1048.75 330.3479 L1048.75 195.3319" clip-path="url(#clipPath2)"/>
      <path d="M1048.75 191.3319 L1042.75 203.3319 L1048.75 191.3319 L1054.75 203.3319 Z" clip-path="url(#clipPath2)" stroke="none"/>
      <path fill="none" stroke-miterlimit="10" d="M1048.75 191.3319 L1042.75 203.3319 L1048.75 191.3319 L1054.75 203.3319 Z" clip-path="url(#clipPath2)" stroke-linecap="square"/>
      <text x="1049.095" font-size="13px" y="219.8269" clip-path="url(#clipPath2)" font-family="sans-serif" stroke="none" xml:space="preserve">contribsContract</text>
      <path fill="none" d="M415.2727 453.8993 L437.4835 562.0649" clip-path="url(#clipPath2)"/>
      <path d="M413.8647 447.0424 L420.1705 452.8936 L416.6807 460.7563 L410.3749 454.9051 Z" clip-path="url(#clipPath2)" stroke="none"/>
      <text x="336.8087" font-size="13px" y="521.8165" clip-path="url(#clipPath2)" font-family="sans-serif" stroke="none" xml:space="preserve">rewardModel</text>
      <path fill="none" d="M591.016 440.0055 L492.5929 558.2079" clip-path="url(#clipPath2)"/>
      <path d="M595.4951 434.6261 L594.8583 443.2049 L586.5368 445.3848 L587.1736 436.8061 Z" clip-path="url(#clipPath2)" stroke="none"/>
      <path d="M490.0334 561.2817 L502.3228 555.8994 L490.0334 561.2817 L493.1011 548.2208 Z" clip-path="url(#clipPath2)" stroke="none"/>
      <path fill="none" stroke-miterlimit="10" d="M490.0334 561.2817 L502.3228 555.8994 L490.0334 561.2817 L493.1011 548.2208 Z" clip-path="url(#clipPath2)" stroke-linecap="square"/>
      <text x="465.5944" font-size="13px" y="542.5518" clip-path="url(#clipPath2)" font-family="sans-serif" stroke="none" xml:space="preserve">rewardModels</text>
      <text x="569.8122" font-size="13px" y="446.1861" clip-path="url(#clipPath2)" font-family="sans-serif" stroke="none" xml:space="preserve">1</text>
      <text x="507.7117" font-size="13px" y="556.4163" clip-path="url(#clipPath2)" font-family="sans-serif" stroke="none" xml:space="preserve">n</text>
      <path fill="none" d="M447.75 697.0546 L447.75 677.0701" clip-path="url(#clipPath2)"/>
      <path fill="white" d="M447.75 662.0701 L441.75 678.0701 L453.75 678.0701 Z" clip-path="url(#clipPath2)" stroke="none"/>
      <path fill="none" d="M447.75 662.0701 L441.75 678.0701 L453.75 678.0701 Z" clip-path="url(#clipPath2)"/>
      <path fill="none" d="M349.4433 848.1057 L376.4738 822.385" clip-path="url(#clipPath2)"/>
      <path fill="white" d="M387.3404 812.0449 L371.6133 818.7277 L379.8853 827.421 Z" clip-path="url(#clipPath2)" stroke="none"/>
      <path fill="none" d="M387.3404 812.0449 L371.6133 818.7277 L379.8853 827.421 Z" clip-path="url(#clipPath2)"/>
      <path fill="none" d="M257.5 1053.0706 L257.5 1038.099" clip-path="url(#clipPath2)"/>
      <path fill="white" d="M257.5 1023.099 L251.5 1039.099 L263.5 1039.099 Z" clip-path="url(#clipPath2)" stroke="none"/>
      <path fill="none" d="M257.5 1023.099 L251.5 1039.099 L263.5 1039.099 Z" clip-path="url(#clipPath2)"/>
      <path fill="none" d="M480.711 848.0911 L472.9984 826.2061" clip-path="url(#clipPath2)"/>
      <path fill="white" d="M468.0126 812.0589 L467.6719 829.1435 L478.9896 825.1549 Z" clip-path="url(#clipPath2)" stroke="none"/>
      <path fill="none" d="M468.0126 812.0589 L467.6719 829.1435 L478.9896 825.1549 Z" clip-path="url(#clipPath2)"/>
      <path fill="none" d="M635.4987 826.6891 L546.7801 792.6065" clip-path="url(#clipPath2)"/>
      <path fill="white" d="M532.7778 787.2273 L545.5619 798.566 L549.8652 787.3642 Z" clip-path="url(#clipPath2)" stroke="none"/>
      <path fill="none" d="M532.7778 787.2273 L545.5619 798.566 L549.8652 787.3642 Z" clip-path="url(#clipPath2)"/>
      <path fill="none" d="M786.8779 529.4986 L832.2828 697.0868 L883.9531 748.6838" clip-path="url(#clipPath2)"/>
      <path d="M886.7836 751.5103 L882.5319 738.7854 L886.7836 751.5103 L874.0526 747.2767 Z" clip-path="url(#clipPath2)" stroke="none"/>
      <path fill="none" stroke-miterlimit="10" d="M886.7836 751.5103 L882.5319 738.7854 L886.7836 751.5103 L874.0526 747.2767 Z" clip-path="url(#clipPath2)" stroke-linecap="square"/>
      <text x="836.6843" font-size="13px" y="766.6442" clip-path="url(#clipPath2)" font-family="sans-serif" stroke="none" xml:space="preserve">token</text>
      <path fill="none" d="M1031.6265 620.3538 L1023.1569 692.0932" clip-path="url(#clipPath2)"/>
      <path d="M1022.6879 696.0656 L1030.0535 684.8519 L1022.6879 696.0656 L1018.1362 683.4449 Z" clip-path="url(#clipPath2)" stroke="none"/>
      <path fill="none" stroke-miterlimit="10" d="M1022.6879 696.0656 L1030.0535 684.8519 L1022.6879 696.0656 L1018.1362 683.4449 Z" clip-path="url(#clipPath2)" stroke-linecap="square"/>
      <text x="1036.6306" font-size="13px" y="687.3203" clip-path="url(#clipPath2)" font-family="sans-serif" stroke="none" xml:space="preserve">token</text>
    </g>
  </g>
</svg>
