<?xml version="1.0" encoding="UTF-8"?><svg xmlns="http://www.w3.org/2000/svg" xmlns:xlink="http://www.w3.org/1999/xlink" fill-opacity="1" color-rendering="auto" color-interpolation="auto" text-rendering="auto" stroke="black" stroke-linecap="square" width="1572" stroke-miterlimit="10" shape-rendering="auto" stroke-opacity="1" fill="black" stroke-dasharray="none" font-weight="normal" stroke-width="1" height="863" font-family="'Dialog'" font-style="normal" stroke-linejoin="miter" font-size="12px" stroke-dashoffset="0" image-rendering="auto">
  <!--Generated by ySVG 2.5-->
  <defs id="genericDefs"/>
  <g>
    <defs id="defs1">
      <clipPath clipPathUnits="userSpaceOnUse" id="clipPath1">
        <path d="M0 0 L1572 0 L1572 863 L0 863 L0 0 Z"/>
      </clipPath>
      <clipPath clipPathUnits="userSpaceOnUse" id="clipPath2">
        <path d="M-92 41 L1480 41 L1480 904 L-92 904 L-92 41 Z"/>
      </clipPath>
    </defs>
    <g stroke-linecap="butt" transform="matrix(1,0,0,1,92,-41)" fill="rgb(153,153,255)" text-rendering="geometricPrecision" shape-rendering="geometricPrecision" stroke="rgb(153,153,255)" stroke-miterlimit="1.45">
      <rect fill="none" x="229" width="150" height="150" y="682.5" clip-path="url(#clipPath2)"/>
    </g>
    <g font-size="16px" stroke-linecap="butt" transform="matrix(1,0,0,1,92,-41)" text-rendering="geometricPrecision" font-family="'Lucida Grande'" shape-rendering="geometricPrecision" font-weight="bold" stroke-miterlimit="1.45">
      <text x="119.4844" xml:space="preserve" y="763.5469" clip-path="url(#clipPath2)" stroke="none">Smart Phone</text>
    </g>
    <g stroke-linecap="butt" transform="matrix(1,0,0,1,92,-41)" fill="rgb(153,153,255)" text-rendering="geometricPrecision" shape-rendering="geometricPrecision" stroke="rgb(153,153,255)" stroke-miterlimit="1.45">
      <rect fill="none" x="237" width="150" height="150" y="369.5" clip-path="url(#clipPath2)"/>
    </g>
    <g font-size="16px" stroke-linecap="butt" transform="matrix(1,0,0,1,92,-41)" text-rendering="geometricPrecision" font-family="'Lucida Grande'" shape-rendering="geometricPrecision" font-weight="bold" stroke-miterlimit="1.45">
      <text x="260.2422" xml:space="preserve" y="540.9688" clip-path="url(#clipPath2)" stroke="none">Smart Phone</text>
    </g>
    <g transform="matrix(1,0,0,1,92,-41)" fill-opacity="0.9804" fill="rgb(250,250,250)" text-rendering="geometricPrecision" shape-rendering="geometricPrecision" stroke="rgb(250,250,250)" stroke-opacity="0.9804">
      <path d="M1088.75 51.25 L1454.25 51.25 L1454.25 66.25 L1469.25 66.25 L1469.25 105.25 L1088.75 105.25 Z" stroke="none" clip-path="url(#clipPath2)"/>
    </g>
    <g fill="white" text-rendering="geometricPrecision" shape-rendering="geometricPrecision" transform="matrix(1,0,0,1,92,-41)" stroke="white">
      <path d="M1454.25 51.25 L1454.25 66.25 L1469.25 66.25 Z" fill-rule="evenodd" clip-path="url(#clipPath2)" stroke="none"/>
    </g>
    <g text-rendering="geometricPrecision" stroke-miterlimit="1.45" shape-rendering="geometricPrecision" transform="matrix(1,0,0,1,92,-41)" stroke-linecap="butt">
      <path fill="none" d="M1088.75 51.25 L1454.25 51.25 L1454.25 66.25 L1469.25 66.25 L1469.25 105.25 L1088.75 105.25 Z" clip-path="url(#clipPath2)"/>
      <path fill="none" d="M1454.25 51.25 L1454.25 66.25 L1469.25 66.25 Z" clip-path="url(#clipPath2)" fill-rule="evenodd"/>
      <text x="1094.75" font-size="14px" y="75.2969" clip-path="url(#clipPath2)" font-family="'Lucida Grande'" stroke="none" xml:space="preserve">Korea : 한국정보통신, 나이스정보통신, KIS정보통신</text>
      <text x="1094.75" font-size="14px" y="91.7852" clip-path="url(#clipPath2)" font-family="'Lucida Grande'" stroke="none" xml:space="preserve">USA : Mastercard, VISA, American Express, Discover</text>
    </g>
    <g fill="rgb(204,204,255)" text-rendering="geometricPrecision" shape-rendering="geometricPrecision" transform="matrix(1,0,0,1,92,-41)" stroke="rgb(204,204,255)">
      <rect x="279" width="90" height="60" y="104" clip-path="url(#clipPath2)" stroke="none"/>
    </g>
    <g stroke-linecap="butt" transform="matrix(1,0,0,1,92,-41)" fill="rgb(153,153,255)" text-rendering="geometricPrecision" shape-rendering="geometricPrecision" stroke="rgb(153,153,255)" stroke-miterlimit="1.45">
      <rect fill="none" x="279" width="90" height="60" y="104" clip-path="url(#clipPath2)"/>
    </g>
    <g font-size="16px" stroke-linecap="butt" transform="matrix(1,0,0,1,92,-41)" text-rendering="geometricPrecision" font-family="'Lucida Grande'" shape-rendering="geometricPrecision" font-weight="bold" stroke-miterlimit="1.45">
      <text x="298.832" xml:space="preserve" y="130.625" clip-path="url(#clipPath2)" stroke="none">Credit</text>
      <text x="304.6602" xml:space="preserve" y="149.4688" clip-path="url(#clipPath2)" stroke="none">Card</text>
    </g>
    <g fill="rgb(204,255,204)" text-rendering="geometricPrecision" shape-rendering="geometricPrecision" transform="matrix(1,0,0,1,92,-41)" stroke="rgb(204,255,204)">
      <rect x="592.75" width="80" height="80" y="220" clip-path="url(#clipPath2)" stroke="none"/>
    </g>
    <g stroke-linecap="butt" transform="matrix(1,0,0,1,92,-41)" fill="rgb(0,153,0)" text-rendering="geometricPrecision" shape-rendering="geometricPrecision" stroke="rgb(0,153,0)" stroke-miterlimit="1.45">
      <rect fill="none" x="592.75" width="80" height="80" y="220" clip-path="url(#clipPath2)"/>
    </g>
    <g font-size="16px" stroke-linecap="butt" transform="matrix(1,0,0,1,92,-41)" text-rendering="geometricPrecision" font-family="'Lucida Grande'" shape-rendering="geometricPrecision" font-weight="bold" stroke-miterlimit="1.45">
      <text x="595.9883" xml:space="preserve" y="266.0469" clip-path="url(#clipPath2)" stroke="none">Terminal</text>
    </g>
    <g fill="rgb(204,255,204)" text-rendering="geometricPrecision" shape-rendering="geometricPrecision" transform="matrix(1,0,0,1,92,-41)" stroke="rgb(204,255,204)">
      <rect x="818" width="200" height="200" y="160" clip-path="url(#clipPath2)" stroke="none"/>
    </g>
    <g stroke-linecap="butt" transform="matrix(1,0,0,1,92,-41)" fill="rgb(0,153,0)" text-rendering="geometricPrecision" shape-rendering="geometricPrecision" stroke="rgb(0,153,0)" stroke-miterlimit="1.45">
      <rect fill="none" x="818" width="200" height="200" y="160" clip-path="url(#clipPath2)"/>
    </g>
    <g font-size="16px" stroke-linecap="butt" transform="matrix(1,0,0,1,92,-41)" text-rendering="geometricPrecision" font-family="'Lucida Grande'" shape-rendering="geometricPrecision" font-weight="bold" stroke-miterlimit="1.45">
      <text x="870.8555" xml:space="preserve" y="256.625" clip-path="url(#clipPath2)" stroke="none">Credit Card</text>
      <text x="883.2109" xml:space="preserve" y="275.4688" clip-path="url(#clipPath2)" stroke="none">Network</text>
    </g>
    <g fill="rgb(204,255,204)" text-rendering="geometricPrecision" shape-rendering="geometricPrecision" transform="matrix(1,0,0,1,92,-41)" stroke="rgb(204,255,204)">
      <rect x="1184" width="100" height="100" y="210" clip-path="url(#clipPath2)" stroke="none"/>
    </g>
    <g stroke-linecap="butt" transform="matrix(1,0,0,1,92,-41)" fill="rgb(0,153,0)" text-rendering="geometricPrecision" shape-rendering="geometricPrecision" stroke="rgb(0,153,0)" stroke-miterlimit="1.45">
      <rect fill="none" x="1184" width="100" height="100" y="210" clip-path="url(#clipPath2)"/>
    </g>
    <g font-size="16px" stroke-linecap="butt" transform="matrix(1,0,0,1,92,-41)" text-rendering="geometricPrecision" font-family="'Lucida Grande'" shape-rendering="geometricPrecision" font-weight="bold" stroke-miterlimit="1.45">
      <text x="1186.7461" xml:space="preserve" y="266.0469" clip-path="url(#clipPath2)" stroke="none">Card Issuer</text>
    </g>
    <g fill="rgb(204,255,204)" text-rendering="geometricPrecision" shape-rendering="geometricPrecision" transform="matrix(1,0,0,1,92,-41)" stroke="rgb(204,255,204)">
      <rect x="567.25" width="100" height="100" y="394.5" clip-path="url(#clipPath2)" stroke="none"/>
    </g>
    <g stroke-linecap="butt" transform="matrix(1,0,0,1,92,-41)" fill="rgb(0,153,0)" text-rendering="geometricPrecision" shape-rendering="geometricPrecision" stroke="rgb(0,153,0)" stroke-miterlimit="1.45">
      <rect fill="none" x="567.25" width="100" height="100" y="394.5" clip-path="url(#clipPath2)"/>
    </g>
    <g font-size="16px" stroke-linecap="butt" transform="matrix(1,0,0,1,92,-41)" text-rendering="geometricPrecision" font-family="'Lucida Grande'" shape-rendering="geometricPrecision" font-weight="bold" stroke-miterlimit="1.45">
      <text x="582.0352" xml:space="preserve" y="441.125" clip-path="url(#clipPath2)" stroke="none">Payment</text>
      <text x="582.3828" xml:space="preserve" y="459.9688" clip-path="url(#clipPath2)" stroke="none">Gateway</text>
    </g>
    <g fill="rgb(204,204,255)" text-rendering="geometricPrecision" shape-rendering="geometricPrecision" transform="matrix(1,0,0,1,92,-41)" stroke="rgb(204,204,255)">
      <rect x="250" width="60" height="60" y="448" clip-path="url(#clipPath2)" stroke="none"/>
    </g>
    <g stroke-linecap="butt" transform="matrix(1,0,0,1,92,-41)" fill="rgb(153,153,255)" text-rendering="geometricPrecision" shape-rendering="geometricPrecision" stroke="rgb(153,153,255)" stroke-miterlimit="1.45">
      <rect fill="none" x="250" width="60" height="60" y="448" clip-path="url(#clipPath2)"/>
    </g>
    <g font-size="16px" stroke-linecap="butt" transform="matrix(1,0,0,1,92,-41)" text-rendering="geometricPrecision" font-family="'Lucida Grande'" shape-rendering="geometricPrecision" font-weight="bold" stroke-miterlimit="1.45">
      <text x="252.4375" xml:space="preserve" y="474.625" clip-path="url(#clipPath2)" stroke="none">Mobile</text>
      <text x="254.9336" xml:space="preserve" y="493.4688" clip-path="url(#clipPath2)" stroke="none">Wallet</text>
    </g>
    <g fill="rgb(204,204,255)" text-rendering="geometricPrecision" shape-rendering="geometricPrecision" transform="matrix(1,0,0,1,92,-41)" stroke="rgb(204,204,255)">
      <rect x="322" width="50" height="40" y="458" clip-path="url(#clipPath2)" stroke="none"/>
    </g>
    <g stroke-linecap="butt" transform="matrix(1,0,0,1,92,-41)" fill="rgb(153,153,255)" text-rendering="geometricPrecision" shape-rendering="geometricPrecision" stroke="rgb(153,153,255)" stroke-miterlimit="1.45">
      <rect fill="none" x="322" width="50" height="40" y="458" clip-path="url(#clipPath2)"/>
    </g>
    <g font-size="16px" stroke-linecap="butt" transform="matrix(1,0,0,1,92,-41)" text-rendering="geometricPrecision" font-family="'Lucida Grande'" shape-rendering="geometricPrecision" font-weight="bold" stroke-miterlimit="1.45">
      <text x="337.625" xml:space="preserve" y="484.0469" clip-path="url(#clipPath2)" stroke="none">SE</text>
    </g>
    <g fill="rgb(204,204,255)" text-rendering="geometricPrecision" shape-rendering="geometricPrecision" transform="matrix(1,0,0,1,92,-41)" stroke="rgb(204,204,255)">
      <rect x="247" width="60" height="60" y="766.5" clip-path="url(#clipPath2)" stroke="none"/>
    </g>
    <g stroke-linecap="butt" transform="matrix(1,0,0,1,92,-41)" fill="rgb(153,153,255)" text-rendering="geometricPrecision" shape-rendering="geometricPrecision" stroke="rgb(153,153,255)" stroke-miterlimit="1.45">
      <rect fill="none" x="247" width="60" height="60" y="766.5" clip-path="url(#clipPath2)"/>
    </g>
    <g font-size="16px" stroke-linecap="butt" transform="matrix(1,0,0,1,92,-41)" text-rendering="geometricPrecision" font-family="'Lucida Grande'" shape-rendering="geometricPrecision" font-weight="bold" stroke-miterlimit="1.45">
      <text x="249.3477" xml:space="preserve" y="793.125" clip-path="url(#clipPath2)" stroke="none">Crypto</text>
      <text x="251.9336" xml:space="preserve" y="811.9688" clip-path="url(#clipPath2)" stroke="none">Wallet</text>
    </g>
    <g fill="rgb(204,204,255)" text-rendering="geometricPrecision" shape-rendering="geometricPrecision" transform="matrix(1,0,0,1,92,-41)" stroke="rgb(204,204,255)">
      <rect x="319" width="50" height="40" y="776.5" clip-path="url(#clipPath2)" stroke="none"/>
    </g>
    <g stroke-linecap="butt" transform="matrix(1,0,0,1,92,-41)" fill="rgb(153,153,255)" text-rendering="geometricPrecision" shape-rendering="geometricPrecision" stroke="rgb(153,153,255)" stroke-miterlimit="1.45">
      <rect fill="none" x="319" width="50" height="40" y="776.5" clip-path="url(#clipPath2)"/>
    </g>
    <g font-size="16px" stroke-linecap="butt" transform="matrix(1,0,0,1,92,-41)" text-rendering="geometricPrecision" font-family="'Lucida Grande'" shape-rendering="geometricPrecision" font-weight="bold" stroke-miterlimit="1.45">
      <text x="328.9688" xml:space="preserve" y="793.125" clip-path="url(#clipPath2)" stroke="none">Key</text>
      <text x="322.7539" xml:space="preserve" y="811.9688" clip-path="url(#clipPath2)" stroke="none">Store</text>
    </g>
    <g fill="rgb(204,204,255)" text-rendering="geometricPrecision" shape-rendering="geometricPrecision" transform="matrix(1,0,0,1,92,-41)" stroke="rgb(204,204,255)">
      <rect x="250.436" width="60" height="50" y="690.466" clip-path="url(#clipPath2)" stroke="none"/>
    </g>
    <g stroke-linecap="butt" transform="matrix(1,0,0,1,92,-41)" fill="rgb(153,153,255)" text-rendering="geometricPrecision" shape-rendering="geometricPrecision" stroke="rgb(153,153,255)" stroke-miterlimit="1.45">
      <rect fill="none" x="250.436" width="60" height="50" y="690.466" clip-path="url(#clipPath2)"/>
    </g>
    <g font-size="16px" stroke-linecap="butt" transform="matrix(1,0,0,1,92,-41)" text-rendering="geometricPrecision" font-family="'Lucida Grande'" shape-rendering="geometricPrecision" font-weight="bold" stroke-miterlimit="1.45">
      <text x="257.6001" xml:space="preserve" y="712.091" clip-path="url(#clipPath2)" stroke="none">DApp</text>
      <text x="256.3501" xml:space="preserve" y="730.9348" clip-path="url(#clipPath2)" stroke="none">Client</text>
    </g>
    <g fill="rgb(204,204,255)" text-rendering="geometricPrecision" shape-rendering="geometricPrecision" transform="matrix(1,0,0,1,92,-41)" stroke="rgb(204,204,255)">
      <rect x="250" width="60" height="50" y="376.0339" clip-path="url(#clipPath2)" stroke="none"/>
    </g>
    <g stroke-linecap="butt" transform="matrix(1,0,0,1,92,-41)" fill="rgb(153,153,255)" text-rendering="geometricPrecision" shape-rendering="geometricPrecision" stroke="rgb(153,153,255)" stroke-miterlimit="1.45">
      <rect fill="none" x="250" width="60" height="50" y="376.0339" clip-path="url(#clipPath2)"/>
    </g>
    <g font-size="16px" stroke-linecap="butt" transform="matrix(1,0,0,1,92,-41)" text-rendering="geometricPrecision" font-family="'Lucida Grande'" shape-rendering="geometricPrecision" font-weight="bold" stroke-miterlimit="1.45">
      <text x="236.4062" xml:space="preserve" y="397.6589" clip-path="url(#clipPath2)" stroke="none">Commerce</text>
      <text x="263.5078" xml:space="preserve" y="416.5027" clip-path="url(#clipPath2)" stroke="none">App</text>
    </g>
    <g fill="rgb(204,255,204)" text-rendering="geometricPrecision" shape-rendering="geometricPrecision" transform="matrix(1,0,0,1,92,-41)" stroke="rgb(204,255,204)">
      <rect x="572.75" width="100" height="100" y="616.716" clip-path="url(#clipPath2)" stroke="none"/>
    </g>
    <g stroke-linecap="butt" transform="matrix(1,0,0,1,92,-41)" fill="rgb(0,153,0)" text-rendering="geometricPrecision" shape-rendering="geometricPrecision" stroke="rgb(0,153,0)" stroke-miterlimit="1.45">
      <rect fill="none" x="572.75" width="100" height="100" y="616.716" clip-path="url(#clipPath2)"/>
    </g>
    <g font-size="16px" stroke-linecap="butt" transform="matrix(1,0,0,1,92,-41)" text-rendering="geometricPrecision" font-family="'Lucida Grande'" shape-rendering="geometricPrecision" font-weight="bold" stroke-miterlimit="1.45">
      <text x="599.9141" xml:space="preserve" y="663.341" clip-path="url(#clipPath2)" stroke="none">DApp</text>
      <text x="596.7852" xml:space="preserve" y="682.1848" clip-path="url(#clipPath2)" stroke="none">Server</text>
    </g>
    <g fill="rgb(204,255,204)" text-rendering="geometricPrecision" shape-rendering="geometricPrecision" transform="matrix(1,0,0,1,92,-41)" stroke="rgb(204,255,204)">
      <rect x="818" width="200" height="200" y="640.466" clip-path="url(#clipPath2)" stroke="none"/>
    </g>
    <g stroke-linecap="butt" transform="matrix(1,0,0,1,92,-41)" fill="rgb(0,153,0)" text-rendering="geometricPrecision" shape-rendering="geometricPrecision" stroke="rgb(0,153,0)" stroke-miterlimit="1.45">
      <rect fill="none" x="818" width="200" height="200" y="640.466" clip-path="url(#clipPath2)"/>
    </g>
    <g font-size="16px" stroke-linecap="butt" transform="matrix(1,0,0,1,92,-41)" text-rendering="geometricPrecision" font-family="'Lucida Grande'" shape-rendering="geometricPrecision" font-weight="bold" stroke-miterlimit="1.45">
      <text x="873.8594" xml:space="preserve" y="737.091" clip-path="url(#clipPath2)" stroke="none">Blockchain</text>
      <text x="883.2109" xml:space="preserve" y="755.9348" clip-path="url(#clipPath2)" stroke="none">Network</text>
    </g>
    <g transform="matrix(1,0,0,1,92,-41)" fill-opacity="0.9804" fill="rgb(250,250,250)" text-rendering="geometricPrecision" shape-rendering="geometricPrecision" stroke="rgb(250,250,250)" stroke-opacity="0.9804">
      <path d="M-81.75 560.75 L150 560.75 L150 575.75 L165 575.75 L165 614.75 L-81.75 614.75 Z" stroke="none" clip-path="url(#clipPath2)"/>
    </g>
    <g fill="white" text-rendering="geometricPrecision" shape-rendering="geometricPrecision" transform="matrix(1,0,0,1,92,-41)" stroke="white">
      <path d="M150 560.75 L150 575.75 L165 575.75 Z" fill-rule="evenodd" clip-path="url(#clipPath2)" stroke="none"/>
    </g>
    <g text-rendering="geometricPrecision" stroke-miterlimit="1.45" shape-rendering="geometricPrecision" transform="matrix(1,0,0,1,92,-41)" stroke-linecap="butt">
      <path fill="none" d="M-81.75 560.75 L150 560.75 L150 575.75 L165 575.75 L165 614.75 L-81.75 614.75 Z" clip-path="url(#clipPath2)"/>
      <path fill="none" d="M150 560.75 L150 575.75 L165 575.75 Z" clip-path="url(#clipPath2)" fill-rule="evenodd"/>
      <text x="-75.75" font-size="14px" y="593.041" clip-path="url(#clipPath2)" font-family="'Lucida Grande'" stroke="none" xml:space="preserve">Google Pay, Apple Pay, 삼성 Pay</text>
      <path fill="none" d="M369 152.3644 L592.75 243.6761" clip-path="url(#clipPath2)"/>
      <path fill="none" d="M387 401.3589 L592.75 283.0086" clip-path="url(#clipPath2)"/>
      <text x="457.0492" font-size="15px" y="326.806" clip-path="url(#clipPath2)" font-family="'Lucida Grande'" stroke="none" xml:space="preserve">offline</text>
      <path fill="none" d="M672.75 260 L818 260" clip-path="url(#clipPath2)"/>
      <text x="684.875" xml:space="preserve" y="253.4688" clip-path="url(#clipPath2)" font-family="sans-serif" stroke="none">n</text>
      <text x="798.2871" xml:space="preserve" y="275.6016" clip-path="url(#clipPath2)" font-family="sans-serif" stroke="none">1</text>
      <path fill="none" stroke-dasharray="6,2" d="M967.7214 155.4552 L979.027 131.353 L986.5312 118.8242 L994.1591 108.6562 L1002.1533 100.5655 L1010.7569 94.2681 L1020.2126 89.4802 L1030.7633 85.918 L1056.1208 81.3354 L1088.7404 78.253" clip-path="url(#clipPath2)"/>
      <path stroke-dasharray="6,2" d="M966.0228 159.0766 L976.5509 150.7605 L966.0228 159.0766 L965.6867 145.6644 Z" clip-path="url(#clipPath2)" stroke="none"/>
      <path fill="none" stroke-miterlimit="10" d="M966.0228 159.0766 L976.5509 150.7605 L966.0228 159.0766 L965.6867 145.6644 Z" clip-path="url(#clipPath2)" stroke-linecap="square"/>
      <path fill="none" d="M1018 260 L1184 260" clip-path="url(#clipPath2)"/>
      <text x="1030.125" xml:space="preserve" y="275.6016" clip-path="url(#clipPath2)" font-family="sans-serif" stroke="none">1</text>
      <text x="1164.4277" xml:space="preserve" y="253.4688" clip-path="url(#clipPath2)" font-family="sans-serif" stroke="none">n</text>
      <path fill="none" d="M387 444.5 L567.25 444.5" clip-path="url(#clipPath2)"/>
      <text x="454.6946" font-size="15px" y="463.002" clip-path="url(#clipPath2)" font-family="'Lucida Grande'" stroke="none" xml:space="preserve">online</text>
      <path fill="none" d="M667.25 413.8267 L818 321.3466" clip-path="url(#clipPath2)"/>
      <path fill="none" d="M667.2599 457.5715 L680.4143 460.3592 L723.6713 466.8788 L766.021 470.5588 L807.4634 471.3994 L847.9984 469.4003 L887.6261 464.5617 L926.3464 456.8835 L964.1595 446.3658 L1001.0652 433.0085 L1037.0636 416.8117 L1072.1547 397.7753 L1106.3384 375.8994 L1139.6147 351.1838 L1171.9839 323.6288 L1186.0863 310.0046" clip-path="url(#clipPath2)"/>
      <path fill="none" d="M310 478 L322 478" clip-path="url(#clipPath2)"/>
      <path fill="none" d="M307 796.5 L319 796.5" clip-path="url(#clipPath2)"/>
      <path fill="none" d="M280.436 740.466 L280.436 766.4641" clip-path="url(#clipPath2)"/>
      <path fill="none" d="M280 426.0339 L280 448" clip-path="url(#clipPath2)"/>
      <path fill="none" d="M310.4507 693.4684 L313.3325 691.4786 L330.1706 681.1238 L347.2686 671.8617 L364.6265 663.6922 L382.2443 656.6154 L400.1219 650.6312 L418.2596 645.7396 L436.657 641.9407 L455.3145 639.2345 L474.2318 637.6209 L493.409 637.0999 L512.8461 637.6716 L532.5431 639.3359 L552.5 642.0929 L572.7168 645.9425" clip-path="url(#clipPath2)"/>
      <path fill="none" d="M286.716 826.5141 L310.5299 838.2195 L353.8996 856.2346 L396.859 870.745 L439.4082 881.7509 L481.5471 889.2522 L523.2758 893.249 L564.5943 893.7411 L605.5026 890.7288 L646.0005 884.2119 L686.0883 874.1904 L725.7659 860.6644 L765.0332 843.6339 L803.8903 823.0988 L817.9699 814.2952" clip-path="url(#clipPath2)"/>
      <path fill="none" d="M672.75 679.2054 L818 715.4872" clip-path="url(#clipPath2)"/>
      <path fill="none" stroke-dasharray="6,2" d="M47.4145 560.7738 L47.8328 558.8247 L51.1944 547.0363 L55.1934 536.8164 L60.1789 528.0042 L66.5002 520.439 L74.5065 513.9599 L84.5469 508.4062 L96.9706 503.6172 L112.1267 499.4321 L152.0332 492.2305 L207.0598 485.5151 L245.0263 481.6034" clip-path="url(#clipPath2)"/>
      <path stroke-dasharray="6,2" d="M249.0053 481.1934 L236.4535 476.4549 L249.0053 481.1934 L237.6834 488.3917 Z" clip-path="url(#clipPath2)" stroke="none"/>
      <path fill="none" stroke-miterlimit="10" d="M249.0053 481.1934 L236.4535 476.4549 L249.0053 481.1934 L237.6834 488.3917 Z" clip-path="url(#clipPath2)" stroke-linecap="square"/>
    </g>
  </g>
</svg>
