<?xml version="1.0" encoding="UTF-8" standalone="no"?><svg xmlns="http://www.w3.org/2000/svg" xmlns:xlink="http://www.w3.org/1999/xlink" contentScriptType="application/ecmascript" contentStyleType="text/css" height="955px" preserveAspectRatio="none" style="width:1472px;height:955px;" version="1.1" viewBox="0 0 1472 955" width="1472px" zoomAndPan="magnify"><defs><filter height="300%" id="f16xjtxkbjyh2g" width="300%" x="-1" y="-1"><feGaussianBlur result="blurOut" stdDeviation="2.0"/><feColorMatrix in="blurOut" result="blurOut2" type="matrix" values="0 0 0 0 0 0 0 0 0 0 0 0 0 0 0 0 0 0 .4 0"/><feOffset dx="4.0" dy="4.0" in="blurOut2" result="blurOut3"/><feBlend in="SourceGraphic" in2="blurOut3" mode="normal"/></filter></defs><g><!--MD5=[47de47a8b5f06cbc5e036fae0a9149b7]
class Iterable--><rect fill="#FEFECE" filter="url(#f16xjtxkbjyh2g)" height="58.7852" id="Iterable" style="stroke: #A80036; stroke-width: 1.5;" width="105" x="472.5" y="8"/><text fill="#000000" font-family="Consolas" font-size="14" font-style="italic" font-weight="bold" lengthAdjust="spacingAndGlyphs" textLength="64" x="493" y="25.79">Iterable</text><line style="stroke: #A80036; stroke-width: 1.5;" x1="473.5" x2="576.5" y1="34.3926" y2="34.3926"/><line style="stroke: #A80036; stroke-width: 1.5;" x1="473.5" x2="576.5" y1="42.3926" y2="42.3926"/><polygon fill="#FFFF44" points="483.5,48.3926,487.5,52.3926,483.5,56.3926,479.5,52.3926" style="stroke: #B38D22; stroke-width: 1.0;"/><text fill="#000000" font-family="Consolas" font-size="14" font-style="italic" lengthAdjust="spacingAndGlyphs" textLength="80" x="491.5" y="59.1826">__iter__()</text><!--MD5=[023ecf6702e3ca2ce47ae747eafb20f1]
class Iterator--><rect fill="#FEFECE" filter="url(#f16xjtxkbjyh2g)" height="75.1777" id="Iterator" style="stroke: #A80036; stroke-width: 1.5;" width="105" x="316.5" y="127"/><text fill="#000000" font-family="Consolas" font-size="14" font-style="italic" font-weight="bold" lengthAdjust="spacingAndGlyphs" textLength="64" x="337" y="144.79">Iterator</text><line style="stroke: #A80036; stroke-width: 1.5;" x1="317.5" x2="420.5" y1="153.3926" y2="153.3926"/><line style="stroke: #A80036; stroke-width: 1.5;" x1="317.5" x2="420.5" y1="161.3926" y2="161.3926"/><polygon fill="#FFFF44" points="327.5,167.3926,331.5,171.3926,327.5,175.3926,323.5,171.3926" style="stroke: #B38D22; stroke-width: 1.0;"/><text fill="#000000" font-family="Consolas" font-size="14" lengthAdjust="spacingAndGlyphs" textLength="80" x="335.5" y="178.1826">__iter__()</text><polygon fill="#FFFF44" points="327.5,183.7852,331.5,187.7852,327.5,191.7852,323.5,187.7852" style="stroke: #B38D22; stroke-width: 1.0;"/><text fill="#000000" font-family="Consolas" font-size="14" font-style="italic" lengthAdjust="spacingAndGlyphs" textLength="80" x="335.5" y="194.5752">__next__()</text><!--MD5=[29c548e87ba6a32cbee56c1b72b7b5d0]
class Reversible--><rect fill="#FEFECE" filter="url(#f16xjtxkbjyh2g)" height="58.7852" id="Reversible" style="stroke: #A80036; stroke-width: 1.5;" width="137" x="456.5" y="135"/><text fill="#000000" font-family="Consolas" font-size="14" font-style="italic" font-weight="bold" lengthAdjust="spacingAndGlyphs" textLength="80" x="485" y="152.79">Reversible</text><line style="stroke: #A80036; stroke-width: 1.5;" x1="457.5" x2="592.5" y1="161.3926" y2="161.3926"/><line style="stroke: #A80036; stroke-width: 1.5;" x1="457.5" x2="592.5" y1="169.3926" y2="169.3926"/><polygon fill="#FFFF44" points="467.5,175.3926,471.5,179.3926,467.5,183.3926,463.5,179.3926" style="stroke: #B38D22; stroke-width: 1.0;"/><text fill="#000000" font-family="Consolas" font-size="14" font-style="italic" lengthAdjust="spacingAndGlyphs" textLength="112" x="475.5" y="186.1826">__reversed__()</text><!--MD5=[680db2e54b1aeab47909911dbd9c18b9]
class Sized--><rect fill="#FEFECE" filter="url(#f16xjtxkbjyh2g)" height="58.7852" id="Sized" style="stroke: #A80036; stroke-width: 1.5;" width="100" x="663" y="8"/><text fill="#000000" font-family="Consolas" font-size="14" font-style="italic" font-weight="bold" lengthAdjust="spacingAndGlyphs" textLength="40" x="693" y="25.79">Sized</text><line style="stroke: #A80036; stroke-width: 1.5;" x1="664" x2="762" y1="34.3926" y2="34.3926"/><line style="stroke: #A80036; stroke-width: 1.5;" x1="664" x2="762" y1="42.3926" y2="42.3926"/><polygon fill="#FFFF44" points="674,48.3926,678,52.3926,674,56.3926,670,52.3926" style="stroke: #B38D22; stroke-width: 1.0;"/><text fill="#000000" font-family="Consolas" font-size="14" font-style="italic" lengthAdjust="spacingAndGlyphs" textLength="72" x="682" y="59.1826">__len__()</text><!--MD5=[e9a58730c562b34349daa605d1ed6662]
class Container--><rect fill="#FEFECE" filter="url(#f16xjtxkbjyh2g)" height="58.7852" id="Container" style="stroke: #A80036; stroke-width: 1.5;" width="145" x="798.5" y="8"/><text fill="#000000" font-family="Consolas" font-size="14" font-style="italic" font-weight="bold" lengthAdjust="spacingAndGlyphs" textLength="72" x="835" y="25.79">Container</text><line style="stroke: #A80036; stroke-width: 1.5;" x1="799.5" x2="942.5" y1="34.3926" y2="34.3926"/><line style="stroke: #A80036; stroke-width: 1.5;" x1="799.5" x2="942.5" y1="42.3926" y2="42.3926"/><polygon fill="#FFFF44" points="809.5,48.3926,813.5,52.3926,809.5,56.3926,805.5,52.3926" style="stroke: #B38D22; stroke-width: 1.0;"/><text fill="#000000" font-family="Consolas" font-size="14" font-style="italic" lengthAdjust="spacingAndGlyphs" textLength="120" x="817.5" y="59.1826">__contains__(x)</text><!--MD5=[c160724f8e3bb89ca8141a12554ac2e3]
class Collection--><rect fill="#FEFECE" filter="url(#f16xjtxkbjyh2g)" height="42.3926" id="Collection" style="stroke: #A80036; stroke-width: 1.5;" width="100" x="742" y="143.5"/><text fill="#000000" font-family="Consolas" font-size="14" font-style="italic" font-weight="bold" lengthAdjust="spacingAndGlyphs" textLength="80" x="752" y="161.29">Collection</text><line style="stroke: #A80036; stroke-width: 1.5;" x1="743" x2="841" y1="169.8926" y2="169.8926"/><line style="stroke: #A80036; stroke-width: 1.5;" x1="743" x2="841" y1="177.8926" y2="177.8926"/><!--MD5=[73145e46247802284b2f7aaef1fa1797]
class Set--><rect fill="#FEFECE" filter="url(#f16xjtxkbjyh2g)" height="255.4961" id="Set" style="stroke: #A80036; stroke-width: 1.5;" width="161" x="776.5" y="262"/><text fill="#000000" font-family="Consolas" font-size="14" font-style="italic" lengthAdjust="spacingAndGlyphs" textLength="88" x="813" y="279.79">«immutable»</text><text fill="#000000" font-family="Consolas" font-size="14" font-style="italic" font-weight="bold" lengthAdjust="spacingAndGlyphs" textLength="24" x="845" y="296.1826">Set</text><line style="stroke: #A80036; stroke-width: 1.5;" x1="777.5" x2="936.5" y1="304.7852" y2="304.7852"/><line style="stroke: #A80036; stroke-width: 1.5;" x1="777.5" x2="936.5" y1="312.7852" y2="312.7852"/><polygon fill="#FFFF44" points="787.5,318.7852,791.5,322.7852,787.5,326.7852,783.5,322.7852" style="stroke: #B38D22; stroke-width: 1.0;"/><text fill="#000000" font-family="Consolas" font-size="14" lengthAdjust="spacingAndGlyphs" textLength="104" x="795.5" y="329.5752">__le__(other)</text><polygon fill="#FFFF44" points="787.5,335.1777,791.5,339.1777,787.5,343.1777,783.5,339.1777" style="stroke: #B38D22; stroke-width: 1.0;"/><text fill="#000000" font-family="Consolas" font-size="14" lengthAdjust="spacingAndGlyphs" textLength="104" x="795.5" y="345.9678">__lt__(other)</text><polygon fill="#FFFF44" points="787.5,351.5703,791.5,355.5703,787.5,359.5703,783.5,355.5703" style="stroke: #B38D22; stroke-width: 1.0;"/><text fill="#000000" font-family="Consolas" font-size="14" lengthAdjust="spacingAndGlyphs" textLength="104" x="795.5" y="362.3604">__gt__(other)</text><polygon fill="#FFFF44" points="787.5,367.9629,791.5,371.9629,787.5,375.9629,783.5,371.9629" style="stroke: #B38D22; stroke-width: 1.0;"/><text fill="#000000" font-family="Consolas" font-size="14" lengthAdjust="spacingAndGlyphs" textLength="104" x="795.5" y="378.7529">__ge__(other)</text><polygon fill="#FFFF44" points="787.5,384.3555,791.5,388.3555,787.5,392.3555,783.5,388.3555" style="stroke: #B38D22; stroke-width: 1.0;"/><text fill="#000000" font-family="Consolas" font-size="14" lengthAdjust="spacingAndGlyphs" textLength="104" x="795.5" y="395.1455">__eq__(other)</text><polygon fill="#FFFF44" points="787.5,400.748,791.5,404.748,787.5,408.748,783.5,404.748" style="stroke: #B38D22; stroke-width: 1.0;"/><text fill="#000000" font-family="Consolas" font-size="14" lengthAdjust="spacingAndGlyphs" textLength="112" x="795.5" y="411.5381">__and__(other)</text><ellipse cx="787.5" cy="422.1406" fill="#84BE84" rx="3" ry="3" style="stroke: #038048; stroke-width: 1.0;"/><text fill="#000000" font-family="Consolas" font-size="14" lengthAdjust="spacingAndGlyphs" textLength="136" x="795.5" y="427.9307">isdisjoint(other)</text><polygon fill="#FFFF44" points="787.5,433.5332,791.5,437.5332,787.5,441.5332,783.5,437.5332" style="stroke: #B38D22; stroke-width: 1.0;"/><text fill="#000000" font-family="Consolas" font-size="14" lengthAdjust="spacingAndGlyphs" textLength="104" x="795.5" y="444.3232">__or__(other)</text><polygon fill="#FFFF44" points="787.5,449.9258,791.5,453.9258,787.5,457.9258,783.5,453.9258" style="stroke: #B38D22; stroke-width: 1.0;"/><text fill="#000000" font-family="Consolas" font-size="14" lengthAdjust="spacingAndGlyphs" textLength="112" x="795.5" y="460.7158">__sub__(other)</text><polygon fill="#FFFF44" points="787.5,466.3184,791.5,470.3184,787.5,474.3184,783.5,470.3184" style="stroke: #B38D22; stroke-width: 1.0;"/><text fill="#000000" font-family="Consolas" font-size="14" lengthAdjust="spacingAndGlyphs" textLength="120" x="795.5" y="477.1084">__rsub__(other)</text><polygon fill="#FFFF44" points="787.5,482.7109,791.5,486.7109,787.5,490.7109,783.5,486.7109" style="stroke: #B38D22; stroke-width: 1.0;"/><text fill="#000000" font-family="Consolas" font-size="14" lengthAdjust="spacingAndGlyphs" textLength="112" x="795.5" y="493.501">__xor__(other)</text><rect fill="#F24D5C" height="6" style="stroke: #C82930; stroke-width: 1.0;" width="6" x="784.5" y="501.1035"/><text fill="#000000" font-family="Consolas" font-size="14" lengthAdjust="spacingAndGlyphs" textLength="56" x="795.5" y="509.8936">_hash()</text><!--MD5=[ffc481d92a4dc3fd009263955f970ff0]
class frozenset--><rect fill="#FEFECE" filter="url(#f16xjtxkbjyh2g)" height="58.7852" id="frozenset" style="stroke: #A80036; stroke-width: 1.5;" width="100" x="807" y="659"/><text fill="#000000" font-family="Consolas" font-size="14" font-style="italic" lengthAdjust="spacingAndGlyphs" textLength="88" x="813" y="676.79">«immutable»</text><text fill="#000000" font-family="Consolas" font-size="14" font-weight="bold" lengthAdjust="spacingAndGlyphs" textLength="72" x="821" y="693.1826">frozenset</text><line style="stroke: #A80036; stroke-width: 1.5;" x1="808" x2="906" y1="701.7852" y2="701.7852"/><line style="stroke: #A80036; stroke-width: 1.5;" x1="808" x2="906" y1="709.7852" y2="709.7852"/><!--MD5=[81ad35fb24d35f4f0ed78c0b38e584a5]
class MutableSet--><rect fill="#FEFECE" filter="url(#f16xjtxkbjyh2g)" height="206.3184" id="MutableSet" style="stroke: #A80036; stroke-width: 1.5;" width="137" x="942.5" y="585.5"/><text fill="#000000" font-family="Consolas" font-size="14" font-style="italic" lengthAdjust="spacingAndGlyphs" textLength="72" x="975" y="603.29">«mutable»</text><text fill="#000000" font-family="Consolas" font-size="14" font-style="italic" font-weight="bold" lengthAdjust="spacingAndGlyphs" textLength="80" x="971" y="619.6826">MutableSet</text><line style="stroke: #A80036; stroke-width: 1.5;" x1="943.5" x2="1078.5" y1="628.2852" y2="628.2852"/><line style="stroke: #A80036; stroke-width: 1.5;" x1="943.5" x2="1078.5" y1="636.2852" y2="636.2852"/><ellipse cx="953.5" cy="647.2852" fill="#84BE84" rx="3" ry="3" style="stroke: #038048; stroke-width: 1.0;"/><text fill="#000000" font-family="Consolas" font-size="14" font-style="italic" lengthAdjust="spacingAndGlyphs" textLength="80" x="961.5" y="653.0752">add(value)</text><ellipse cx="953.5" cy="663.6777" fill="#84BE84" rx="3" ry="3" style="stroke: #038048; stroke-width: 1.0;"/><text fill="#000000" font-family="Consolas" font-size="14" font-style="italic" lengthAdjust="spacingAndGlyphs" textLength="112" x="961.5" y="669.4678">discard(value)</text><ellipse cx="953.5" cy="680.0703" fill="#84BE84" rx="3" ry="3" style="stroke: #038048; stroke-width: 1.0;"/><text fill="#000000" font-family="Consolas" font-size="14" lengthAdjust="spacingAndGlyphs" textLength="104" x="961.5" y="685.8604">remove(value)</text><ellipse cx="953.5" cy="696.4629" fill="#84BE84" rx="3" ry="3" style="stroke: #038048; stroke-width: 1.0;"/><text fill="#000000" font-family="Consolas" font-size="14" lengthAdjust="spacingAndGlyphs" textLength="40" x="961.5" y="702.2529">pop()</text><ellipse cx="953.5" cy="712.8555" fill="#84BE84" rx="3" ry="3" style="stroke: #038048; stroke-width: 1.0;"/><text fill="#000000" font-family="Consolas" font-size="14" lengthAdjust="spacingAndGlyphs" textLength="56" x="961.5" y="718.6455">clear()</text><polygon fill="#FFFF44" points="953.5,724.248,957.5,728.248,953.5,732.248,949.5,728.248" style="stroke: #B38D22; stroke-width: 1.0;"/><text fill="#000000" font-family="Consolas" font-size="14" lengthAdjust="spacingAndGlyphs" textLength="88" x="961.5" y="735.0381">__ior__(it)</text><polygon fill="#FFFF44" points="953.5,740.6406,957.5,744.6406,953.5,748.6406,949.5,744.6406" style="stroke: #B38D22; stroke-width: 1.0;"/><text fill="#000000" font-family="Consolas" font-size="14" lengthAdjust="spacingAndGlyphs" textLength="96" x="961.5" y="751.4307">__iand__(it)</text><polygon fill="#FFFF44" points="953.5,757.0332,957.5,761.0332,953.5,765.0332,949.5,761.0332" style="stroke: #B38D22; stroke-width: 1.0;"/><text fill="#000000" font-family="Consolas" font-size="14" lengthAdjust="spacingAndGlyphs" textLength="96" x="961.5" y="767.8232">__ixor__(it)</text><polygon fill="#FFFF44" points="953.5,773.4258,957.5,777.4258,953.5,781.4258,949.5,777.4258" style="stroke: #B38D22; stroke-width: 1.0;"/><text fill="#000000" font-family="Consolas" font-size="14" lengthAdjust="spacingAndGlyphs" textLength="96" x="961.5" y="784.2158">__isub__(it)</text><!--MD5=[36b0e245bf430e2a9a71d9dcae4d8422]
class set--><rect fill="#FEFECE" filter="url(#f16xjtxkbjyh2g)" height="58.7852" id="set" style="stroke: #A80036; stroke-width: 1.5;" width="100" x="961" y="860"/><text fill="#000000" font-family="Consolas" font-size="14" font-style="italic" lengthAdjust="spacingAndGlyphs" textLength="72" x="975" y="877.79">«mutable»</text><text fill="#000000" font-family="Consolas" font-size="14" font-weight="bold" lengthAdjust="spacingAndGlyphs" textLength="24" x="999" y="894.1826">set</text><line style="stroke: #A80036; stroke-width: 1.5;" x1="962" x2="1060" y1="902.7852" y2="902.7852"/><line style="stroke: #A80036; stroke-width: 1.5;" x1="962" x2="1060" y1="910.7852" y2="910.7852"/><!--MD5=[b4ca6c66a43296c0049d1e13d6d6becb]
class Mapping--><rect fill="#FEFECE" filter="url(#f16xjtxkbjyh2g)" height="173.5332" id="Mapping" style="stroke: #A80036; stroke-width: 1.5;" width="161" x="1085.5" y="302.5"/><text fill="#000000" font-family="Consolas" font-size="14" font-style="italic" lengthAdjust="spacingAndGlyphs" textLength="88" x="1122" y="320.29">«immutable»</text><text fill="#000000" font-family="Consolas" font-size="14" font-style="italic" font-weight="bold" lengthAdjust="spacingAndGlyphs" textLength="56" x="1138" y="336.6826">Mapping</text><line style="stroke: #A80036; stroke-width: 1.5;" x1="1086.5" x2="1245.5" y1="345.2852" y2="345.2852"/><line style="stroke: #A80036; stroke-width: 1.5;" x1="1086.5" x2="1245.5" y1="353.2852" y2="353.2852"/><polygon fill="#FFFF44" points="1096.5,359.2852,1100.5,363.2852,1096.5,367.2852,1092.5,363.2852" style="stroke: #B38D22; stroke-width: 1.0;"/><text fill="#000000" font-family="Consolas" font-size="14" font-style="italic" lengthAdjust="spacingAndGlyphs" textLength="128" x="1104.5" y="370.0752">__getitem__(key)</text><ellipse cx="1096.5" cy="380.6777" fill="#84BE84" rx="3" ry="3" style="stroke: #038048; stroke-width: 1.0;"/><text fill="#000000" font-family="Consolas" font-size="14" lengthAdjust="spacingAndGlyphs" textLength="136" x="1104.5" y="386.4678">get(key, default)</text><polygon fill="#FFFF44" points="1096.5,392.0703,1100.5,396.0703,1096.5,400.0703,1092.5,396.0703" style="stroke: #B38D22; stroke-width: 1.0;"/><text fill="#000000" font-family="Consolas" font-size="14" lengthAdjust="spacingAndGlyphs" textLength="136" x="1104.5" y="402.8604">__contains__(key)</text><ellipse cx="1096.5" cy="413.4629" fill="#84BE84" rx="3" ry="3" style="stroke: #038048; stroke-width: 1.0;"/><text fill="#000000" font-family="Consolas" font-size="14" lengthAdjust="spacingAndGlyphs" textLength="48" x="1104.5" y="419.2529">keys()</text><ellipse cx="1096.5" cy="429.8555" fill="#84BE84" rx="3" ry="3" style="stroke: #038048; stroke-width: 1.0;"/><text fill="#000000" font-family="Consolas" font-size="14" lengthAdjust="spacingAndGlyphs" textLength="56" x="1104.5" y="435.6455">items()</text><ellipse cx="1096.5" cy="446.248" fill="#84BE84" rx="3" ry="3" style="stroke: #038048; stroke-width: 1.0;"/><text fill="#000000" font-family="Consolas" font-size="14" lengthAdjust="spacingAndGlyphs" textLength="64" x="1104.5" y="452.0381">values()</text><polygon fill="#FFFF44" points="1096.5,457.6406,1100.5,461.6406,1096.5,465.6406,1092.5,461.6406" style="stroke: #B38D22; stroke-width: 1.0;"/><text fill="#000000" font-family="Consolas" font-size="14" lengthAdjust="spacingAndGlyphs" textLength="104" x="1104.5" y="468.4307">__eq__(other)</text><!--MD5=[123b4ae44c881666cda45f1fafe1bcb6]
class mappingproxy--><rect fill="#FEFECE" filter="url(#f16xjtxkbjyh2g)" height="58.7852" id="mappingproxy" style="stroke: #A80036; stroke-width: 1.5;" width="102" x="1115" y="659"/><text fill="#000000" font-family="Consolas" font-size="14" font-style="italic" lengthAdjust="spacingAndGlyphs" textLength="88" x="1122" y="676.79">«immutable»</text><text fill="#000000" font-family="Consolas" font-size="14" font-weight="bold" lengthAdjust="spacingAndGlyphs" textLength="96" x="1118" y="693.1826">mappingproxy</text><line style="stroke: #A80036; stroke-width: 1.5;" x1="1116" x2="1216" y1="701.7852" y2="701.7852"/><line style="stroke: #A80036; stroke-width: 1.5;" x1="1116" x2="1216" y1="709.7852" y2="709.7852"/><!--MD5=[08c30e5e39247248f70b5a38b86de540]
class MutableMapping--><rect fill="#FEFECE" filter="url(#f16xjtxkbjyh2g)" height="157.1406" id="MutableMapping" style="stroke: #A80036; stroke-width: 1.5;" width="209" x="1252.5" y="610"/><text fill="#000000" font-family="Consolas" font-size="14" font-style="italic" lengthAdjust="spacingAndGlyphs" textLength="72" x="1321" y="627.79">«mutable»</text><text fill="#000000" font-family="Consolas" font-size="14" font-style="italic" font-weight="bold" lengthAdjust="spacingAndGlyphs" textLength="112" x="1301" y="644.1826">MutableMapping</text><line style="stroke: #A80036; stroke-width: 1.5;" x1="1253.5" x2="1460.5" y1="652.7852" y2="652.7852"/><line style="stroke: #A80036; stroke-width: 1.5;" x1="1253.5" x2="1460.5" y1="660.7852" y2="660.7852"/><polygon fill="#FFFF44" points="1263.5,666.7852,1267.5,670.7852,1263.5,674.7852,1259.5,670.7852" style="stroke: #B38D22; stroke-width: 1.0;"/><text fill="#000000" font-family="Consolas" font-size="14" font-style="italic" lengthAdjust="spacingAndGlyphs" textLength="184" x="1271.5" y="677.5752">__setitem__(key, value)</text><polygon fill="#FFFF44" points="1263.5,683.1777,1267.5,687.1777,1263.5,691.1777,1259.5,687.1777" style="stroke: #B38D22; stroke-width: 1.0;"/><text fill="#000000" font-family="Consolas" font-size="14" font-style="italic" lengthAdjust="spacingAndGlyphs" textLength="128" x="1271.5" y="693.9678">__delitem__(key)</text><ellipse cx="1263.5" cy="704.5703" fill="#84BE84" rx="3" ry="3" style="stroke: #038048; stroke-width: 1.0;"/><text fill="#000000" font-family="Consolas" font-size="14" lengthAdjust="spacingAndGlyphs" textLength="120" x="1271.5" y="710.3604">pop(key, value)</text><ellipse cx="1263.5" cy="720.9629" fill="#84BE84" rx="3" ry="3" style="stroke: #038048; stroke-width: 1.0;"/><text fill="#000000" font-family="Consolas" font-size="14" lengthAdjust="spacingAndGlyphs" textLength="72" x="1271.5" y="726.7529">popitem()</text><ellipse cx="1263.5" cy="737.3555" fill="#84BE84" rx="3" ry="3" style="stroke: #038048; stroke-width: 1.0;"/><text fill="#000000" font-family="Consolas" font-size="14" lengthAdjust="spacingAndGlyphs" textLength="56" x="1271.5" y="743.1455">clear()</text><ellipse cx="1263.5" cy="753.748" fill="#84BE84" rx="3" ry="3" style="stroke: #038048; stroke-width: 1.0;"/><text fill="#000000" font-family="Consolas" font-size="14" lengthAdjust="spacingAndGlyphs" textLength="104" x="1271.5" y="759.5381">update(other)</text><!--MD5=[ec9e782bad779c53622ae0851576a95f]
class dict--><rect fill="#FEFECE" filter="url(#f16xjtxkbjyh2g)" height="58.7852" id="dict" style="stroke: #A80036; stroke-width: 1.5;" width="100" x="1307" y="860"/><text fill="#000000" font-family="Consolas" font-size="14" font-style="italic" lengthAdjust="spacingAndGlyphs" textLength="72" x="1321" y="877.79">«mutable»</text><text fill="#000000" font-family="Consolas" font-size="14" font-weight="bold" lengthAdjust="spacingAndGlyphs" textLength="32" x="1341" y="894.1826">dict</text><line style="stroke: #A80036; stroke-width: 1.5;" x1="1308" x2="1406" y1="902.7852" y2="902.7852"/><line style="stroke: #A80036; stroke-width: 1.5;" x1="1308" x2="1406" y1="910.7852" y2="910.7852"/><!--MD5=[896702bfce61b73dfbf765415205a76e]
class Sequence--><rect fill="#FEFECE" filter="url(#f16xjtxkbjyh2g)" height="157.1406" id="Sequence" style="stroke: #A80036; stroke-width: 1.5;" width="225" x="348.5" y="311"/><text fill="#000000" font-family="Consolas" font-size="14" font-style="italic" lengthAdjust="spacingAndGlyphs" textLength="88" x="417" y="328.79">«immutable»</text><text fill="#000000" font-family="Consolas" font-size="14" font-style="italic" font-weight="bold" lengthAdjust="spacingAndGlyphs" textLength="64" x="429" y="345.1826">Sequence</text><line style="stroke: #A80036; stroke-width: 1.5;" x1="349.5" x2="572.5" y1="353.7852" y2="353.7852"/><line style="stroke: #A80036; stroke-width: 1.5;" x1="349.5" x2="572.5" y1="361.7852" y2="361.7852"/><polygon fill="#FFFF44" points="359.5,367.7852,363.5,371.7852,359.5,375.7852,355.5,371.7852" style="stroke: #B38D22; stroke-width: 1.0;"/><text fill="#000000" font-family="Consolas" font-size="14" font-style="italic" lengthAdjust="spacingAndGlyphs" textLength="144" x="367.5" y="378.5752">__getitem__(index)</text><polygon fill="#FFFF44" points="359.5,384.1777,363.5,388.1777,359.5,392.1777,355.5,388.1777" style="stroke: #B38D22; stroke-width: 1.0;"/><text fill="#000000" font-family="Consolas" font-size="14" lengthAdjust="spacingAndGlyphs" textLength="80" x="367.5" y="394.9678">__iter__()</text><polygon fill="#FFFF44" points="359.5,400.5703,363.5,404.5703,359.5,408.5703,355.5,404.5703" style="stroke: #B38D22; stroke-width: 1.0;"/><text fill="#000000" font-family="Consolas" font-size="14" lengthAdjust="spacingAndGlyphs" textLength="152" x="367.5" y="411.3604">__contains__(value)</text><polygon fill="#FFFF44" points="359.5,416.9629,363.5,420.9629,359.5,424.9629,355.5,420.9629" style="stroke: #B38D22; stroke-width: 1.0;"/><text fill="#000000" font-family="Consolas" font-size="14" lengthAdjust="spacingAndGlyphs" textLength="112" x="367.5" y="427.7529">__reversed__()</text><ellipse cx="359.5" cy="438.3555" fill="#84BE84" rx="3" ry="3" style="stroke: #038048; stroke-width: 1.0;"/><text fill="#000000" font-family="Consolas" font-size="14" lengthAdjust="spacingAndGlyphs" textLength="200" x="367.5" y="444.1455">index(value, start, stop)</text><ellipse cx="359.5" cy="454.748" fill="#84BE84" rx="3" ry="3" style="stroke: #038048; stroke-width: 1.0;"/><text fill="#000000" font-family="Consolas" font-size="14" lengthAdjust="spacingAndGlyphs" textLength="96" x="367.5" y="460.5381">count(value)</text><!--MD5=[6288df19a550225633d04d0bdbcd6efc]
class tuple--><rect fill="#FEFECE" filter="url(#f16xjtxkbjyh2g)" height="58.7852" id="tuple" style="stroke: #A80036; stroke-width: 1.5;" width="100" x="6" y="659"/><text fill="#000000" font-family="Consolas" font-size="14" font-style="italic" lengthAdjust="spacingAndGlyphs" textLength="88" x="12" y="676.79">«immutable»</text><text fill="#000000" font-family="Consolas" font-size="14" font-weight="bold" lengthAdjust="spacingAndGlyphs" textLength="40" x="36" y="693.1826">tuple</text><line style="stroke: #A80036; stroke-width: 1.5;" x1="7" x2="105" y1="701.7852" y2="701.7852"/><line style="stroke: #A80036; stroke-width: 1.5;" x1="7" x2="105" y1="709.7852" y2="709.7852"/><!--MD5=[4bdd248a331274a6a2052ffd29376b53]
class str--><rect fill="#FEFECE" filter="url(#f16xjtxkbjyh2g)" height="58.7852" id="str" style="stroke: #A80036; stroke-width: 1.5;" width="100" x="141" y="659"/><text fill="#000000" font-family="Consolas" font-size="14" font-style="italic" lengthAdjust="spacingAndGlyphs" textLength="88" x="147" y="676.79">«immutable»</text><text fill="#000000" font-family="Consolas" font-size="14" font-weight="bold" lengthAdjust="spacingAndGlyphs" textLength="24" x="179" y="693.1826">str</text><line style="stroke: #A80036; stroke-width: 1.5;" x1="142" x2="240" y1="701.7852" y2="701.7852"/><line style="stroke: #A80036; stroke-width: 1.5;" x1="142" x2="240" y1="709.7852" y2="709.7852"/><!--MD5=[47d6e757c251ac115fd46a4e07bb2ea0]
class range--><rect fill="#FEFECE" filter="url(#f16xjtxkbjyh2g)" height="58.7852" id="range" style="stroke: #A80036; stroke-width: 1.5;" width="100" x="276" y="659"/><text fill="#000000" font-family="Consolas" font-size="14" font-style="italic" lengthAdjust="spacingAndGlyphs" textLength="88" x="282" y="676.79">«immutable»</text><text fill="#000000" font-family="Consolas" font-size="14" font-weight="bold" lengthAdjust="spacingAndGlyphs" textLength="40" x="306" y="693.1826">range</text><line style="stroke: #A80036; stroke-width: 1.5;" x1="277" x2="375" y1="701.7852" y2="701.7852"/><line style="stroke: #A80036; stroke-width: 1.5;" x1="277" x2="375" y1="709.7852" y2="709.7852"/><!--MD5=[9d763f82af2137a15e3a6e1729940d76]
class ByteString--><rect fill="#FEFECE" filter="url(#f16xjtxkbjyh2g)" height="42.3926" id="ByteString" style="stroke: #A80036; stroke-width: 1.5;" width="100" x="411" y="667.5"/><text fill="#000000" font-family="Consolas" font-size="14" font-weight="bold" lengthAdjust="spacingAndGlyphs" textLength="80" x="421" y="685.29">ByteString</text><line style="stroke: #A80036; stroke-width: 1.5;" x1="412" x2="510" y1="693.8926" y2="693.8926"/><line style="stroke: #A80036; stroke-width: 1.5;" x1="412" x2="510" y1="701.8926" y2="701.8926"/><!--MD5=[044f8034fdae5748fc1071c1b96263bb]
class bytes--><rect fill="#FEFECE" filter="url(#f16xjtxkbjyh2g)" height="58.7852" id="bytes" style="stroke: #A80036; stroke-width: 1.5;" width="100" x="375" y="860"/><text fill="#000000" font-family="Consolas" font-size="14" font-style="italic" lengthAdjust="spacingAndGlyphs" textLength="88" x="381" y="877.79">«immutable»</text><text fill="#000000" font-family="Consolas" font-size="14" font-weight="bold" lengthAdjust="spacingAndGlyphs" textLength="40" x="405" y="894.1826">bytes</text><line style="stroke: #A80036; stroke-width: 1.5;" x1="376" x2="474" y1="902.7852" y2="902.7852"/><line style="stroke: #A80036; stroke-width: 1.5;" x1="376" x2="474" y1="910.7852" y2="910.7852"/><!--MD5=[39677234c31a16f22597a848b06ead16]
class bytearray--><rect fill="#FEFECE" filter="url(#f16xjtxkbjyh2g)" height="58.7852" id="bytearray" style="stroke: #A80036; stroke-width: 1.5;" width="100" x="510" y="860"/><text fill="#000000" font-family="Consolas" font-size="14" font-style="italic" lengthAdjust="spacingAndGlyphs" textLength="72" x="524" y="877.79">«mutable»</text><text fill="#000000" font-family="Consolas" font-size="14" font-weight="bold" lengthAdjust="spacingAndGlyphs" textLength="72" x="524" y="894.1826">bytearray</text><line style="stroke: #A80036; stroke-width: 1.5;" x1="511" x2="609" y1="902.7852" y2="902.7852"/><line style="stroke: #A80036; stroke-width: 1.5;" x1="511" x2="609" y1="910.7852" y2="910.7852"/><!--MD5=[7bd71b95298237b2fe0eb55a24b13e0e]
class MutableSequence--><rect fill="#FEFECE" filter="url(#f16xjtxkbjyh2g)" height="222.7109" id="MutableSequence" style="stroke: #A80036; stroke-width: 1.5;" width="225" x="546.5" y="577"/><text fill="#000000" font-family="Consolas" font-size="14" font-style="italic" lengthAdjust="spacingAndGlyphs" textLength="72" x="623" y="594.79">«mutable»</text><text fill="#000000" font-family="Consolas" font-size="14" font-weight="bold" lengthAdjust="spacingAndGlyphs" textLength="120" x="599" y="611.1826">MutableSequence</text><line style="stroke: #A80036; stroke-width: 1.5;" x1="547.5" x2="770.5" y1="619.7852" y2="619.7852"/><line style="stroke: #A80036; stroke-width: 1.5;" x1="547.5" x2="770.5" y1="627.7852" y2="627.7852"/><polygon fill="#FFFF44" points="557.5,633.7852,561.5,637.7852,557.5,641.7852,553.5,637.7852" style="stroke: #B38D22; stroke-width: 1.0;"/><text fill="#000000" font-family="Consolas" font-size="14" font-style="italic" lengthAdjust="spacingAndGlyphs" textLength="200" x="565.5" y="644.5752">__setitem__(index, value)</text><polygon fill="#FFFF44" points="557.5,650.1777,561.5,654.1777,557.5,658.1777,553.5,654.1777" style="stroke: #B38D22; stroke-width: 1.0;"/><text fill="#000000" font-family="Consolas" font-size="14" font-style="italic" lengthAdjust="spacingAndGlyphs" textLength="144" x="565.5" y="660.9678">__delitem__(index)</text><ellipse cx="557.5" cy="671.5703" fill="#84BE84" rx="3" ry="3" style="stroke: #038048; stroke-width: 1.0;"/><text fill="#000000" font-family="Consolas" font-size="14" font-style="italic" lengthAdjust="spacingAndGlyphs" textLength="160" x="565.5" y="677.3604">insert(index, value)</text><ellipse cx="557.5" cy="687.9629" fill="#84BE84" rx="3" ry="3" style="stroke: #038048; stroke-width: 1.0;"/><text fill="#000000" font-family="Consolas" font-size="14" lengthAdjust="spacingAndGlyphs" textLength="104" x="565.5" y="693.7529">append(value)</text><ellipse cx="557.5" cy="704.3555" fill="#84BE84" rx="3" ry="3" style="stroke: #038048; stroke-width: 1.0;"/><text fill="#000000" font-family="Consolas" font-size="14" lengthAdjust="spacingAndGlyphs" textLength="56" x="565.5" y="710.1455">clear()</text><ellipse cx="557.5" cy="720.748" fill="#84BE84" rx="3" ry="3" style="stroke: #038048; stroke-width: 1.0;"/><text fill="#000000" font-family="Consolas" font-size="14" lengthAdjust="spacingAndGlyphs" textLength="72" x="565.5" y="726.5381">reverse()</text><ellipse cx="557.5" cy="737.1406" fill="#84BE84" rx="3" ry="3" style="stroke: #038048; stroke-width: 1.0;"/><text fill="#000000" font-family="Consolas" font-size="14" lengthAdjust="spacingAndGlyphs" textLength="112" x="565.5" y="742.9307">extend(values)</text><ellipse cx="557.5" cy="753.5332" fill="#84BE84" rx="3" ry="3" style="stroke: #038048; stroke-width: 1.0;"/><text fill="#000000" font-family="Consolas" font-size="14" lengthAdjust="spacingAndGlyphs" textLength="80" x="565.5" y="759.3232">pop(index)</text><ellipse cx="557.5" cy="769.9258" fill="#84BE84" rx="3" ry="3" style="stroke: #038048; stroke-width: 1.0;"/><text fill="#000000" font-family="Consolas" font-size="14" lengthAdjust="spacingAndGlyphs" textLength="104" x="565.5" y="775.7158">remove(value)</text><polygon fill="#FFFF44" points="557.5,781.3184,561.5,785.3184,557.5,789.3184,553.5,785.3184" style="stroke: #B38D22; stroke-width: 1.0;"/><text fill="#000000" font-family="Consolas" font-size="14" lengthAdjust="spacingAndGlyphs" textLength="128" x="565.5" y="792.1084">__iadd__(values)</text><!--MD5=[ce0bdc9c9d7363fc59409c686ba93793]
class list--><rect fill="#FEFECE" filter="url(#f16xjtxkbjyh2g)" height="58.7852" id="list" style="stroke: #A80036; stroke-width: 1.5;" width="100" x="645" y="860"/><text fill="#000000" font-family="Consolas" font-size="14" font-style="italic" lengthAdjust="spacingAndGlyphs" textLength="72" x="659" y="877.79">«mutable»</text><text fill="#000000" font-family="Consolas" font-size="14" font-weight="bold" lengthAdjust="spacingAndGlyphs" textLength="32" x="679" y="894.1826">list</text><line style="stroke: #A80036; stroke-width: 1.5;" x1="646" x2="744" y1="902.7852" y2="902.7852"/><line style="stroke: #A80036; stroke-width: 1.5;" x1="646" x2="744" y1="910.7852" y2="910.7852"/><!--MD5=[441c503d769a16d27ce9081a482fa165]
reverse link Iterable to Iterator--><path d="M473.59,79.69 C454.58,94.93 433.18,112.08 414.71,126.88 " fill="none" id="Iterable&lt;-Iterator" style="stroke: #A80036; stroke-width: 1.0;"/><polygon fill="none" points="469.23,74.22,489.21,67.18,477.98,85.15,469.23,74.22" style="stroke: #A80036; stroke-width: 1.0;"/><!--MD5=[87bf419453f28017049c036529b0db76]
reverse link Iterable to Reversible--><path d="M525,87.27 C525,103.42 525,120.84 525,134.96 " fill="none" id="Iterable&lt;-Reversible" style="stroke: #A80036; stroke-width: 1.0;"/><polygon fill="none" points="518,87.18,525,67.18,532,87.18,518,87.18" style="stroke: #A80036; stroke-width: 1.0;"/><!--MD5=[30609b773d1acd1d8ef4d49cf63668f8]
reverse link Iterable to Collection--><path d="M595.98,71.73 C644.7,94.54 707.78,124.07 749.04,143.39 " fill="none" id="Iterable&lt;-Collection" style="stroke: #A80036; stroke-width: 1.0;"/><polygon fill="none" points="592.9,78.02,577.75,63.2,598.83,65.34,592.9,78.02" style="stroke: #A80036; stroke-width: 1.0;"/><!--MD5=[a0809be297fc6e446a5b6569c997c2ce]
reverse link Sized to Collection--><path d="M741.81,84.09 C754.62,104.35 769.04,127.18 779.13,143.14 " fill="none" id="Sized&lt;-Collection" style="stroke: #A80036; stroke-width: 1.0;"/><polygon fill="none" points="735.89,87.82,731.12,67.18,747.73,80.34,735.89,87.82" style="stroke: #A80036; stroke-width: 1.0;"/><!--MD5=[b208eed1f1e2a67f46be531517530ff6]
reverse link Container to Collection--><path d="M842.19,84.09 C829.38,104.35 814.96,127.18 804.87,143.14 " fill="none" id="Container&lt;-Collection" style="stroke: #A80036; stroke-width: 1.0;"/><polygon fill="none" points="836.27,80.34,852.88,67.18,848.11,87.82,836.27,80.34" style="stroke: #A80036; stroke-width: 1.0;"/><!--MD5=[1317568493796c4665b61a5c76c851cf]
reverse link Collection to Set--><path d="M803.54,205.1 C808.29,221.38 814.07,241.23 820.06,261.78 " fill="none" id="Collection&lt;-Set" style="stroke: #A80036; stroke-width: 1.0;"/><polygon fill="none" points="796.76,206.84,797.88,185.68,810.2,202.93,796.76,206.84" style="stroke: #A80036; stroke-width: 1.0;"/><!--MD5=[2095487e3287678dc72461b78f81191f]
reverse link Set to frozenset--><path d="M857,537.44 C857,583.71 857,630.19 857,658.89 " fill="none" id="Set&lt;-frozenset" style="stroke: #A80036; stroke-width: 1.0;"/><polygon fill="none" points="850,537.32,857,517.32,864,537.32,850,537.32" style="stroke: #A80036; stroke-width: 1.0;"/><!--MD5=[ec0c7a09927275146bd4f54ca5b2b922]
reverse link Set to MutableSet--><path d="M932.05,535.24 C940.83,552.16 949.63,569.15 958.02,585.32 " fill="none" id="Set&lt;-MutableSet" style="stroke: #A80036; stroke-width: 1.0;"/><polygon fill="none" points="925.75,538.29,922.76,517.32,938.18,531.85,925.75,538.29" style="stroke: #A80036; stroke-width: 1.0;"/><!--MD5=[f9dcc8efc89fe43f7fa6786abfec1af3]
reverse link MutableSet to set--><path d="M1011,811.67 C1011,829.51 1011,846.32 1011,859.65 " fill="none" id="MutableSet&lt;-set" style="stroke: #A80036; stroke-width: 1.0;"/><polygon fill="none" points="1004,811.62,1011,791.62,1018,811.62,1004,811.62" style="stroke: #A80036; stroke-width: 1.0;"/><!--MD5=[c02269a6765db59efffba9a0b7445bbf]
reverse link Collection to Mapping--><path d="M843.68,196 C875.75,214.95 917.8,239.84 955,262 C998.11,287.69 1046.1,316.44 1085.41,340.04 " fill="none" id="Collection&lt;-Mapping" style="stroke: #A80036; stroke-width: 1.0;"/><polygon fill="none" points="839.72,201.79,826.06,185.59,846.84,189.74,839.72,201.79" style="stroke: #A80036; stroke-width: 1.0;"/><!--MD5=[9cf86014a057f480fd7de23d9d53acd0]
reverse link Mapping to mappingproxy--><path d="M1166,497.15 C1166,554.8 1166,621.61 1166,658.77 " fill="none" id="Mapping&lt;-mappingproxy" style="stroke: #A80036; stroke-width: 1.0;"/><polygon fill="none" points="1159,496.8,1166,476.8,1173,496.8,1159,496.8" style="stroke: #A80036; stroke-width: 1.0;"/><!--MD5=[66084408e9897618e7138055b6537fd4]
reverse link Mapping to MutableMapping--><path d="M1232.34,493.65 C1256.81,531.7 1284.1,574.15 1306.9,609.6 " fill="none" id="Mapping&lt;-MutableMapping" style="stroke: #A80036; stroke-width: 1.0;"/><polygon fill="none" points="1226.43,497.41,1221.5,476.8,1238.21,489.84,1226.43,497.41" style="stroke: #A80036; stroke-width: 1.0;"/><!--MD5=[05ab8a71eedd78f6f1ce9e971adfa78d]
reverse link MutableMapping to dict--><path d="M1357,787.11 C1357,813.61 1357,840.28 1357,859.61 " fill="none" id="MutableMapping&lt;-dict" style="stroke: #A80036; stroke-width: 1.0;"/><polygon fill="none" points="1350,787.01,1357,767.01,1364,787.01,1350,787.01" style="stroke: #A80036; stroke-width: 1.0;"/><!--MD5=[651602a2ea0447a3e0f2c682b54bbbc0]
reverse link Reversible to Sequence--><path d="M511.2,213.59 C503.08,241.86 492.63,278.27 483.37,310.55 " fill="none" id="Reversible&lt;-Sequence" style="stroke: #A80036; stroke-width: 1.0;"/><polygon fill="none" points="504.52,211.49,516.76,194.2,517.98,215.35,504.52,211.49" style="stroke: #A80036; stroke-width: 1.0;"/><!--MD5=[2b845843ceda23dcbdd59fb0bd756b91]
reverse link Collection to Sequence--><path d="M745.44,196.87 C701.06,226.77 632.47,272.98 573.77,312.53 " fill="none" id="Collection&lt;-Sequence" style="stroke: #A80036; stroke-width: 1.0;"/><polygon fill="none" points="741.54,191.05,762.04,185.68,749.37,202.66,741.54,191.05" style="stroke: #A80036; stroke-width: 1.0;"/><!--MD5=[91042cb2ae1aef5676589ded43211ef4]
reverse link Sequence to tuple--><path d="M330.22,443 C262.79,474.65 182.46,519.92 123,577 C98.56,600.46 79.64,634.69 68.23,658.82 " fill="none" id="Sequence&lt;-tuple" style="stroke: #A80036; stroke-width: 1.0;"/><polygon fill="none" points="327.32,436.63,348.41,434.65,333.16,449.36,327.32,436.63" style="stroke: #A80036; stroke-width: 1.0;"/><!--MD5=[1e127458656fca85ccac5c68d6dedec8]
reverse link Sequence to str--><path d="M350.74,481.41 C318.97,510.27 285.49,543.44 258,577 C236.96,602.68 217.85,635.6 205.48,658.81 " fill="none" id="Sequence&lt;-str" style="stroke: #A80036; stroke-width: 1.0;"/><polygon fill="none" points="346.11,476.16,365.68,468.04,355.44,486.6,346.11,476.16" style="stroke: #A80036; stroke-width: 1.0;"/><!--MD5=[173f584aa97c82de7699f6d356d63848]
reverse link Sequence to range--><path d="M417.29,486.65 C390.09,546.5 356.97,619.36 339.05,658.79 " fill="none" id="Sequence&lt;-range" style="stroke: #A80036; stroke-width: 1.0;"/><polygon fill="none" points="411.06,483.46,425.71,468.15,423.8,489.25,411.06,483.46" style="stroke: #A80036; stroke-width: 1.0;"/><!--MD5=[53a20a6da1fa17aebf804ce6d21fa4fe]
reverse link Sequence to ByteString--><path d="M461,488.43 C461,552.68 461,631.28 461,667.49 " fill="none" id="Sequence&lt;-ByteString" style="stroke: #A80036; stroke-width: 1.0;"/><polygon fill="none" points="454,488.15,461,468.15,468,488.15,454,488.15" style="stroke: #A80036; stroke-width: 1.0;"/><!--MD5=[dcb337bb71c897c6ec18669e8f97236a]
reverse link ByteString to bytes--><path d="M453.78,729.43 C446.78,768.09 436.35,825.74 430.16,859.98 " fill="none" id="ByteString&lt;-bytes" style="stroke: #A80036; stroke-width: 1.0;"/><polygon fill="none" points="446.9,728.11,457.35,709.68,460.68,730.6,446.9,728.11" style="stroke: #A80036; stroke-width: 1.0;"/><!--MD5=[42c2793758d633d43e9d6a118feaebb4]
reverse link ByteString to bytearray--><path d="M480.06,727.82 C499.29,766.47 528.54,825.26 545.81,859.98 " fill="none" id="ByteString&lt;-bytearray" style="stroke: #A80036; stroke-width: 1.0;"/><polygon fill="none" points="473.68,730.7,471.04,709.68,486.21,724.46,473.68,730.7" style="stroke: #A80036; stroke-width: 1.0;"/><!--MD5=[16cb915728a33de07a19c5e60d3d924c]
reverse link Sequence to MutableSequence--><path d="M523.95,484.93 C543.42,514.14 565.05,546.58 585.19,576.78 " fill="none" id="Sequence&lt;-MutableSequence" style="stroke: #A80036; stroke-width: 1.0;"/><polygon fill="none" points="518.03,488.67,512.76,468.15,529.68,480.9,518.03,488.67" style="stroke: #A80036; stroke-width: 1.0;"/><!--MD5=[3d132c18c9527cdf160bf8cbc4871b1d]
reverse link MutableSequence to list--><path d="M682.56,819.75 C685.26,834.67 687.78,848.56 689.83,859.9 " fill="none" id="MutableSequence&lt;-list" style="stroke: #A80036; stroke-width: 1.0;"/><polygon fill="none" points="675.67,820.98,679,800.06,689.45,818.49,675.67,820.98" style="stroke: #A80036; stroke-width: 1.0;"/><!--MD5=[275c10fa787e0cfcc4d443486d58f2e9]
reverse link MutableSequence to bytearray--><path d="M595.07,818 C587.32,833.58 580.09,848.12 574.23,859.9 " fill="none" id="MutableSequence&lt;-bytearray" style="stroke: #A80036; stroke-width: 1.0;"/><polygon fill="none" points="588.82,814.85,604,800.06,601.36,821.08,588.82,814.85" style="stroke: #A80036; stroke-width: 1.0;"/><text fill="#000000" font-family="Consolas" font-size="14" lengthAdjust="spacingAndGlyphs" textLength="160" x="660" y="941.79">Python 3 Collections</text><!--MD5=[6dbf5ce2c07ae1f7afb2079fd83ba7d8]
@startuml



skinparam {
DefaultFontName Consolas
DefaultFontSize 14
MinClassWidth 100
ClassFontStyle bold
}

hide Circle
caption Python 3 Collections

abstract class Iterable{
# {abstract} __iter__()
}

abstract class Iterator extends Iterable{
# __iter__()
# {abstract} __next__()
}

abstract class Reversible extends Iterable{
# {abstract} __reversed__()
}

abstract class Sized{
# {abstract} __len__()
}

abstract class Container{
# {abstract} __contains__(x)
}

abstract class Collection extends Iterable, Sized, Container

abstract class Set <<immutable>> extends Collection{

# __le__(other)
# __lt__(other)
# __gt__(other)
# __ge__(other)
# __eq__(other)
# __and__(other)
+ isdisjoint(other)
# __or__(other)
# __sub__(other)
# __rsub__(other)
# __xor__(other)
- _hash()
}

class frozenset <<immutable>> extends Set

abstract class MutableSet <<mutable>> extends Set{

+ {abstract} add(value)
+ {abstract} discard(value)
+ remove(value)
+ pop()
+ clear()
# __ior__(it)
# __iand__(it)
# __ixor__(it)
# __isub__(it)
}

class set <<mutable>> extends MutableSet

abstract class Mapping <<immutable>> extends Collection{

# {abstract} __getitem__(key)
+ get(key, default)
# __contains__(key)
+ keys()
+ items()
+ values()
# __eq__(other)
}

class mappingproxy <<immutable>> extends Mapping

abstract class MutableMapping <<mutable>> extends Mapping{

# {abstract} __setitem__(key, value)
# {abstract} __delitem__(key)
+ pop(key, value)
+ popitem()
+ clear()
+ update(other)
}

class dict <<mutable>> extends MutableMapping

abstract class Sequence <<immutable>> extends Reversible, Collection {

# {abstract} __getitem__(index)
# __iter__()
# __contains__(value)
# __reversed__()
+ index(value, start, stop)
+ count(value)
}

class tuple <<immutable>> extends Sequence
class str <<immutable>> extends Sequence
class range <<immutable>> extends Sequence

class ByteString extends Sequence
class bytes <<immutable>> extends ByteString
class bytearray extends ByteString

class MutableSequence <<mutable>> extends Sequence{
# {abstract} __setitem__(index, value)
# {abstract} __delitem__(index)
+ {abstract} insert(index, value)
+ append(value)
+ clear()
+ reverse()
+ extend(values)
+ pop(index)
+ remove(value)
# __iadd__(values)
}

class list <<mutable>> extends MutableSequence
class bytearray <<mutable>> extends MutableSequence

@enduml

PlantUML version 1.2019.11(Sun Sep 22 19:02:15 KST 2019)
(EPL source distribution)
Java Runtime: OpenJDK Runtime Environment
JVM: OpenJDK 64-Bit Server VM
Java Version: 11+28
Operating System: Windows 10
Default Encoding: utf-8
Language: en
Country: KR
--></g></svg>