<?xml version="1.0" encoding="UTF-8"?><svg xmlns="http://www.w3.org/2000/svg" xmlns:xlink="http://www.w3.org/1999/xlink" fill-opacity="1" color-rendering="auto" color-interpolation="auto" text-rendering="auto" stroke="black" stroke-linecap="square" width="883" stroke-miterlimit="10" shape-rendering="auto" stroke-opacity="1" fill="black" stroke-dasharray="none" font-weight="normal" stroke-width="1" height="366" font-family="'Dialog'" font-style="normal" stroke-linejoin="miter" font-size="12px" stroke-dashoffset="0" image-rendering="auto">
  <!--Generated by ySVG 2.5-->
  <defs id="genericDefs"/>
  <g>
    <defs id="defs1">
      <clipPath clipPathUnits="userSpaceOnUse" id="clipPath1">
        <path d="M0 0 L883 0 L883 366 L0 366 L0 0 Z"/>
      </clipPath>
      <clipPath clipPathUnits="userSpaceOnUse" id="clipPath2">
        <path d="M298 148 L886.6667 148 L886.6667 392 L298 392 L298 148 Z"/>
      </clipPath>
    </defs>
    <g fill="white" text-rendering="geometricPrecision" shape-rendering="geometricPrecision" transform="matrix(1.5,0,0,1.5,-447,-222)" stroke="white">
      <circle r="25" clip-path="url(#clipPath2)" cx="420" cy="180" stroke="none"/>
    </g>
    <g text-rendering="geometricPrecision" stroke-miterlimit="1.45" shape-rendering="geometricPrecision" transform="matrix(1.5,0,0,1.5,-447,-222)" stroke-linecap="butt">
      <circle fill="none" r="25" clip-path="url(#clipPath2)" cx="420" cy="180"/>
      <text x="416.3984" font-size="16px" y="186.4844" clip-path="url(#clipPath2)" font-family="'Comic Sans MS'" font-style="italic" stroke="none" xml:space="preserve">1</text>
    </g>
    <g fill="white" text-rendering="geometricPrecision" shape-rendering="geometricPrecision" transform="matrix(1.5,0,0,1.5,-447,-222)" stroke="white">
      <circle r="25" clip-path="url(#clipPath2)" cx="330" cy="270" stroke="none"/>
    </g>
    <g text-rendering="geometricPrecision" stroke-miterlimit="1.45" shape-rendering="geometricPrecision" transform="matrix(1.5,0,0,1.5,-447,-222)" stroke-linecap="butt">
      <circle fill="none" r="25" clip-path="url(#clipPath2)" cx="330" cy="270"/>
      <text x="325.1172" font-size="16px" y="276.4844" clip-path="url(#clipPath2)" font-family="'Comic Sans MS'" font-style="italic" stroke="none" xml:space="preserve">2</text>
    </g>
    <g fill="white" text-rendering="geometricPrecision" shape-rendering="geometricPrecision" transform="matrix(1.5,0,0,1.5,-447,-222)" stroke="white">
      <circle r="25" clip-path="url(#clipPath2)" cx="510" cy="270" stroke="none"/>
    </g>
    <g text-rendering="geometricPrecision" stroke-miterlimit="1.45" shape-rendering="geometricPrecision" transform="matrix(1.5,0,0,1.5,-447,-222)" stroke-linecap="butt">
      <circle fill="none" r="25" clip-path="url(#clipPath2)" cx="510" cy="270"/>
      <text x="505.1172" font-size="16px" y="276.4844" clip-path="url(#clipPath2)" font-family="'Comic Sans MS'" font-style="italic" stroke="none" xml:space="preserve">4</text>
    </g>
    <g fill="white" text-rendering="geometricPrecision" shape-rendering="geometricPrecision" transform="matrix(1.5,0,0,1.5,-447,-222)" stroke="white">
      <circle r="25" clip-path="url(#clipPath2)" cx="420" cy="360" stroke="none"/>
    </g>
    <g text-rendering="geometricPrecision" stroke-miterlimit="1.45" shape-rendering="geometricPrecision" transform="matrix(1.5,0,0,1.5,-447,-222)" stroke-linecap="butt">
      <circle fill="none" r="25" clip-path="url(#clipPath2)" cx="420" cy="360"/>
      <text x="415.1172" font-size="16px" y="366.4844" clip-path="url(#clipPath2)" font-family="'Comic Sans MS'" font-style="italic" stroke="none" xml:space="preserve">3</text>
    </g>
    <g fill="white" text-rendering="geometricPrecision" shape-rendering="geometricPrecision" transform="matrix(1.5,0,0,1.5,-447,-222)" stroke="white">
      <circle r="25" clip-path="url(#clipPath2)" cx="750" cy="360" stroke="none"/>
    </g>
    <g text-rendering="geometricPrecision" stroke-miterlimit="1.45" shape-rendering="geometricPrecision" transform="matrix(1.5,0,0,1.5,-447,-222)" stroke-linecap="butt">
      <circle fill="none" r="25" clip-path="url(#clipPath2)" cx="750" cy="360"/>
      <text x="745.1172" font-size="16px" y="366.4844" clip-path="url(#clipPath2)" font-family="'Comic Sans MS'" font-style="italic" stroke="none" xml:space="preserve">3</text>
    </g>
    <g fill="white" text-rendering="geometricPrecision" shape-rendering="geometricPrecision" transform="matrix(1.5,0,0,1.5,-447,-222)" stroke="white">
      <circle r="25" clip-path="url(#clipPath2)" cx="840" cy="270" stroke="none"/>
    </g>
    <g text-rendering="geometricPrecision" stroke-miterlimit="1.45" shape-rendering="geometricPrecision" transform="matrix(1.5,0,0,1.5,-447,-222)" stroke-linecap="butt">
      <circle fill="none" r="25" clip-path="url(#clipPath2)" cx="840" cy="270"/>
      <text x="835.1172" font-size="16px" y="276.4844" clip-path="url(#clipPath2)" font-family="'Comic Sans MS'" font-style="italic" stroke="none" xml:space="preserve">4</text>
    </g>
    <g fill="white" text-rendering="geometricPrecision" shape-rendering="geometricPrecision" transform="matrix(1.5,0,0,1.5,-447,-222)" stroke="white">
      <circle r="25" clip-path="url(#clipPath2)" cx="660" cy="270" stroke="none"/>
    </g>
    <g text-rendering="geometricPrecision" stroke-miterlimit="1.45" shape-rendering="geometricPrecision" transform="matrix(1.5,0,0,1.5,-447,-222)" stroke-linecap="butt">
      <circle fill="none" r="25" clip-path="url(#clipPath2)" cx="660" cy="270"/>
      <text x="655.1172" font-size="16px" y="276.4844" clip-path="url(#clipPath2)" font-family="'Comic Sans MS'" font-style="italic" stroke="none" xml:space="preserve">2</text>
    </g>
    <g fill="white" text-rendering="geometricPrecision" shape-rendering="geometricPrecision" transform="matrix(1.5,0,0,1.5,-447,-222)" stroke="white">
      <circle r="25" clip-path="url(#clipPath2)" cx="750" cy="180" stroke="none"/>
    </g>
    <g text-rendering="geometricPrecision" stroke-miterlimit="1.45" shape-rendering="geometricPrecision" transform="matrix(1.5,0,0,1.5,-447,-222)" stroke-linecap="butt">
      <circle fill="none" r="25" clip-path="url(#clipPath2)" cx="750" cy="180"/>
      <text x="746.3984" font-size="16px" y="186.4844" clip-path="url(#clipPath2)" font-family="'Comic Sans MS'" font-style="italic" stroke="none" xml:space="preserve">1</text>
      <path fill="none" d="M437.6777 197.6777 L486.6655 246.6655" clip-path="url(#clipPath2)"/>
      <path d="M492.3223 252.3223 L487.3726 240.3015 L485.9583 245.9584 L480.3015 247.3726 Z" clip-path="url(#clipPath2)" stroke="none"/>
    </g>
    <g stroke-linecap="butt" font-size="16px" transform="matrix(1.5,0,0,1.5,-447,-222)" fill="blue" text-rendering="geometricPrecision" font-family="'Comic Sans MS'" shape-rendering="geometricPrecision" font-style="italic" stroke="blue" font-weight="bold" stroke-miterlimit="1.45">
      <text x="476.8658" xml:space="preserve" y="231.4124" clip-path="url(#clipPath2)" stroke="none">v:1:4</text>
    </g>
    <g text-rendering="geometricPrecision" stroke-miterlimit="1.45" shape-rendering="geometricPrecision" transform="matrix(1.5,0,0,1.5,-447,-222)" stroke-linecap="butt">
      <path fill="none" d="M403.1843 198.4995 L344.9182 262.6002 L342.6005 265.8376 L342.3735 268.1501 L344.2374 269.5375 L348.192 270 L477 270" clip-path="url(#clipPath2)"/>
      <path d="M485 270 L473 265 L476 270 L473 275 Z" clip-path="url(#clipPath2)" stroke="none"/>
    </g>
    <g stroke-linecap="butt" font-size="16px" transform="matrix(1.5,0,0,1.5,-447,-222)" fill="blue" text-rendering="geometricPrecision" font-family="'Comic Sans MS'" shape-rendering="geometricPrecision" font-style="italic" stroke="blue" font-weight="bold" stroke-miterlimit="1.45">
      <text x="427.0422" xml:space="preserve" y="284.1484" clip-path="url(#clipPath2)" stroke="none">v:1:2:4</text>
    </g>
    <g text-rendering="geometricPrecision" stroke-miterlimit="1.45" shape-rendering="geometricPrecision" transform="matrix(1.5,0,0,1.5,-447,-222)" stroke-linecap="butt">
      <path fill="none" d="M420 205.0399 L420 344.88 L420.4547 348.8262 L421.8187 350.6647 L424.0922 350.3956 L427.275 348.0189 L485.9926 292.6417" clip-path="url(#clipPath2)"/>
      <path d="M491.8126 287.1528 L479.652 291.7486 L485.2651 293.3278 L486.5132 299.0236 Z" clip-path="url(#clipPath2)" stroke="none"/>
    </g>
    <g stroke-linecap="butt" font-size="16px" transform="matrix(1.5,0,0,1.5,-447,-222)" fill="blue" text-rendering="geometricPrecision" font-family="'Comic Sans MS'" shape-rendering="geometricPrecision" font-style="italic" stroke="blue" font-weight="bold" stroke-miterlimit="1.45">
      <text x="470.5622" xml:space="preserve" y="324.5964" clip-path="url(#clipPath2)" stroke="none">v:1:3:4</text>
    </g>
    <g text-rendering="geometricPrecision" stroke-miterlimit="1.45" shape-rendering="geometricPrecision" transform="matrix(1.5,0,0,1.5,-447,-222)" stroke-linecap="butt">
      <path fill="none" d="M731.5258 196.8435 L658.6761 263.2626 L655.8836 266.6536 L654.8958 270.0892 L655.7126 273.5694 L658.3342 277.0942 L742.9521 362.269 L746.4551 364.9095 L749.9164 365.7367 L753.3357 364.7507 L756.7133 361.9515 L817.8463 294.4584" clip-path="url(#clipPath2)"/>
      <path d="M823.2169 288.5291 L811.4552 294.0665 L817.175 295.1996 L818.8668 300.7797 Z" clip-path="url(#clipPath2)" stroke="none"/>
    </g>
    <g stroke-linecap="butt" font-size="16px" transform="matrix(1.5,0,0,1.5,-447,-222)" fill="blue" text-rendering="geometricPrecision" font-family="'Comic Sans MS'" shape-rendering="geometricPrecision" font-style="italic" stroke="blue" font-weight="bold" stroke-miterlimit="1.45">
      <text x="802.4359" xml:space="preserve" y="318.9132" clip-path="url(#clipPath2)" stroke="none">v:1:2:3:4</text>
    </g>
    <g text-rendering="geometricPrecision" stroke-miterlimit="1.45" shape-rendering="geometricPrecision" transform="matrix(1.5,0,0,1.5,-447,-222)" stroke-linecap="butt">
      <path fill="none" d="M750 205 L750 350 L749.558 353.933 L748.2322 355.7322 L746.0225 355.3975 L742.929 352.9289 L667.071 277.0711 L664.6025 273.9775 L664.2678 271.7678 L666.067 270.442 L670 270 L807 270" clip-path="url(#clipPath2)"/>
      <path d="M815 270 L803 265 L806 270 L803 275 Z" clip-path="url(#clipPath2)" stroke="none"/>
    </g>
    <g stroke-linecap="butt" font-size="16px" transform="matrix(1.5,0,0,1.5,-447,-222)" fill="blue" text-rendering="geometricPrecision" font-family="'Comic Sans MS'" shape-rendering="geometricPrecision" font-style="italic" stroke="blue" font-weight="bold" stroke-miterlimit="1.45">
      <text x="750.4167" xml:space="preserve" y="266.4844" clip-path="url(#clipPath2)" stroke="none">v:1:3:2:4</text>
    </g>
  </g>
</svg>
