<?xml version="1.0" encoding="UTF-8" standalone="no"?><svg xmlns="http://www.w3.org/2000/svg" xmlns:xlink="http://www.w3.org/1999/xlink" contentScriptType="application/ecmascript" contentStyleType="text/css" height="547px" preserveAspectRatio="none" style="width:648px;height:547px;" version="1.1" viewBox="0 0 648 547" width="648px" zoomAndPan="magnify"><defs><filter height="300%" id="f1o0k27mu4hhp0" width="300%" x="-1" y="-1"><feGaussianBlur result="blurOut" stdDeviation="2.0"/><feColorMatrix in="blurOut" result="blurOut2" type="matrix" values="0 0 0 0 0 0 0 0 0 0 0 0 0 0 0 0 0 0 .4 0"/><feOffset dx="4.0" dy="4.0" in="blurOut2" result="blurOut3"/><feBlend in="SourceGraphic" in2="blurOut3" mode="normal"/></filter></defs><g><rect fill="none" height="525.6836" style="stroke: #FFFFFF; stroke-width: 1.0;" width="289" x="104" y="4"/><rect fill="#FFFFFF" filter="url(#f1o0k27mu4hhp0)" height="14" style="stroke: #2F4F4F; stroke-width: 1.0;" width="10" x="146" y="156.0049"/><rect fill="#FFFFFF" filter="url(#f1o0k27mu4hhp0)" height="14" style="stroke: #2F4F4F; stroke-width: 1.0;" width="10" x="146" y="358.3477"/><rect fill="#FFFFFF" filter="url(#f1o0k27mu4hhp0)" height="14" style="stroke: #2F4F4F; stroke-width: 1.0;" width="10" x="146" y="407.6836"/><rect fill="#FFFFFF" filter="url(#f1o0k27mu4hhp0)" height="237.3428" style="stroke: #2F4F4F; stroke-width: 1.0;" width="10" x="345" y="255.3408"/><rect fill="#FFFFFF" filter="url(#f1o0k27mu4hhp0)" height="14" style="stroke: #2F4F4F; stroke-width: 1.0;" width="10" x="350" y="358.3477"/><rect fill="#FFFFFF" filter="url(#f1o0k27mu4hhp0)" height="14" style="stroke: #2F4F4F; stroke-width: 1.0;" width="10" x="350" y="407.6836"/><rect fill="#FFFFFF" filter="url(#f1o0k27mu4hhp0)" height="14" style="stroke: #2F4F4F; stroke-width: 1.0;" width="10" x="575" y="156.0049"/><rect fill="#FFFFFF" filter="url(#f1o0k27mu4hhp0)" height="237.3428" style="stroke: #2F4F4F; stroke-width: 1.0;" width="10" x="575" y="255.3408"/><rect fill="#FFF0F5" filter="url(#f1o0k27mu4hhp0)" height="143.0073" style="stroke: #4B0082; stroke-width: 1.3;" width="301" x="98" y="311.6763"/><line style="stroke: #2F4F4F; stroke-width: 1.3; stroke-dasharray: 5.0,5.0;" x1="151" x2="151" y1="93.6689" y2="535.6836"/><line style="stroke: #2F4F4F; stroke-width: 1.3; stroke-dasharray: 5.0,5.0;" x1="350" x2="350" y1="93.6689" y2="535.6836"/><line style="stroke: #2F4F4F; stroke-width: 1.3; stroke-dasharray: 5.0,5.0;" x1="580" x2="580" y1="93.6689" y2="535.6836"/><text fill="#000000" font-family="Monaco" font-size="14" lengthAdjust="spacingAndGlyphs" textLength="80" x="108" y="90.1689">foo:Seller</text><ellipse cx="151" cy="18" fill="#F8F8FF" filter="url(#f1o0k27mu4hhp0)" rx="8" ry="8" style="stroke: #2F4F4F; stroke-width: 2.0;"/><path d="M151,26 L151,53 M138,34 L164,34 M151,53 L138,68 M151,53 L164,68 " fill="none" filter="url(#f1o0k27mu4hhp0)" style="stroke: #2F4F4F; stroke-width: 2.0;"/><text fill="#000000" font-family="Monaco" font-size="14" lengthAdjust="spacingAndGlyphs" textLength="72" x="311" y="90.1689">bar:Buyer</text><ellipse cx="350" cy="18" fill="#F8F8FF" filter="url(#f1o0k27mu4hhp0)" rx="8" ry="8" style="stroke: #2F4F4F; stroke-width: 2.0;"/><path d="M350,26 L350,53 M337,34 L363,34 M350,53 L337,68 M350,53 L363,68 " fill="none" filter="url(#f1o0k27mu4hhp0)" style="stroke: #2F4F4F; stroke-width: 2.0;"/><rect fill="#F8F8FF" filter="url(#f1o0k27mu4hhp0)" height="32.6689" style="stroke: #2F4F4F; stroke-width: 1.5;" width="118" x="519" y="56"/><text fill="#000000" font-family="Monaco" font-size="14" lengthAdjust="spacingAndGlyphs" textLength="104" x="526" y="78.1689">broker:Broker</text><rect fill="#FFFFFF" filter="url(#f1o0k27mu4hhp0)" height="14" style="stroke: #2F4F4F; stroke-width: 1.0;" width="10" x="146" y="156.0049"/><rect fill="#FFFFFF" filter="url(#f1o0k27mu4hhp0)" height="14" style="stroke: #2F4F4F; stroke-width: 1.0;" width="10" x="146" y="358.3477"/><rect fill="#FFFFFF" filter="url(#f1o0k27mu4hhp0)" height="14" style="stroke: #2F4F4F; stroke-width: 1.0;" width="10" x="146" y="407.6836"/><rect fill="#FFFFFF" filter="url(#f1o0k27mu4hhp0)" height="237.3428" style="stroke: #2F4F4F; stroke-width: 1.0;" width="10" x="345" y="255.3408"/><rect fill="#FFFFFF" filter="url(#f1o0k27mu4hhp0)" height="14" style="stroke: #2F4F4F; stroke-width: 1.0;" width="10" x="350" y="358.3477"/><rect fill="#FFFFFF" filter="url(#f1o0k27mu4hhp0)" height="14" style="stroke: #2F4F4F; stroke-width: 1.0;" width="10" x="350" y="407.6836"/><rect fill="#FFFFFF" filter="url(#f1o0k27mu4hhp0)" height="14" style="stroke: #2F4F4F; stroke-width: 1.0;" width="10" x="575" y="156.0049"/><rect fill="#FFFFFF" filter="url(#f1o0k27mu4hhp0)" height="237.3428" style="stroke: #2F4F4F; stroke-width: 1.0;" width="10" x="575" y="255.3408"/><polygon fill="#2F4F4F" points="563,152.0049,573,156.0049,563,160.0049,567,156.0049" style="stroke: #2F4F4F; stroke-width: 1.0;"/><line style="stroke: #2F4F4F; stroke-width: 1.3;" x1="156" x2="569" y1="156.0049" y2="156.0049"/><text fill="#000000" font-family="Monaco" font-size="16" lengthAdjust="spacingAndGlyphs" textLength="210" x="348" y="150.0049">offer(a:Asset, price)</text><polygon fill="#2F4F4F" points="162,166.0049,152,170.0049,162,174.0049,158,170.0049" style="stroke: #2F4F4F; stroke-width: 1.0;"/><line style="stroke: #2F4F4F; stroke-width: 1.3; stroke-dasharray: 2.0,2.0;" x1="156" x2="579" y1="170.0049" y2="170.0049"/><polygon fill="#2F4F4F" points="563,251.3408,573,255.3408,563,259.3408,567,255.3408" style="stroke: #2F4F4F; stroke-width: 1.0;"/><line style="stroke: #2F4F4F; stroke-width: 1.3;" x1="355" x2="569" y1="255.3408" y2="255.3408"/><text fill="#000000" font-family="Monaco" font-size="16" lengthAdjust="spacingAndGlyphs" textLength="190" x="368" y="249.3408">buy(a:Asset, price)</text><path d="M22,268.3408 L22,295.3408 L475,295.3408 L475,278.3408 L465,268.3408 L22,268.3408 " fill="#FFF5EE" filter="url(#f1o0k27mu4hhp0)" style="stroke: #FFFFFF; stroke-width: 1.0;"/><path d="M465,268.3408 L465,278.3408 L475,278.3408 L465,268.3408 " fill="#FFF5EE" style="stroke: #FFFFFF; stroke-width: 1.0;"/><text fill="#000000" font-family="Monaco" font-size="13" lengthAdjust="spacingAndGlyphs" textLength="432" x="28" y="287.4263">vulnerable by nature, high cost for security and trust</text><path d="M98,311.6763 L207,311.6763 L207,320.6763 L197,330.6763 L98,330.6763 L98,311.6763 " fill="#EEEEEE" style="stroke: #4B0082; stroke-width: 1.0;"/><rect fill="none" height="143.0073" style="stroke: #4B0082; stroke-width: 1.3;" width="301" x="98" y="311.6763"/><text fill="#000000" font-family="Monaco" font-size="13" font-weight="bold" lengthAdjust="spacingAndGlyphs" textLength="64" x="113" y="326.7617">critical</text><polygon fill="#2F4F4F" points="167,354.3477,157,358.3477,167,362.3477,163,358.3477" style="stroke: #2F4F4F; stroke-width: 1.0;"/><line style="stroke: #2F4F4F; stroke-width: 1.3;" x1="161" x2="349" y1="358.3477" y2="358.3477"/><text fill="#B22222" font-family="Monaco" font-size="16" font-weight="bold" lengthAdjust="spacingAndGlyphs" textLength="100" x="243" y="352.3477">pay(price)</text><polygon fill="#2F4F4F" points="333,368.3477,343,372.3477,333,376.3477,337,372.3477" style="stroke: #2F4F4F; stroke-width: 1.0;"/><line style="stroke: #2F4F4F; stroke-width: 1.3; stroke-dasharray: 2.0,2.0;" x1="151" x2="339" y1="372.3477" y2="372.3477"/><polygon fill="#2F4F4F" points="338,403.6836,348,407.6836,338,411.6836,342,407.6836" style="stroke: #2F4F4F; stroke-width: 1.0;"/><line style="stroke: #2F4F4F; stroke-width: 1.3;" x1="156" x2="344" y1="407.6836" y2="407.6836"/><text fill="#B22222" font-family="Monaco" font-size="16" font-weight="bold" lengthAdjust="spacingAndGlyphs" textLength="170" x="163" y="401.6836">handover(a:Asset)</text><polygon fill="#2F4F4F" points="162,417.6836,152,421.6836,162,425.6836,158,421.6836" style="stroke: #2F4F4F; stroke-width: 1.0;"/><line style="stroke: #2F4F4F; stroke-width: 1.3; stroke-dasharray: 2.0,2.0;" x1="156" x2="344" y1="421.6836" y2="421.6836"/><polygon fill="#2F4F4F" points="361,488.6836,351,492.6836,361,496.6836,357,492.6836" style="stroke: #2F4F4F; stroke-width: 1.0;"/><line style="stroke: #2F4F4F; stroke-width: 1.3; stroke-dasharray: 2.0,2.0;" x1="355" x2="579" y1="492.6836" y2="492.6836"/><!--MD5=[3a9c862ab39fa7cfa15db41e4af2eb34]
@startuml



skinparam {
DefaultFontName Monaco

PageMargin 10
BoxPadding 100
ParticipantPadding 20

ArrowFontSize 16
ArrowThickness 1
MinClassWidth 75
ClassFontStyle bold

NoteBackgroundColor SeaShell
NoteBorderColor transparent
NoteShadowing false
}

skinparam Sequence{
DividerBorderThickness 1.5
ReferenceBorderThickness 1.5
MessageAlignment right

ArrowColor DarkSlateGray
ArrowThickness 1.3
LifeLineBorderColor DarkSlateGray
LifeLineBorderThickness 1.3

ActorBorderColor DarkSlateGray
ActorBackgroundColor GhostWhite
ParticipantBorderColor DarkSlateGray
ParticipantBorderThickness 1.5
ParticipantBackgroundColor GhostWhite

BoxBackgroundColor transparent
BoxBorderColor transparent

GroupBorderThickness 1.3
GroupBorderColor Indigo
GroupBodyBackgroundColor LavenderBlush
}

skinparam Group{
BorderThickness 1.3
BorderShadowing true
}

hide Circle
hide Footbox

box
Actor "foo:Seller" as seller
Actor "bar:Buyer" as buyer
end box
Participant "broker:Broker" as broker

|||

seller -> broker ++ : offer(a:Asset, price)
seller ++
seller <- - broker - -
seller - -

|||
|||

buyer -> broker ++ : buy(a:Asset, price)
buyer ++
note over seller, buyer : vulnerable by nature, high cost for security and trust
group critical
buyer -> seller ++ : <color FireBrick>**pay(price)**</color>
buyer ++
buyer <- - seller - -
buyer - -

seller -> buyer ++ : <color FireBrick>**handover(a:Asset)**</color>
seller ++
seller <- - buyer - -
seller - -
|||
end
|||
buyer <- - broker - -
buyer - -

|||

@enduml

PlantUML version 1.2019.11(Sun Sep 22 19:02:15 KST 2019)
(EPL source distribution)
Java Runtime: Java(TM) SE Runtime Environment
JVM: Java HotSpot(TM) 64-Bit Server VM
Java Version: 11.0.7+8-LTS
Operating System: Mac OS X
Default Encoding: UTF-8
Language: ko
Country: KR
--></g></svg>