<?xml version="1.0" encoding="UTF-8"?><svg xmlns="http://www.w3.org/2000/svg" xmlns:xlink="http://www.w3.org/1999/xlink" fill-opacity="1" color-rendering="auto" color-interpolation="auto" text-rendering="auto" stroke="black" stroke-linecap="square" width="1321" stroke-miterlimit="10" shape-rendering="auto" stroke-opacity="1" fill="black" stroke-dasharray="none" font-weight="normal" stroke-width="1" height="545" font-family="'Dialog'" font-style="normal" stroke-linejoin="miter" font-size="12px" stroke-dashoffset="0" image-rendering="auto">
  <!--Generated by ySVG 2.5-->
  <defs id="genericDefs"/>
  <g>
    <defs id="defs1">
      <clipPath clipPathUnits="userSpaceOnUse" id="clipPath1">
        <path d="M0 0 L1321 0 L1321 545 L0 545 L0 0 Z"/>
      </clipPath>
      <clipPath clipPathUnits="userSpaceOnUse" id="clipPath2">
        <path d="M334 52 L1655 52 L1655 597 L334 597 L334 52 Z"/>
      </clipPath>
      <clipPath clipPathUnits="userSpaceOnUse" id="clipPath3">
        <path d="M1117 367 L1117 407 L1337 407 L1337 367 Z"/>
      </clipPath>
      <clipPath clipPathUnits="userSpaceOnUse" id="clipPath4">
        <path d="M694 387 L694 437 L844 437 L844 387 Z"/>
      </clipPath>
      <clipPath clipPathUnits="userSpaceOnUse" id="clipPath5">
        <path d="M354 330 L354 370 L524 370 L524 330 Z"/>
      </clipPath>
      <clipPath clipPathUnits="userSpaceOnUse" id="clipPath6">
        <path d="M704 267 L704 307 L874 307 L874 267 Z"/>
      </clipPath>
      <clipPath clipPathUnits="userSpaceOnUse" id="clipPath7">
        <path d="M431 98 L431 173 L611 173 L611 98 Z"/>
      </clipPath>
      <clipPath clipPathUnits="userSpaceOnUse" id="clipPath8">
        <path d="M1037 98 L1037 173 L1217 173 L1217 98 Z"/>
      </clipPath>
      <clipPath clipPathUnits="userSpaceOnUse" id="clipPath9">
        <path d="M1481 338 L1481 378 L1631 378 L1631 338 Z"/>
      </clipPath>
      <clipPath clipPathUnits="userSpaceOnUse" id="clipPath10">
        <path d="M1357 397 L1357 437 L1507 437 L1507 397 Z"/>
      </clipPath>
      <clipPath clipPathUnits="userSpaceOnUse" id="clipPath11">
        <path d="M1000 449 L1000 524 L1180 524 L1180 449 Z"/>
      </clipPath>
      <clipPath clipPathUnits="userSpaceOnUse" id="clipPath12">
        <path d="M1481 234 L1481 274 L1631 274 L1631 234 Z"/>
      </clipPath>
      <clipPath clipPathUnits="userSpaceOnUse" id="clipPath13">
        <path d="M736 78 L736 128 L886 128 L886 78 Z"/>
      </clipPath>
      <clipPath clipPathUnits="userSpaceOnUse" id="clipPath14">
        <path d="M791 461 L791 511 L941 511 L941 461 Z"/>
      </clipPath>
    </defs>
    <g text-rendering="geometricPrecision" stroke-miterlimit="1.45" stroke-dasharray="6,2" shape-rendering="geometricPrecision" transform="matrix(1,0,0,1,-334,-52)" stroke-linecap="butt">
      <rect fill="none" x="344.125" width="1300" height="525" y="62" clip-path="url(#clipPath2)"/>
    </g>
    <g fill="rgb(255,204,0)" text-rendering="geometricPrecision" shape-rendering="geometricPrecision" transform="matrix(1,0,0,1,-334,-52)" stroke="rgb(255,204,0)">
      <rect x="1118" width="218" height="38" y="368" clip-path="url(#clipPath2)" stroke="none"/>
      <rect x="1117" y="367" clip-path="url(#clipPath2)" fill="yellow" width="1" height="40" stroke="none"/>
      <rect x="1118" y="367" clip-path="url(#clipPath2)" fill="yellow" width="218" height="1" stroke="none"/>
      <rect x="1118" y="406" clip-path="url(#clipPath2)" fill="rgb(178,142,0)" width="219" height="1" stroke="none"/>
      <rect x="1336" y="367" clip-path="url(#clipPath2)" fill="rgb(178,142,0)" width="1" height="39" stroke="none"/>
    </g>
    <g font-size="16px" stroke-linecap="butt" transform="matrix(1,0,0,1,-334,-52)" text-rendering="geometricPrecision" font-family="'Courier New'" shape-rendering="geometricPrecision" font-weight="bold" stroke-miterlimit="1.45">
      <text x="1126.6836" xml:space="preserve" y="385.8203" clip-path="url(#clipPath3)" stroke="none">EventSignatureBuilder</text>
    </g>
    <g fill="rgb(255,255,153)" text-rendering="geometricPrecision" shape-rendering="geometricPrecision" transform="matrix(1,0,0,1,-334,-52)" stroke="rgb(255,255,153)">
      <rect x="695" width="148" height="48" y="388" clip-path="url(#clipPath2)" stroke="none"/>
      <rect x="694" y="387" clip-path="url(#clipPath2)" fill="rgb(255,255,218)" width="1" height="50" stroke="none"/>
      <rect x="695" y="387" clip-path="url(#clipPath2)" fill="rgb(255,255,218)" width="148" height="1" stroke="none"/>
      <rect x="695" y="436" clip-path="url(#clipPath2)" fill="rgb(178,178,107)" width="149" height="1" stroke="none"/>
      <rect x="843" y="387" clip-path="url(#clipPath2)" fill="rgb(178,178,107)" width="1" height="49" stroke="none"/>
    </g>
    <g text-rendering="geometricPrecision" stroke-miterlimit="1.45" shape-rendering="geometricPrecision" font-family="'Courier New'" transform="matrix(1,0,0,1,-334,-52)" stroke-linecap="butt">
      <text x="737.0947" xml:space="preserve" y="401.9902" clip-path="url(#clipPath4)" stroke="none">&lt;&lt;web3j&gt;&gt;</text>
      <text x="731.0938" font-size="16px" y="427.9141" clip-path="url(#clipPath4)" stroke="none" font-weight="bold" xml:space="preserve">Function</text>
    </g>
    <g fill="rgb(255,204,0)" text-rendering="geometricPrecision" shape-rendering="geometricPrecision" transform="matrix(1,0,0,1,-334,-52)" stroke="rgb(255,204,0)">
      <rect x="355" width="168" height="38" y="331" clip-path="url(#clipPath2)" stroke="none"/>
      <rect x="354" y="330" clip-path="url(#clipPath2)" fill="yellow" width="1" height="40" stroke="none"/>
      <rect x="355" y="330" clip-path="url(#clipPath2)" fill="yellow" width="168" height="1" stroke="none"/>
      <rect x="355" y="369" clip-path="url(#clipPath2)" fill="rgb(178,142,0)" width="169" height="1" stroke="none"/>
      <rect x="523" y="330" clip-path="url(#clipPath2)" fill="rgb(178,142,0)" width="1" height="39" stroke="none"/>
    </g>
    <g font-size="16px" stroke-linecap="butt" transform="matrix(1,0,0,1,-334,-52)" text-rendering="geometricPrecision" font-family="'Courier New'" shape-rendering="geometricPrecision" font-weight="bold" stroke-miterlimit="1.45">
      <text x="371.7891" xml:space="preserve" y="348.8203" clip-path="url(#clipPath5)" stroke="none">FunctionOutput</text>
    </g>
    <g fill="rgb(255,204,0)" text-rendering="geometricPrecision" shape-rendering="geometricPrecision" transform="matrix(1,0,0,1,-334,-52)" stroke="rgb(255,204,0)">
      <rect x="705" width="168" height="38" y="268" clip-path="url(#clipPath2)" stroke="none"/>
      <rect x="704" y="267" clip-path="url(#clipPath2)" fill="yellow" width="1" height="40" stroke="none"/>
      <rect x="705" y="267" clip-path="url(#clipPath2)" fill="yellow" width="168" height="1" stroke="none"/>
      <rect x="705" y="306" clip-path="url(#clipPath2)" fill="rgb(178,142,0)" width="169" height="1" stroke="none"/>
      <rect x="873" y="267" clip-path="url(#clipPath2)" fill="rgb(178,142,0)" width="1" height="39" stroke="none"/>
    </g>
    <g font-size="16px" stroke-linecap="butt" transform="matrix(1,0,0,1,-334,-52)" text-rendering="geometricPrecision" font-family="'Courier New'" shape-rendering="geometricPrecision" font-weight="bold" stroke-miterlimit="1.45">
      <text x="717.4883" xml:space="preserve" y="285.3203" clip-path="url(#clipPath6)" stroke="none">FunctionBuilder</text>
    </g>
    <g fill="rgb(204,255,204)" text-rendering="geometricPrecision" shape-rendering="geometricPrecision" transform="matrix(1,0,0,1,-334,-52)" stroke="rgb(204,255,204)">
      <rect x="432" width="178" height="73" y="99" clip-path="url(#clipPath2)" stroke="none"/>
      <rect x="431" y="98" clip-path="url(#clipPath2)" fill="white" width="1" height="75" stroke="none"/>
      <rect x="432" y="98" clip-path="url(#clipPath2)" fill="white" width="178" height="1" stroke="none"/>
      <rect x="432" y="172" clip-path="url(#clipPath2)" fill="rgb(142,178,142)" width="179" height="1" stroke="none"/>
      <rect x="610" y="98" clip-path="url(#clipPath2)" fill="rgb(142,178,142)" width="1" height="74" stroke="none"/>
    </g>
    <g font-size="16px" stroke-linecap="butt" transform="matrix(1,0,0,1,-334,-52)" text-rendering="geometricPrecision" font-family="'Courier New'" shape-rendering="geometricPrecision" font-weight="bold" stroke-miterlimit="1.45">
      <text x="459.0898" xml:space="preserve" y="116.3203" clip-path="url(#clipPath7)" stroke="none">CallProcessor</text>
    </g>
    <g text-rendering="geometricPrecision" shape-rendering="geometricPrecision" transform="matrix(1,0,0,1,-334,-52)">
      <line y2="126" fill="none" x1="432" clip-path="url(#clipPath7)" x2="610" y1="126"/>
      <line y2="136" fill="none" x1="432" clip-path="url(#clipPath7)" x2="610" y1="136"/>
      <text stroke-linecap="butt" x="436.5" y="151.1152" clip-path="url(#clipPath7)" font-family="'Courier New'" stroke="none" stroke-miterlimit="1.45" xml:space="preserve">process()</text>
      <rect x="1038" y="99" clip-path="url(#clipPath2)" fill="rgb(204,255,204)" width="178" height="73" stroke="none"/>
      <rect x="1037" y="98" clip-path="url(#clipPath2)" fill="white" width="1" height="75" stroke="none"/>
      <rect x="1038" y="98" clip-path="url(#clipPath2)" fill="white" width="178" height="1" stroke="none"/>
      <rect x="1038" y="172" clip-path="url(#clipPath2)" fill="rgb(142,178,142)" width="179" height="1" stroke="none"/>
      <rect x="1216" y="98" clip-path="url(#clipPath2)" fill="rgb(142,178,142)" width="1" height="74" stroke="none"/>
    </g>
    <g font-size="16px" stroke-linecap="butt" transform="matrix(1,0,0,1,-334,-52)" text-rendering="geometricPrecision" font-family="'Courier New'" shape-rendering="geometricPrecision" font-weight="bold" stroke-miterlimit="1.45">
      <text x="1054.9883" xml:space="preserve" y="116.3203" clip-path="url(#clipPath8)" stroke="none">SendTxProcessor</text>
    </g>
    <g text-rendering="geometricPrecision" shape-rendering="geometricPrecision" transform="matrix(1,0,0,1,-334,-52)">
      <line y2="126" fill="none" x1="1038" clip-path="url(#clipPath8)" x2="1216" y1="126"/>
      <line y2="136" fill="none" x1="1038" clip-path="url(#clipPath8)" x2="1216" y1="136"/>
      <text stroke-linecap="butt" x="1042" y="151.1152" clip-path="url(#clipPath8)" font-family="'Courier New'" stroke="none" stroke-miterlimit="1.45" xml:space="preserve">process()</text>
      <rect x="1482" y="339" clip-path="url(#clipPath2)" fill="rgb(255,204,0)" width="148" height="38" stroke="none"/>
      <rect x="1481" y="338" clip-path="url(#clipPath2)" fill="yellow" width="1" height="40" stroke="none"/>
      <rect x="1482" y="338" clip-path="url(#clipPath2)" fill="yellow" width="148" height="1" stroke="none"/>
      <rect x="1482" y="377" clip-path="url(#clipPath2)" fill="rgb(178,142,0)" width="149" height="1" stroke="none"/>
      <rect x="1630" y="338" clip-path="url(#clipPath2)" fill="rgb(178,142,0)" width="1" height="39" stroke="none"/>
    </g>
    <g font-size="16px" stroke-linecap="butt" transform="matrix(1,0,0,1,-334,-52)" text-rendering="geometricPrecision" font-family="'Courier New'" shape-rendering="geometricPrecision" font-weight="bold" stroke-miterlimit="1.45">
      <text x="1531.9961" xml:space="preserve" y="356.3203" clip-path="url(#clipPath9)" stroke="none">Event</text>
    </g>
    <g fill="rgb(255,204,0)" text-rendering="geometricPrecision" shape-rendering="geometricPrecision" transform="matrix(1,0,0,1,-334,-52)" stroke="rgb(255,204,0)">
      <rect x="1358" width="148" height="38" y="398" clip-path="url(#clipPath2)" stroke="none"/>
      <rect x="1357" y="397" clip-path="url(#clipPath2)" fill="yellow" width="1" height="40" stroke="none"/>
      <rect x="1358" y="397" clip-path="url(#clipPath2)" fill="yellow" width="148" height="1" stroke="none"/>
      <rect x="1358" y="436" clip-path="url(#clipPath2)" fill="rgb(178,142,0)" width="149" height="1" stroke="none"/>
      <rect x="1506" y="397" clip-path="url(#clipPath2)" fill="rgb(178,142,0)" width="1" height="39" stroke="none"/>
    </g>
    <g font-size="16px" stroke-linecap="butt" transform="matrix(1,0,0,1,-334,-52)" text-rendering="geometricPrecision" font-family="'Courier New'" shape-rendering="geometricPrecision" font-weight="bold" stroke-miterlimit="1.45">
      <text x="1365.2891" xml:space="preserve" y="415.3203" clip-path="url(#clipPath10)" stroke="none">EventSignature</text>
    </g>
    <g fill="rgb(255,204,0)" text-rendering="geometricPrecision" shape-rendering="geometricPrecision" transform="matrix(1,0,0,1,-334,-52)" stroke="rgb(255,204,0)">
      <rect x="1001" width="178" height="73" y="450" clip-path="url(#clipPath2)" stroke="none"/>
      <rect x="1000" y="449" clip-path="url(#clipPath2)" fill="yellow" width="1" height="75" stroke="none"/>
      <rect x="1001" y="449" clip-path="url(#clipPath2)" fill="yellow" width="178" height="1" stroke="none"/>
      <rect x="1001" y="523" clip-path="url(#clipPath2)" fill="rgb(178,142,0)" width="179" height="1" stroke="none"/>
      <rect x="1179" y="449" clip-path="url(#clipPath2)" fill="rgb(178,142,0)" width="1" height="74" stroke="none"/>
    </g>
    <g font-size="16px" stroke-linecap="butt" transform="matrix(1,0,0,1,-334,-52)" text-rendering="geometricPrecision" font-family="'Courier New'" shape-rendering="geometricPrecision" font-weight="bold" stroke-miterlimit="1.45">
      <text x="1023.2891" xml:space="preserve" y="467.3203" clip-path="url(#clipPath11)" stroke="none">EventLogParser</text>
    </g>
    <g text-rendering="geometricPrecision" shape-rendering="geometricPrecision" transform="matrix(1,0,0,1,-334,-52)">
      <line y2="477" fill="none" x1="1001" clip-path="url(#clipPath11)" x2="1179" y1="477"/>
      <line y2="487" fill="none" x1="1001" clip-path="url(#clipPath11)" x2="1179" y1="487"/>
      <text stroke-linecap="butt" x="1005.5" y="502.1152" clip-path="url(#clipPath11)" font-family="'Courier New'" stroke="none" stroke-miterlimit="1.45" xml:space="preserve">extractEvents()</text>
      <rect x="1482" y="235" clip-path="url(#clipPath2)" fill="rgb(255,204,0)" width="148" height="38" stroke="none"/>
      <rect x="1481" y="234" clip-path="url(#clipPath2)" fill="yellow" width="1" height="40" stroke="none"/>
      <rect x="1482" y="234" clip-path="url(#clipPath2)" fill="yellow" width="148" height="1" stroke="none"/>
      <rect x="1482" y="273" clip-path="url(#clipPath2)" fill="rgb(178,142,0)" width="149" height="1" stroke="none"/>
      <rect x="1630" y="234" clip-path="url(#clipPath2)" fill="rgb(178,142,0)" width="1" height="39" stroke="none"/>
    </g>
    <g font-size="16px" stroke-linecap="butt" transform="matrix(1,0,0,1,-334,-52)" text-rendering="geometricPrecision" font-family="'Courier New'" shape-rendering="geometricPrecision" font-weight="bold" stroke-miterlimit="1.45">
      <text x="1517.5938" xml:space="preserve" y="252.3203" clip-path="url(#clipPath12)" stroke="none">TxResult</text>
    </g>
    <g fill="rgb(255,255,153)" text-rendering="geometricPrecision" shape-rendering="geometricPrecision" transform="matrix(1,0,0,1,-334,-52)" stroke="rgb(255,255,153)">
      <rect x="737" width="148" height="48" y="79" clip-path="url(#clipPath2)" stroke="none"/>
      <rect x="736" y="78" clip-path="url(#clipPath2)" fill="rgb(255,255,218)" width="1" height="50" stroke="none"/>
      <rect x="737" y="78" clip-path="url(#clipPath2)" fill="rgb(255,255,218)" width="148" height="1" stroke="none"/>
      <rect x="737" y="127" clip-path="url(#clipPath2)" fill="rgb(178,178,107)" width="149" height="1" stroke="none"/>
      <rect x="885" y="78" clip-path="url(#clipPath2)" fill="rgb(178,178,107)" width="1" height="49" stroke="none"/>
    </g>
    <g text-rendering="geometricPrecision" stroke-miterlimit="1.45" shape-rendering="geometricPrecision" font-family="'Courier New'" transform="matrix(1,0,0,1,-334,-52)" stroke-linecap="butt">
      <text x="778.5947" xml:space="preserve" y="92.9902" clip-path="url(#clipPath13)" stroke="none">&lt;&lt;web3j&gt;&gt;</text>
      <text x="786.9961" font-size="16px" y="118.9141" clip-path="url(#clipPath13)" stroke="none" font-weight="bold" xml:space="preserve">Web3j</text>
    </g>
    <g fill="rgb(255,255,153)" text-rendering="geometricPrecision" shape-rendering="geometricPrecision" transform="matrix(1,0,0,1,-334,-52)" stroke="rgb(255,255,153)">
      <rect x="792" width="148" height="48" y="462" clip-path="url(#clipPath2)" stroke="none"/>
      <rect x="791" y="461" clip-path="url(#clipPath2)" fill="rgb(255,255,218)" width="1" height="50" stroke="none"/>
      <rect x="792" y="461" clip-path="url(#clipPath2)" fill="rgb(255,255,218)" width="148" height="1" stroke="none"/>
      <rect x="792" y="510" clip-path="url(#clipPath2)" fill="rgb(178,178,107)" width="149" height="1" stroke="none"/>
      <rect x="940" y="461" clip-path="url(#clipPath2)" fill="rgb(178,178,107)" width="1" height="49" stroke="none"/>
    </g>
    <g text-rendering="geometricPrecision" stroke-miterlimit="1.45" shape-rendering="geometricPrecision" font-family="'Courier New'" transform="matrix(1,0,0,1,-334,-52)" stroke-linecap="butt">
      <text x="833.5947" xml:space="preserve" y="476.4902" clip-path="url(#clipPath14)" stroke="none">&lt;&lt;web3j&gt;&gt;</text>
      <text x="813.1914" font-size="16px" y="502.4141" clip-path="url(#clipPath14)" stroke="none" font-weight="bold" xml:space="preserve">Credentials</text>
      <path fill="none" stroke-dasharray="6,2" d="M786.3018 306.989 L774.2894 382.0663" clip-path="url(#clipPath2)"/>
      <path stroke-dasharray="6,2" d="M773.6574 386.0161 L781.4779 375.1147 L773.6574 386.0161 L769.6286 373.2188 Z" clip-path="url(#clipPath2)" stroke="none"/>
      <path fill="none" stroke-miterlimit="10" d="M773.6574 386.0161 L781.4779 375.1147 L773.6574 386.0161 L769.6286 373.2188 Z" clip-path="url(#clipPath2)" stroke-linecap="square"/>
      <text x="732.3044" font-size="14px" y="350.7256" clip-path="url(#clipPath2)" font-style="italic" stroke="none" font-weight="bold" xml:space="preserve">build</text>
      <path fill="none" stroke-dasharray="6,2" d="M507.1088 173.0043 L448.4568 325.8549" clip-path="url(#clipPath2)"/>
      <path stroke-dasharray="6,2" d="M447.0238 329.5894 L456.9246 320.5355 L447.0238 329.5894 L445.7211 316.2365 Z" clip-path="url(#clipPath2)" stroke="none"/>
      <path fill="none" stroke-miterlimit="10" d="M447.0238 329.5894 L456.9246 320.5355 L447.0238 329.5894 L445.7211 316.2365 Z" clip-path="url(#clipPath2)" stroke-linecap="square"/>
      <path fill="none" stroke-dasharray="6,2" d="M587.813 172.9866 L749.7684 264.5398" clip-path="url(#clipPath2)"/>
      <path stroke-dasharray="6,2" d="M753.2505 266.5082 L745.7567 255.3797 L753.2505 266.5082 L739.8514 265.8262 Z" clip-path="url(#clipPath2)" stroke="none"/>
      <path fill="none" stroke-miterlimit="10" d="M753.2505 266.5082 L745.7567 255.3797 L753.2505 266.5082 L739.8514 265.8262 Z" clip-path="url(#clipPath2)" stroke-linecap="square"/>
      <path fill="none" stroke-dasharray="6,2" d="M555.1338 172.999 L743.7357 383.2749" clip-path="url(#clipPath2)"/>
      <path stroke-dasharray="6,2" d="M746.4065 386.2527 L742.8607 373.3133 L746.4065 386.2527 L733.9276 381.3257 Z" clip-path="url(#clipPath2)" stroke="none"/>
      <path fill="none" stroke-miterlimit="10" d="M746.4065 386.2527 L742.8607 373.3133 L746.4065 386.2527 L733.9276 381.3257 Z" clip-path="url(#clipPath2)" stroke-linecap="square"/>
      <path fill="none" stroke-dasharray="6,2" d="M1043.4902 172.9866 L838.6152 264.9527" clip-path="url(#clipPath2)"/>
      <path stroke-dasharray="6,2" d="M834.9659 266.5908 L848.3707 267.1503 L834.9659 266.5908 L843.4564 256.2027 Z" clip-path="url(#clipPath2)" stroke="none"/>
      <path fill="none" stroke-miterlimit="10" d="M834.9659 266.5908 L848.3707 267.1503 L834.9659 266.5908 L843.4564 256.2027 Z" clip-path="url(#clipPath2)" stroke-linecap="square"/>
      <path fill="none" stroke-dasharray="6,2" d="M1078.494 173.0158 L805.7803 383.9399" clip-path="url(#clipPath2)"/>
      <path stroke-dasharray="6,2" d="M802.6162 386.3871 L815.7792 383.7916 L802.6162 386.3871 L808.4377 374.2994 Z" clip-path="url(#clipPath2)" stroke="none"/>
      <path fill="none" stroke-miterlimit="10" d="M802.6162 386.3871 L815.7792 383.7916 L802.6162 386.3871 L808.4377 374.2994 Z" clip-path="url(#clipPath2)" stroke-linecap="square"/>
      <path fill="none" stroke-dasharray="6,2" d="M1141.9548 172.9985 L1217.6802 362.8771" clip-path="url(#clipPath2)"/>
      <path stroke-dasharray="6,2" d="M1219.1619 366.5926 L1220.2898 353.2237 L1219.1619 366.5926 L1209.1436 357.6689 Z" clip-path="url(#clipPath2)" stroke="none"/>
      <path fill="none" stroke-miterlimit="10" d="M1219.1619 366.5926 L1220.2898 353.2237 L1219.1619 366.5926 L1209.1436 357.6689 Z" clip-path="url(#clipPath2)" stroke-linecap="square"/>
      <path fill="none" stroke-dasharray="6,2" d="M1167.7047 173.007 L1407.1338 393.6266" clip-path="url(#clipPath2)"/>
      <path stroke-dasharray="6,2" d="M1410.0754 396.3371 L1405.3164 383.7931 L1410.0754 396.3371 L1397.1848 392.618 Z" clip-path="url(#clipPath2)" stroke="none"/>
      <path fill="none" stroke-miterlimit="10" d="M1410.0754 396.3371 L1405.3164 383.7931 L1410.0754 396.3371 L1397.1848 392.618 Z" clip-path="url(#clipPath2)" stroke-linecap="square"/>
      <path fill="none" stroke-dasharray="6,2" d="M1241.5563 407.5028 L1249.3564 417.3758 L1260.6884 429.5078 L1272.2896 439.7692 L1284.1599 448.16 L1296.2994 454.6802 L1308.7083 459.3298 L1321.3861 462.1089 L1334.3333 463.0173 L1347.5494 462.0552 L1361.0349 459.2225 L1374.7896 454.5192 L1388.8134 447.9453 L1402.551 439.8289 L1402.6326 439.7711" clip-path="url(#clipPath2)"/>
      <path stroke-dasharray="6,2" d="M1405.9215 437.4947 L1392.6398 439.3907 L1405.9215 437.4947 L1399.4692 449.2577 Z" clip-path="url(#clipPath2)" stroke="none"/>
      <path fill="none" stroke-miterlimit="10" d="M1405.9215 437.4947 L1392.6398 439.3907 L1405.9215 437.4947 L1399.4692 449.2577 Z" clip-path="url(#clipPath2)" stroke-linecap="square"/>
      <text x="1247.3589" font-size="14px" y="462.017" clip-path="url(#clipPath2)" font-style="italic" stroke="none" font-weight="bold" xml:space="preserve">build</text>
      <path fill="none" stroke-dasharray="6,2" d="M1123.1013 172.9908 L1094.9132 444.0603" clip-path="url(#clipPath2)"/>
      <path stroke-dasharray="6,2" d="M1094.4995 448.0389 L1101.7084 436.7237 L1094.4995 448.0389 L1089.7727 435.4827 Z" clip-path="url(#clipPath2)" stroke="none"/>
      <path fill="none" stroke-miterlimit="10" d="M1094.4995 448.0389 L1101.7084 436.7237 L1094.4995 448.0389 L1089.7727 435.4827 Z" clip-path="url(#clipPath2)" stroke-linecap="square"/>
      <path fill="none" stroke-dasharray="6,2" d="M1180.4777 521.9309 L1204.0605 533.0294 L1237.0074 545.7632 L1268.8409 555.2016 L1299.5608 561.3445 L1329.1671 564.1918 L1357.6599 563.7436 L1385.0391 559.9999 L1411.3048 552.9607 L1436.4569 542.626 L1460.4955 528.9957 L1483.4205 512.0699 L1505.2321 491.8487 L1525.9301 468.3319 L1545.5144 441.5196 L1563.9854 411.4118 L1579.0372 382.4452" clip-path="url(#clipPath2)"/>
      <path stroke-dasharray="6,2" d="M1580.8816 378.8958 L1570.0244 386.7776 L1580.8816 378.8958 L1580.6727 392.3106 Z" clip-path="url(#clipPath2)" stroke="none"/>
      <path fill="none" stroke-miterlimit="10" d="M1580.8816 378.8958 L1570.0244 386.7776 L1580.8816 378.8958 L1580.6727 392.3106 Z" clip-path="url(#clipPath2)" stroke-linecap="square"/>
      <path fill="none" stroke-dasharray="6,2" d="M1216.9946 160.3587 L1478.8025 232.6762" clip-path="url(#clipPath2)"/>
      <path stroke-dasharray="6,2" d="M1482.6582 233.7412 L1472.6888 224.7628 L1482.6582 233.7412 L1469.4938 236.3297 Z" clip-path="url(#clipPath2)" stroke="none"/>
      <path fill="none" stroke-miterlimit="10" d="M1482.6582 233.7412 L1472.6888 224.7628 L1482.6582 233.7412 L1469.4938 236.3297 Z" clip-path="url(#clipPath2)" stroke-linecap="square"/>
      <path fill="none" d="M1556 280.9824 L1556 333.0212" clip-path="url(#clipPath2)"/>
      <path d="M1556 273.9824 L1561 280.9824 L1556 287.9824 L1551 280.9824 Z" clip-path="url(#clipPath2)" stroke="none"/>
      <path d="M1556 337.0212 L1562 325.0212 L1556 337.0212 L1550 325.0212 Z" clip-path="url(#clipPath2)" stroke="none"/>
      <path fill="none" stroke-miterlimit="10" d="M1556 337.0212 L1562 325.0212 L1556 337.0212 L1550 325.0212 Z" clip-path="url(#clipPath2)" stroke-linecap="square"/>
      <text x="1492.3945" font-size="14px" y="309.7256" clip-path="url(#clipPath2)" font-style="italic" stroke="none" font-weight="bold" xml:space="preserve">contains</text>
      <text x="1562.4076" font-size="14px" y="335.748" clip-path="url(#clipPath2)" font-family="'Dialog'" font-style="italic" stroke="none" xml:space="preserve">0..n</text>
      <path fill="none" d="M618.4656 124.6144 L731.0761 111.9725" clip-path="url(#clipPath2)"/>
      <path fill="white" d="M611.5093 125.3953 L617.9078 119.6456 L625.4219 123.8335 L619.0234 129.5832 Z" clip-path="url(#clipPath2)" stroke="none"/>
      <path fill="none" d="M611.5093 125.3953 L617.9078 119.6456 L625.4219 123.8335 L619.0234 129.5832 Z" clip-path="url(#clipPath2)"/>
      <path d="M735.0511 111.5262 L722.4567 106.9024 L735.0511 111.5262 L723.7955 118.8275 Z" clip-path="url(#clipPath2)" stroke="none"/>
      <path fill="none" stroke-miterlimit="10" d="M735.0511 111.5262 L722.4567 106.9024 L735.0511 111.5262 L723.7955 118.8275 Z" clip-path="url(#clipPath2)" stroke-linecap="square"/>
      <text x="715.2037" font-size="14px" y="134.2221" clip-path="url(#clipPath2)" font-family="'Dialog'" font-style="italic" stroke="none" xml:space="preserve">1</text>
      <path fill="none" d="M1030.0431 125.5282 L890.9874 111.2265" clip-path="url(#clipPath2)"/>
      <path fill="white" d="M1037.0063 126.2443 L1029.5315 130.5019 L1023.0798 124.812 L1030.5546 120.5544 Z" clip-path="url(#clipPath2)" stroke="none"/>
      <path fill="none" d="M1037.0063 126.2443 L1029.5315 130.5019 L1023.0798 124.812 L1030.5546 120.5544 Z" clip-path="url(#clipPath2)"/>
      <path d="M887.0084 110.8173 L898.3315 118.0135 L887.0084 110.8173 L899.5593 106.0765 Z" clip-path="url(#clipPath2)" stroke="none"/>
      <path fill="none" stroke-miterlimit="10" d="M887.0084 110.8173 L898.3315 118.0135 L887.0084 110.8173 L899.5593 106.0765 Z" clip-path="url(#clipPath2)" stroke-linecap="square"/>
      <text x="896.5398" font-size="14px" y="134.7475" clip-path="url(#clipPath2)" font-family="'Dialog'" font-style="italic" stroke="none" xml:space="preserve">1</text>
      <path fill="none" stroke-dasharray="6,2" d="M1099.1062 173.0123 L889.355 455.0916" clip-path="url(#clipPath2)"/>
      <path stroke-dasharray="6,2" d="M884.5814 461.5113 L895.7541 454.8652 L889.9517 454.2891 L887.7295 448.8982 Z" clip-path="url(#clipPath2)" stroke="none"/>
    </g>
  </g>
</svg>
