<?xml version="1.0" encoding="UTF-8"?><svg xmlns="http://www.w3.org/2000/svg" xmlns:xlink="http://www.w3.org/1999/xlink" fill-opacity="1" color-rendering="auto" color-interpolation="auto" text-rendering="auto" stroke="black" stroke-linecap="square" width="746" stroke-miterlimit="10" shape-rendering="auto" stroke-opacity="1" fill="black" stroke-dasharray="none" font-weight="normal" stroke-width="1" height="774" font-family="'Dialog'" font-style="normal" stroke-linejoin="miter" font-size="12px" stroke-dashoffset="0" image-rendering="auto">
  <!--Generated by ySVG 2.6-->
  <defs id="genericDefs"/>
  <g>
    <defs id="defs1">
      <clipPath clipPathUnits="userSpaceOnUse" id="clipPath1">
        <path d="M0 0 L746 0 L746 774 L0 774 L0 0 Z"/>
      </clipPath>
    </defs>
    <g id="y.node.0">
      <g fill="white" text-rendering="geometricPrecision" shape-rendering="geometricPrecision" transform="matrix(1,0,0,1,122,-69)" stroke="white">
        <path d="M264.8665 79.8189 L414.8665 79.8189 L414.8665 241.0689 Q377.3665 203.5689 339.8665 241.0689 Q302.3665 278.5689 264.8665 241.0689 Z" stroke="none"/>
      </g>
      <g text-rendering="geometricPrecision" stroke-miterlimit="1.45" stroke-width="2" shape-rendering="geometricPrecision" transform="matrix(1,0,0,1,122,-69)" stroke-linecap="butt">
        <path fill="none" d="M264.8665 79.8189 L414.8665 79.8189 L414.8665 241.0689 Q377.3665 203.5689 339.8665 241.0689 Q302.3665 278.5689 264.8665 241.0689 Z"/>
      </g>
      <g>
        <g font-size="18px" stroke-linecap="butt" transform="matrix(1,0,0,1,122,-69)" text-rendering="geometricPrecision" font-family="'Comic Sans MS'" shape-rendering="geometricPrecision" font-weight="bold" stroke-miterlimit="1.45">
          <text x="299.683" xml:space="preserve" y="109.6558" stroke="none">Personnel</text>
          <text x="302.4251" xml:space="preserve" y="134.7398" stroke="none">Contract</text>
        </g>
      </g>
      <g/>
    </g>
    <g id="y.node.1">
      <g fill="white" text-rendering="geometricPrecision" shape-rendering="geometricPrecision" transform="matrix(1,0,0,1,122,-69)" stroke="white">
        <path d="M463.4152 167.588 L613.4152 167.588 L613.4152 328.838 Q575.9152 291.338 538.4152 328.838 Q500.9152 366.338 463.4152 328.838 Z" stroke="none"/>
      </g>
      <g text-rendering="geometricPrecision" stroke-miterlimit="1.45" stroke-width="2" shape-rendering="geometricPrecision" transform="matrix(1,0,0,1,122,-69)" stroke-linecap="butt">
        <path fill="none" d="M463.4152 167.588 L613.4152 167.588 L613.4152 328.838 Q575.9152 291.338 538.4152 328.838 Q500.9152 366.338 463.4152 328.838 Z"/>
      </g>
      <g>
        <g font-size="18px" stroke-linecap="butt" transform="matrix(1,0,0,1,122,-69)" text-rendering="geometricPrecision" font-family="'Comic Sans MS'" shape-rendering="geometricPrecision" font-weight="bold" stroke-miterlimit="1.45">
          <text x="518.9035" xml:space="preserve" y="197.4249" stroke="none">DeFi</text>
          <text x="500.9738" xml:space="preserve" y="222.5089" stroke="none">Contract</text>
        </g>
      </g>
      <g/>
    </g>
    <g id="y.node.2">
      <g text-rendering="geometricPrecision" shape-rendering="geometricPrecision" transform="matrix(1.233,0,0,1.2758,10.9049,189.1257)">
        <g>
          <svg xml:space="preserve" opacity="1" writing-mode="lr-tb" stop-color="rgb(0, 0, 0)" shape-rendering="auto" glyph-orientation-horizontal="0deg" color-profile="auto" lighting-color="rgb(255, 255, 255)" color="rgb(0, 0, 0)" font-weight="400" alignment-baseline="auto" font-style="normal" version="1.1" color-interpolation-filters="linearrgb" text-anchor="start" stroke-linecap="butt" color-interpolation="srgb" font-variant="normal" word-spacing="normal" fill-opacity="1" text-rendering="auto" clip-path="none" text-decoration="none" letter-spacing="normal" viewBox="0 0 57 65" glyph-orientation-vertical="auto" display="inline" font-size-adjust="none" overflow="hidden" fill="rgb(0, 0, 0)" font-stretch="normal" stroke-dasharray="none" id="svg1.Ebene_1" stroke-miterlimit="4" stop-opacity="1" color-rendering="auto" font-size="12" pointer-events="visiblepainted" mask="none" direction="ltr" baseline-shift="baseline" enable-background="new 0 0 57 65" fill-rule="nonzero" image-rendering="auto" stroke-dashoffset="0" width="57px" marker-end="none" clip="auto" cursor="auto" stroke="none" filter="none" visibility="visible" kerning="auto" stroke-width="1" font-family="&quot;Arial&quot;,&quot;Helvetica&quot;,sans-serif" flood-opacity="1" clip-rule="nonzero" src="none" height="65px" unicode-bidi="normal" stroke-linejoin="miter" stroke-opacity="1" flood-color="rgb(0, 0, 0)" dominant-baseline="auto" marker-start="none" x="0px" marker-mid="none" y="0px">
<g>
	
		<linearGradient gradientTransform="matrix(1 0 0 1 0.3203 -3091.7656)" x1="26.3398" x2="27.5807" gradientUnits="userSpaceOnUse" y1="3115.7266" y2="3145.5239" id="svg1.SVGID_1_">
		<stop offset="0.2711" style="stop-color:#FFAB4F"/>
		<stop offset="1" style="stop-color:#FFD28F"/>
	</linearGradient>
	<path fill="url(#svg1.SVGID_1_)" d="M49.529,51.225c-4.396-4.396-10.951-5.884-12.063-6.109   V37.8H19.278c0,0,0.038,6.903,0,6.868c0,0-6.874,0.997-12.308,6.432C1.378,56.691,0.5,62.77,0.5,62.77   c0,1.938,1.575,3.492,3.523,3.492h48.51c1.947,0,3.521-1.558,3.521-3.492C56.055,62.768,54.211,55.906,49.529,51.225z" stroke-miterlimit="10" stroke="#ED9135"/>
	
		<radialGradient gradientTransform="matrix(1 0 0 1 0.3203 -3091.7656)" gradientUnits="userSpaceOnUse" r="23.425" cx="27.5835" id="svg1.face_x5F_white_1_" cy="3117.4922" fx="23.0139" fy="3115.0024">
		<stop offset="0" style="stop-color:#FFD28F"/>
		<stop offset="1" style="stop-color:#FFAB4F"/>
	</radialGradient>
	<path fill="url(#svg1.face_x5F_white_1_)" id="svg1.face_x5F_white_3_" d="M43.676,23.357   c0.086,10.2-6.738,18.52-15.25,18.586c-8.5,0.068-15.464-8.146-15.55-18.344C12.794,13.4,19.618,5.079,28.123,5.012   C36.627,4.945,43.59,13.158,43.676,23.357z" stroke-miterlimit="10" stroke="#ED9135"/>
	
		<linearGradient gradientTransform="matrix(0.275 0 0 -0.2733 -1752.8849 -3351.7349)" x1="6468.501" x2="6492.1304" gradientUnits="userSpaceOnUse" y1="-12291.5195" y2="-12384.9688" id="svg1.face_highlight_1_">
		<stop offset="0" style="stop-color:#FFFFFF;stop-opacity:0.24"/>
		<stop offset="1" style="stop-color:#FFFFFF;stop-opacity:0.16"/>
	</linearGradient>
	<path fill="url(#svg1.face_highlight_1_)" id="svg1.face_highlight_3_" d="M28.415,5.625c-6.035,0.047-10.747,4.493-12.787,10.386   c-0.664,1.919-0.294,4.043,0.98,5.629c2.73,3.398,5.729,6.283,9.461,8.088c3.137,1.518,7.535,2.385,11.893,1.247   c2.274-0.592,3.988-2.459,4.375-4.766c0.187-1.094,0.293-2.289,0.283-3.553C42.54,13.244,36.729,5.56,28.415,5.625z"/>
	<path fill="#5C5C5C" d="M20.278,13.25   c3.417,4.333,9.333,6.917,9.333,6.917l-1.417-3.5c0,0,7.094,4.691,8.083,4.333c0.968-0.2-1.082-3.807-1.082-3.807   s3.138,1.795,4.854,3.969c1.803,2.28,4.285,3.504,4.285,3.504S47.027,2.719,27.289,2.744C8.278,2.709,12.058,27.678,12.058,27.678   L14.695,17c0,0,0.914,5.757,1.399,4.875C17.861,15.211,18.861,11.5,20.278,13.25z" id="svg1.Hair_Young_Black_1_" stroke="#353535" stroke-linecap="round" stroke-linejoin="round"/>
	
		<radialGradient gradientTransform="matrix(1 0 0 1 0.3203 -3091.7656)" id="svg1.collar_x5F_body_1_" r="32.4004" cx="14.9609" gradientUnits="userSpaceOnUse" cy="3148.9336">
		<stop offset="0" style="stop-color:#B0E8FF"/>
		<stop offset="1" style="stop-color:#74AEEE"/>
	</radialGradient>
	<path fill="url(#svg1.collar_x5F_body_1_)" d="M0.5,62.768c0,1.938,1.575,3.494,3.523,3.494   h48.51c1.947,0,3.521-1.559,3.521-3.494c0,0-1.844-6.861-6.525-11.543c-4.815-4.813-11.244-6.146-11.244-6.146   c-1.771,1.655-5.61,2.802-10.063,2.802c-4.453,0-8.292-1.146-10.063-2.802c0,0-5.755,0.586-11.189,6.021   C1.378,56.689,0.5,62.768,0.5,62.768z" id="svg1.collar_x5F_body_3_" stroke="#5491CF"/>
	
		<radialGradient gradientTransform="matrix(1 0 0 1 0.3203 -3091.7656)" id="svg1.collar_x5F_r_1_" r="9.2823" cx="31.2998" gradientUnits="userSpaceOnUse" cy="3139.0605">
		<stop offset="0" style="stop-color:#80CCFF"/>
		<stop offset="1" style="stop-color:#74AEEE"/>
	</radialGradient>
	<path fill="url(#svg1.collar_x5F_r_1_)" d="M38.159,41.381c0,0-0.574,2.369-3.013,4.441   c-2.108,1.795-5.783,2.072-5.783,2.072l3.974,6.217c0,0,2.957-1.637,5.009-3.848c1.922-2.072,1.37-5.479,1.37-5.479L38.159,41.381z   " id="svg1.collar_x5F_r_3_" stroke="#5491CF"/>
	
		<radialGradient gradientTransform="matrix(1 0 0 1 0.3203 -3091.7656)" id="svg1.collar_x5F_l_1_" r="9.2843" cx="18.9375" gradientUnits="userSpaceOnUse" cy="3139.1016">
		<stop offset="0" style="stop-color:#80CCFF"/>
		<stop offset="1" style="stop-color:#74AEEE"/>
	</radialGradient>
	<path fill="url(#svg1.collar_x5F_l_1_)" d="M18.63,41.422c0,0,0.576,2.369,3.012,4.441   c2.109,1.793,5.785,2.072,5.785,2.072l-3.974,6.217c0,0-2.957-1.637-5.007-3.85c-1.922-2.072-1.37-5.48-1.37-5.48L18.63,41.422z" id="svg1.collar_x5F_l_3_" stroke="#5491CF"/>
	
		<radialGradient gradientTransform="matrix(1 0 0 1 0.2402 -2319.0742)" id="svg1.Knob2_1_" r="0.9669" cx="27.6895" gradientUnits="userSpaceOnUse" cy="2375.2871">
		<stop offset="0" style="stop-color:#80CCFF"/>
		<stop offset="1" style="stop-color:#74AEEE"/>
	</radialGradient>
	<circle fill="url(#svg1.Knob2_1_)" r="0.584" id="svg1.Knob2_3_" cx="28.258" cy="56.254" stroke="#5491CF"/>
	
		<radialGradient gradientTransform="matrix(1 0 0 1 0.2402 -2319.0742)" id="svg1.Knob1_1_" r="0.9669" cx="27.7275" gradientUnits="userSpaceOnUse" cy="2381.5283">
		<stop offset="0" style="stop-color:#80CCFF"/>
		<stop offset="1" style="stop-color:#74AEEE"/>
	</radialGradient>
	<circle fill="url(#svg1.Knob1_1_)" r="0.584" id="svg1.Knob1_3_" cx="28.297" cy="62.499" stroke="#5491CF"/>
	
		<radialGradient gradientTransform="matrix(1 0 0 1 0.3203 -3091.7656)" id="svg1.jacket_x5F_body_2_" r="40.9197" cx="13.2065" gradientUnits="userSpaceOnUse" cy="3148.0576">
		<stop offset="0" style="stop-color:#D0D0D0"/>
		<stop offset="1" style="stop-color:#9B9B9B"/>
	</radialGradient>
	
		<path fill="url(#svg1.jacket_x5F_body_2_)" d="   M49.529,51.225c-4.434-4.434-10.223-5.91-11.112-6.117l-5.39,21.146h-8.858L18.927,45.68c-0.286-0.191-0.543-0.393-0.767-0.602   c0,0-5.755,0.586-11.189,6.02c-5.592,5.592-6.47,11.67-6.47,11.67c0,1.938,1.575,3.494,3.523,3.494h48.51   c1.948,0,3.521-1.559,3.521-3.494C56.055,62.768,54.211,55.906,49.529,51.225z" id="svg1.jacket_x5F_body_1_" stroke="#4B4B4B" stroke-linecap="round" stroke-linejoin="round"/>
	<polygon fill="#9B9B9B" id="svg1.jacket_x5F_r_1_" points="   38.932,42.076 42.168,46.374 40.788,55.67 37.385,56.5 38.652,59.125 34.576,66.252 33.027,66.252  " stroke="#4B4B4B" stroke-linecap="round" stroke-linejoin="round"/>
	<polygon fill="#B2B2B2" id="svg1.jacket_x5F_l_1_" points="   18.263,42.076 15.028,46.374 16.409,55.67 19.811,56.5 18.544,59.125 22.621,66.252 24.169,66.252  " stroke="#4B4B4B" stroke-linecap="round" stroke-linejoin="round"/>
	
		<radialGradient gradientTransform="matrix(1 0 0 -1 0.04 64.1543)" id="svg1.path5135_1_" r="6.0918" cx="26.9917" gradientUnits="userSpaceOnUse" cy="4.1973">
		<stop offset="0" style="stop-color:#FCB57A"/>
		<stop offset="1" style="stop-color:#FF8C36"/>
	</radialGradient>
	<path fill="url(#svg1.path5135_1_)" d="M27.427,55.221c0,0-1.848,2.057-2.079,6.543   c-0.231,4.488,0,4.488,0,4.488h6.544c0,0,0.23,0.063-0.152-4.363c-0.399-4.604-2.389-6.668-2.389-6.668H27.427z" id="svg1.path5135_2_" stroke="#E55E03"/>
	
		<radialGradient gradientTransform="matrix(1 0 0 -1 0.04 64.1543)" id="svg1.path5131_1_" r="4.8472" cx="26.7456" gradientUnits="userSpaceOnUse" cy="11.9678">
		<stop offset="0" style="stop-color:#FCB57A"/>
		<stop offset="1" style="stop-color:#FF8C36"/>
	</radialGradient>
	<path fill="url(#svg1.path5131_1_)" d="M28.313,48.68h0.122l2.551,4.002   c0.517,0.953-1.204,1.797-1.453,2.549l-2.279-0.016c-0.243-0.76-2.257-1.365-1.476-2.584L28.313,48.68z" id="svg1.path5131_2_" stroke="#E55E03"/>
</g>
</svg>
        </g>
      </g>
      <g/>
    </g>
    <g id="y.node.3">
      <a target="_blank" xlink:type="simple" xlink:href="https://etherscan.io/token/0x3B3ee1931Dc30C1957379FAc9aba94D1C48a5405?a=13623" xlink:show="new">
        <g fill="rgb(255,255,204)" text-rendering="geometricPrecision" shape-rendering="geometricPrecision" transform="matrix(1,0,0,1,122,-69)" stroke="rgb(255,255,204)">
          <circle r="15" cx="299.8299" cy="164.921" stroke="none"/>
        </g>
        <g text-rendering="geometricPrecision" stroke-miterlimit="1.45" stroke-width="2" shape-rendering="geometricPrecision" transform="matrix(1,0,0,1,122,-69)" stroke-linecap="butt">
          <circle fill="none" r="15" cx="299.8299" cy="164.921"/>
        </g>
        <g/>
      </a>
    </g>
    <g id="y.node.4">
      <a target="_blank" xlink:type="simple" xlink:href="https://etherscan.io/token/0x3B3ee1931Dc30C1957379FAc9aba94D1C48a5405?a=13623" xlink:show="new">
        <g fill="rgb(255,255,204)" text-rendering="geometricPrecision" shape-rendering="geometricPrecision" transform="matrix(1,0,0,1,122,-69)" stroke="rgb(255,255,204)">
          <circle r="15" cx="317.0626" cy="229.8189" stroke="none"/>
        </g>
        <g text-rendering="geometricPrecision" stroke-miterlimit="1.45" stroke-width="2" shape-rendering="geometricPrecision" transform="matrix(1,0,0,1,122,-69)" stroke-linecap="butt">
          <circle fill="none" r="15" cx="317.0626" cy="229.8189"/>
        </g>
        <g/>
      </a>
    </g>
    <g id="y.node.5">
      <a target="_blank" xlink:type="simple" xlink:href="https://etherscan.io/token/0x3B3ee1931Dc30C1957379FAc9aba94D1C48a5405?a=13623" xlink:show="new">
        <g fill="rgb(255,255,204)" text-rendering="geometricPrecision" shape-rendering="geometricPrecision" transform="matrix(1,0,0,1,122,-69)" stroke="rgb(255,255,204)">
          <circle r="15" cx="353.4462" cy="169.8189" stroke="none"/>
        </g>
        <g text-rendering="geometricPrecision" stroke-miterlimit="1.45" stroke-width="2" shape-rendering="geometricPrecision" transform="matrix(1,0,0,1,122,-69)" stroke-linecap="butt">
          <circle fill="none" r="15" cx="353.4462" cy="169.8189"/>
        </g>
        <g/>
      </a>
    </g>
    <g id="y.node.6">
      <g fill="rgb(255,204,153)" text-rendering="geometricPrecision" shape-rendering="geometricPrecision" transform="matrix(1,0,0,1,122,-69)" stroke="rgb(255,204,153)">
        <rect x="152.997" y="393.003" width="50" rx="4" ry="4" height="50" stroke="none"/>
      </g>
      <g stroke-linecap="butt" transform="matrix(1,0,0,1,122,-69)" fill="rgb(153,153,153)" text-rendering="geometricPrecision" shape-rendering="geometricPrecision" stroke="rgb(153,153,153)" stroke-width="3" stroke-miterlimit="1.45">
        <rect x="152.997" y="393.003" fill="none" width="50" rx="4" ry="4" height="50"/>
      </g>
      <g>
        <g font-size="16px" stroke-linecap="butt" transform="matrix(1,0,0,1,122,-69)" text-rendering="geometricPrecision" font-family="'Comic Sans MS'" shape-rendering="geometricPrecision" font-style="italic" stroke-miterlimit="1.45">
          <text x="161.8915" xml:space="preserve" y="424.4874" stroke="none">Soul</text>
        </g>
      </g>
    </g>
    <g id="y.node.7">
      <a target="_blank" xlink:type="simple" xlink:href="https://etherscan.io/token/0x3B3ee1931Dc30C1957379FAc9aba94D1C48a5405?a=13623" xlink:show="new">
        <g fill="rgb(204,255,255)" text-rendering="geometricPrecision" shape-rendering="geometricPrecision" transform="matrix(1,0,0,1,122,-69)" stroke="rgb(204,255,255)">
          <circle r="15" cx="503.6871" cy="249.921" stroke="none"/>
        </g>
        <g text-rendering="geometricPrecision" stroke-miterlimit="1.45" stroke-width="2" shape-rendering="geometricPrecision" transform="matrix(1,0,0,1,122,-69)" stroke-linecap="butt">
          <circle fill="none" r="15" cx="503.6871" cy="249.921"/>
        </g>
        <g/>
      </a>
    </g>
    <g id="y.node.8">
      <a target="_blank" xlink:type="simple" xlink:href="https://etherscan.io/token/0x3B3ee1931Dc30C1957379FAc9aba94D1C48a5405?a=13623" xlink:show="new">
        <g fill="rgb(204,255,255)" text-rendering="geometricPrecision" shape-rendering="geometricPrecision" transform="matrix(1,0,0,1,122,-69)" stroke="rgb(204,255,255)">
          <circle r="15" cx="558.6871" cy="249.921" stroke="none"/>
        </g>
        <g text-rendering="geometricPrecision" stroke-miterlimit="1.45" stroke-width="2" shape-rendering="geometricPrecision" transform="matrix(1,0,0,1,122,-69)" stroke-linecap="butt">
          <circle fill="none" r="15" cx="558.6871" cy="249.921"/>
        </g>
        <g/>
      </a>
    </g>
    <g id="y.node.9">
      <a target="_blank" xlink:type="simple" xlink:href="https://etherscan.io/token/0x3B3ee1931Dc30C1957379FAc9aba94D1C48a5405?a=13623" xlink:show="new">
        <g fill="rgb(204,255,255)" text-rendering="geometricPrecision" shape-rendering="geometricPrecision" transform="matrix(1,0,0,1,122,-69)" stroke="rgb(204,255,255)">
          <circle r="15" cx="493.6569" cy="313.1551" stroke="none"/>
        </g>
        <g text-rendering="geometricPrecision" stroke-miterlimit="1.45" stroke-width="2" shape-rendering="geometricPrecision" transform="matrix(1,0,0,1,122,-69)" stroke-linecap="butt">
          <circle fill="none" r="15" cx="493.6569" cy="313.1551"/>
        </g>
        <g/>
      </a>
    </g>
    <g id="y.node.10">
      <a target="_blank" xlink:type="simple" xlink:href="https://etherscan.io/token/0x3B3ee1931Dc30C1957379FAc9aba94D1C48a5405?a=13623" xlink:show="new">
        <g fill="rgb(204,255,255)" text-rendering="geometricPrecision" shape-rendering="geometricPrecision" transform="matrix(1,0,0,1,122,-69)" stroke="rgb(204,255,255)">
          <circle r="15" cx="528.6871" cy="288.1551" stroke="none"/>
        </g>
        <g text-rendering="geometricPrecision" stroke-miterlimit="1.45" stroke-width="2" shape-rendering="geometricPrecision" transform="matrix(1,0,0,1,122,-69)" stroke-linecap="butt">
          <circle fill="none" r="15" cx="528.6871" cy="288.1551"/>
        </g>
        <g/>
      </a>
    </g>
    <g id="y.node.11">
      <a target="_blank" xlink:type="simple" xlink:href="https://etherscan.io/token/0x3B3ee1931Dc30C1957379FAc9aba94D1C48a5405?a=13623" xlink:show="new">
        <g fill="rgb(204,255,255)" text-rendering="geometricPrecision" shape-rendering="geometricPrecision" transform="matrix(1,0,0,1,122,-69)" stroke="rgb(204,255,255)">
          <circle r="15" cx="590.8728" cy="289.6425" stroke="none"/>
        </g>
        <g text-rendering="geometricPrecision" stroke-miterlimit="1.45" stroke-width="2" shape-rendering="geometricPrecision" transform="matrix(1,0,0,1,122,-69)" stroke-linecap="butt">
          <circle fill="none" r="15" cx="590.8728" cy="289.6425"/>
        </g>
        <g/>
      </a>
    </g>
    <g id="y.node.12">
      <a target="_blank" xlink:type="simple" xlink:href="https://etherscan.io/token/0x3B3ee1931Dc30C1957379FAc9aba94D1C48a5405?a=13623" xlink:show="new">
        <g fill="rgb(255,255,204)" text-rendering="geometricPrecision" shape-rendering="geometricPrecision" transform="matrix(1,0,0,1,122,-69)" stroke="rgb(255,255,204)">
          <circle r="15" cx="389.8299" cy="191.1474" stroke="none"/>
        </g>
        <g text-rendering="geometricPrecision" stroke-miterlimit="1.45" stroke-width="2" shape-rendering="geometricPrecision" transform="matrix(1,0,0,1,122,-69)" stroke-linecap="butt">
          <circle fill="none" r="15" cx="389.8299" cy="191.1474"/>
        </g>
        <g/>
      </a>
    </g>
    <g id="y.node.13">
      <g fill="white" text-rendering="geometricPrecision" shape-rendering="geometricPrecision" transform="matrix(1,0,0,1,122,-69)" stroke="white">
        <path d="M449.5099 385.2551 L599.5099 385.2551 L599.5099 546.5051 Q562.0099 509.0051 524.5099 546.5051 Q487.0099 584.0051 449.5099 546.5051 Z" stroke="none"/>
      </g>
      <g text-rendering="geometricPrecision" stroke-miterlimit="1.45" stroke-width="2" shape-rendering="geometricPrecision" transform="matrix(1,0,0,1,122,-69)" stroke-linecap="butt">
        <path fill="none" d="M449.5099 385.2551 L599.5099 385.2551 L599.5099 546.5051 Q562.0099 509.0051 524.5099 546.5051 Q487.0099 584.0051 449.5099 546.5051 Z"/>
      </g>
      <g>
        <g font-size="18px" stroke-linecap="butt" transform="matrix(1,0,0,1,122,-69)" text-rendering="geometricPrecision" font-family="'Comic Sans MS'" shape-rendering="geometricPrecision" font-weight="bold" stroke-miterlimit="1.45">
          <text x="483.0915" xml:space="preserve" y="415.092" stroke="none">Education</text>
          <text x="487.0685" xml:space="preserve" y="440.176" stroke="none">Contract</text>
        </g>
      </g>
      <g/>
    </g>
    <g id="y.node.14">
      <a target="_blank" xlink:type="simple" xlink:href="https://etherscan.io/token/0x3B3ee1931Dc30C1957379FAc9aba94D1C48a5405?a=13623" xlink:show="new">
        <g fill="rgb(255,204,204)" text-rendering="geometricPrecision" shape-rendering="geometricPrecision" transform="matrix(1,0,0,1,122,-69)" stroke="rgb(255,204,204)">
          <circle r="15" cx="493.6569" cy="463.9917" stroke="none"/>
        </g>
        <g text-rendering="geometricPrecision" stroke-miterlimit="1.45" stroke-width="2" shape-rendering="geometricPrecision" transform="matrix(1,0,0,1,122,-69)" stroke-linecap="butt">
          <circle fill="none" r="15" cx="493.6569" cy="463.9917"/>
        </g>
        <g/>
      </a>
    </g>
    <g id="y.node.15">
      <a target="_blank" xlink:type="simple" xlink:href="https://etherscan.io/token/0x3B3ee1931Dc30C1957379FAc9aba94D1C48a5405?a=13623" xlink:show="new">
        <g fill="rgb(255,204,204)" text-rendering="geometricPrecision" shape-rendering="geometricPrecision" transform="matrix(1,0,0,1,122,-69)" stroke="rgb(255,204,204)">
          <circle r="15" cx="553.6569" cy="463.9917" stroke="none"/>
        </g>
        <g text-rendering="geometricPrecision" stroke-miterlimit="1.45" stroke-width="2" shape-rendering="geometricPrecision" transform="matrix(1,0,0,1,122,-69)" stroke-linecap="butt">
          <circle fill="none" r="15" cx="553.6569" cy="463.9917"/>
        </g>
        <g/>
      </a>
    </g>
    <g id="y.node.16">
      <a target="_blank" xlink:type="simple" xlink:href="https://etherscan.io/token/0x3B3ee1931Dc30C1957379FAc9aba94D1C48a5405?a=13623" xlink:show="new">
        <g fill="rgb(255,204,204)" text-rendering="geometricPrecision" shape-rendering="geometricPrecision" transform="matrix(1,0,0,1,122,-69)" stroke="rgb(255,204,204)">
          <circle r="15" cx="488.6569" cy="531.7591" stroke="none"/>
        </g>
        <g text-rendering="geometricPrecision" stroke-miterlimit="1.45" stroke-width="2" shape-rendering="geometricPrecision" transform="matrix(1,0,0,1,122,-69)" stroke-linecap="butt">
          <circle fill="none" r="15" cx="488.6569" cy="531.7591"/>
        </g>
        <g/>
      </a>
    </g>
    <g id="y.node.17">
      <a target="_blank" xlink:type="simple" xlink:href="https://etherscan.io/token/0x3B3ee1931Dc30C1957379FAc9aba94D1C48a5405?a=13623" xlink:show="new">
        <g fill="rgb(255,204,204)" text-rendering="geometricPrecision" shape-rendering="geometricPrecision" transform="matrix(1,0,0,1,122,-69)" stroke="rgb(255,204,204)">
          <circle r="15" cx="524.5099" cy="501.7591" stroke="none"/>
        </g>
        <g text-rendering="geometricPrecision" stroke-miterlimit="1.45" stroke-width="2" shape-rendering="geometricPrecision" transform="matrix(1,0,0,1,122,-69)" stroke-linecap="butt">
          <circle fill="none" r="15" cx="524.5099" cy="501.7591"/>
        </g>
        <g/>
      </a>
    </g>
    <g id="y.node.18">
      <a target="_blank" xlink:type="simple" xlink:href="https://etherscan.io/token/0x3B3ee1931Dc30C1957379FAc9aba94D1C48a5405?a=13623" xlink:show="new">
        <g fill="rgb(255,204,204)" text-rendering="geometricPrecision" shape-rendering="geometricPrecision" transform="matrix(1,0,0,1,122,-69)" stroke="rgb(255,204,204)">
          <circle r="15" cx="573.1896" cy="507.5591" stroke="none"/>
        </g>
        <g text-rendering="geometricPrecision" stroke-miterlimit="1.45" stroke-width="2" shape-rendering="geometricPrecision" transform="matrix(1,0,0,1,122,-69)" stroke-linecap="butt">
          <circle fill="none" r="15" cx="573.1896" cy="507.5591"/>
        </g>
        <g/>
      </a>
    </g>
    <g id="y.node.19">
      <g fill="white" text-rendering="geometricPrecision" shape-rendering="geometricPrecision" transform="matrix(1,0,0,1,122,-69)" stroke="white">
        <path d="M405.5581 598.9664 L555.558 598.9664 L555.558 760.2164 Q518.058 722.7164 480.5581 760.2164 Q443.0581 797.7164 405.5581 760.2164 Z" stroke="none"/>
      </g>
      <g text-rendering="geometricPrecision" stroke-miterlimit="1.45" stroke-width="2" shape-rendering="geometricPrecision" transform="matrix(1,0,0,1,122,-69)" stroke-linecap="butt">
        <path fill="none" d="M405.5581 598.9664 L555.558 598.9664 L555.558 760.2164 Q518.058 722.7164 480.5581 760.2164 Q443.0581 797.7164 405.5581 760.2164 Z"/>
      </g>
      <g>
        <g font-size="18px" stroke-linecap="butt" transform="matrix(1,0,0,1,122,-69)" text-rendering="geometricPrecision" font-family="'Comic Sans MS'" shape-rendering="geometricPrecision" font-weight="bold" stroke-miterlimit="1.45">
          <text x="456.5771" xml:space="preserve" y="628.8033" stroke="none">Event</text>
          <text x="443.1167" xml:space="preserve" y="653.8873" stroke="none">Contract</text>
        </g>
      </g>
      <g/>
    </g>
    <g id="y.node.20">
      <a target="_blank" xlink:type="simple" xlink:href="https://etherscan.io/token/0x3B3ee1931Dc30C1957379FAc9aba94D1C48a5405?a=13623" xlink:show="new">
        <g fill="rgb(204,255,255)" text-rendering="geometricPrecision" shape-rendering="geometricPrecision" transform="matrix(1,0,0,1,122,-69)" stroke="rgb(204,255,255)">
          <circle r="15" cx="445.8299" cy="685.2551" stroke="none"/>
        </g>
        <g text-rendering="geometricPrecision" stroke-miterlimit="1.45" stroke-width="2" shape-rendering="geometricPrecision" transform="matrix(1,0,0,1,122,-69)" stroke-linecap="butt">
          <circle fill="none" r="15" cx="445.8299" cy="685.2551"/>
        </g>
        <g/>
      </a>
    </g>
    <g id="y.node.21">
      <a target="_blank" xlink:type="simple" xlink:href="https://etherscan.io/token/0x3B3ee1931Dc30C1957379FAc9aba94D1C48a5405?a=13623" xlink:show="new">
        <g fill="rgb(204,255,255)" text-rendering="geometricPrecision" shape-rendering="geometricPrecision" transform="matrix(1,0,0,1,122,-69)" stroke="rgb(204,255,255)">
          <circle r="15" cx="500.8299" cy="685.2551" stroke="none"/>
        </g>
        <g text-rendering="geometricPrecision" stroke-miterlimit="1.45" stroke-width="2" shape-rendering="geometricPrecision" transform="matrix(1,0,0,1,122,-69)" stroke-linecap="butt">
          <circle fill="none" r="15" cx="500.8299" cy="685.2551"/>
        </g>
        <g/>
      </a>
    </g>
    <g id="y.node.22">
      <a target="_blank" xlink:type="simple" xlink:href="https://etherscan.io/token/0x3B3ee1931Dc30C1957379FAc9aba94D1C48a5405?a=13623" xlink:show="new">
        <g fill="rgb(204,255,255)" text-rendering="geometricPrecision" shape-rendering="geometricPrecision" transform="matrix(1,0,0,1,122,-69)" stroke="rgb(204,255,255)">
          <circle r="15" cx="435.7998" cy="745.2551" stroke="none"/>
        </g>
        <g text-rendering="geometricPrecision" stroke-miterlimit="1.45" stroke-width="2" shape-rendering="geometricPrecision" transform="matrix(1,0,0,1,122,-69)" stroke-linecap="butt">
          <circle fill="none" r="15" cx="435.7998" cy="745.2551"/>
        </g>
        <g/>
      </a>
    </g>
    <g id="y.node.23">
      <a target="_blank" xlink:type="simple" xlink:href="https://etherscan.io/token/0x3B3ee1931Dc30C1957379FAc9aba94D1C48a5405?a=13623" xlink:show="new">
        <g fill="rgb(204,255,255)" text-rendering="geometricPrecision" shape-rendering="geometricPrecision" transform="matrix(1,0,0,1,122,-69)" stroke="rgb(204,255,255)">
          <circle r="15" cx="470.8299" cy="723.4892" stroke="none"/>
        </g>
        <g text-rendering="geometricPrecision" stroke-miterlimit="1.45" stroke-width="2" shape-rendering="geometricPrecision" transform="matrix(1,0,0,1,122,-69)" stroke-linecap="butt">
          <circle fill="none" r="15" cx="470.8299" cy="723.4892"/>
        </g>
        <g/>
      </a>
    </g>
    <g id="y.node.24">
      <a target="_blank" xlink:type="simple" xlink:href="https://etherscan.io/token/0x3B3ee1931Dc30C1957379FAc9aba94D1C48a5405?a=13623" xlink:show="new">
        <g fill="rgb(204,255,255)" text-rendering="geometricPrecision" shape-rendering="geometricPrecision" transform="matrix(1,0,0,1,122,-69)" stroke="rgb(204,255,255)">
          <circle r="15" cx="525.3494" cy="715.2551" stroke="none"/>
        </g>
        <g text-rendering="geometricPrecision" stroke-miterlimit="1.45" stroke-width="2" shape-rendering="geometricPrecision" transform="matrix(1,0,0,1,122,-69)" stroke-linecap="butt">
          <circle fill="none" r="15" cx="525.3494" cy="715.2551"/>
        </g>
        <g/>
      </a>
    </g>
    <g id="y.node.25">
      <g fill="white" text-rendering="geometricPrecision" shape-rendering="geometricPrecision" transform="matrix(1,0,0,1,122,-69)" stroke="white">
        <path d="M211.2502 652.6379 L361.2502 652.6379 L361.2502 813.8879 Q323.7502 776.3879 286.2502 813.8879 Q248.7502 851.3879 211.2502 813.8879 Z" stroke="none"/>
      </g>
      <g text-rendering="geometricPrecision" stroke-miterlimit="1.45" stroke-width="2" shape-rendering="geometricPrecision" transform="matrix(1,0,0,1,122,-69)" stroke-linecap="butt">
        <path fill="none" d="M211.2502 652.6379 L361.2502 652.6379 L361.2502 813.8879 Q323.7502 776.3879 286.2502 813.8879 Q248.7502 851.3879 211.2502 813.8879 Z"/>
      </g>
      <g>
        <g font-size="18px" stroke-linecap="butt" transform="matrix(1,0,0,1,122,-69)" text-rendering="geometricPrecision" font-family="'Comic Sans MS'" shape-rendering="geometricPrecision" font-weight="bold" stroke-miterlimit="1.45">
          <text x="265.9871" xml:space="preserve" y="682.4748" stroke="none">DAO</text>
          <text x="234.6716" xml:space="preserve" y="707.5588" stroke="none">Membership</text>
          <text x="248.8088" xml:space="preserve" y="732.6428" stroke="none">Contract</text>
        </g>
      </g>
      <g/>
    </g>
    <g id="y.node.26">
      <a target="_blank" xlink:type="simple" xlink:href="https://etherscan.io/token/0x3B3ee1931Dc30C1957379FAc9aba94D1C48a5405?a=13623" xlink:show="new">
        <g fill="rgb(255,255,204)" text-rendering="geometricPrecision" shape-rendering="geometricPrecision" transform="matrix(1,0,0,1,122,-69)" stroke="rgb(255,255,204)">
          <circle r="15" cx="240.2136" cy="763.9664" stroke="none"/>
        </g>
        <g text-rendering="geometricPrecision" stroke-miterlimit="1.45" stroke-width="2" shape-rendering="geometricPrecision" transform="matrix(1,0,0,1,122,-69)" stroke-linecap="butt">
          <circle fill="none" r="15" cx="240.2136" cy="763.9664"/>
        </g>
        <g/>
      </a>
    </g>
    <g id="y.node.27">
      <a target="_blank" xlink:type="simple" xlink:href="https://etherscan.io/token/0x3B3ee1931Dc30C1957379FAc9aba94D1C48a5405?a=13623" xlink:show="new">
        <g fill="rgb(255,255,204)" text-rendering="geometricPrecision" shape-rendering="geometricPrecision" transform="matrix(1,0,0,1,122,-69)" stroke="rgb(255,255,204)">
          <circle r="15" cx="263.4462" cy="802.6379" stroke="none"/>
        </g>
        <g text-rendering="geometricPrecision" stroke-miterlimit="1.45" stroke-width="2" shape-rendering="geometricPrecision" transform="matrix(1,0,0,1,122,-69)" stroke-linecap="butt">
          <circle fill="none" r="15" cx="263.4462" cy="802.6379"/>
        </g>
        <g/>
      </a>
    </g>
    <g id="y.node.28">
      <a target="_blank" xlink:type="simple" xlink:href="https://etherscan.io/token/0x3B3ee1931Dc30C1957379FAc9aba94D1C48a5405?a=13623" xlink:show="new">
        <g fill="rgb(255,255,204)" text-rendering="geometricPrecision" shape-rendering="geometricPrecision" transform="matrix(1,0,0,1,122,-69)" stroke="rgb(255,255,204)">
          <circle r="15" cx="293.7136" cy="763.9664" stroke="none"/>
        </g>
        <g text-rendering="geometricPrecision" stroke-miterlimit="1.45" stroke-width="2" shape-rendering="geometricPrecision" transform="matrix(1,0,0,1,122,-69)" stroke-linecap="butt">
          <circle fill="none" r="15" cx="293.7136" cy="763.9664"/>
        </g>
        <g/>
      </a>
    </g>
    <g id="y.node.29">
      <a target="_blank" xlink:type="simple" xlink:href="https://etherscan.io/token/0x3B3ee1931Dc30C1957379FAc9aba94D1C48a5405?a=13623" xlink:show="new">
        <g fill="rgb(255,255,204)" text-rendering="geometricPrecision" shape-rendering="geometricPrecision" transform="matrix(1,0,0,1,122,-69)" stroke="rgb(255,255,204)">
          <circle r="15" cx="336.2136" cy="763.9664" stroke="none"/>
        </g>
        <g text-rendering="geometricPrecision" stroke-miterlimit="1.45" stroke-width="2" shape-rendering="geometricPrecision" transform="matrix(1,0,0,1,122,-69)" stroke-linecap="butt">
          <circle fill="none" r="15" cx="336.2136" cy="763.9664"/>
        </g>
        <g/>
      </a>
    </g>
    <g id="y.node.30">
      <g fill="white" text-rendering="geometricPrecision" shape-rendering="geometricPrecision" transform="matrix(1,0,0,1,122,-69)" stroke="white">
        <path d="M13.021 618.4667 L163.021 618.4667 L163.021 779.7167 Q125.521 742.2167 88.021 779.7167 Q50.521 817.2167 13.021 779.7167 Z" stroke="none"/>
      </g>
      <g text-rendering="geometricPrecision" stroke-miterlimit="1.45" stroke-width="2" shape-rendering="geometricPrecision" transform="matrix(1,0,0,1,122,-69)" stroke-linecap="butt">
        <path fill="none" d="M13.021 618.4667 L163.021 618.4667 L163.021 779.7167 Q125.521 742.2167 88.021 779.7167 Q50.521 817.2167 13.021 779.7167 Z"/>
      </g>
      <g>
        <g font-size="18px" stroke-linecap="butt" transform="matrix(1,0,0,1,122,-69)" text-rendering="geometricPrecision" font-family="'Comic Sans MS'" shape-rendering="geometricPrecision" font-weight="bold" stroke-miterlimit="1.45">
          <text x="42.6079" xml:space="preserve" y="648.3036" stroke="none">Community</text>
          <text x="36.4423" xml:space="preserve" y="673.3876" stroke="none">Membership</text>
          <text x="50.5795" xml:space="preserve" y="698.4716" stroke="none">Contract</text>
        </g>
      </g>
      <g/>
    </g>
    <g id="y.node.31">
      <a target="_blank" xlink:type="simple" xlink:href="https://etherscan.io/token/0x3B3ee1931Dc30C1957379FAc9aba94D1C48a5405?a=13623" xlink:show="new">
        <g fill="rgb(255,204,204)" text-rendering="geometricPrecision" shape-rendering="geometricPrecision" transform="matrix(1,0,0,1,122,-69)" stroke="rgb(255,204,204)">
          <circle r="15" cx="35.168" cy="727.8705" stroke="none"/>
        </g>
        <g text-rendering="geometricPrecision" stroke-miterlimit="1.45" stroke-width="2" shape-rendering="geometricPrecision" transform="matrix(1,0,0,1,122,-69)" stroke-linecap="butt">
          <circle fill="none" r="15" cx="35.168" cy="727.8705"/>
        </g>
        <g/>
      </a>
    </g>
    <g id="y.node.32">
      <a target="_blank" xlink:type="simple" xlink:href="https://etherscan.io/token/0x3B3ee1931Dc30C1957379FAc9aba94D1C48a5405?a=13623" xlink:show="new">
        <g fill="rgb(255,204,204)" text-rendering="geometricPrecision" shape-rendering="geometricPrecision" transform="matrix(1,0,0,1,122,-69)" stroke="rgb(255,204,204)">
          <circle r="15" cx="126.6705" cy="718.8705" stroke="none"/>
        </g>
        <g text-rendering="geometricPrecision" stroke-miterlimit="1.45" stroke-width="2" shape-rendering="geometricPrecision" transform="matrix(1,0,0,1,122,-69)" stroke-linecap="butt">
          <circle fill="none" r="15" cx="126.6705" cy="718.8705"/>
        </g>
        <g/>
      </a>
    </g>
    <g id="y.node.33">
      <a target="_blank" xlink:type="simple" xlink:href="https://etherscan.io/token/0x3B3ee1931Dc30C1957379FAc9aba94D1C48a5405?a=13623" xlink:show="new">
        <g fill="rgb(255,204,204)" text-rendering="geometricPrecision" shape-rendering="geometricPrecision" transform="matrix(1,0,0,1,122,-69)" stroke="rgb(255,204,204)">
          <circle r="15" cx="52.168" cy="772.6379" stroke="none"/>
        </g>
        <g text-rendering="geometricPrecision" stroke-miterlimit="1.45" stroke-width="2" shape-rendering="geometricPrecision" transform="matrix(1,0,0,1,122,-69)" stroke-linecap="butt">
          <circle fill="none" r="15" cx="52.168" cy="772.6379"/>
        </g>
        <g/>
      </a>
    </g>
    <g id="y.node.34">
      <a target="_blank" xlink:type="simple" xlink:href="https://etherscan.io/token/0x3B3ee1931Dc30C1957379FAc9aba94D1C48a5405?a=13623" xlink:show="new">
        <g fill="rgb(255,204,204)" text-rendering="geometricPrecision" shape-rendering="geometricPrecision" transform="matrix(1,0,0,1,122,-69)" stroke="rgb(255,204,204)">
          <circle r="15" cx="76.7007" cy="734.8705" stroke="none"/>
        </g>
        <g text-rendering="geometricPrecision" stroke-miterlimit="1.45" stroke-width="2" shape-rendering="geometricPrecision" transform="matrix(1,0,0,1,122,-69)" stroke-linecap="butt">
          <circle fill="none" r="15" cx="76.7007" cy="734.8705"/>
        </g>
        <g/>
      </a>
    </g>
    <g id="y.edge.1"/>
    <g id="y.edge.2"/>
    <g id="y.edge.5">
      <g stroke-linecap="butt" transform="matrix(1,0,0,1,122,-69)" text-rendering="geometricPrecision" shape-rendering="geometricPrecision" stroke-dasharray="12,4" stroke-width="2" stroke-miterlimit="1.45">
        <path fill="none" d="M-63.0708 306.9587 L153.0132 406.4946"/>
      </g>
    </g>
    <g id="y.edge.3">
      <g stroke-linecap="butt" transform="matrix(1,0,0,1,122,-69)" text-rendering="geometricPrecision" shape-rendering="geometricPrecision" stroke-dasharray="12,4" stroke-width="2" stroke-miterlimit="1.45">
        <path fill="none" d="M195.6661 393.0089 L344.7874 182.0674"/>
      </g>
      <g>
        <g font-size="16px" stroke-linecap="butt" transform="matrix(1,0,0,1,122,-69)" text-rendering="geometricPrecision" font-family="'Comic Sans MS'" shape-rendering="geometricPrecision" font-style="italic" stroke-miterlimit="1.45">
          <text x="151.9538" xml:space="preserve" y="285.8922" stroke="none">Worked at X</text>
          <text x="157.9968" xml:space="preserve" y="308.1891" stroke="none">for 3 years</text>
        </g>
      </g>
    </g>
    <g id="y.edge.4">
      <g stroke-linecap="butt" transform="matrix(1,0,0,1,122,-69)" text-rendering="geometricPrecision" shape-rendering="geometricPrecision" stroke-dasharray="12,4" stroke-width="2" stroke-miterlimit="1.45">
        <path fill="none" d="M203.0042 405.0973 L490.3575 256.8001"/>
      </g>
      <g>
        <g font-size="16px" stroke-linecap="butt" transform="matrix(1,0,0,1,122,-69)" text-rendering="geometricPrecision" font-family="'Comic Sans MS'" shape-rendering="geometricPrecision" font-style="italic" stroke-miterlimit="1.45">
          <text x="386.4343" xml:space="preserve" y="324.8922" stroke="none">Repaid</text>
          <text x="389.9929" xml:space="preserve" y="347.1891" stroke="none">a loan</text>
        </g>
      </g>
    </g>
    <g id="y.edge.0">
      <g stroke-linecap="butt" transform="matrix(1,0,0,1,122,-69)" text-rendering="geometricPrecision" shape-rendering="geometricPrecision" stroke-dasharray="12,4" stroke-width="2" stroke-miterlimit="1.45">
        <path fill="none" d="M203.0047 421.6464 L478.8136 461.8292"/>
      </g>
      <g>
        <g font-size="16px" stroke-linecap="butt" transform="matrix(1,0,0,1,122,-69)" text-rendering="geometricPrecision" font-family="'Comic Sans MS'" shape-rendering="geometricPrecision" font-style="italic" stroke-miterlimit="1.45">
          <text x="347.2116" xml:space="preserve" y="417.8922" stroke="none">Completed</text>
          <text x="355.0749" xml:space="preserve" y="440.1891" stroke="none">a course</text>
        </g>
      </g>
    </g>
    <g id="y.edge.6">
      <g stroke-linecap="butt" transform="matrix(1,0,0,1,122,-69)" text-rendering="geometricPrecision" shape-rendering="geometricPrecision" stroke-dasharray="12,4" stroke-width="2" stroke-miterlimit="1.45">
        <path fill="none" d="M201.8312 441.7856 L435.2118 674.66"/>
      </g>
      <g>
        <g font-size="16px" stroke-linecap="butt" transform="matrix(1,0,0,1,122,-69)" text-rendering="geometricPrecision" font-family="'Comic Sans MS'" shape-rendering="geometricPrecision" font-style="italic" stroke-miterlimit="1.45">
          <text x="333.9421" xml:space="preserve" y="540.8922" stroke="none">Attach</text>
          <text x="328.8718" xml:space="preserve" y="563.1891" stroke="none">an event</text>
        </g>
      </g>
    </g>
    <g id="y.edge.7"/>
    <g id="y.edge.8"/>
    <g id="y.edge.11"/>
    <g id="y.edge.9">
      <g stroke-linecap="butt" transform="matrix(1,0,0,1,122,-69)" text-rendering="geometricPrecision" shape-rendering="geometricPrecision" stroke-dasharray="12,4" stroke-width="2" stroke-miterlimit="1.45">
        <path fill="none" d="M186.3452 442.962 L288.9556 749.741"/>
      </g>
      <g>
        <g font-size="16px" stroke-linecap="butt" transform="matrix(1,0,0,1,122,-69)" text-rendering="geometricPrecision" font-family="'Comic Sans MS'" shape-rendering="geometricPrecision" font-style="italic" stroke-miterlimit="1.45">
          <text x="191.9079" xml:space="preserve" y="589.2845" stroke="none">Right to vote</text>
          <text x="207.5056" xml:space="preserve" y="611.5814" stroke="none">in a DAO</text>
        </g>
      </g>
    </g>
    <g id="y.edge.12"/>
    <g id="y.edge.10">
      <g stroke-linecap="butt" transform="matrix(1,0,0,1,122,-69)" text-rendering="geometricPrecision" shape-rendering="geometricPrecision" stroke-dasharray="12,4" stroke-width="2" stroke-miterlimit="1.45">
        <path fill="none" d="M169.9966 443.0291 L81.2682 720.5828"/>
      </g>
      <g>
        <g font-size="16px" stroke-linecap="butt" transform="matrix(1,0,0,1,122,-69)" text-rendering="geometricPrecision" font-family="'Comic Sans MS'" shape-rendering="geometricPrecision" font-style="italic" stroke-miterlimit="1.45">
          <text x="36.8601" xml:space="preserve" y="550.8922" stroke="none">Member of</text>
          <text x="30.7038" xml:space="preserve" y="573.1891" stroke="none">Y Community</text>
        </g>
      </g>
    </g>
  </g>
</svg>
